<svg width="24" height="24" viewBox="0 0 24 24" fill="none" xmlns="http://www.w3.org/2000/svg">
<path d="M9.7579 10.2369V9.00619C8.35628 8.30782 7.61963 6.73663 7.97932 5.2125C8.33901 3.68837 9.70034 2.61227 11.2664 2.61423C12.8323 2.6162 14.191 3.69572 14.5469 5.22071C14.9027 6.7457 14.1622 8.31508 12.7588 9.00992V9.2046C13.0014 9.05977 13.2805 8.98765 13.563 8.99683C13.8454 9.00601 14.1192 9.09609 14.3519 9.25638C15.8112 7.86928 16.1706 5.68124 15.2317 3.90024C14.2929 2.11924 12.2846 1.17926 10.3156 1.5993C8.34656 2.01934 6.89669 3.69695 6.76634 5.70606C6.636 7.71518 7.85702 9.56605 9.75528 10.2369H9.7579ZM11.6361 21.7498C11.5366 21.7498 11.4412 21.7893 11.3709 21.8596C11.3005 21.93 11.261 22.0254 11.261 22.1249C11.261 22.2244 11.3005 22.3198 11.3709 22.3901C11.4412 22.4605 11.5366 22.5 11.6361 22.5H17.6378C17.7373 22.5 17.8327 22.4605 17.9031 22.3901C17.9734 22.3198 18.013 22.2244 18.013 22.1249C18.013 22.0254 17.9734 21.93 17.9031 21.8596C17.8327 21.7893 17.7373 21.7498 17.6378 21.7498H11.6361Z" fill="#F59E0B"/>
<path d="M5.92484 15.3676C6.77351 15.4321 7.56719 15.8123 8.14923 16.4333C8.33377 16.6565 8.40019 16.7507 8.45755 16.8328C8.76531 17.2347 9.09965 17.6155 9.45833 17.9727C9.78363 18.3297 10.1473 18.6498 10.5428 18.927C11.1937 19.4551 11.6516 20.1838 11.8448 20.9995H17.6379C17.6627 20.9995 17.6859 21.0051 17.7104 21.0066C17.8191 20.8191 17.9354 20.6255 18.0761 20.4162C18.7633 19.3865 18.7633 18.7158 18.7633 17.2484V11.6218C18.7633 11.2075 18.4274 10.8716 18.0131 10.8716C17.5987 10.8716 17.2628 11.2075 17.2628 11.6218V12.7472C17.2628 12.8466 17.2233 12.9421 17.153 13.0124C17.0826 13.0827 16.9872 13.1223 16.8877 13.1223C16.7882 13.1223 16.6928 13.0827 16.6225 13.0124C16.5521 12.9421 16.5126 12.8466 16.5126 12.7472V10.8716C16.5126 10.4573 16.1767 10.1214 15.7624 10.1214C15.348 10.1214 15.0121 10.4573 15.0121 10.8716V12.372C15.0121 12.4715 14.9726 12.5669 14.9023 12.6373C14.8319 12.7076 14.7365 12.7472 14.637 12.7472C14.5375 12.7472 14.4421 12.7076 14.3718 12.6373C14.3014 12.5669 14.2619 12.4715 14.2619 12.372V10.4965C14.2619 10.0821 13.926 9.74624 13.5117 9.74624C13.0973 9.74624 12.7615 10.0821 12.7615 10.4965V11.9969C12.7615 12.0964 12.7219 12.1918 12.6516 12.2621C12.5812 12.3325 12.4858 12.372 12.3863 12.372C12.2869 12.372 12.1914 12.3325 12.1211 12.2621C12.0507 12.1918 12.0112 12.0964 12.0112 11.9969V6.05894C12.0218 5.64346 11.7118 5.28935 11.2985 5.24496C11.1969 5.23987 11.0953 5.25551 10.9999 5.29093C10.9045 5.32634 10.8173 5.38079 10.7437 5.45097C10.67 5.52114 10.6113 5.60557 10.5713 5.69912C10.5313 5.79267 10.5107 5.89339 10.5108 5.99514L10.5071 14.2475C10.5072 14.3811 10.4715 14.5123 10.4038 14.6274C10.336 14.7425 10.2387 14.8373 10.1218 14.9021C10.0037 14.9672 9.87033 14.9996 9.7355 14.9958C9.60068 14.9919 9.46933 14.9521 9.35511 14.8803C8.21442 14.1534 7.33254 13.779 5.96788 13.8717C5.57484 13.8886 5.26164 14.2063 5.25031 14.5996C5.23907 14.9928 5.53344 15.3281 5.92484 15.3676Z" fill="#F59E0B"/>
<path d="M13.8868 5.99526C13.8868 4.54511 12.7112 3.36951 11.261 3.36951C9.81086 3.36951 8.63525 4.54511 8.63525 5.99526C8.63489 6.41723 8.73714 6.83295 8.93318 7.2066C9.12923 7.58026 9.41319 7.90064 9.7606 8.14014V5.99526C9.76127 5.79175 9.80308 5.59048 9.88353 5.40354C9.96397 5.2166 10.0814 5.04786 10.2287 4.90746C10.3756 4.76581 10.5502 4.65604 10.7415 4.58503C10.9328 4.51403 11.1368 4.48333 11.3405 4.49485C12.1541 4.55676 12.7777 5.24327 12.7614 6.05906V8.14318C13.1087 7.90282 13.3925 7.58184 13.5885 7.20774C13.7845 6.83364 13.8868 6.4176 13.8868 5.99526Z" fill="#F59E0B"/>
</svg>
