<svg width="19" height="22" viewBox="0 0 19 22" fill="none" xmlns="http://www.w3.org/2000/svg">
<path d="M9.49868 4.36036C13.9414 4.36036 17.5428 7.89869 17.5428 12.2635V18.036C17.5428 18.2463 17.4578 18.4479 17.3065 18.5966C17.1551 18.7453 16.9499 18.8288 16.7359 18.8288H2.26147C2.04746 18.8288 1.84221 18.7453 1.69088 18.5966C1.53955 18.4479 1.45453 18.2463 1.45453 18.036V12.2635C1.45453 7.89869 5.05599 4.36036 9.49868 4.36036ZM8.79261 0H10.2047C10.2582 0 10.3096 0.0208816 10.3474 0.0580509C10.3852 0.0952203 10.4065 0.145633 10.4065 0.198198V2.57658C10.4065 2.62914 10.3852 2.67955 10.3474 2.71672C10.3096 2.75389 10.2582 2.77477 10.2047 2.77477H8.79261C8.7391 2.77477 8.68779 2.75389 8.64996 2.71672C8.61213 2.67955 8.59087 2.62914 8.59087 2.57658V0.198198C8.59087 0.145633 8.61213 0.0952203 8.64996 0.0580509C8.68779 0.0208816 8.7391 0 8.79261 0ZM1.05737 3.06365C1.07611 3.04522 1.09836 3.0306 1.12285 3.02063C1.14734 3.01065 1.17359 3.00552 1.2001 3.00552C1.22661 3.00552 1.25286 3.01065 1.27735 3.02063C1.30184 3.0306 1.32409 3.04522 1.34282 3.06365L3.05454 4.74536C3.09234 4.78253 3.11358 4.83292 3.11358 4.88546C3.11358 4.938 3.09234 4.9884 3.05454 5.02556L2.05595 6.00664C2.01813 6.04379 1.96683 6.06465 1.91335 6.06465C1.85987 6.06465 1.80858 6.04379 1.77075 6.00664L0.0590398 4.32493C0.0212359 4.28777 0 4.23737 0 4.18483C0 4.13229 0.0212359 4.0819 0.0590398 4.04473L1.05762 3.06365H1.05737ZM17.9425 3.06365L18.9411 4.04473C18.9788 4.08188 19 4.13223 19 4.18471C19 4.23719 18.9788 4.28753 18.9411 4.32468L17.2294 6.00689C17.2106 6.02532 17.1884 6.03994 17.1639 6.04991C17.1394 6.05989 17.1132 6.06502 17.0866 6.06502C17.0601 6.06502 17.0339 6.05989 17.0094 6.04991C16.9849 6.03994 16.9627 6.02532 16.9439 6.00689L15.9453 5.02581C15.9266 5.0074 15.9117 4.98554 15.9015 4.96148C15.8914 4.93742 15.8862 4.91163 15.8862 4.88559C15.8862 4.85954 15.8914 4.83375 15.9015 4.80969C15.9117 4.78563 15.9266 4.76377 15.9453 4.74536L17.6573 3.06365C17.6951 3.02651 17.7464 3.00564 17.7999 3.00564C17.8534 3.00564 17.9047 3.02651 17.9425 3.06365ZM1.42932 20.4144H17.568C17.782 20.4144 17.9873 20.4979 18.1386 20.6466C18.29 20.7953 18.375 20.9969 18.375 21.2072V21.8018C18.375 21.8544 18.3537 21.9048 18.3159 21.9419C18.2781 21.9791 18.2267 22 18.1732 22H0.824116C0.770613 22 0.719301 21.9791 0.681468 21.9419C0.643636 21.9048 0.622382 21.8544 0.622382 21.8018V21.2072C0.622382 20.9969 0.707398 20.7953 0.858728 20.6466C1.01006 20.4979 1.2153 20.4144 1.42932 20.4144ZM5.1614 12.5608V18.8288H6.77527V12.5608H5.1614Z" fill="#EA580C"/>
</svg>
