<svg width="24" height="24" viewBox="0 0 24 24" fill="none" xmlns="http://www.w3.org/2000/svg">
<path d="M17.625 4C17.9675 4 18.2494 3.99994 18.4795 4.01562C18.7141 4.03163 18.9317 4.06581 19.1406 4.15234C19.6305 4.35533 20.0197 4.74452 20.2227 5.23438C20.3092 5.44328 20.3434 5.66086 20.3594 5.89551C20.3751 6.12561 20.375 6.40752 20.375 6.75V9.75C20.375 10.0925 20.3751 10.3744 20.3594 10.6045C20.3434 10.8391 20.3092 11.0567 20.2227 11.2656C20.0197 11.7555 19.6305 12.1447 19.1406 12.3477C18.9317 12.4342 18.7141 12.4684 18.4795 12.4844C18.2494 12.5001 17.9675 12.5 17.625 12.5C17.2825 12.5 17.0006 12.5001 16.7705 12.4844C16.5359 12.4684 16.3183 12.4342 16.1094 12.3477C15.6195 12.1447 15.2303 11.7555 15.0273 11.2656C14.9408 11.0567 14.9066 10.8391 14.8906 10.6045C14.8749 10.3744 14.875 10.0925 14.875 9.75V6.75C14.875 6.40752 14.8749 6.12561 14.8906 5.89551C14.9066 5.66086 14.9408 5.44328 15.0273 5.23438C15.2303 4.74453 15.6195 4.35533 16.1094 4.15234C16.3183 4.06581 16.5359 4.03163 16.7705 4.01562C17.0006 3.99994 17.2825 4 17.625 4Z" fill="#311B92" stroke="#311B92"/>
<path d="M17.625 14.5C17.9675 14.5 18.2494 14.4999 18.4795 14.5156C18.7141 14.5316 18.9317 14.5658 19.1406 14.6523C19.6305 14.8553 20.0197 15.2445 20.2227 15.7344C20.3092 15.9433 20.3434 16.1609 20.3594 16.3955C20.3751 16.6256 20.375 16.9075 20.375 17.25C20.375 17.5925 20.3751 17.8744 20.3594 18.1045C20.3434 18.3391 20.3092 18.5567 20.2227 18.7656C20.0197 19.2555 19.6305 19.6447 19.1406 19.8477C18.9317 19.9342 18.7141 19.9684 18.4795 19.9844C18.2494 20.0001 17.9675 20 17.625 20C17.2825 20 17.0006 20.0001 16.7705 19.9844C16.5359 19.9684 16.3183 19.9342 16.1094 19.8477C15.6195 19.6447 15.2303 19.2555 15.0273 18.7656C14.9408 18.5567 14.9066 18.3391 14.8906 18.1045C14.8749 17.8744 14.875 17.5925 14.875 17.25C14.875 16.9075 14.8749 16.6256 14.8906 16.3955C14.9066 16.1609 14.9408 15.9433 15.0273 15.7344C15.2303 15.2445 15.6195 14.8553 16.1094 14.6523C16.3183 14.5658 16.5359 14.5316 16.7705 14.5156C17.0006 14.4999 17.2825 14.5 17.625 14.5Z" fill="#311B92" stroke="#311B92"/>
<path d="M9.375 11.5C10.068 11.5 10.6384 11.4991 11.0879 11.5596C11.5517 11.622 11.9611 11.758 12.2891 12.0859C12.617 12.4139 12.753 12.8233 12.8154 13.2871C12.8759 13.7366 12.875 14.307 12.875 15V16.5C12.875 17.193 12.8759 17.7634 12.8154 18.2129C12.753 18.6767 12.617 19.0861 12.2891 19.4141C11.9611 19.742 11.5517 19.878 11.0879 19.9404C10.6384 20.0009 10.068 20 9.375 20H7.875C7.18203 20 6.61164 20.0009 6.16211 19.9404C5.69835 19.878 5.2889 19.742 4.96094 19.4141C4.63297 19.0861 4.49697 18.6767 4.43457 18.2129C4.37413 17.7634 4.375 17.193 4.375 16.5V15C4.375 14.307 4.37413 13.7366 4.43457 13.2871C4.49697 12.8233 4.63297 12.4139 4.96094 12.0859C5.2889 11.758 5.69835 11.622 6.16211 11.5596C6.61164 11.4991 7.18203 11.5 7.875 11.5H9.375Z" fill="#311B92" stroke="#311B92"/>
<path d="M10.125 4C10.4675 4 10.7494 3.99994 10.9795 4.01562C11.2141 4.03163 11.4317 4.06581 11.6406 4.15234C12.1305 4.35533 12.5197 4.74452 12.7227 5.23438C12.8092 5.44328 12.8434 5.66086 12.8594 5.89551C12.8751 6.12561 12.875 6.40752 12.875 6.75C12.875 7.09248 12.8751 7.37439 12.8594 7.60449C12.8434 7.83914 12.8092 8.05672 12.7227 8.26562C12.5197 8.75548 12.1305 9.14467 11.6406 9.34766C11.4317 9.43419 11.2141 9.46837 10.9795 9.48438C10.7494 9.50006 10.4675 9.5 10.125 9.5H7.125C6.78252 9.5 6.50061 9.50006 6.27051 9.48438C6.03586 9.46837 5.81828 9.43419 5.60938 9.34766C5.11952 9.14467 4.73033 8.75547 4.52734 8.26562C4.44081 8.05672 4.40663 7.83914 4.39062 7.60449C4.37494 7.37439 4.375 7.09248 4.375 6.75C4.375 6.40752 4.37494 6.12561 4.39062 5.89551C4.40663 5.66086 4.44081 5.44328 4.52734 5.23438C4.73033 4.74453 5.11953 4.35533 5.60938 4.15234C5.81828 4.06581 6.03586 4.03163 6.27051 4.01562C6.50061 3.99994 6.78252 4 7.125 4H10.125Z" fill="#311B92" stroke="#311B92"/>
</svg>
