<svg width="24" height="24" viewBox="0 0 24 24" fill="none" xmlns="http://www.w3.org/2000/svg">
<path fill-rule="evenodd" clip-rule="evenodd" d="M9.08502 4.94653C8.57778 5.17051 8.09613 5.44843 7.64838 5.77549L5.7501 5.41815C5.5513 5.38046 5.34603 5.39667 5.15561 5.46509C4.96519 5.53351 4.79654 5.65165 4.66719 5.80724L4.66356 5.81087C3.98669 6.63784 3.44935 7.56976 3.07274 8.56986L3.07183 8.57258C3.00151 8.76234 2.98326 8.96747 3.01898 9.16667C3.05471 9.36587 3.1431 9.55188 3.27499 9.70538L4.53386 11.1701C4.474 11.7215 4.474 12.2776 4.53386 12.829L3.27499 14.2946C3.14229 14.4486 3.05341 14.6354 3.01767 14.8355C2.98192 15.0356 3.00063 15.2416 3.07183 15.432C3.44888 16.4316 3.98719 17.3627 4.66537 18.1882L4.66809 18.1909C4.93111 18.5084 5.34469 18.6571 5.7501 18.5809L7.64838 18.2236C8.09586 18.5513 8.57755 18.8296 9.08502 19.0535L9.72443 20.8765C9.85956 21.2647 10.196 21.5504 10.6024 21.6193L10.6078 21.6202C11.6622 21.7936 12.7379 21.7933 13.7922 21.6193L13.7958 21.6184C14.2012 21.5494 14.5377 21.2647 14.6737 20.8765L15.3141 19.0535C15.8213 18.8295 16.3029 18.5516 16.7507 18.2245L18.649 18.5819C18.8478 18.6195 19.053 18.6033 19.2435 18.5349C19.4339 18.4665 19.6025 18.3484 19.7319 18.1928L19.7355 18.1891C20.4124 17.3622 20.9497 16.4302 21.3263 15.4301L21.3272 15.4274C21.3976 15.2377 21.4158 15.0325 21.3801 14.8333C21.3444 14.6341 21.256 14.4481 21.1241 14.2946L19.8652 12.8299C19.9251 12.2785 19.9251 11.7224 19.8652 11.171L21.1241 9.70538C21.2568 9.55142 21.3457 9.36462 21.3814 9.16453C21.4171 8.96444 21.3984 8.75842 21.3272 8.56804C20.9502 7.5684 20.4119 6.63731 19.7337 5.81177L19.731 5.80905C19.6019 5.6533 19.4335 5.53497 19.2432 5.46638C19.0529 5.39779 18.8477 5.38145 18.649 5.41906L16.7507 5.7764C16.3032 5.44866 15.8215 5.17041 15.3141 4.94653L14.6746 3.12353L14.6756 3.12534C14.609 2.93398 14.4924 2.76395 14.3378 2.63299C14.1833 2.50202 13.9964 2.41491 13.7967 2.38072L13.7913 2.37981C12.7369 2.20642 11.6612 2.20673 10.6069 2.38072L10.6033 2.38163C10.1979 2.45056 9.86138 2.73535 9.72533 3.12353L9.08502 4.94653ZM12.3555 9.42875L10.7529 14.2366C10.7246 14.3213 10.7133 14.4108 10.7196 14.4999C10.7259 14.589 10.7497 14.676 10.7896 14.756C10.8295 14.8359 10.8848 14.9072 10.9523 14.9657C11.0197 15.0243 11.0981 15.069 11.1828 15.0973C11.354 15.1544 11.5408 15.1412 11.7022 15.0606C11.8636 14.98 11.9864 14.8385 12.0435 14.6674L13.6461 9.85865C13.6757 9.77357 13.6882 9.68345 13.6826 9.59353C13.6771 9.50362 13.6538 9.41569 13.614 9.33486C13.5743 9.25402 13.5188 9.18189 13.451 9.12266C13.3831 9.06342 13.3041 9.01826 13.2187 8.98979C13.1332 8.96132 13.0429 8.95011 12.9531 8.95681C12.8632 8.96352 12.7756 8.988 12.6953 9.02883C12.615 9.06967 12.5436 9.12605 12.4853 9.19471C12.427 9.26336 12.3829 9.34291 12.3555 9.42875ZM14.1967 10.9262L15.3186 12.0481L14.1967 13.17C14.0728 13.2983 14.0043 13.4702 14.006 13.6485C14.0076 13.8269 14.0792 13.9975 14.2054 14.1235C14.3316 14.2496 14.5022 14.3211 14.6806 14.3225C14.8589 14.324 15.0307 14.2553 15.159 14.1314L16.7616 12.5288C16.8248 12.4656 16.8749 12.3906 16.9091 12.308C16.9434 12.2255 16.961 12.137 16.961 12.0476C16.961 11.9583 16.9434 11.8698 16.9091 11.7872C16.8749 11.7046 16.8248 11.6296 16.7616 11.5665L15.159 9.96386C15.0958 9.90068 15.0208 9.85056 14.9382 9.81636C14.8557 9.78217 14.7672 9.76456 14.6778 9.76456C14.5885 9.76456 14.5 9.78217 14.4174 9.81636C14.3349 9.85056 14.2599 9.90068 14.1967 9.96386C14.1335 10.027 14.0834 10.1021 14.0492 10.1846C14.015 10.2672 13.9974 10.3556 13.9974 10.445C13.9974 10.5344 14.015 10.6228 14.0492 10.7054C14.0834 10.788 14.1335 10.863 14.1967 10.9262ZM9.24011 9.96386L7.6375 11.5665C7.57429 11.6296 7.52414 11.7046 7.48993 11.7872C7.45572 11.8698 7.43811 11.9583 7.43811 12.0476C7.43811 12.137 7.45572 12.2255 7.48993 12.308C7.52414 12.3906 7.57429 12.4656 7.6375 12.5288L9.24011 14.1314C9.36834 14.2553 9.54013 14.324 9.71849 14.3225C9.89684 14.3211 10.0675 14.2496 10.1937 14.1235C10.3198 13.9975 10.3915 13.8269 10.3931 13.6485C10.3947 13.4702 10.3262 13.2983 10.2024 13.17L9.08048 12.0481L10.2024 10.9262C10.2656 10.863 10.3157 10.788 10.3499 10.7054C10.3841 10.6228 10.4017 10.5344 10.4017 10.445C10.4017 10.3556 10.3841 10.2672 10.3499 10.1846C10.3157 10.1021 10.2656 10.027 10.2024 9.96386C10.1392 9.90068 10.0642 9.85056 9.98165 9.81636C9.89909 9.78217 9.81061 9.76456 9.72125 9.76456C9.63189 9.76456 9.54341 9.78217 9.46086 9.81636C9.3783 9.85056 9.30329 9.90068 9.24011 9.96386Z" fill="#DB2777"/>
</svg>
