<svg width="24" height="24" viewBox="0 0 24 24" fill="none" xmlns="http://www.w3.org/2000/svg">
<path fill-rule="evenodd" clip-rule="evenodd" d="M20.0804 13.519C18.3033 13.519 17.4117 15.672 18.6682 16.9284C18.7794 17.0396 18.8418 17.1904 18.8418 17.3477C18.8418 17.5049 18.7794 17.6557 18.6682 17.7669L17.392 19.0431C17.3369 19.0982 17.2716 19.1419 17.1996 19.1717C17.1277 19.2015 17.0506 19.2168 16.9727 19.2168C16.8949 19.2168 16.8178 19.2015 16.7458 19.1717C16.6739 19.1419 16.6085 19.0982 16.5535 19.0431C15.5794 18.069 14.0669 18.3862 13.436 19.4058V19.2685L13.8952 18.7828C13.9544 18.7201 14.0004 18.646 14.0302 18.5651C14.0601 18.4842 14.0733 18.398 14.069 18.3119C14.0647 18.2257 14.043 18.1413 14.0053 18.0637C13.9675 17.9862 13.9144 17.9171 13.8493 17.8606L13.5418 17.5942L13.9322 17.2665C13.9999 17.2097 14.0551 17.1394 14.0942 17.0602C14.1334 16.9809 14.1557 16.8944 14.1597 16.8061C14.1638 16.7178 14.1494 16.6296 14.1177 16.5472C14.0859 16.4647 14.0374 16.3897 13.9752 16.3269L13.6207 15.9693C14.517 15.5212 15.234 14.7811 15.6535 13.8709C16.073 12.9608 16.17 11.9349 15.9285 10.9623C15.6869 9.98966 15.1213 9.12832 14.3248 8.52015C13.5282 7.91198 12.5483 7.59327 11.5464 7.61653C10.5445 7.63978 9.58042 8.0036 8.81296 8.64807C8.04549 9.29253 7.52044 10.1792 7.32429 11.162C7.12814 12.1448 7.27259 13.165 7.73386 14.0547C8.19513 14.9444 8.94569 15.6505 9.8619 16.0566V19.4045C9.23142 18.3842 7.71962 18.0679 6.74434 19.0431C6.63317 19.1543 6.4824 19.2167 6.32519 19.2167C6.16798 19.2167 6.01721 19.1543 5.90604 19.0431L4.62996 17.767C4.51878 17.6558 4.45631 17.505 4.45631 17.3477C4.45631 17.1905 4.51878 17.0397 4.62996 16.9285C5.88649 15.672 4.99487 13.5191 3.21777 13.5191C3.06058 13.5191 2.90982 13.4567 2.79866 13.3455C2.6875 13.2344 2.62503 13.0836 2.625 12.9265V11.1216C2.625 11.0438 2.64032 10.9667 2.67011 10.8948C2.6999 10.8229 2.74356 10.7575 2.79861 10.7025C2.85365 10.6474 2.919 10.6038 2.99092 10.574C3.06284 10.5442 3.13992 10.5289 3.21777 10.5289C4.99487 10.5289 5.88649 8.37594 4.62996 7.11945C4.51879 7.00826 4.45633 6.85745 4.45633 6.70021C4.45633 6.54297 4.51879 6.39217 4.62996 6.28097L5.90619 5.00477C5.96125 4.94972 6.02661 4.90604 6.09854 4.87624C6.17048 4.84645 6.24758 4.83111 6.32544 4.83111C6.4033 4.83111 6.4804 4.84645 6.55233 4.87624C6.62426 4.90604 6.68963 4.94972 6.74468 5.00477C8.00121 6.2613 10.1541 5.3695 10.1541 3.59258C10.1542 3.43544 10.2166 3.28474 10.3277 3.17362C10.4388 3.0625 10.5895 3.00005 10.7467 3H12.5515C12.6293 3 12.7064 3.01532 12.7783 3.04511C12.8503 3.0749 12.9156 3.11856 12.9706 3.17361C13.0257 3.22865 13.0694 3.294 13.0991 3.36592C13.1289 3.43784 13.1443 3.51492 13.1443 3.59277C13.1443 5.36987 15.2972 6.26149 16.5537 5.00496C16.6649 4.89378 16.8157 4.83131 16.9729 4.83131C17.1302 4.83131 17.281 4.89378 17.3922 5.00496L18.6684 6.28116C18.7796 6.39235 18.842 6.54316 18.842 6.7004C18.842 6.85764 18.7796 7.00844 18.6684 7.11964C17.4119 8.37613 18.3035 10.5291 20.0806 10.5291C20.2377 10.5291 20.3885 10.5915 20.4996 10.7027C20.6107 10.8138 20.6731 10.9645 20.6732 11.1217V12.9265C20.6731 13.0837 20.6106 13.2344 20.4995 13.3455C20.3883 13.4566 20.2376 13.519 20.0804 13.519ZM12.9733 14.7592C13.5922 14.4594 14.0912 13.9586 14.3885 13.3385C14.6859 12.7184 14.764 12.0158 14.6103 11.3455C14.4565 10.6753 14.0799 10.077 13.542 9.64851C13.0041 9.22004 12.3368 8.98674 11.6491 8.98674C10.9614 8.98674 10.2941 9.22004 9.75618 9.64851C9.21829 10.077 8.84168 10.6753 8.68791 11.3455C8.53415 12.0158 8.61233 12.7184 8.90968 13.3385C9.20703 13.9586 9.70595 14.4594 10.3249 14.7592C10.3441 14.7682 10.3603 14.7826 10.3716 14.8006C10.3829 14.8186 10.3887 14.8394 10.3885 14.8607V19.7152C10.3882 19.7299 10.391 19.7444 10.3965 19.758C10.402 19.7716 10.4103 19.7839 10.4207 19.7942L11.5685 20.9659C11.579 20.9767 11.5915 20.9853 11.6053 20.9911C11.6192 20.997 11.6341 21 11.6491 21C11.6641 21 11.679 20.997 11.6928 20.9911C11.7067 20.9853 11.7192 20.9767 11.7297 20.9659L12.8775 19.7942C12.8879 19.7839 12.8962 19.7716 12.9017 19.758C12.9072 19.7444 12.91 19.7299 12.9097 19.7152V19.104C12.9095 19.0896 12.9121 19.0754 12.9174 19.0621C12.9227 19.0488 12.9306 19.0367 12.9406 19.0265L13.5128 18.4211C13.5233 18.4101 13.5315 18.397 13.5368 18.3827C13.5421 18.3684 13.5445 18.3532 13.5437 18.338C13.5429 18.3228 13.5391 18.3078 13.5324 18.2941C13.5257 18.2805 13.5163 18.2683 13.5047 18.2583L12.8307 17.6744C12.8184 17.6637 12.8085 17.6505 12.8018 17.6356C12.7951 17.6207 12.7916 17.6046 12.7918 17.5883C12.7919 17.5719 12.7956 17.5559 12.8025 17.5411C12.8095 17.5263 12.8195 17.5132 12.832 17.5027L13.594 16.8633C13.606 16.8533 13.6158 16.8409 13.6227 16.8269C13.6296 16.8129 13.6336 16.7976 13.6343 16.782C13.635 16.7664 13.6324 16.7508 13.6268 16.7363C13.6212 16.7217 13.6125 16.7085 13.6015 16.6974L12.9425 16.0328C12.932 16.0225 12.9237 16.0101 12.918 15.9965C12.9124 15.9828 12.9096 15.9682 12.9099 15.9534V14.8606C12.9096 14.8394 12.9154 14.8185 12.9267 14.8005C12.9379 14.7826 12.9541 14.7682 12.9733 14.7592ZM11.6491 11.5603C11.2978 11.5603 11.013 11.2325 11.013 10.8281C11.013 10.4237 11.2978 10.0959 11.6491 10.0959C12.0004 10.0959 12.2852 10.4237 12.2852 10.8281C12.2852 11.2325 12.0004 11.5603 11.6491 11.5603Z" fill="#5CC97A"/>
</svg>
