<svg width="24" height="24" viewBox="0 0 24 24" fill="none" xmlns="http://www.w3.org/2000/svg">
<path d="M16.6168 1H7.39419C3.38819 1 1 3.387 1 7.391V16.598C1 20.613 3.38819 23 7.39419 23H16.6058C20.6118 23 23 20.613 23 16.609V7.391C23.011 3.387 20.6228 1 16.6168 1ZM8.12055 10.878C8.43971 10.559 8.96797 10.559 9.28713 10.878L11.1801 12.77V5.961C11.1801 5.51 11.5543 5.136 12.0055 5.136C12.4567 5.136 12.8309 5.51 12.8309 5.961V12.77L14.7238 10.878C15.043 10.559 15.5713 10.559 15.8904 10.878C16.2096 11.197 16.2096 11.725 15.8904 12.044L12.5888 15.344C12.5117 15.421 12.4237 15.476 12.3246 15.52C12.2256 15.564 12.1155 15.586 12.0055 15.586C11.8954 15.586 11.7964 15.564 11.6863 15.52C11.5873 15.476 11.4992 15.421 11.4222 15.344L8.12055 12.044C7.80139 11.725 7.80139 11.208 8.12055 10.878ZM18.8729 17.742C16.6608 18.479 14.3386 18.853 12.0055 18.853C9.67232 18.853 7.35016 18.479 5.13806 17.742C4.70885 17.599 4.47773 17.126 4.6208 16.697C4.76388 16.268 5.22611 16.026 5.66633 16.18C9.76036 17.544 14.2616 17.544 18.3556 16.18C18.7849 16.037 19.2581 16.268 19.4012 16.697C19.5332 17.137 19.3021 17.599 18.8729 17.742Z" fill="#7C3AED"/>
</svg>
