<svg width="24" height="24" viewBox="0 0 24 24" fill="none" xmlns="http://www.w3.org/2000/svg">
<path fill-rule="evenodd" clip-rule="evenodd" d="M18.0743 19.4623L19.522 20.8278C19.6271 20.9381 19.7697 21 19.9184 21C20.0671 20.9999 20.2096 20.9379 20.3147 20.8275C20.4198 20.7171 20.4788 20.5674 20.4788 20.4113C20.4787 20.2553 20.4196 20.1056 20.3144 19.9953L18.915 18.6804C19.3983 18.0538 19.6615 17.2716 19.6604 16.4653C19.6604 14.5173 18.1533 12.9353 16.2977 12.9353C14.4421 12.9353 12.9351 14.5173 12.9351 16.4653C12.9351 18.4133 14.4421 19.9953 16.2977 19.9953C16.9501 19.9953 17.5587 19.8 18.0743 19.4623ZM16.2977 14.112C17.5352 14.112 18.5395 15.1663 18.5395 16.4653C18.5395 17.7643 17.5352 18.8186 16.2977 18.8186C15.0603 18.8186 14.0559 17.7643 14.0559 16.4653C14.0559 15.1663 15.0603 14.112 16.2977 14.112Z" fill="#5CC97A"/>
<path d="M14.9219 3C17.1166 3 18.8962 4.77901 18.8965 6.97363V13.3232C18.1931 12.6703 17.2645 12.2725 16.2471 12.2725C14.0541 12.2725 12.2725 14.119 12.2725 16.3916C12.2725 17.3337 12.58 18.2022 13.0947 18.8965H6.97363C4.77901 18.8962 3 17.1166 3 14.9219V6.97363C3.00025 4.77917 4.77917 3.00025 6.97363 3H14.9219ZM6 14.4004C5.44772 14.4004 5 14.8481 5 15.4004C5.00021 15.9525 5.44784 16.4004 6 16.4004H10C10.5522 16.4004 10.9998 15.9525 11 15.4004C11 14.8481 10.5523 14.4004 10 14.4004H6ZM6 10.2002C5.44772 10.2002 5 10.6479 5 11.2002C5.00012 11.7524 5.44779 12.2002 6 12.2002H7C7.55221 12.2002 7.99988 11.7524 8 11.2002C8 10.6479 7.55228 10.2002 7 10.2002H6ZM10.3115 10.2002C9.75935 10.2003 9.31152 10.648 9.31152 11.2002C9.31164 11.7523 9.75942 12.2001 10.3115 12.2002H14.3115C14.8637 12.2002 15.3114 11.7524 15.3115 11.2002C15.3115 10.6479 14.8638 10.2002 14.3115 10.2002H10.3115ZM6 6C5.44772 6 5 6.44772 5 7C5 7.55228 5.44772 8 6 8H15C15.5523 8 16 7.55228 16 7C16 6.44772 15.5523 6 15 6H6Z" fill="#5CC97A"/>
</svg>
