<svg width="24" height="24" viewBox="0 0 24 24" fill="none" xmlns="http://www.w3.org/2000/svg">
<path fill-rule="evenodd" clip-rule="evenodd" d="M12.2903 5.25C14.3694 5.31408 16.3614 6.09925 17.925 7.47096L15.3017 9.35171C14.409 8.74739 13.3671 8.40058 12.2903 8.3493V5.25011V5.25ZM18.8149 15.9346C18.7379 15.9346 18.6641 15.904 18.6096 15.8495C18.5552 15.7951 18.5246 15.7213 18.5246 15.6443C18.5246 15.5673 18.5552 15.4934 18.6096 15.439C18.6641 15.3845 18.7379 15.3539 18.8149 15.3539H19.3527V14.8162C19.3527 14.7392 19.3833 14.6653 19.4377 14.6109C19.4922 14.5564 19.566 14.5258 19.643 14.5258C19.72 14.5258 19.7939 14.5564 19.8483 14.6109C19.9028 14.6653 19.9333 14.7392 19.9333 14.8162V15.3539H20.4711C20.5481 15.3539 20.622 15.3845 20.6764 15.439C20.7309 15.4934 20.7615 15.5673 20.7615 15.6443C20.7615 15.7213 20.7309 15.7951 20.6764 15.8495C20.622 15.904 20.5481 15.9346 20.4711 15.9346H19.9333V16.4724C19.9333 16.5494 19.9028 16.6232 19.8483 16.6777C19.7939 16.7321 19.72 16.7627 19.643 16.7627C19.566 16.7627 19.4922 16.7321 19.4377 16.6777C19.3833 16.6232 19.3527 16.5494 19.3527 16.4724V15.9346H18.8149ZM3.61292 15.9346C3.53592 15.9346 3.46207 15.904 3.40763 15.8495C3.35318 15.7951 3.32259 15.7213 3.32259 15.6443C3.32259 15.5673 3.35318 15.4934 3.40763 15.439C3.46207 15.3845 3.53592 15.3539 3.61292 15.3539H5.26917C5.34617 15.3539 5.42001 15.3845 5.47446 15.439C5.5289 15.4934 5.55949 15.5673 5.55949 15.6443C5.55949 15.7213 5.5289 15.7951 5.47446 15.8495C5.42001 15.904 5.34617 15.9346 5.26917 15.9346H3.61292ZM19.4274 7.10828L14.2573 10.8151C14.8595 11.1634 15.3736 11.6453 15.7601 12.2237L19.4276 7.10828H19.4274ZM12 10.7924C12.7789 10.7924 13.5403 11.0234 14.1879 11.4561C14.8355 11.8888 15.3403 12.5039 15.6384 13.2235C15.9364 13.9431 16.0144 14.7349 15.8625 15.4988C15.7105 16.2627 15.3355 16.9645 14.7847 17.5152C14.2339 18.066 13.5322 18.441 12.7683 18.593C12.0044 18.7449 11.2126 18.6669 10.493 18.3689C9.77337 18.0708 9.15832 17.566 8.7256 16.9184C8.29288 16.2708 8.06192 15.5094 8.06192 14.7305C8.06192 13.6861 8.47683 12.6844 9.21536 11.9459C9.95389 11.2073 10.9556 10.7924 12 10.7924ZM12 15.2673C11.5845 15.2673 11.1824 15.4146 10.8652 15.6831C10.548 15.9515 10.3362 16.3236 10.2674 16.7334H13.7326C13.6638 16.3236 13.452 15.9515 13.1348 15.6831C12.8176 15.4146 12.4155 15.2673 12 15.2673ZM12 12.1469C12.3121 12.1468 12.6154 12.2509 12.8616 12.4428C13.1078 12.6347 13.2829 12.9033 13.3591 13.206C13.4352 13.5087 13.4081 13.8282 13.2819 14.1137C13.1558 14.3993 12.9379 14.6345 12.6629 14.7821C13.1463 14.9253 13.5706 15.2209 13.8723 15.6249C14.174 16.0289 14.337 16.5196 14.3371 17.0238C14.3371 17.1008 14.3065 17.1746 14.2521 17.2291C14.1976 17.2835 14.1238 17.3141 14.0468 17.3141H9.95323C9.87623 17.3141 9.80239 17.2835 9.74794 17.2291C9.69349 17.1746 9.66291 17.1008 9.66291 17.0238C9.66296 16.5196 9.82601 16.0289 10.1277 15.6249C10.4295 15.2209 10.8537 14.9253 11.3372 14.7821C11.0621 14.6345 10.8442 14.3993 10.7181 14.1137C10.592 13.8282 10.5648 13.5087 10.641 13.206C10.7171 12.9033 10.8922 12.6347 11.1384 12.4428C11.3846 12.251 11.6879 12.1468 12 12.1469ZM12 12.7276C11.8378 12.7276 11.6792 12.7757 11.5443 12.8658C11.4095 12.9559 11.3043 13.084 11.2423 13.2339C11.1802 13.3837 11.164 13.5486 11.1956 13.7077C11.2272 13.8668 11.3054 14.013 11.4201 14.1277C11.5348 14.2424 11.6809 14.3205 11.84 14.3521C11.9991 14.3838 12.164 14.3675 12.3139 14.3055C12.4637 14.2434 12.5918 14.1383 12.6819 14.0034C12.7721 13.8685 12.8202 13.7099 12.8202 13.5477C12.8202 13.44 12.7989 13.3334 12.7577 13.2339C12.7165 13.1344 12.6561 13.044 12.5799 12.9678C12.5038 12.8916 12.4134 12.8312 12.3139 12.79C12.2144 12.7488 12.1077 12.7276 12 12.7276ZM11.7097 8.34944C10.9182 8.38763 10.1426 8.58515 9.4293 8.93017C8.71599 9.27519 8.07964 9.76062 7.55836 10.3574L5.36563 8.16462C6.17482 7.27975 7.15311 6.56599 8.24272 6.06547C9.33233 5.56495 10.5112 5.28782 11.7097 5.25044V8.34963V8.34944ZM7.19535 10.8154L4.98585 8.60609C3.69785 10.2031 2.99687 12.1937 3.00001 14.2453H6.09695C6.09501 13.0152 6.47919 11.8155 7.19535 10.8154ZM19.0427 8.6414L17.1255 11.3156C17.6365 12.2073 17.9046 13.2175 17.903 14.2453H21C21.0031 12.2092 20.3128 10.2328 19.0427 8.6414Z" fill="#006064"/>
</svg>
