<svg width="24" height="24" viewBox="0 0 24 24" fill="none" xmlns="http://www.w3.org/2000/svg">
<path d="M15.4024 3H7.85661C4.57897 3 2.625 4.953 2.625 8.229V15.762C2.625 19.047 4.57897 21 7.85661 21H15.3934C18.671 21 20.625 19.047 20.625 15.771V8.229C20.634 4.953 18.68 3 15.4024 3ZM7.69453 17.535C7.69453 17.904 7.38837 18.21 7.01919 18.21C6.65001 18.21 6.34385 17.904 6.34385 17.535V15.672C6.34385 15.303 6.65001 14.997 7.01919 14.997C7.38837 14.997 7.69453 15.303 7.69453 15.672V17.535ZM12.3048 17.535C12.3048 17.904 11.9987 18.21 11.6295 18.21C11.2603 18.21 10.9542 17.904 10.9542 17.535V13.8C10.9542 13.431 11.2603 13.125 11.6295 13.125C11.9987 13.125 12.3048 13.431 12.3048 13.8V17.535ZM16.9151 17.535C16.9151 17.904 16.609 18.21 16.2398 18.21C15.8706 18.21 15.5644 17.904 15.5644 17.535V11.937C15.5644 11.568 15.8706 11.262 16.2398 11.262C16.609 11.262 16.9151 11.568 16.9151 11.937V17.535ZM16.9151 9.093C16.9151 9.462 16.609 9.768 16.2398 9.768C15.8706 9.768 15.5644 9.462 15.5644 9.093V8.22C13.2683 10.578 10.3959 12.243 7.18127 13.044C7.12724 13.062 7.07322 13.062 7.01919 13.062C6.71304 13.062 6.4429 12.855 6.36186 12.549C6.27182 12.189 6.48792 11.82 6.85711 11.73C9.89162 10.974 12.593 9.381 14.736 7.131H13.6105C13.2413 7.131 12.9351 6.825 12.9351 6.456C12.9351 6.087 13.2413 5.781 13.6105 5.781H16.2488C16.2848 5.781 16.3118 5.799 16.3478 5.799C16.3929 5.808 16.4379 5.808 16.4829 5.826C16.5279 5.844 16.5639 5.871 16.609 5.898C16.636 5.916 16.663 5.925 16.69 5.943C16.699 5.952 16.699 5.961 16.708 5.961C16.744 5.997 16.771 6.033 16.7981 6.069C16.8251 6.105 16.8521 6.132 16.8611 6.168C16.8791 6.204 16.8791 6.24 16.8881 6.285C16.8971 6.33 16.9151 6.375 16.9151 6.429C16.9151 6.438 16.9241 6.447 16.9241 6.456V9.093H16.9151Z" fill="#3CA8FA"/>
</svg>
