<svg width="20" height="20" viewBox="0 0 20 20" fill="none" xmlns="http://www.w3.org/2000/svg">
<path d="M0.25 6.51784C0.25 7.50606 2.96606 8.60711 6.86604 8.60711C7.05929 8.60711 7.24907 8.59945 7.4385 8.59318C7.46611 8.5323 7.50209 8.47557 7.5454 8.42464C7.81301 8.10661 8.1074 7.81211 8.42533 7.54437C8.53184 7.4538 8.66179 7.39522 8.80018 7.37538C8.93857 7.35553 9.07975 7.37525 9.20742 7.43224L10.1559 7.83721C10.579 7.59861 11.029 7.41156 11.4966 7.28007L11.8796 6.32249C11.931 6.19401 12.0166 6.08203 12.1271 5.99868C12.2375 5.91533 12.3687 5.86379 12.5064 5.84962C12.8306 5.82139 13.1565 5.8172 13.4814 5.83709V3.57928C12.2316 4.59014 9.48877 5.12499 6.86604 5.12499C4.2433 5.12499 1.50043 4.59014 0.25 3.57928V6.51784ZM2.69654 6.38552C2.7175 6.29564 2.77328 6.21776 2.85163 6.16898C2.92999 6.12021 3.02449 6.10454 3.1144 6.12541C3.22478 6.15083 3.33725 6.17555 3.45216 6.19853C3.53679 6.21571 3.61201 6.26373 3.66323 6.33326C3.71444 6.40278 3.738 6.48886 3.72932 6.57477C3.72064 6.66069 3.68035 6.74031 3.61626 6.79819C3.55218 6.85607 3.46887 6.88808 3.38252 6.88799C3.35914 6.88824 3.33579 6.88602 3.31288 6.88137C3.191 6.857 3.07145 6.831 2.95422 6.80337C2.86479 6.78188 2.7875 6.72587 2.73922 6.64758C2.69094 6.56929 2.6756 6.47508 2.69654 6.38552ZM0.979157 5.74342C0.998534 5.70198 1.02589 5.66476 1.05965 5.6339C1.09342 5.60304 1.13293 5.57913 1.17594 5.56354C1.21895 5.54796 1.26461 5.541 1.31031 5.54306C1.35601 5.54513 1.40085 5.55618 1.44228 5.57558C1.54674 5.62456 1.6562 5.67169 1.77064 5.71695C1.81407 5.73308 1.85384 5.75771 1.88762 5.7894C1.92141 5.82109 1.94854 5.8592 1.96741 5.9015C1.98629 5.9438 1.99653 5.98944 1.99755 6.03576C1.99856 6.08207 1.99032 6.12811 1.97332 6.1712C1.95632 6.21429 1.93089 6.25355 1.89852 6.28669C1.86615 6.31983 1.8275 6.34617 1.78482 6.36419C1.74215 6.3822 1.69631 6.39152 1.64998 6.39159C1.60366 6.39167 1.55779 6.3825 1.51506 6.36463C1.38691 6.31379 1.26365 6.26016 1.147 6.20654C1.10556 6.18716 1.06834 6.15981 1.03748 6.12604C1.00661 6.09228 0.982705 6.05276 0.967119 6.00975C0.951532 5.96675 0.944573 5.92109 0.946638 5.87539C0.948704 5.82969 0.959754 5.78484 0.979157 5.74342Z" fill="#7C3AED"/>
<path d="M0.25 10.6963C0.25 11.57 2.48343 12.5766 5.8402 12.7542C5.84508 12.6703 5.84438 12.5861 5.85274 12.5025C5.86718 12.3657 5.9186 12.2354 6.00147 12.1256C6.08435 12.0158 6.19556 11.9306 6.32317 11.8792L7.28389 11.4972C7.41503 11.0294 7.60209 10.5792 7.84103 10.1562L7.47123 9.28988C7.26927 9.29545 7.06939 9.30346 6.86603 9.30346C4.2433 9.30346 1.50043 8.76861 0.25 7.75775V10.6963Z" fill="#7C3AED"/>
<path d="M6.86603 4.42854C10.52 4.42854 13.4821 3.49314 13.4821 2.33927C13.4821 1.1854 10.52 0.25 6.86603 0.25C3.2121 0.25 0.25 1.1854 0.25 2.33927C0.25 3.49314 3.2121 4.42854 6.86603 4.42854Z" fill="#7C3AED"/>
<path d="M13.1337 15.223C14.2876 15.223 15.223 14.2876 15.223 13.1338C15.223 11.9799 14.2876 11.0445 13.1337 11.0445C11.9798 11.0445 11.0444 11.9799 11.0444 13.1338C11.0444 14.2876 11.9798 15.223 13.1337 15.223Z" fill="#7C3AED"/>
<path d="M13.134 16.9642C13.8916 16.9642 14.6322 16.7395 15.2621 16.3187C15.892 15.8978 16.3829 15.2996 16.6728 14.5997C16.9627 13.8998 17.0386 13.1296 16.8908 12.3866C16.743 11.6436 16.3782 10.9611 15.8425 10.4254C15.3068 9.88972 14.6243 9.52492 13.8813 9.37713C13.1383 9.22933 12.3681 9.30519 11.6682 9.5951C10.9683 9.885 10.3701 10.3759 9.94924 11.0058C9.52836 11.6357 9.30371 12.3763 9.30371 13.1339C9.30491 14.1494 9.70885 15.1229 10.4269 15.841C11.145 16.559 12.1185 16.963 13.134 16.9642ZM13.134 10.3482C13.685 10.3482 14.2236 10.5115 14.6817 10.8176C15.1398 11.1237 15.4969 11.5588 15.7077 12.0678C15.9185 12.5768 15.9737 13.1369 15.8662 13.6773C15.7587 14.2177 15.4934 14.714 15.1038 15.1036C14.7142 15.4932 14.2179 15.7585 13.6775 15.866C13.1371 15.9735 12.577 15.9183 12.068 15.7075C11.559 15.4967 11.1239 15.1396 10.8178 14.6815C10.5117 14.2234 10.3483 13.6848 10.3483 13.1339C10.3492 12.3953 10.6429 11.6872 11.1652 11.165C11.6874 10.6428 12.3955 10.349 13.134 10.3482Z" fill="#7C3AED"/>
<path d="M6.54586 13.6997C6.54844 13.7095 6.55333 13.7186 6.56011 13.7261C6.5669 13.7336 6.57538 13.7394 6.58486 13.7429L7.70367 14.1897C7.75505 14.2102 7.8008 14.2427 7.83713 14.2844C7.87346 14.3261 7.89933 14.3759 7.91259 14.4296C8.04183 14.9505 8.24866 15.449 8.52614 15.9084C8.55461 15.9557 8.57144 16.009 8.57526 16.0641C8.57907 16.1191 8.56976 16.1742 8.54808 16.225L8.07416 17.3358C8.06937 17.3441 8.06684 17.3535 8.06684 17.3631C8.06684 17.3727 8.06937 17.3821 8.07416 17.3904C8.31704 17.6799 8.58441 17.9478 8.87331 18.1913C8.88151 18.1979 8.89147 18.2019 8.90195 18.2028C8.91242 18.2038 8.92293 18.2016 8.93216 18.1965L10.043 17.7223C10.0936 17.7007 10.1487 17.6914 10.2037 17.6952C10.2587 17.699 10.3119 17.7158 10.3591 17.7442C10.8187 18.0215 11.3173 18.2281 11.8383 18.3571C11.8921 18.3703 11.9418 18.3962 11.9836 18.4325C12.0253 18.4689 12.0577 18.5146 12.0783 18.566L12.5257 19.6862C12.5291 19.6955 12.5346 19.7038 12.542 19.7105C12.5494 19.7171 12.5582 19.7218 12.5678 19.7241C12.943 19.7586 13.3205 19.7586 13.6957 19.7241C13.7062 19.7223 13.716 19.7177 13.7241 19.7109C13.7323 19.704 13.7384 19.6952 13.742 19.6851L14.1891 18.566C14.2096 18.5146 14.2421 18.4689 14.2838 18.4325C14.3255 18.3962 14.3753 18.3703 14.429 18.3571C14.95 18.2279 15.4485 18.0211 15.9079 17.7435C15.9551 17.7151 16.0084 17.6983 16.0633 17.6945C16.1183 17.6907 16.1734 17.7 16.2241 17.7216L17.3342 18.1955C17.3425 18.2003 17.352 18.2029 17.3617 18.2029C17.3713 18.2029 17.3808 18.2003 17.3892 18.1955C17.6787 17.952 17.9466 17.6841 18.1901 17.3946C18.1962 17.3863 18.1999 17.3764 18.2006 17.3661C18.2014 17.3558 18.1992 17.3456 18.1943 17.3365L17.72 16.2246C17.6983 16.1739 17.689 16.1187 17.6928 16.0637C17.6966 16.0087 17.7135 15.9553 17.7419 15.9081C18.0194 15.4487 18.2262 14.9502 18.3555 14.4292C18.3687 14.3755 18.3946 14.3258 18.4309 14.284C18.4673 14.2423 18.513 14.2098 18.5644 14.1893L19.685 13.7419C19.6941 13.7382 19.7022 13.7325 19.7087 13.7251C19.7152 13.7177 19.7198 13.7089 19.7222 13.6994C19.7596 13.3244 19.7596 12.9466 19.7222 12.5715C19.7202 12.561 19.7155 12.5512 19.7086 12.5429C19.7018 12.5347 19.6929 12.5284 19.6829 12.5245L18.5641 12.0778C18.5127 12.0573 18.4669 12.0248 18.4306 11.9831C18.3943 11.9413 18.3684 11.8916 18.3551 11.8379C18.2259 11.3169 18.0191 10.8184 17.7416 10.359C17.7131 10.3118 17.6963 10.2584 17.6925 10.2034C17.6887 10.1484 17.698 10.0932 17.7196 10.0425L18.1936 8.93169C18.1984 8.92337 18.2009 8.91395 18.2009 8.90435C18.2009 8.89475 18.1984 8.88533 18.1936 8.87702C17.9502 8.58743 17.6823 8.31947 17.3927 8.07613C17.3845 8.06959 17.3745 8.06561 17.364 8.06468C17.3536 8.06376 17.3431 8.06592 17.3338 8.07091L16.223 8.54517C16.1724 8.56701 16.1173 8.57642 16.0623 8.5726C16.0073 8.56879 15.954 8.55186 15.9069 8.52323C15.4477 8.24616 14.9496 8.03968 14.429 7.91073C14.3753 7.89747 14.3255 7.8716 14.2838 7.83527C14.2421 7.79893 14.2096 7.75318 14.1891 7.7018L13.7417 6.58161C13.7383 6.57229 13.7327 6.56395 13.7254 6.55733C13.718 6.5507 13.7091 6.54601 13.6995 6.54365C13.3244 6.50881 12.9468 6.50881 12.5717 6.54365C12.5612 6.54549 12.5514 6.55006 12.5433 6.55691C12.5351 6.56376 12.529 6.57264 12.5254 6.58265L12.0783 7.7018C12.0577 7.75318 12.0253 7.79893 11.9836 7.83527C11.9418 7.8716 11.8921 7.89747 11.8383 7.91073C11.3174 8.03991 10.8189 8.24674 10.3595 8.52428C10.3124 8.5529 10.2591 8.56983 10.2041 8.57365C10.1491 8.57747 10.0939 8.56806 10.0433 8.54622L8.9332 8.0723C8.92482 8.06754 8.91534 8.06503 8.9057 8.06503C8.89605 8.06503 8.88657 8.06754 8.87819 8.0723C8.58887 8.31593 8.32093 8.58387 8.0773 8.87319C8.07115 8.88148 8.06749 8.89135 8.06675 8.90165C8.06601 8.91195 8.06822 8.92225 8.07312 8.93134L8.54738 10.0432C8.56906 10.0939 8.57838 10.1491 8.57456 10.2041C8.57075 10.2591 8.55391 10.3125 8.52545 10.3597C8.24796 10.8191 8.04113 11.3176 7.9119 11.8386C7.89864 11.8923 7.87277 11.942 7.83643 11.9838C7.8001 12.0255 7.75435 12.058 7.70297 12.0785L6.58242 12.5259C6.5733 12.5296 6.56518 12.5353 6.5587 12.5427C6.55223 12.5501 6.54759 12.5589 6.54516 12.5684C6.50773 12.9434 6.50773 13.3212 6.54516 13.6963L6.54586 13.6997ZM13.1337 8.60715C14.029 8.60715 14.9042 8.87264 15.6486 9.37005C16.393 9.86745 16.9733 10.5744 17.3159 11.4016C17.6585 12.2287 17.7481 13.1389 17.5735 14.017C17.3988 14.8951 16.9677 15.7017 16.3346 16.3348C15.7015 16.9679 14.8949 17.399 14.0168 17.5737C13.1387 17.7483 12.2285 17.6587 11.4014 17.3161C10.5742 16.9735 9.86723 16.3932 9.36983 15.6488C8.87242 14.9044 8.60693 14.0292 8.60693 13.1339C8.60831 11.9338 9.08568 10.7832 9.93431 9.93453C10.7829 9.0859 11.9335 8.60854 13.1337 8.60715Z" fill="#7C3AED"/>
<path d="M6.86603 16.9642C7.07496 16.9642 7.27762 16.9576 7.48063 16.952L7.83894 16.1125C7.60065 15.6891 7.41429 15.2385 7.28389 14.7704L6.32631 14.3874C6.19789 14.336 6.08599 14.2504 6.00276 14.1399C5.91952 14.0294 5.86812 13.8983 5.85413 13.7606C5.84368 13.6562 5.84368 13.5517 5.83846 13.4472C2.9866 13.3114 1.15953 12.6753 0.25 11.913V14.8749C0.25 15.8631 2.96606 16.9642 6.86603 16.9642Z" fill="#7C3AED"/>
</svg>
