<svg width="24" height="24" viewBox="0 0 24 24" fill="none" xmlns="http://www.w3.org/2000/svg">
<path d="M16.4659 21C17.6232 21 18.7331 20.5575 19.5515 19.7698C20.3698 18.9822 20.8295 17.9139 20.8295 16.8C20.8295 15.6861 20.3698 14.6178 19.5515 13.8302C18.7331 13.0425 17.6232 12.6 16.4659 12.6C15.3086 12.6 14.1987 13.0425 13.3804 13.8302C12.562 14.6178 12.1023 15.6861 12.1023 16.8C12.1023 17.9139 12.562 18.9822 13.3804 19.7698C14.1987 20.5575 15.3086 21 16.4659 21ZM16.9073 13.9752L18.7774 15.7752C18.8944 15.8879 18.9602 16.0407 18.9602 16.2C18.9602 16.3593 18.8944 16.5121 18.7774 16.6248C18.6603 16.7375 18.5016 16.8008 18.336 16.8008C18.1705 16.8008 18.0117 16.7375 17.8947 16.6248L17.0893 15.8484V19.2C17.0893 19.3591 17.0236 19.5117 16.9067 19.6243C16.7898 19.7368 16.6312 19.8 16.4659 19.8C16.3006 19.8 16.142 19.7368 16.0251 19.6243C15.9082 19.5117 15.8425 19.3591 15.8425 19.2V15.8484L15.0371 16.6248C14.9201 16.7375 14.7613 16.8008 14.5958 16.8008C14.4302 16.8008 14.2715 16.7375 14.1544 16.6248C14.0374 16.5121 13.9716 16.3593 13.9716 16.2C13.9716 16.0407 14.0374 15.8879 14.1544 15.7752L16.0246 13.9752C16.0825 13.9193 16.1513 13.875 16.227 13.8447C16.3027 13.8145 16.3839 13.7989 16.4659 13.7989C16.5479 13.7989 16.6291 13.8145 16.7048 13.8447C16.7806 13.875 16.8494 13.9193 16.9073 13.9752ZM10.8555 3C8.89438 3 7.08783 3.3468 5.74882 3.9324C4.46591 4.494 3.375 5.3916 3.375 6.6C3.375 7.8084 4.46591 8.706 5.74882 9.2676C7.08783 9.8532 8.89438 10.2 10.8555 10.2C12.8167 10.2 14.6232 9.8532 15.9622 9.2676C17.2451 8.706 18.336 7.8084 18.336 6.6C18.336 5.3916 17.2451 4.494 15.9622 3.9324C14.6232 3.3468 12.8167 3 10.8555 3Z" fill="#F59E0B"/>
<path d="M3.375 10.1998V9.19299C3.94477 9.71139 4.62674 10.0942 5.23266 10.3594C6.76866 11.0314 8.75848 11.3998 10.8555 11.3998C12.9526 11.3998 14.9424 11.0314 16.4784 10.3594C17.0843 10.0954 17.7663 9.71139 18.336 9.19299V10.1998C18.336 10.7086 18.1428 11.1622 17.8236 11.5594C16.7081 11.2934 15.5347 11.3627 14.4614 11.7582C13.388 12.1536 12.4664 12.8561 11.8205 13.771C11.4992 13.7903 11.1774 13.7999 10.8555 13.7998C8.89438 13.7998 7.08783 13.453 5.74882 12.8674C4.46591 12.3058 3.375 11.4082 3.375 10.1998ZM11.1759 14.9974L10.8555 14.9998C8.75848 14.9998 6.76866 14.6314 5.23266 13.9594C4.62674 13.6954 3.94477 13.3114 3.375 12.793V13.7998C3.375 15.0082 4.46591 15.9058 5.74882 16.4674C7.08783 17.053 8.89438 17.3998 10.8555 17.3998H10.8892C10.7971 16.5884 10.8951 15.7675 11.1759 14.9974ZM11.1734 18.5974L10.8555 18.5998C8.75848 18.5998 6.76866 18.2314 5.23266 17.5594C4.62674 17.2954 3.94477 16.9114 3.375 16.393V17.3998C3.375 18.6082 4.46591 19.5058 5.74882 20.0674C7.08783 20.653 8.89438 20.9998 10.8555 20.9998C11.5238 20.9998 12.1746 20.959 12.7942 20.8834C12.0571 20.2696 11.4986 19.4818 11.1734 18.5974Z" fill="#F59E0B"/>
</svg>
