<svg xmlns="http://www.w3.org/2000/svg" width="128" height="128">
    <path d="M60.769 113.1C53.637 106.146 50.329 92.383 64 64c-22.219 9.93-30.005 22.983-26.175 26.72z" fill="#04d659" fill-rule="evenodd"/>
    <path d="M67.232 14.9C74.363 21.855 77.672 35.618 64 64c22.219-9.93 30.006-22.983 26.175-26.72z" fill="#ff7557" fill-rule="evenodd"/>
    <path d="M128 1.363c-.335 24.069-2.161 52.814-14.9 65.869l-.008.008c-6.932 7.1-20.623 10.39-48.766-3.089a1.213 1.213 0 0 1 .061-.336C86.3 53.909 93.983 40.994 90.176 37.28l-.056-.054L125.936.512a1.2 1.2 0 0 1 2.064.851z" fill="#00c7d4"/>
    <path d="M113.1 67.232C106.145 74.363 92.382 77.673 64 64c9.93 22.22 22.983 30.007 26.72 26.176z" fill="#11e1ee" fill-rule="evenodd"/>
    <path d="M37.881 90.774L2.064 127.489A1.2 1.2 0 0 1 0 126.638c.335-24.07 2.162-52.814 14.9-65.87l22.137-22.694L14.9 60.768c6.93-7.1 20.621-10.4 48.774 3.081a1.213 1.213 0 0 1-.061.336C41.7 74.092 34.018 87.006 37.825 90.72z" fill="#017cee"/>
    <path d="M126.639 128c-24.07-.335-52.814-2.161-65.87-14.9-7.1-6.93-10.4-20.622 3.083-48.772a1.235 1.235 0 0 1 .334.06C74.091 86.3 87.005 93.984 90.72 90.176l.055-.057 36.715 35.817a1.2 1.2 0 0 1-.851 2.064z" fill="#00ad46"/>
    <path d="M14.9 60.768C21.855 53.637 35.618 50.328 64 64c-9.93-22.219-22.983-30.006-26.72-26.175z" fill="#0cb6ff" fill-rule="evenodd"/>
    <path d="M64.15 63.673a1.23 1.23 0 0 1-.333-.061C53.91 41.7 41 34.017 37.281 37.825l-.055.056L.512 2.064A1.2 1.2 0 0 1 1.363 0c24.069.335 52.813 2.162 65.869 14.9 7.102 6.927 10.402 20.619-3.082 48.773z" fill="#e43921"/>
    <path d="M63.976 61.252a2.74 2.74 0 1 1-2.706 2.774 2.74 2.74 0 0 1 2.706-2.774z" fill="#4a4848"/>
</svg>
