<svg xmlns="http://www.w3.org/2000/svg" width="128" height="128">
    <path d="M0 0h128v128H0z" fill="#8C4FFF"/>
    <path d="M105.837 34.133L83.793 23.23a1.461 1.461 0 0 0-1.66.237 2.1 2.1 0 0 0-.948 1.185v18.963H75.97v3.318h5.215v34.134H75.97v3.318h5.215v18.963a1.3 1.3 0 0 0 .711 1.185c.237.237.711.237.948.474h.475l22.281-7.348A1.782 1.782 0 0 0 106.785 96V35.556a1.474 1.474 0 0 0-.948-1.423zm-2.37 60.682L84.5 100.978V27.5l18.963 9.245zM47.052 46.933h3.318v-3.318h-3.318V24.652c0-.474-.237-1.185-.948-1.185a4.036 4.036 0 0 0-1.66-.237L22.4 34.133a3.48 3.48 0 0 0-1.185 1.423V96a1.782 1.782 0 0 0 1.185 1.659l22.281 7.348h.475a1.8 1.8 0 0 0 .948-.474 1.618 1.618 0 0 0 .711-1.185V84.385h3.555v-3.318h-3.555V46.933zm-3.319 54.045L24.77 94.815V36.741L43.733 27.5zm22.045-57.363h5.215v3.318h-5.215zm-10.193 0H60.8v3.318h-5.215zm0 37.452H60.8v3.318h-5.215zm10.193 0h5.215v3.318h-5.215zm-9.245-24.652l-6.4 5.452H49.9a1.584 1.584 0 0 0 .237 2.37l6.4 5.452 2.371-2.37-4.978-4.267 4.97-4.267zm21.808 7.822a1.584 1.584 0 0 0-.237-2.37l-6.4-5.452-2.371 2.607 4.978 4.03-4.978 4.267 2.371 2.37 6.4-5.452s-.004-.237.237 0zm-19.2 9.244l6.874-20.148 3.318 1.186-6.874 19.911z" fill="#fff"/>
</svg>
