<svg xmlns="http://www.w3.org/2000/svg" width="128" height="128">
    <path d="M102.257 53.825c.942 10.968-16.319 21.406-38.551 23.314S22.687 71.7 21.747 60.732 38.066 39.325 60.3 37.417s41.019 5.439 41.959 16.408" fill="#bbe6fb"/>
    <g fill="#fff">
        <path d="M60.951 37.766c-8.481-.138-18.4 3.229-25.789 6.383a21.317 21.317 0 0 0-1.182 7.012c0 13.01 11.747 23.558 26.239 23.558s26.239-10.548 26.239-23.558a21.592 21.592 0 0 0-3.247-11.354 167.048 167.048 0 0 0-22.26-2.041"/>
        <path d="M60.219 37.764c-4.695-.287-12.788 2.163-19.536 4.606a20.062 20.062 0 0 0-1.595 7.847c0 11.4 10.335 20.64 21.269 20.64 10.861 0 20.47-9.256 21.268-20.64A17.837 17.837 0 0 0 78.836 40a182.32 182.32 0 0 0-18.617-2.24"/>
    </g>
    <g fill="#373535">
        <path d="M48.17 48.72a13.887 13.887 0 0 1 2.294-2.97 6.616 6.616 0 0 1-.3-1.368 2.317 2.317 0 0 1 3.178-2.156 16.915 16.915 0 0 1 13.985-3.069c.464.1.92.231 1.366.37a19.914 19.914 0 0 0-14.539 4.192 5.744 5.744 0 0 1 .446 1.391c0 1.282-.83 1.594-2.112 1.594a2.314 2.314 0 0 1-.827-.154 23.452 23.452 0 0 0-2.461 4.786 18.135 18.135 0 0 0 6.563 3.533c-.007-.119.086-.23.086-.351a7.241 7.241 0 0 1 7.269-7.007 6.994 6.994 0 0 1 6.892 5.824c1.729-1.1 3.4-1.943 4.674-3.573a4.11 4.11 0 0 1-.618-1.894 2.107 2.107 0 0 1 2.107-2.106 2.084 2.084 0 0 1 .477.059 18.424 18.424 0 0 0 1.447-4.19c-6.045-4.476-17.741-3.865-17.741-3.865s-9.306-.486-15.606 2.585a18.548 18.548 0 0 0 3.42 8.369"/>
        <path d="M77.062 46.976a3.871 3.871 0 0 1 .844 1.053c.566 1.016-.568 1.947-1.732 1.947a2.092 2.092 0 0 1-.346-.036 22.163 22.163 0 0 1-5.645 6 17.755 17.755 0 0 1 8.422 3.7 24.993 24.993 0 0 0 3.02-11.24 8.01 8.01 0 0 0-3.167-6.491 23 23 0 0 1-1.4 5.068M51.678 66.368c1.042-2.877 3.605-5.107 6.03-7.068a13.516 13.516 0 0 1-1.108-2.258 16.964 16.964 0 0 1-7.6-4.811c-.015.065-.033.128-.048.193a15.361 15.361 0 0 0-.263 5.1 3.049 3.049 0 0 1 2.488 3 4.67 4.67 0 0 1-1.377 2.725 14.371 14.371 0 0 0 1.883 3.119"/>
        <path d="M51.5 68.784c-1.243-1.236-2.1-3.7-2.909-5.249a3.079 3.079 0 0 1-.464.039c-1.686 0-3.451-1.414-3.052-3.051a3.024 3.024 0 0 1 1.865-1.993 21.465 21.465 0 0 1 .14-6.525 12.739 12.739 0 0 1 .565-1.351 17.888 17.888 0 0 1-3.062-9.838c0-.13.007-.257.01-.386-3.143 1.576-5.5 4.06-5.5 7.969 0 8.647 4.98 17.13 12.391 20.455l.016-.07M69.716 56.829A6.986 6.986 0 0 1 58.8 60.011a20.556 20.556 0 0 0-5.81 8.177 16.264 16.264 0 0 0 1.431 1.48c1.716.447 4.079 0 5.937 0 7.471 0 14.089-3.324 17.883-9.152-2.523-1.747-5.5-3.41-8.524-3.687"/>
    </g>
    <g fill="#1287b1">
        <path d="M47.978 49.731a16.909 16.909 0 0 1 2.143-3.526 2.318 2.318 0 0 1 3.029-2.969 16.924 16.924 0 0 1 13.985-3.069c.465.1.92.232 1.367.371a18.621 18.621 0 0 0-14.068 3.953 2.3 2.3 0 0 1 .182.9 2.318 2.318 0 0 1-3.149 2.167 15.648 15.648 0 0 0-2.1 3.852 17.28 17.28 0 0 0 6.583 4.468c-.006-.119-.019-.238-.019-.36a7 7 0 0 1 13.889-1.173 18.145 18.145 0 0 0 4.537-4.145 2.082 2.082 0 0 1-.481-1.325 2.108 2.108 0 0 1 2.107-2.107 2.084 2.084 0 0 1 .477.06 18.461 18.461 0 0 0 1.446-4.191c-6.045-4.475-17.74-3.864-17.74-3.864s-9.307-.486-15.608 2.585a18.552 18.552 0 0 0 3.42 8.369"/>
        <path d="M77.389 47.321a2.089 2.089 0 0 1-1.752 3.63 17.045 17.045 0 0 1-5.087 5.116 17.047 17.047 0 0 1 8.2 3.686 21.153 21.153 0 0 0 2.684-10.343 8.008 8.008 0 0 0-3.167-6.491 16.977 16.977 0 0 1-.878 4.4M52 67.06a16.976 16.976 0 0 1 5.277-7.421 6.956 6.956 0 0 1-.869-1.586 16.97 16.97 0 0 1-7.6-4.811c-.015.065-.034.128-.049.192a15.341 15.341 0 0 0-.262 5.1A3.047 3.047 0 0 1 50 63.773a18.347 18.347 0 0 0 2 3.287"/>
        <path d="M51.487 68.749a17 17 0 0 1-3.092-4.2 3.1 3.1 0 0 1-.464.039A3.05 3.05 0 0 1 46.6 58.79a16.935 16.935 0 0 1 .283-5.774q.188-.837.453-1.634a16.876 16.876 0 0 1-2.95-9.556c0-.129.006-.257.009-.385-3.143 1.576-5.5 4.06-5.5 7.969a21.268 21.268 0 0 0 12.576 19.409l.016-.07M69.525 57.84a6.986 6.986 0 0 1-10.918 3.181 17.339 17.339 0 0 0-5.435 7.427 18.748 18.748 0 0 0 1.619 1.544 21.28 21.28 0 0 0 23.208-9 17.836 17.836 0 0 0-8.474-3.153"/>
    </g>
    <path d="M69.77 56.035l6.467-1.542-6.491-.331 5.282-4.037-5.994 2.149 4.074-5.645-5.626 3.739 1.967-6.608-3.864 5.446-.085-6.882-2.542 6.131-2.12-6.2.115 7.308-3.663-6.551 1.982 6.956-5.942-4.321 4.655 5.848-7.377-2.712 5.822 4.307-7.466.229 7.633 1.97-7.639 1.652 7.541.547-6.36 4.072 6.549-2.374-4.544 5.754 5.741-4.63-2.067 7.722 4.432-6.284-.621 7.421 2.516-6.727 2.142 7.071.521-7.093 3.178 6.052-1.878-6.922 5.821 4.509-3.758-5.749 6.386 2.488L69.672 58l6.547.514z" fill="#fff"/>
    <path d="M.929 68.409C20.983 48.355 37 42.164 51.537 39.337c1.923-.374 2.287-4.577 2.287-4.577s.269 3.1 1.616 3.5 3.095-4.846 3.095-4.846-1.615 4.711 0 4.98 4.576-4.576 4.576-4.576-1.211 4.172-.4 4.442 4.841-6.06 4.841-6.06-2.423 4.172-.134 4.577 5.627-2.848 5.627-2.848-2.625 2.975-1.455 3.385c4.98 1.754 9.01-4.714 9.01-4.714a21.819 21.819 0 0 1-3.357 5.934c5.249 1.346 9.148-6.562 9.148-6.562l-3.9 7.908c2.019 1.077 10.1-8.21 10.1-8.21s-4.173 7.268-6.6 8.748c1.346 1.077 6.191-3.23 6.191-3.23s-3.9 4.845-2.422 5.114c2.153 1.75 10.094-9.017 10.094-9.017a54.593 54.593 0 0 1-7.672 11.306c3.825 1.913 13.325-10.364 13.325-10.364s-.269 3.9-7.133 10.094c5.114-.672 11.71-10.363 11.71-10.363a32.108 32.108 0 0 1-8.211 12.382c5.022-.523 13.055-12.921 13.055-12.921s-3.095 8.614-9.421 13.594c7 1.548 17.094-8.883 17.094-8.883s-3.971 7.4-9.153 10.431c5.788 2.221 13.729-6.932 13.729-6.932s-7.941 12.249-20.593 11.71c-4.151-.176-16.707-12.593-43.609-11.575C27.444 43.106 19.907 58.18.929 68.409" fill="#373535" opacity=".2"/>
    <path d="M1.751 66.886c20.054-20.054 36.071-26.245 50.607-29.072 1.924-.374 2.288-4.576 2.288-4.576s.269 3.1 1.615 3.5 3.095-4.845 3.095-4.845-1.615 4.711 0 4.98 4.577-4.573 4.577-4.573-1.211 4.172-.405 4.441 4.846-6.057 4.846-6.057-2.423 4.173-.134 4.576 5.627-2.847 5.627-2.847-2.625 2.975-1.455 3.386c4.98 1.75 9.009-4.722 9.009-4.722a21.818 21.818 0 0 1-3.356 5.933c5.249 1.347 9.147-6.562 9.147-6.562l-3.9 7.909c2.019 1.076 10.094-8.21 10.094-8.21s-4.171 7.267-6.594 8.748c1.346 1.077 6.191-3.23 6.191-3.23s-3.9 4.845-2.422 5.114c2.153 1.75 10.094-9.018 10.094-9.018a54.658 54.658 0 0 1-7.672 11.306C96.83 44.977 106.33 32.7 106.33 32.7s-.269 3.9-7.133 10.095c5.114-.673 11.71-10.364 11.71-10.364a32.115 32.115 0 0 1-8.207 12.382c5.022-.522 13.055-12.921 13.055-12.921s-3.095 8.614-9.421 13.594c7 1.548 17.094-8.883 17.094-8.883s-3.971 7.4-9.153 10.431C120.059 49.254 128 40.1 128 40.1s-7.941 12.248-20.594 11.71c-4.15-.175-16.706-12.593-43.606-11.573-35.532 1.346-43.07 16.42-62.047 26.649" fill="#373535"/>
    <path d="M.4 70.6c10.6 5.319 20.294-.8 32.508 2.637 9.286 2.618 20.593 5.845 35.936 3.623s28.467-8.882 34.726-20.794c1.952-5.316 9.892 1.212 9.892 1.212s-5.787-2.423-5.652-1.278 8.681 5.114 8.681 5.114-7.739-2.423-7.268-.6 9.69 9.085 9.69 9.085-10.431-7.941-11.3-6.865 4.441 5.452 4.441 5.452-8.816-5.452-11.912-3.844c-2.227 1.155 9.153 8.622 9.153 8.622s-7.4-5.654-9.153-4.173 8.345 13.594 8.345 13.594S97.041 70 95.9 70.6s3.16 6.53 3.16 6.53-5.653-6.192-7.2-5.115 8.076 17.161 8.076 17.161S89.505 72.689 85.2 75.447c6.763 14.839 4.239 16.96 4.239 16.96s-.863-15.14-9.287-14.739c-4.24.2 2.019 11.306 2.019 11.306s-5.761-10.141-9.6-9.939c7.071 13.38 4.55 18.822 4.55 18.822s1.17-11.428-8.421-17.787c3.634 3.229-2.28 17.787-2.28 17.787s5.2-21.452-3.837-17.362c-1.428.645-.1 10.7-.1 10.7s-1.817-11.508-4.541-10.9c-1.589.352-10.095 15.949-10.095 15.949s6.965-16.858 4.846-16.151c-1.545.515-4.442 7.47-4.442 7.47s1.413-6.864 0-7.268-9.288 7.268-9.288 7.268 5.857-6.863 4.847-8.28c-1.53-2.142-3.323-2.242-5.451-1.413-3.1 1.207-7.268 6.864-7.268 6.864s4.158-5.728 3.431-7.874C33.356 73.413 21.4 83.523 21.4 83.523s7.066-6.663 5.451-8.076-10.384-.976-13.123-.984C5.653 74.438 2.855 72.544.4 70.6" fill="#373535" opacity=".2"/>
    <path d="M0 69.391c10.6 5.316 20.29-.808 32.5 2.635 9.29 2.617 20.6 5.844 35.941 3.623s28.466-8.883 34.725-20.794c1.952-5.316 9.892 1.211 9.892 1.211s-5.787-2.423-5.652-1.278 8.681 5.114 8.681 5.114-7.739-2.422-7.268-.605 9.691 9.084 9.691 9.084-10.432-7.941-11.31-6.864 4.442 5.451 4.442 5.451-8.817-5.451-11.912-3.844c-2.228 1.155 9.152 8.622 9.152 8.622s-7.4-5.653-9.152-4.172 8.345 13.594 8.345 13.594-11.438-12.383-12.581-11.777 3.163 6.527 3.163 6.527S93 69.727 91.456 70.8s8.076 17.161 8.076 17.161S89.1 71.477 84.794 74.236C91.557 89.075 89.033 91.2 89.033 91.2s-.863-15.139-9.287-14.738c-4.24.2 2.019 11.306 2.019 11.306S76 77.62 72.169 77.823c7.071 13.38 4.549 18.823 4.549 18.823s1.17-11.429-8.42-17.788c3.634 3.23-2.28 17.788-2.28 17.788s5.2-21.452-3.835-17.362c-1.429.645-.1 10.7-.1 10.7s-1.819-11.508-4.543-10.9c-1.589.353-10.095 15.95-10.095 15.95s6.964-16.861 4.845-16.154c-1.545.514-4.442 7.469-4.442 7.469s1.413-6.864 0-7.268-9.287 7.268-9.287 7.268 5.855-6.864 4.845-8.277c-1.53-2.142-3.323-2.242-5.451-1.413-3.1 1.206-7.268 6.864-7.268 6.864s4.158-5.729 3.432-7.874C32.952 72.2 21 82.311 21 82.311s7.066-6.662 5.45-8.075-10.384-.976-13.123-.984C5.249 73.226 2.451 71.332 0 69.391" fill="#373535"/>
</svg>
