<svg xmlns="http://www.w3.org/2000/svg" width="128" height="128">
    <path d="M0 0h128v128H0z" fill="#E7157B"/>
    <path d="M94.815 59.733a10.312 10.312 0 0 0-6.637-9.481 10.892 10.892 0 0 0-9.008 1.185 31.028 31.028 0 0 0-4.5-6.4 20.657 20.657 0 0 0-22.993-4.5 21.406 21.406 0 0 0-12.092 18.722v.711a14.4 14.4 0 0 0-9.244 8.53h3.792a10.6 10.6 0 0 1 7.585-5.452 1.8 1.8 0 0 0 1.423-1.9l-.241-2.126a17.977 17.977 0 0 1 9.955-15.407 17.138 17.138 0 0 1 19.2 3.792A18.8 18.8 0 0 1 76.8 55.23a2.427 2.427 0 0 0 1.422 1.185 1.151 1.151 0 0 0 1.422-.711 6.669 6.669 0 0 1 7.112-2.371c2.844.948 4.5 3.793 4.266 7.348-.237.949.474 1.66 1.422 1.9 3.082.474 10.43 2.844 10.43 11.378 0 10.429-10.193 11.377-10.43 11.614H57.126v3.556h35.792a14.628 14.628 0 0 0 13.749-15.17c0-8.534-5.926-13.037-11.852-14.223zM24.652 89.126h-3.319V85.57h3.319zm15.407 0H28.207V85.57h11.852zm13.748 0H43.615V85.57h10.192zM38.4 82.252H22.993v-3.319H38.4zm32.474 0H50.252v-3.319h20.622zm-17.067-6.874H43.615v-3.319h10.192zm-13.748 0H26.548v-3.319h13.511zm6.874 6.874h-5.214v-3.319h5.214z" fill="#fff"/>
</svg>
