<svg xmlns="http://www.w3.org/2000/svg" width="128" height="128">
    <path d="M88.047 89.829a7.984 7.984 0 0 0-.825-7.015 7.12 7.12 0 0 0-5.665-2.776l-46.181-.6a.852.852 0 0 1-.712-.375 1.03 1.03 0 0 1-.113-.825 1.268 1.268 0 0 1 1.088-.826l46.593-.6c5.515-.262 11.517-4.727 13.618-10.2l2.663-6.94a1.479 1.479 0 0 0 .075-.9 30.337 30.337 0 0 0-58.335-3.114A13.637 13.637 0 0 0 18.5 65.182a14.328 14.328 0 0 0 .337 4.764A19.382 19.382 0 0 0 0 89.341a23.536 23.536 0 0 0 .188 2.814.924.924 0 0 0 .9.788h85.233a1.16 1.16 0 0 0 1.088-.826z" fill="#f38020"/>
    <path d="M102.753 60.155c-.413 0-.863 0-1.276.037a.758.758 0 0 0-.675.525L99 66.982A7.987 7.987 0 0 0 99.826 74a7.125 7.125 0 0 0 5.665 2.776l9.829.6a.854.854 0 0 1 .713.375 1.056 1.056 0 0 1 .112.825 1.266 1.266 0 0 1-1.088.826l-10.241.6C99.264 80.263 93.3 84.727 91.2 90.2l-.75 1.913a.541.541 0 0 0 .525.751h35.189a.923.923 0 0 0 .9-.676 25.649 25.649 0 0 0 .936-6.823 25.224 25.224 0 0 0-25.247-25.21" fill="#faae40"/>
    <path d="M86.47 92.891a1.138 1.138 0 0 0 .939-.774l.638-2.288a7.987 7.987 0 0 0-.825-7.015 7.123 7.123 0 0 0-5.665-2.777l-46.181-.6a.856.856 0 0 1-.713-.375 1.034 1.034 0 0 1-.112-.825 1.268 1.268 0 0 1 1.088-.826l46.593-.6c5.515-.263 11.517-4.727 13.618-10.2l2.664-6.94a1.582 1.582 0 0 0 .053-.636l2.685 1.161.088.051a.765.765 0 0 0-.538.474L99 66.982A7.986 7.986 0 0 0 99.827 74a7.122 7.122 0 0 0 5.664 2.776l9.829.6a.854.854 0 0 1 .713.375 1.056 1.056 0 0 1 .112.825 1.266 1.266 0 0 1-1.088.826l-10.241.6C99.264 80.263 93.3 84.727 91.2 90.2l-.75 1.913a.541.541 0 0 0 .525.751z" fill="#fff"/>
</svg>
