<svg xmlns="http://www.w3.org/2000/svg" width="128" height="128">
    <path fill="#252F3E" d="M36.541 57.314q.571 1.58 1.363 3.062c.19.292.294.632.298.98a1.69 1.69 0 0 1-.808 1.276l-2.682 1.786a2.04 2.04 0 0 1-1.108.382 1.94 1.94 0 0 1-1.275-.597 13 13 0 0 1-1.531-2 32 32 0 0 1-1.32-2.51A15.73 15.73 0 0 1 16.96 65.56a11.67 11.67 0 0 1-8.514-3.062 10.94 10.94 0 0 1-3.15-8.165 10.97 10.97 0 0 1 3.874-8.77 15.5 15.5 0 0 1 10.431-3.317c1.51.012 3.017.126 4.512.34 1.576.213 3.194.553 4.896.936v-3.11a9.44 9.44 0 0 0-2-6.811 9.8 9.8 0 0 0-6.94-1.96c-1.548 0-3.09.187-4.594.554a34 34 0 0 0-4.593 1.447q-.726.326-1.49.553c-.22.074-.45.117-.681.128-.595 0-.893-.424-.893-1.32V30.92a2.68 2.68 0 0 1 .298-1.49c.32-.389.73-.696 1.192-.896a24.7 24.7 0 0 1 5.358-1.916 25.8 25.8 0 0 1 6.635-.809 15.57 15.57 0 0 1 11.155 3.45 14.1 14.1 0 0 1 3.534 10.462s-.061 12.467 0 13.794c.038 1.283.223 2.558.551 3.799M18.79 59.998a13.8 13.8 0 0 0 4.384-.765 9.46 9.46 0 0 0 4.044-2.725 6.76 6.76 0 0 0 1.45-2.715c.292-1.213.435-2.457.425-3.705v-1.786a35 35 0 0 0-3.916-.722 32 32 0 0 0-4.004-.255 9.8 9.8 0 0 0-6.343 1.704 5.93 5.93 0 0 0-2.088 4.896 5.495 5.495 0 0 0 6.048 6.089zm37.848 4.593c.6.057 1.2-.093 1.702-.426.43-.475.714-1.064.816-1.697l6.558-27.417 6.599 27.46c.08.64.364 1.236.808 1.703.5.338 1.102.49 1.702.426h3.662a2.7 2.7 0 0 0 1.618-.426c.455-.453.767-1.03.895-1.659l10.26-32.916q.198-.518.299-1.064a4.5 4.5 0 0 0 .084-.681.948.948 0 0 0-1.064-1.064h-3.968a2.77 2.77 0 0 0-1.658.426 3.64 3.64 0 0 0-.853 1.659l-7.366 28.527-6.726-28.525a2.87 2.87 0 0 0-.809-1.658 2.55 2.55 0 0 0-1.702-.427h-3.406a2.93 2.93 0 0 0-1.705.427 3 3 0 0 0-.809 1.658L54.933 57.11 47.79 28.925a3.5 3.5 0 0 0-.85-1.659 2.36 2.36 0 0 0-1.66-.426h-4.18a.935.935 0 0 0-1.021 1.064c.06.58.19 1.152.385 1.702l10.005 32.916c.138.626.447 1.2.893 1.661.47.334 1.045.485 1.618.426zm57.133.255a13.7 13.7 0 0 0 4.726-2.385 11.45 11.45 0 0 0 3.11-3.746 11 11 0 0 0 1.105-4.922 9.64 9.64 0 0 0-1.957-5.96 12.96 12.96 0 0 0-6.599-4.083l-6.047-1.917a12.7 12.7 0 0 1-4.682-2.342 4 4 0 0 1-1.276-3.021 4.11 4.11 0 0 1 2.003-3.79 11 11 0 0 1 5.662-1.19c2.81-.044 5.595.522 8.165 1.658a4.4 4.4 0 0 0 1.618.51c.64 0 .98-.467.98-1.36v-2.003a2.3 2.3 0 0 0-.383-1.403 3.7 3.7 0 0 0-1.276-1.064 9 9 0 0 0-1.786-.766c-.765-.255-1.577-.467-2.426-.681-.896-.169-1.787-.34-2.769-.467a21 21 0 0 0-2.85-.189 18.5 18.5 0 0 0-5.358.725 13.5 13.5 0 0 0-4.43 2.212 11 11 0 0 0-3.062 3.49 9.5 9.5 0 0 0-1.148 4.729c.009 2.236.757 4.406 2.128 6.172a12.97 12.97 0 0 0 6.813 4.338l6.172 1.916c1.583.4 3.054 1.156 4.299 2.212a4.15 4.15 0 0 1 1.151 2.98 4.6 4.6 0 0 1-2.215 4.045 11.5 11.5 0 0 1-6.215 1.406 25.7 25.7 0 0 1-5.068-.51 23.3 23.3 0 0 1-4.682-1.49c-.426-.172-.809-.343-1.064-.427a2.4 2.4 0 0 0-.766-.127c-.64 0-.98.426-.98 1.319v2.171c.003.41.09.816.256 1.192.312.519.771.933 1.319 1.191a19.3 19.3 0 0 0 4.897 1.705c2.147.51 4.347.768 6.555.766a20.3 20.3 0 0 0 6.07-.888z"/>
    <path fill="#F90" d="M115.731 86.438c-14.005 10.346-34.357 15.838-51.856 15.838A93.82 93.82 0 0 1 .567 78.135c-1.32-1.192-.128-2.807 1.45-1.873A127.66 127.66 0 0 0 65.364 93.09c16.6-.088 33.02-3.445 48.322-9.878 2.343-1.074 4.343 1.524 2.044 3.226m2.128 9.323c-.51 1.276.597 1.786 1.746.81 7.494-6.3 9.441-19.457 7.91-21.373-1.531-1.873-14.69-3.49-22.692 2.128-1.235.896-1.02 2.087.34 1.916 4.554-.554 14.602-1.745 16.391.554 1.799 2.258-1.99 11.763-3.695 15.965"/>
</svg>