<svg xmlns="http://www.w3.org/2000/svg" width="128" height="128">
    <path d="M0 0h128v128H0z" fill="#8C4FFF"/>
    <path d="M72.741 45.511l3.081-1.9A58.1 58.1 0 0 1 85.3 72.059l-3.319.237c-.47-9.481-3.789-18.489-9.24-26.785zm-17.3 15.882l-.948 3.318a52.437 52.437 0 0 1 18.959 11.852l2.37-2.607a53.5 53.5 0 0 0-20.385-12.563zm4.5-19.2l-2.134-2.608a57.806 57.806 0 0 0-9.244 10.9l2.844 1.9a35.6 35.6 0 0 1 8.534-10.192zm41.244 42.666a41.423 41.423 0 0 1-11.141 12.8 13.146 13.146 0 0 0-1.9 1.422 31.38 31.38 0 0 1-10.193 4.978h-.237a53.923 53.923 0 0 1-13.744 2.371A42.792 42.792 0 0 1 21.3 63.763v-2.607a42.556 42.556 0 0 1 63.529-34.608 42.858 42.858 0 0 1 16.356 58.311zm-6.163-45.037A39.213 39.213 0 0 0 83.881 30.1a37.193 37.193 0 0 0-6.874 1.9l-1.185-3.319c.948-.237 2.133-.711 3.082-.948a40.058 40.058 0 0 0-14.934-3.081 38.053 38.053 0 0 0-7.111.711c1.422.948 2.845 1.9 4.5 2.844l-1.9 2.608a24.938 24.938 0 0 0-7.349-4.267A39.091 39.091 0 0 0 25.1 59.5a61.68 61.68 0 0 1 9.245-1.185v3.556a45.406 45.406 0 0 0-9.719 1.185v1.185a38.659 38.659 0 0 0 16.593 32 51.818 51.818 0 0 1-2.608-15.881 22.931 22.931 0 0 1 1.185-8.06 4.6 4.6 0 0 0 .238-1.9l3.555.711c-.237.711-.237 1.185-.474 1.9a39.019 39.019 0 0 0-.948 7.349 50.789 50.789 0 0 0 3.792 18.725 35.224 35.224 0 0 0 17.778 4.267 41.56 41.56 0 0 0 12.089-1.9 41.915 41.915 0 0 0 3.556-9.008l3.081 1.186c-.711 2.133-1.422 4.266-2.133 6.163 1.422-.712 2.844-1.423 4.029-2.134a1.82 1.82 0 0 1 .712-.474c.474-.237.948-.711 1.659-1.185a23.975 23.975 0 0 0-1.659-3.556l3.081-1.422a14.505 14.505 0 0 1 1.185 2.845 39.559 39.559 0 0 0 5.685-54.045zm-34.37-3.081a7.467 7.467 0 1 1 14.933 0A7.293 7.293 0 0 1 68 44.089c-4.03 0-7.585-3.319-7.348-7.348zm3.318 0A4.154 4.154 0 0 0 68 40.77a4.56 4.56 0 0 0 4.267-4.029c.237-2.134-1.9-4.03-4.267-4.03a4 4 0 0 0-4.03 4.03zm-11.615 23.94a7.293 7.293 0 0 1-7.585 7.349c-4.029 0-7.585-3.319-7.348-7.349A7.593 7.593 0 0 1 44.77 53.1c4.03-.241 7.585 3.315 7.585 7.581zm-3.318 0a4.583 4.583 0 0 0-4.267-4.266 4.2 4.2 0 0 0-4.029 4.266 4 4 0 0 0 4.029 4.03 4.558 4.558 0 0 0 4.267-4.03zm40.77 21.808a7.094 7.094 0 0 1-7.348 7.348 7.467 7.467 0 1 1 0-14.933 7.158 7.158 0 0 1 7.348 7.585zm-3.318 0a4.56 4.56 0 0 0-4.03-4.267 4.585 4.585 0 0 0-4.267 4.267 4.206 4.206 0 0 0 4.267 4.03 4.155 4.155 0 0 0 4.03-4.03z" fill="#fff"/>
</svg>
