<svg xmlns="http://www.w3.org/2000/svg" width="128" height="128">
    <path fill="#E7157B" d="M0 0h128v128H0z"/>
    <path fill="#fff" d="M53.76 81.92H35a10.46 10.46 0 01-5.36-1.6 17.39 17.39 0 01-8.3-15.18 15.52 15.52 0 0111.1-15.65v-1.33a23.36 23.36 0 0113.33-20.61 22.38 22.38 0 0125.24 5 25.4 25.4 0 015.12 7.51 10 10 0 016.28-2.22c4.65 0 9.87 3.51 10.83 11.23 4.38 1 13.39 4.62 13.39 16.23a15.36 15.36 0 01-8.07 14.32l-1.71-3a12.08 12.08 0 006.32-11.33c0-10-8.31-12.53-12-13.14a1.71 1.71 0 01-1.11-.72 1.73 1.73 0 01-.29-1.23c-.49-6.2-4.11-9-7.51-9a6.83 6.83 0 00-5.51 2.88 1.68 1.68 0 01-3-.44A23.12 23.12 0 0068.47 35a19 19 0 00-21.35-4.23 20.07 20.07 0 00-11.28 17.36 20.44 20.44 0 00.16 2.35 1.72 1.72 0 01-1.39 1.9 12.35 12.35 0 00-9.86 12.76 13.86 13.86 0 006.71 12.29A6.88 6.88 0 0035 78.51h18.76z"/>
    <path fill="#fff" d="M104.77 92.16L92.65 80a18.09 18.09 0 10-8.29 8.76l12 11.94a6 6 0 108.5-8.49zm-28.65-4.83a14.66 14.66 0 1114.66-14.66 14.66 14.66 0 01-14.66 14.66zm26.28 10.89a2.68 2.68 0 01-3.69 0L87.35 86.85A18 18 0 0091 83l11.43 11.5a2.63 2.63 0 01-.03 3.72z"/>
    <path fill="#fff" d="M80.81 64.73l-2 2.75a5.75 5.75 0 00-9.11 5.46 5.62 5.62 0 002.27 3.86l-2 2.66a9.17 9.17 0 0110.91-14.73z"/>
</svg>
