<svg xmlns="http://www.w3.org/2000/svg" width="128" height="128" xmlns:xlink="http://www.w3.org/1999/xlink">
  <defs>
    <linearGradient id="b" x1="44.83" y1="-3.95" x2="93.94" y2="121.9" gradientUnits="userSpaceOnUse">
      <stop offset="0" stop-color="#0cc"/>
      <stop offset="1" stop-color="#0fb9b8"/>
    </linearGradient>
    <linearGradient id="c" x1="16.05" y1="7.28" x2="65.16" y2="133.13" xlink:href="#b"/>
    <linearGradient id="d" x1="42.88" y1="-3.19" x2="91.99" y2="122.66" xlink:href="#b"/>
    <linearGradient id="e" x1="36.08" y1="-.53" x2="85.19" y2="125.32" xlink:href="#b"/>
  </defs>
  <path d="m29.94,38.15c8.52.58,16.31,3.67,23.67,7.84,5.61,3.19,11.07,6.65,16.66,9.86,6.86,3.94,14.06,7.17,22.03,7.91,12.09,1.12,22.81-2.57,32.46-9.79,1.46-1.1,1.91-2.21,1.5-3.94C119.79,22.08,96.07,1.32,66.08.11c-12.83-.52-24.88,2.66-35.8,9.53C17.05,17.97,7.93,29.57,2.83,45.02c.96-.52,1.4-.78,1.86-1,7.94-4,16.29-6.47,25.26-5.86Z" fill="url(#b)"/>
  <path d="m60.83,92.62c-5.23-7.37-9.9-15.15-15.22-22.46-10.57-14.53-25.1-20.1-42.76-18.18-1.48.16-2.11.78-2.22,2.18-.16,2.22-.46,4.42-.56,6.64-.85,18.72,5.13,35.02,18.38,48.19,16.34,16.22,36.2,21.89,58.79,17.55,8.84-1.7,16.88-5.41,24.27-10.85-3.51-.53-6.75-.87-9.93-1.53-13.33-2.75-23.1-10.74-30.76-21.54Z" fill="url(#c)"/>
  <path d="m125.25,62.06c-8.06,4.76-16.7,7.59-26.12,7.85-9.89.27-18.88-2.81-27.26-7.7-6.72-3.93-13.11-8.4-19.76-12.46-9.47-5.78-19.43-9.84-30.91-8.37-6.71.86-12.96,2.94-18.69,6.54.35-.12.69-.24,1.04-.35,10.74-3.45,21.51-4.23,32.25-.13,7.46,2.85,13.77,7.51,19.64,12.82,5.23,4.72,10.28,9.65,15.64,14.22,14.79,12.61,31.21,14.99,49.2,7.66,4.18-1.7,6.82-4.03,6.91-8.82.08-4.09.49-8.18.8-12.91-1.39.84-2.07,1.26-2.75,1.66Z" fill="url(#d)"/>
  <path d="m122.08,88.83c-.57.17-1.13.37-1.69.56-6.38,2.17-12.94,3.24-19.66,3.03-11.1-.34-20.91-4.34-29.24-11.49-6.74-5.79-12.91-12.22-19.35-18.35-8.38-7.98-17.58-14.33-29.63-15.2-6.66-.49-13.1.38-18.96,2.21,2.8,0,6.03-.04,9.26,0,9.78.16,18.87,2.76,26.34,9.16,4.63,3.97,8.83,8.56,12.66,13.33,5.15,6.4,9.51,13.44,14.65,19.85,8.84,11.02,20.33,17.1,34.69,16.88,10.37-.16,8.68.34,14.57-7.53,2.79-3.74,4.88-8.01,7.38-12.2-.78-.2-.93-.29-1.05-.26Z" fill="url(#e)"/>
</svg>