<svg xmlns="http://www.w3.org/2000/svg" width="128" height="128">
  <g id="b" data-name="Layer 2">
    <path d="M111.65,32.53H16.35L0,66.78l16.35,34.25h95.31l16.35-34.25-16.35-34.25ZM106.19,95.33H19.94l-13.63-28.55,13.63-28.55h86.25l13.63,28.55-13.63,28.55Z" fill="#008ec7" stroke-width="0"/>
    <polygon points="119.82 66.78 106.19 95.33 19.94 95.33 6.31 66.78 19.94 38.23 106.19 38.23 119.82 66.78" fill="#005b9b" stroke-width="0"/>
    <path d="M43.86,57.15v20.39h-4.72v-8.36h-9.25v8.36h-4.73v-20.39h4.72v8.04h9.25v-8.04h4.73Z" fill="#fff" stroke-width="0"/>
    <path d="M52.92,61h-6.52v-3.85h17.77v3.85h-6.51v16.54h-4.73v-16.54Z" fill="#fff" stroke-width="0"/>
    <path d="M71.2,61h-6.52v-3.85h17.77v3.85h-6.52v16.54h-4.72v-16.54Z" fill="#fff" stroke-width="0"/>
    <path d="M98.51,58.06c1.26.54,2.33,1.43,3.08,2.56.74,1.18,1.11,2.54,1.08,3.93.03,1.38-.34,2.74-1.08,3.92-.75,1.14-1.82,2.03-3.08,2.56-1.49.62-3.09.93-4.71.89h-4.11v5.62h-4.71v-20.39h8.82c1.62-.04,3.22.27,4.71.9ZM96.77,67.16c.75-.65,1.16-1.61,1.11-2.61,0-1.14-.37-2.02-1.11-2.63s-1.82-.92-3.23-.92h-3.85v7.08h3.85c1.42,0,2.5-.31,3.23-.92Z" fill="#fff" stroke-width="0"/>
  </g>
</svg>