<svg xmlns="http://www.w3.org/2000/svg" width="128" height="128">
    <path d="M0 0h128v128H0z" fill="#C925D1"/>
    <path d="M85.57 69.215L74.43 80.356a20.567 20.567 0 0 0 5.689-2.371 5.638 5.638 0 0 1 2.133 3.082c0 3.081-6.637 6.4-16.356 7.822-3.081.237-6.163.711-9.244.711h-1.659c-13.749-.237-23.941-4.5-23.941-8.533a4.654 4.654 0 0 1 2.133-3.082c5.215 3.082 13.985 4.741 23.467 4.741h.237l.948-3.319h-1.185c-9.482 0-18.015-1.9-22.756-4.74-1.9-1.186-2.844-2.608-2.844-3.793v-7.822c5.215 4.029 15.644 6.163 25.6 6.163a21.7 21.7 0 0 0 4.03-.237l.948-3.556a35.023 35.023 0 0 1-4.978.237c-14.7 0-25.6-4.5-25.6-8.533a4.658 4.658 0 0 1 2.133-3.082c4.741 2.608 11.852 4.267 20.148 4.741V55.23c-8.059-.237-15.407-2.13-19.433-4.741a6.666 6.666 0 0 1-3.081-3.556v-7.822c5.215 4.03 15.644 6.163 25.6 6.163h.474l1.9-3.555h-2.37c-14.7 0-25.6-4.5-25.6-8.534s10.9-8.533 25.6-8.533a51.073 51.073 0 0 1 14.7 1.9h9.482c-5.215-3.081-13.986-5.215-24.178-5.215-13.985 0-28.919 4.03-28.919 11.852v13.744a7.42 7.42 0 0 0 2.592 5.215 6.921 6.921 0 0 0-2.6 4.978v13.748a5.583 5.583 0 0 0 2.6 4.978 6.994 6.994 0 0 0-2.6 5.215v13.985c.474 7.585 15.171 11.615 28.919 11.615s28.444-4.03 29.155-11.615V81.067a6.3 6.3 0 0 0-2.607-5.215 6.92 6.92 0 0 0 2.607-4.978v-1.659zm-3.318 25.6c0 4.029-10.9 8.533-25.6 8.533s-25.6-4.5-25.6-8.533v-8.059c5.215 4.029 15.644 5.925 25.6 6.163s20.385-2.134 25.6-6.163zM36.267 44.8a1.814 1.814 0 0 1 1.9 2.133c-.237 1.186-.948 2.134-1.9 2.134a2.292 2.292 0 0 1-2.134-2.134 2.124 2.124 0 0 1 2.134-2.133zm0 23.941a1.814 1.814 0 0 1 1.9 2.133c-.237 1.185-.948 2.133-1.9 1.9s-2.134-.948-2.134-1.9a2.291 2.291 0 0 1 2.134-2.133zm0 23.94a1.815 1.815 0 0 1 1.9 2.134c-.237 1.185-.948 2.133-1.9 1.9s-2.134-.948-2.134-1.9a2.292 2.292 0 0 1 2.134-2.134zm24.889-4.74c-.237 0-.475-.237-.949-.237-.711-.237-.948-1.185-.711-2.134l9.482-31.763h-9.719a1.62 1.62 0 0 1-1.659-1.659V51.2l10.43-20.385a1.949 1.949 0 0 1 1.422-.948h22.281a1.586 1.586 0 0 1 1.66 1.422V32l-4.5 13.274h9.477a2.3 2.3 0 0 1 1.9 1.659 1.3 1.3 0 0 1-.711 1.185L62.1 87.467a1.8 1.8 0 0 1-.944.474zm.944-37.689h9.244a2.048 2.048 0 0 1 1.422.711c.474.474.237.948.237 1.659l-8.055 27.259 29.867-31.288h-8.059a2.066 2.066 0 0 1-1.9-1.423.871.871 0 0 1 .237-.711l4.267-13.274H70.637z" fill="#fff"/>
</svg>
