<svg xmlns="http://www.w3.org/2000/svg" width="128" height="128">
    <path d="M0 0h128v128H0z" fill="#ED7100"/>
    <path d="M103.348 69.215h-8.533v-3.556h8.533V24.652H62.341v8.533h-3.556v-8.533a3.3 3.3 0 0 1 3.556-3.319h41.007a3.242 3.242 0 0 1 3.319 3.319v41.007a3.6 3.6 0 0 1-3.319 3.556zm-37.689 37.452H24.652a3.242 3.242 0 0 1-3.319-3.319V62.341a3.6 3.6 0 0 1 3.319-3.556h8.533v3.556h-8.533v41.007h41.007v-8.533h3.556v8.533a3.3 3.3 0 0 1-3.556 3.319zm25.6-58.074v-3.319h-4.978a3.821 3.821 0 0 0-3.555-3.555v-4.978h-3.319v4.978h-5.214v-4.978h-3.319v4.978h-5.215v-4.978h-3.318v4.978h-5.215v-4.978h-3.319v4.978h-5.214v-4.978h-3.319v4.978a3.821 3.821 0 0 0-3.555 3.555h-4.978v3.319h4.978v5.214h-4.978v3.319h4.978v5.215h-4.978v3.318h4.978v5.215h-4.978v3.319h4.978v5.214h-4.978v3.319h4.978a3.823 3.823 0 0 0 3.555 3.556v4.977h3.319v-4.977h5.214v4.977h3.319v-4.977h5.215v4.977h3.318v-4.977h5.215v4.977h3.319v-4.977h5.214v4.977h3.319v-4.977a3.823 3.823 0 0 0 3.555-3.556h4.978v-3.319h-4.978v-5.214h4.978v-3.319h-4.978v-5.215h4.978v-3.318h-4.978v-5.215h4.978v-3.319h-4.978v-5.214zm-8.533 33.9a.232.232 0 0 1-.237.237H45.511a.232.232 0 0 1-.237-.237V45.511a.232.232 0 0 1 .237-.237h36.978a.232.232 0 0 1 .237.237z" fill="#fff"/>
</svg>
