<svg xmlns="http://www.w3.org/2000/svg" width="128" height="128">
    <path d="M104.52 44.07c.88.29 1.67.68 2.49 1.11q.34.17.68.35c2.14 1.13 4.02 2.5 5.89 4.04.24.2.49.4.74.6.52.43 1.02.88 1.52 1.34v.32c-2.5.51-5 1-7.5 1.48-.61.11-1.21.23-1.82.35q-.71.12-1.58.18c-2.86.29-4.24 1.35-6.2 3.38-.3.29-.59.59-.9.89-.81.81-1.62 1.63-2.42 2.45-.87.88-1.75 1.76-2.63 2.64a978 978 0 0 0-4.54 4.57c-2.18 2.21-4.37 4.41-6.56 6.61-3.56 3.57-7.11 7.15-10.66 10.73-3.44 3.48-6.89 6.95-10.34 10.42-.21.21-.43.43-.64.65-2.32 2.33-4.64 4.67-6.96 7-.62.62-1.23 1.24-1.85 1.86-.41.41-.81.82-1.22 1.22-2.58 2.59-5.16 5.19-7.74 7.79l-3.9 3.93c-1.03 1.04-2.06 2.07-3.08 3.11-.77.78-1.54 1.55-2.31 2.32-.27.28-.54.55-.82.84l-.76.76c-.22.22-.43.43-.65.66-1.46 1.29-2.57 1.73-4.49 1.67-1.04-.18-1.6-.66-2.32-1.41-.55-1.1-.63-2.06-.32-3.23.85-1.2 1.86-2.21 2.91-3.23l.62-.62c.36-.36.72-.71 1.08-1.07.52-.53 1.01-1.08 1.49-1.66 1.66-1.9 3.46-3.67 5.24-5.45l1.82-1.82 1.18-1.18.54-.54c.91-.91 1.84-1.78 2.82-2.61 1.36-1.19 2.64-2.43 3.91-3.71l.73-.73 2.4-2.4 1.73-1.73c1.24-1.24 2.47-2.48 3.71-3.71 1.79-1.79 3.57-3.58 5.36-5.37 2.9-2.91 5.81-5.81 8.71-8.72l.53-.53c1.23-1.23 2.46-2.47 3.69-3.7l4.23-4.23.53-.53c2.89-2.9 5.79-5.8 8.68-8.69 1.78-1.79 3.57-3.57 5.35-5.36 1.36-1.37 2.73-2.73 4.09-4.1l1.68-1.68 2.29-2.29.68-.68.62-.62.53-.53c1.26-1.16 2.06-1.25 3.73-1.1Z" style="fill:#00b4c8;stroke-width:0"/>
    <path d="M106.78 62.18q.97.49 1.62 1.29c.29 1.04.25 1.86 0 2.91q-.43.63-.99 1.23c-.21.22-.41.45-.62.68-1.03 1.07-2.06 2.13-3.11 3.18-.24.24-.47.48-.72.72l-2.37 2.37-1.71 1.71c-1.38 1.38-2.76 2.76-4.14 4.15-1.12 1.12-2.24 2.25-3.37 3.37-3.18 3.19-6.37 6.37-9.55 9.56l-.52.52-.52.52c-2.79 2.79-5.57 5.57-8.35 8.36-2.86 2.87-5.72 5.73-8.58 8.59l-4.82 4.82-4.53 4.53-1.66 1.66c-.75.76-1.51 1.51-2.27 2.26l-.67.67c-.2.2-.41.4-.61.61l-.53.53c-.99.84-1.62 1.1-2.94 1.08-1.36-.36-1.88-.85-2.77-1.92-.49-.98-.48-1.48-.32-2.59 1.3-2.01 2.99-3.73 4.68-5.41l.71-.71c.77-.78 1.55-1.55 2.32-2.32.56-.56 1.12-1.12 1.67-1.68 1.35-1.36 2.71-2.71 4.06-4.07l3.3-3.3.48-.48.96-.96c2.99-2.99 5.97-5.98 8.96-8.97 2.73-2.73 5.46-5.46 8.19-8.2 2.81-2.81 5.61-5.62 8.42-8.43 1.58-1.58 3.15-3.15 4.72-4.73l4.44-4.44 1.63-1.63c.74-.74 1.48-1.48 2.23-2.22.21-.22.43-.43.65-.65 1.95-1.93 3.79-3.52 6.62-2.61Z" style="fill:#00b4c8;stroke-width:0"/>
    <path d="M16.53.07c1.67.95 2.95 2.21 4.29 3.57.23.23.46.46.7.69l2.3 2.3 1.65 1.65c1.34 1.34 2.68 2.68 4.01 4.02 1.56 1.56 3.12 3.12 4.67 4.68l8.34 8.34c2.7 2.7 5.39 5.4 8.09 8.1l.5.5.5.5c3.07 3.07 6.14 6.14 9.21 9.22l3.26 3.26c1.46 1.46 2.92 2.92 4.38 4.39.54.54 1.07 1.08 1.61 1.61.73.73 1.46 1.46 2.19 2.2l.65.65.59.59.51.51c.99 1.09 1.25 1.9 1.2 3.37-.23 1.3-.71 1.77-1.74 2.61-1.04.29-1.86.24-2.91 0-1.88-1.09-3.43-2.69-4.95-4.22-.22-.22-.45-.44-.68-.67l-2.22-2.22c-.53-.53-1.07-1.06-1.6-1.6-1.45-1.44-2.89-2.88-4.33-4.33-1.36-1.36-2.72-2.72-4.08-4.07-2.86-2.85-5.71-5.71-8.56-8.56-2.61-2.61-5.22-5.22-7.83-7.82-2.69-2.68-5.37-5.36-8.05-8.04-1.5-1.5-3.01-3.01-4.52-4.51-1.42-1.41-2.83-2.83-4.24-4.24-.52-.52-1.04-1.04-1.56-1.55-.71-.71-1.42-1.42-2.12-2.13-.21-.2-.41-.41-.62-.62-1.5-1.52-2.73-2.96-3.03-5.14.19-1.28.55-1.8 1.46-2.71 1.01-.5 1.8-.42 2.91-.32Z" style="fill:#00b4c8;stroke-width:0"/>
    <path d="M106.46 80.95c1.09.68 1.91 1.33 2.26 2.59.08 1.3-.06 1.92-.86 2.96-1.88 2.04-3.81 4.01-5.78 5.96-.55.55-1.1 1.09-1.65 1.64l-4.69 4.66c-.96.95-1.93 1.91-2.89 2.87-.36.36-.73.72-1.1 1.09-.51.5-1.02 1.01-1.52 1.51l-.87.87c-.97 1.08-1.34 1.67-1.36 3.13.46 1.63 1.31 2.43 2.51 3.58.22.22.44.43.66.66.46.46.92.91 1.39 1.36.71.69 1.41 1.39 2.12 2.09.45.44.9.89 1.35 1.33.21.21.42.41.64.63 2.6 2.52 4.45 2.9 8.01 3.04 1.23.17 2.03.48 3.08 1.12.8 1.2.85 2.17.65 3.56-.47.99-.86 1.44-1.88 1.86-1.88.48-3.83.49-5.76.53q-.39.01-.78.03c-3.26 0-5.31-1.63-7.56-3.84-1.52-1.54-2.99-3.12-4.46-4.71-1.75-1.88-3.52-3.7-5.47-5.37q-3.71-3.19-3.92-5.05c0-.28-.02-.55-.02-.83-.01-.27-.02-.54-.04-.82.33-2.1 2.15-3.63 3.6-5.06.21-.22.43-.43.65-.65l2.12-2.12 1.48-1.48 3.1-3.1c1.33-1.32 2.65-2.65 3.97-3.97l3.06-3.06 1.46-1.46 2.05-2.05.61-.61q3.26-3.23 5.85-2.85Z" style="fill:#00b4c8;stroke-width:0"/>
    <path d="M21.06 24.01c1.43.85 2.6 1.86 3.77 3.04l.52.52c.58.57 1.15 1.15 1.72 1.72.41.41.83.82 1.24 1.24l3.36 3.36 3.51 3.51 5.9 5.9c2.27 2.28 4.55 4.55 6.82 6.82 1.95 1.95 3.91 3.9 5.86 5.86l3.5 3.5c1.1 1.09 2.19 2.19 3.29 3.29l1.21 1.21c.55.55 1.1 1.1 1.64 1.65q.24.24.49.48c.78.79 1.44 1.5 1.82 2.56-.02 1.34-.24 2.3-1.03 3.38q-.91.83-1.82 1.05c-4.27-.92-7.68-5.53-10.64-8.49-.37-.37-.74-.73-1.1-1.1-.99-.98-1.98-1.97-2.96-2.96-.62-.62-1.24-1.23-1.85-1.85-1.94-1.93-3.88-3.87-5.82-5.81-2.23-2.23-4.46-4.45-6.69-6.68-1.73-1.73-3.46-3.45-5.19-5.18l-3.09-3.09c-.97-.97-1.94-1.93-2.91-2.9l-1.06-1.06q-4.39-4.35-4.87-6.77c.29-1.33.87-1.9 1.82-2.87.93-.46 1.56-.42 2.59-.32Z" style="fill:#00b4c8;stroke-width:0"/>
    <path d="M26.23 48.27c2.17 1.13 3.9 2.79 5.6 4.51l.76.76c.82.82 1.64 1.64 2.46 2.47l1.72 1.72c1.35 1.35 2.7 2.71 4.05 4.06l3.69 3.69c1.34 1.33 2.67 2.67 4.01 4.01l1.7 1.7c.79.79 1.58 1.58 2.37 2.38l.71.71q2.84 2.87 2.84 4.73c-.05 1.31-.49 1.99-1.44 2.91-1.15.58-2.31.56-3.56.32-.73-.45-1.28-.95-1.88-1.56-.68-.68-1.39-1.31-2.11-1.94-2.28-2.04-4.42-4.21-6.59-6.37-.45-.45-.91-.9-1.36-1.36-.95-.94-1.89-1.89-2.83-2.83-1.2-1.2-2.41-2.4-3.61-3.6-.94-.93-1.87-1.86-2.8-2.8l-1.33-1.33q-6.75-6.71-7.04-8.86c.17-1.46.72-1.95 1.74-2.99 1.04-.52 1.75-.45 2.91-.32Z" style="fill:#00b4c8;stroke-width:0"/>
</svg>
