<svg xmlns="http://www.w3.org/2000/svg" width="128" height="128">
    <path d="M32 80v-6.857h64V80zm0-20.571v-6.857h36.571v6.857zm0 41.143v-6.858h64v6.858z" fill="#00bfb2"/>
    <path d="M86.144 0h-69A10.286 10.286 0 0 0 6.857 10.286v107.429A10.286 10.286 0 0 0 17.143 128h93.714a10.286 10.286 0 0 0 10.286-10.285V37.271zm3 13.211l21.936 23.36H89.143zm21.714 107.932H17.143a3.429 3.429 0 0 1-3.429-3.428V10.286a3.429 3.429 0 0 1 3.429-3.429h65.143v36.572h32v74.286a3.429 3.429 0 0 1-3.429 3.428z" fill="#535966"/>
</svg>
