<svg xmlns="http://www.w3.org/2000/svg" width="128" height="128">
    <defs>
        <linearGradient id="a" x1="29.571" y1="41.221" x2="49.214" y2="41.221" gradientUnits="userSpaceOnUse">
            <stop offset="0" stop-color="#266ab2"/>
            <stop offset=".015" stop-color="#256bb2"/>
            <stop offset="1" stop-color="#008aab"/>
        </linearGradient>
        <linearGradient id="b" x1="32.833" y1="55.249" x2="61.335" y2="60.79" gradientUnits="userSpaceOnUse">
            <stop offset="0" stop-color="#8fc652"/>
            <stop offset=".069" stop-color="#84c359"/>
            <stop offset=".711" stop-color="#26a99b"/>
            <stop offset=".999" stop-color="#009eb5"/>
        </linearGradient>
        <linearGradient id="c" x1="47.241" y1="47.729" x2="69.346" y2="47.729" gradientUnits="userSpaceOnUse">
            <stop offset="0" stop-color="#00afbc"/>
            <stop offset="1" stop-color="#00b3b6"/>
        </linearGradient>
        <linearGradient id="d" x1="55.404" y1="41.828" x2="84.579" y2="38.245" gradientUnits="userSpaceOnUse">
            <stop offset="0" stop-color="#4e5ba8"/>
            <stop offset=".582" stop-color="#1f95d4"/>
            <stop offset="1" stop-color="#00bbf0"/>
        </linearGradient>
    </defs>
    <path d="M14.464 77.974c0-1.442 1.042-2.036 2.4-1.968h1.86v-2.221l-1.851-.02a4.178 4.178 0 0 0-4.491 4.209v1.384h-1.52v2.007h1.52v12.314h2.078V81.365h3.16v-2.007h-3.163v-1.384zM81.008 88.379c.006 1.315.523 3.04 2.822 3.1h.886v2.2l-1.12-.01a4.791 4.791 0 0 1-4.673-4.678v-8.416l-2.117.283v-2.146h2.117v-5.144H81v5.144h3.163v2.146H81s0 5.36.008 7.521z" fill="#171c1d"/>
    <path d="M113.638 88.379c.007 1.315.523 3.04 2.822 3.1h.887v2.2l-1.12-.01a4.792 4.792 0 0 1-4.674-4.678v-8.416l-2.117.283v-2.146h2.117v-5.144h2.079v5.144h3.168v2.146h-3.163s-.009 5.36.001 7.521z" fill="#00b297"/>
    <path fill="#171c1d" d="M22.784 73.857h2.184v19.822h-2.184z"/>
    <path fill="#00b297" d="M103.425 78.698h2.184v14.981h-2.184z"/>
    <path d="M42.055 87.374v-8.787h-2.184v8.957a3.771 3.771 0 0 1-3.9 4.039 3.84 3.84 0 0 1-3.939-4.039l.01-8.957h-2.186l-.007 8.733a6.109 6.109 0 0 0 6.37 6.359 6 6 0 0 0 5.836-6.305zM61.989 84.892v8.788h2.184v-8.957a3.772 3.772 0 0 1 3.9-4.04 3.841 3.841 0 0 1 3.939 4.04L72 93.679h2.184l.007-8.732a6.109 6.109 0 0 0-6.369-6.36 6 6 0 0 0-5.833 6.305z" fill="#171c1d"/>
    <g fill="#00b297">
        <path d="M93.662 78.625h.001-.001zM93.663 93.679h-.001.001zM99.853 86.152v-1.168a5.96 5.96 0 0 0-6.193-6.359A6.355 6.355 0 0 0 89.982 80v-6.36H87.8s-.065 11.326-.065 14.981c0 2.489 2.409 4.808 5.93 5.055 4.471-.059 6.19-3.2 6.193-6.359l-.005-1.165zm-5.941 5.431c-3.035-.2-3.944-1.7-3.9-4.039V84.76c.026-2.022.866-3.9 3.9-4.04a3.662 3.662 0 0 1 3.757 3.828v1.6s.006 1.2 0 1.6a3.75 3.75 0 0 1-3.757 3.835z"/>
    </g>
    <path d="M53.1 78.663c-4.4-.054-6.4 2.633-6.664 5.079-.055.511-.031 3.088-.029 4.195a6.007 6.007 0 0 0 5.81 5.742l4.65-.014v-2.179c-.939 0-3.459-.009-4.642 0a4.044 4.044 0 0 1-3.633-4.4h8.355s.675 0 .949-.013a1.9 1.9 0 0 0 1.4-1.858 6.384 6.384 0 0 0-6.196-6.552zm-4.52 6.245c-.027-2.55 1.859-4.008 4.42-4.008a3.99 3.99 0 0 1 4.157 3.963z" fill="#171c1d"/>
    <g>
        <path d="M69.41 40.64c-.022.032-.042.065-.064.1" fill="#171c1d"/>
        <path d="M49.123 44.131a19.2 19.2 0 0 1-5.043-1.559c-5.766-2.636-11.688-7.144-14.509-12.15.953 1.838 8.373 15.733 17.67 21.6a12.264 12.264 0 0 0 1.882-7.891z" fill="url(#a)"/>
        <path d="M47.241 52.02a15.5 15.5 0 0 1-2.187 2.867s-6.391 7.638-14.029 9.664c0 0 9.775 3.46 21.278-3.039a29.522 29.522 0 0 0 10.86-10.128c-5.374 4.623-10.92 3.792-15.922.636z" fill="url(#b)"/>
        <path d="M44.08 42.572a19.2 19.2 0 0 0 5.043 1.559 10.608 10.608 0 0 0-1.107-3.468c-2.967-5.757-9.026-9.793-11.75-11.393l-.123-.051.123.051c-.853-.5-1.383-.766-1.383-.766s-8.456-5.377-6.118.273a15.221 15.221 0 0 0 .806 1.645l-.105-.2s.036.071.105.2c2.821 5.006 8.743 9.514 14.509 12.15z" fill="#1e75bb"/>
        <path d="M48.016 40.819a10.6 10.6 0 0 1 1.107 3.468 11.2 11.2 0 0 0 5.44-.273 4.9 4.9 0 0 0 .591-.3c-.452-.4-13.548-12.062-18.888-14.285 2.724 1.597 8.783 5.633 11.75 11.39z" fill="#00bae5"/>
        <path d="M55.167 43.644l-.013-.011a4.9 4.9 0 0 1-.591.3 11.2 11.2 0 0 1-5.44.273 12.264 12.264 0 0 1-1.882 7.894c5 3.156 10.548 3.987 15.922-.636C65.468 47.9 67 44.234 69.346 40.76c-.6.717-1.321 1.639-2.2 2.826-4.887 6.632-11.979.058-11.979.058zm8 7.74l.051-.043z" fill="url(#c)"/>
        <path d="M83.069 34.954a26.858 26.858 0 0 0-7.638.662 10.638 10.638 0 0 1-5.826-.019 11.033 11.033 0 0 0-3.546-.624s-3.507-.467-6.118 3.741a14.513 14.513 0 0 1-4.787 5l.013.011s7.092 6.574 11.983-.058a58.866 58.866 0 0 1 2.2-2.826 10.461 10.461 0 0 1 2.422-2.455s3-2.357 11.243-2.864l.448-.02s.795-.509-.394-.548zm-15.919 3.8a.974.974 0 1 1 .974-.974.974.974 0 0 1-.974.973z" fill="url(#d)"/>
    </g>
</svg>
