<svg xmlns="http://www.w3.org/2000/svg" width="128" height="128">
  <g>
    <circle fill="#aecbfa" cx="64" cy="115.2" r="12.8"/>
    <circle fill="#aecbfa" cx="64" cy="12.8" r="12.8"/>
  </g>
  <g>
    <path fill="#4285f4" d="M90.88,36.67l-26.88,26.88-9.47-9.34-4.86,4.86,9.54,9.54s.03,.03,.04,.04c2.69,2.66,7.02,2.64,9.68-.04l27.14-26.88-5.18-5.06Z"/>
    <path fill="#4285f4" d="M126.27,33.86l-19.2-19.2s-.02-.02-.04-.04c-2.51-2.49-6.56-2.47-9.05,.04-2.48,2.5-2.48,6.53,0,9.02l17.22,17.34v45.95l-17.34,17.34c-1.17,1.19-1.82,2.79-1.83,4.45-.01,3.53,2.84,6.41,6.37,6.43,1.71,0,3.35-.7,4.54-1.92l19.2-19.2c1.18-1.19,1.85-2.8,1.86-4.48V38.4c.04-1.68-.58-3.32-1.73-4.54Z"/>
  </g>
  <g>
    <path fill="#669df6" d="M90.81,61.63c-.4-.04-.81-.04-1.22,0v-.26c-2.74,.29-4.9,2.45-5.18,5.18-1.28,9.41-8.85,16.72-18.3,17.66-4.07,.41-8.16-.4-11.78-2.3-9.98-5.25-13.81-17.6-8.56-27.57,3.23-6.13,9.34-10.2,16.24-10.82,2.61-.24,5.24,.04,7.74,.83,2.3,.82,4.86,.1,6.4-1.79,2.08-2.45,1.78-6.13-.67-8.21-.56-.47-1.2-.84-1.89-1.07-16.83-5.4-34.85,3.86-40.25,20.69-1.36,4.25-1.82,8.73-1.35,13.17,1.64,17.6,17.24,30.53,34.84,28.89,.08,0,.16-.01,.24-.02,15.03-1.34,27.09-12.99,28.93-27.97,.34-3.2-1.99-6.06-5.18-6.4Z"/>
    <path fill="#669df6" d="M12.8,86.98V41.02L30.14,23.68c2.48-2.5,2.48-6.53,0-9.02l-.04-.04c-2.51-2.49-6.56-2.47-9.05,.04L1.86,33.86C.66,35.06,0,36.7,0,38.4v51.2c0,1.68,.67,3.29,1.86,4.48l19.2,19.2c1.2,1.22,2.83,1.91,4.54,1.92,1.65,0,3.23-.65,4.42-1.79,.01-.01,.02-.02,.04-.04,2.49-2.51,2.47-6.56-.04-9.05l-17.22-17.34Z"/>
  </g>
</svg>