<svg xmlns="http://www.w3.org/2000/svg" width="128" height="128">
    <path d="M27.64 64a38 38 0 011.9-11.89L8 35.65a64.45 64.45 0 000 56.7l21.54-16.46A38 38 0 0127.64 64z" fill="#fbbc05"/>
    <path d="M8 35.65l21.54 16.46a37.74 37.74 0 0135.91-25.93A37 37 0 0189 34.62L107.64 16A63.91 63.91 0 008 35.65z" fill="#ea4335"/>
    <path d="M86.73 96.24c-5.77 3.64-13 5.58-21.28 5.58a37.75 37.75 0 01-35.93-26L8 92.33A63.79 63.79 0 0065.45 128a60.93 60.93 0 0041.7-16z" fill="#34a853"/>
    <path d="M65.45 52.36v24.73h34.33a28.87 28.87 0 01-13 19.15l20.42 15.81c11.75-10.92 19.4-27.19 19.4-48a53.38 53.38 0 00-1.46-11.64z" fill="#4285f4"/>
</svg>
