<svg xmlns="http://www.w3.org/2000/svg" width="128" height="128">
    <g fill="#430098">
        <path d="M110.08 0H17.92A11.52 11.52 0 0 0 6.4 11.52v104.96A11.52 11.52 0 0 0 17.92 128h92.16a11.52 11.52 0 0 0 11.52-11.52V11.52A11.52 11.52 0 0 0 110.08 0zm5.12 116.48a5.126 5.126 0 0 1-5.12 5.12H17.92a5.126 5.126 0 0 1-5.12-5.12V11.52a5.126 5.126 0 0 1 5.12-5.12h92.16a5.126 5.126 0 0 1 5.12 5.12z"/>
        <path d="M35.2 108.8L49.6 96 35.2 83.2v25.6zM87.227 56.92C84.648 54.311 79.912 51.2 72 51.2c-8.677 0-17.61 2.257-24 4.338V19.2H35.2v55.508l9.041-4.1C44.387 70.545 58.985 64 72 64c6.5 0 7.938 3.588 8 6.576V108.8h12.8V70.4a19.958 19.958 0 0 0-5.573-13.48zM70.4 40h12.8a37.508 37.508 0 0 0 9.6-20.8H80A49.757 49.757 0 0 1 70.4 40z"/>
    </g>
</svg>
