<svg xmlns="http://www.w3.org/2000/svg" width="128" height="128">
    <g fill="#706d6e">
        <path d="M38.206 116.429a7.271 7.271 0 0 0-1.471-.158 6.491 6.491 0 0 0-3.2.77 5.183 5.183 0 0 0-2.111 2.17 6.915 6.915 0 0 0-.725 3.216 5.93 5.93 0 0 0 .7 2.882 4.946 4.946 0 0 0 1.969 1.991 5.857 5.857 0 0 0 2.878.7 6.3 6.3 0 0 0 3.175-.743l.034-.02v-2.411l-.11.08a4.962 4.962 0 0 1-1.288.671 3.9 3.9 0 0 1-1.261.244 3.242 3.242 0 0 1-2.464-.96 3.737 3.737 0 0 1-.909-2.661 3.873 3.873 0 0 1 .948-2.731 3.222 3.222 0 0 1 2.468-1.019 4.227 4.227 0 0 1 2.506.872l.11.08v-2.541l-.035-.02a4.384 4.384 0 0 0-1.214-.412zM26.254 116.541h2.632v11.189h-2.632zM27.6 111.775a1.587 1.587 0 0 0-1.122.439 1.45 1.45 0 0 0-.47 1.1 1.413 1.413 0 0 0 .465 1.076 1.606 1.606 0 0 0 1.127.428 1.622 1.622 0 0 0 1.131-.428 1.4 1.4 0 0 0 .471-1.076 1.478 1.478 0 0 0-.458-1.086 1.573 1.573 0 0 0-1.144-.453zM46.881 116.347a2.7 2.7 0 0 0-1.761.631 3.565 3.565 0 0 0-1.012 1.5h-.028v-1.938h-2.632v11.19h2.632v-5.724a3.991 3.991 0 0 1 .656-2.376 2.012 2.012 0 0 1 1.7-.9 3.113 3.113 0 0 1 .792.116 2 2 0 0 1 .613.248l.111.08v-2.653l-.043-.018a2.706 2.706 0 0 0-1.028-.156zM21.03 115.716v12.014h2.686v-15.613h-3.718l-4.725 11.597-4.586-11.597H6.819v15.613h2.524v-12.016h.086l4.843 12.016h1.904l4.767-12.014h.087zM75.394 116.271a5.844 5.844 0 0 0-4.355 1.607 6.028 6.028 0 0 0-1.574 4.387A5.7 5.7 0 0 0 71 126.452 5.571 5.571 0 0 0 75.125 128a5.686 5.686 0 0 0 4.269-1.63 6.008 6.008 0 0 0 1.573-4.343 5.86 5.86 0 0 0-1.476-4.218 5.438 5.438 0 0 0-4.097-1.538zm2.093 8.616a2.671 2.671 0 0 1-2.211.934 2.825 2.825 0 0 1-2.267-.952 4.043 4.043 0 0 1-.815-2.69 4.2 4.2 0 0 1 .815-2.761 2.782 2.782 0 0 1 2.245-.968 2.737 2.737 0 0 1 2.186.926 4.116 4.116 0 0 1 .8 2.738 4.39 4.39 0 0 1-.753 2.773zM94.9 125.5a1.867 1.867 0 0 1-.536.233 2.022 2.022 0 0 1-.526.09 1.43 1.43 0 0 1-1.135-.413 2.23 2.23 0 0 1-.36-1.438v-5.283h2.665v-2.146H92.34V113.2l-.089.028-2.5.766-.049.015v2.528h-3.956v-1.408a2.239 2.239 0 0 1 .436-1.493 1.535 1.535 0 0 1 1.221-.5 2.843 2.843 0 0 1 1.158.264l.1.044v-2.261l-.047-.017a4.525 4.525 0 0 0-1.48-.2 4.344 4.344 0 0 0-2.1.5 3.593 3.593 0 0 0-1.441 1.425 4.246 4.246 0 0 0-.51 2.089v1.549h-1.857v2.146h1.856v9.043h2.664v-9.043H89.7v5.747c0 2.366 1.116 3.566 3.318 3.566a5.449 5.449 0 0 0 1.131-.126 3.116 3.116 0 0 0 .824-.261l.035-.021v-2.166zM65.444 121.165a5.707 5.707 0 0 1-1.58-.822 1.148 1.148 0 0 1-.319-.862.962.962 0 0 1 .4-.8 1.819 1.819 0 0 1 1.134-.32 4.625 4.625 0 0 1 1.35.208 4.322 4.322 0 0 1 1.179.546l.109.075v-2.434l-.042-.018a5.809 5.809 0 0 0-1.2-.334 7.336 7.336 0 0 0-1.312-.136 4.824 4.824 0 0 0-3.087.954 3.044 3.044 0 0 0-1.2 2.483 3.467 3.467 0 0 0 .259 1.387 2.79 2.79 0 0 0 .8 1.04 6.929 6.929 0 0 0 1.62.906 12.041 12.041 0 0 1 1.347.628 1.871 1.871 0 0 1 .593.487 1.1 1.1 0 0 1 .165.634c0 .752-.563 1.118-1.722 1.118a4.73 4.73 0 0 1-1.456-.267 5.477 5.477 0 0 1-1.492-.756l-.11-.08v2.565l.04.019a6.62 6.62 0 0 0 1.413.437 7.614 7.614 0 0 0 1.508.174 5.118 5.118 0 0 0 3.259-.959 3.1 3.1 0 0 0 1.214-2.542 2.921 2.921 0 0 0-.653-1.922 5.581 5.581 0 0 0-2.217-1.409zM54.054 116.271a5.845 5.845 0 0 0-4.356 1.607 6.028 6.028 0 0 0-1.574 4.387 5.706 5.706 0 0 0 1.537 4.187A5.571 5.571 0 0 0 53.784 128a5.684 5.684 0 0 0 4.269-1.63 6.008 6.008 0 0 0 1.573-4.343 5.86 5.86 0 0 0-1.476-4.218 5.438 5.438 0 0 0-4.096-1.538zm2.092 8.616a2.671 2.671 0 0 1-2.211.934 2.825 2.825 0 0 1-2.267-.952 4.043 4.043 0 0 1-.814-2.69 4.2 4.2 0 0 1 .815-2.761 2.779 2.779 0 0 1 2.244-.968 2.74 2.74 0 0 1 2.186.926 4.116 4.116 0 0 1 .8 2.738 4.39 4.39 0 0 1-.753 2.773z"/>
        <g>
            <path d="M101.008 111.743h2.632v15.987h-2.632zM106.626 111.743h2.632v15.987h-2.632zM119.881 120.565a7.339 7.339 0 0 0-1.32-1.015 20.31 20.31 0 0 0-1.52-.833c-.5-.245-.943-.474-1.326-.68a5.575 5.575 0 0 1-.9-.593 1.84 1.84 0 0 1-.481-.576 1.581 1.581 0 0 1-.151-.725 1.291 1.291 0 0 1 .188-.728 1.684 1.684 0 0 1 .544-.521 2.675 2.675 0 0 1 .831-.316 4.956 4.956 0 0 1 1.009-.106 5.2 5.2 0 0 1 3.008.8l.815.564v-3.219l-.278-.146a7.475 7.475 0 0 0-3.373-.577 7.921 7.921 0 0 0-1.978.25 5.729 5.729 0 0 0-1.777.781 4.263 4.263 0 0 0-1.3 1.377 4.2 4.2 0 0 0-.182 3.624 4.179 4.179 0 0 0 .873 1.232 6.676 6.676 0 0 0 1.242.946c.449.27.937.538 1.451.8.476.242.922.472 1.334.69a6.561 6.561 0 0 1 1 .638 2.4 2.4 0 0 1 .589.652 1.672 1.672 0 0 1-.382 2.022 3.428 3.428 0 0 1-2.034.479 5.53 5.53 0 0 1-.906-.084 7.6 7.6 0 0 1-1-.243 6.133 6.133 0 0 1-.935-.378 3.421 3.421 0 0 1-.716-.473l-.863-.762v3.432l.228.155a3.618 3.618 0 0 0 .882.413 9.048 9.048 0 0 0 1.06.279c.365.074.728.131 1.08.17a8.6 8.6 0 0 0 .907.058 9.6 9.6 0 0 0 2.079-.22 5.466 5.466 0 0 0 1.817-.746 3.984 3.984 0 0 0 1.3-1.39 4.18 4.18 0 0 0 .487-2.074 3.753 3.753 0 0 0-.362-1.668 4.731 4.731 0 0 0-.94-1.289z"/>
        </g>
    </g>
    <path d="M61.46 48.8h-48.8V0h48.8z" fill="#f1511b"/>
    <path d="M115.338 48.8h-48.8V0h48.8v48.8z" fill="#80cc28"/>
    <path d="M61.458 102.7h-48.8V53.9h48.8z" fill="#00adef"/>
    <path d="M115.338 102.7h-48.8V53.9h48.8v48.8z" fill="#fbbc09"/>
</svg>
