<svg xmlns="http://www.w3.org/2000/svg" width="128" height="128">
    <path d="M63.8 96.41c6.51 0 13 .06 19.53 0 9.75-.1 19.52 0 29.24-.52 11.34-.64 18.72-13.73 14-24.09-3.47-7.56-9.41-10.95-18.41-10.38-1.42.1-2.05-.13-2.28-1.69A18.15 18.15 0 0085 44.22a4 4 0 01-4.3-1.9 22.24 22.24 0 00-29-5.48 23.85 23.85 0 00-10.46 13.34c-.27.83-1.29 2-2 2-6.48.29-11.24 3.3-14.6 8.69a2.24 2.24 0 01-2.74 1 27 27 0 00-5.15-.5c-7.9 0-14.36 5.49-16.33 13.81a17.43 17.43 0 008.67 18.89 22.73 22.73 0 0010.68 2.32c14.68.05 29.36.02 44.03.02z" fill="#b3e9e7"/>
    <path d="M91.26 84.14c2.79-3.41 4.42-7.11 4.18-11.4a15 15 0 00-24-11.43 14.61 14.61 0 00-5.5 8.33 15.8 15.8 0 003.3 14.14c-3.35 1.94-6.51 3.77-9.69 5.56a1.58 1.58 0 01-1.2.12c-1.72-.69-3.41-1.47-5.11-2.22 4.4-9 4-14.38-1.26-19a12.69 12.69 0 00-20.37 5.54c-1.82 5-.29 9.3 2.66 13.45-4.9 2-9.6 3.85-11.75 9.18h41.31c6.51 0 13 .06 19.53 0 7.42-.08 14.86 0 22.28-.23-2.1-7.18-8.16-9.58-14.38-12.04z" fill="#14a19c"/>
</svg>
