<svg xmlns="http://www.w3.org/2000/svg" xmlns:xlink="http://www.w3.org/1999/xlink" width="128" height="128">
    <defs>
        <clipPath id="d">
            <path fill="none" d="M0 0h128v128H0z"/>
        </clipPath>
        <radialGradient id="a" cx="-50.606" cy="-252.868" r="1.989" gradientTransform="matrix(6.077 -.256 -.221 -9.303 282.496 -2299.502)" gradientUnits="userSpaceOnUse">
            <stop offset="0" stop-color="#fefefc"/>
            <stop offset=".757" stop-color="#fefefc"/>
            <stop offset="1" stop-color="#d4d4d4"/>
        </radialGradient>
        <radialGradient id="e" cx="-65.687" cy="-252.454" r="1.989" gradientTransform="matrix(8.094 -.256 -.294 -9.303 525.495 -2299.502)" xlink:href="#a"/>
        <radialGradient id="f" cx="-180.904" cy="-283.735" r="2.1" gradientTransform="matrix(5.202 -3.781 -3.432 -4.722 11.34 -1947.467)" gradientUnits="userSpaceOnUse">
            <stop offset="0" stop-color="#020204"/>
            <stop offset=".734" stop-color="#020204"/>
            <stop offset="1" stop-color="#5c5c5c"/>
        </radialGradient>
        <linearGradient id="g" x1="127.835" y1="-11.381" x2="134.671" y2="-19.476" gradientTransform="matrix(1 0 0 -1 -60 49.638)" gradientUnits="userSpaceOnUse">
            <stop offset="0" stop-color="#949494" stop-opacity=".392"/>
            <stop offset=".5" stop-color="#949494"/>
            <stop offset="1" stop-color="#949494" stop-opacity=".392"/>
        </linearGradient>
        <clipPath id="h">
            <path d="M60.434 50.433a16.631 16.631 0 0 0-6.361 7.887c-1.461 4.072-.9 8.63.508 12.72 1.445 4.19 3.861 8.183 7.51 10.7a13.752 13.752 0 0 0 6.136 2.381A11.2 11.2 0 0 0 74.679 83a12.434 12.434 0 0 0 5.356-5.882 21.547 21.547 0 0 0 1.765-7.857 26.52 26.52 0 0 0-1.272-10.177 17.1 17.1 0 0 0-6.587-8.82 12.879 12.879 0 0 0-5.2-1.969 11.091 11.091 0 0 0-5.512.612 13.811 13.811 0 0 0-2.8 1.526" fill="none"/>
        </clipPath>
        <linearGradient id="b" x1="210.046" y1="7.881" x2="224.528" y2="-5.791" gradientTransform="matrix(1 0 0 -1 -140 49.638)" gradientUnits="userSpaceOnUse">
            <stop offset="0" stop-color="#646464" stop-opacity="0"/>
            <stop offset=".306" stop-color="#646464" stop-opacity=".583"/>
            <stop offset=".47" stop-color="#646464"/>
            <stop offset=".728" stop-color="#646464" stop-opacity=".257"/>
            <stop offset="1" stop-color="#646464" stop-opacity="0"/>
        </linearGradient>
        <linearGradient id="i" x1="168.457" y1="7.182" x2="182.093" y2="-5.95" xlink:href="#b"/>
        <linearGradient id="j" x1="78.333" y1="-10.576" x2="84.27" y2="-21.19" gradientTransform="matrix(1 0 0 -1 -50 49.638)" gradientUnits="userSpaceOnUse">
            <stop offset="0" stop-color="#757574" stop-opacity="0"/>
            <stop offset=".263" stop-color="#757574"/>
            <stop offset=".5" stop-color="#757574"/>
            <stop offset="1" stop-color="#757574" stop-opacity="0"/>
        </linearGradient>
        <radialGradient id="k" cx="-80.946" cy="-394.119" r="4.247" gradientTransform="matrix(6.979 -2.88 -2.023 -4.901 -174.005 -2075.959)" gradientUnits="userSpaceOnUse">
            <stop offset="0" stop-color="#d2940a"/>
            <stop offset=".751" stop-color="#d89c08"/>
            <stop offset=".866" stop-color="#b67e07"/>
            <stop offset="1" stop-color="#946106"/>
        </radialGradient>
        <linearGradient id="l" x1="170.85" y1="-37.058" x2="228.327" y2="-36.608" gradientTransform="matrix(1 0 0 -1 -150 49.638)" gradientUnits="userSpaceOnUse">
            <stop offset="0" stop-color="#ad780a"/>
            <stop offset=".12" stop-color="#d89e08"/>
            <stop offset=".255" stop-color="#edb80b"/>
            <stop offset=".392" stop-color="#ebc80d"/>
            <stop offset=".527" stop-color="#f5d838"/>
            <stop offset=".769" stop-color="#f6d811"/>
            <stop offset="1" stop-color="#f5cd31"/>
        </linearGradient>
        <radialGradient id="c" cx="-195.449" cy="-517.595" r=".441" gradientTransform="matrix(7.455 0 0 -4.348 1509.206 -2175.012)" gradientUnits="userSpaceOnUse">
            <stop offset="0" stop-color="#3a2903"/>
            <stop offset=".555" stop-color="#735208"/>
            <stop offset="1" stop-color="#ac8c04"/>
        </radialGradient>
        <radialGradient id="m" cx="-197.435" cy="-294.324" r=".21" gradientTransform="matrix(7.455 0 0 -8.015 1509.206 -2282.946)" xlink:href="#c"/>
        <linearGradient id="n" x1="146.962" y1="-37.053" x2="147.407" y2="-39.852" gradientTransform="matrix(1.096 0 .17 -1.518 -76.34 28.66)" gradientUnits="userSpaceOnUse">
            <stop offset="0" stop-color="#f5ce2d"/>
            <stop offset="1" stop-color="#d79b08"/>
        </linearGradient>
        <clipPath id="o">
            <path d="M28.36 50.432a7.884 7.884 0 0 0-4.872 2.174 11 11 0 0 0-2.836 4.583c-1.15 3.443-.891 7.176-.63 10.8.236 3.278.478 6.62 1.706 9.669a12.609 12.609 0 0 0 2.626 4.136 9.008 9.008 0 0 0 4.191 2.477 8.449 8.449 0 0 0 4.561-.164 9.889 9.889 0 0 0 3.915-2.379 13.134 13.134 0 0 0 3.311-5.79 22.976 22.976 0 0 0 .766-6.676 27.862 27.862 0 0 0-1.288-8.312 18.713 18.713 0 0 0-4.246-7.211 12.016 12.016 0 0 0-3.255-2.44 8.025 8.025 0 0 0-3.949-.867" fill="none"/>
        </clipPath>
    </defs>
    <g clip-path="url(#d)" data-name="Content - PLACE ART IN THIS LAYER">
        <path d="M116.172 110.855c3.313 7.216 7.012 14.251 10.3 21.479 6.325 13.911 11.128 28.6 13.124 43.75s1.123 30.792-3.619 45.319c-5.352 16.4-15.509 30.984-27.956 42.924C93.3 278.451 74.4 289.341 54.008 290.143c-13.284.522-26.509-3.277-38.274-9.469a87.141 87.141 0 0 1-26.112-20.681A70.586 70.586 0 0 1-25.4 230.386c-3.049-13.415-1.669-27.657 2.946-40.618 3.3-9.269 8.193-17.9 11.676-27.1 3.806-10.054 5.932-20.79 10.978-30.285 4.571-8.608 11.425-15.963 15.066-25 2.175-5.4 3.118-11.2 4.523-16.849s3.371-11.34 7.2-15.729c4.608-5.288 11.543-8.155 18.512-8.959s14.02.282 20.86 1.841a142.58 142.58 0 0 1 16.077 4.653 51.785 51.785 0 0 1 12.824 6.222c5.29 3.766 9.321 9.069 12.532 14.714s5.668 11.678 8.378 17.579" fill="#020204"/>
        <path d="M14.966 95.653c-.655-7.888-.5-15.818-.791-23.727-.283-7.605-.983-15.206-.727-22.811.261-7.745 1.558-15.58 5-22.522a38.044 38.044 0 0 1 15.863-16.508 43.549 43.549 0 0 1 21.1-4.858 48.524 48.524 0 0 1 27.816 8.9A49.517 49.517 0 0 1 95.8 27.678a52.613 52.613 0 0 1 6.437 14.442c2.841 10.472 2.167 21.521 2.719 32.358.524 10.27 2.167 20.516 1.608 30.784a16.528 16.528 0 0 1-1.357 6.512 11.138 11.138 0 0 1-4.5 4.6 17.881 17.881 0 0 1-6.168 2.027c-4.3.663-8.7.225-13.033.627-6.289.583-12.288 2.915-18.53 3.88-7.439 1.15-15.018.334-22.539.033-3.012-.12-6.034-.158-9.025-.533a24.846 24.846 0 0 1-8.633-2.518 15.417 15.417 0 0 1-4.371-3.408 12.031 12.031 0 0 1-2.622-4.861c-.7-2.7-.331-5.543-.321-8.332.009-2.55-.286-5.09-.5-7.632" fill="#020204"/>
        <path d="M26.8 92.615a12.08 12.08 0 0 0-2.177 4.594 24.494 24.494 0 0 0-.638 5.072c-.131 3.412.078 6.89-.826 10.182-.965 3.521-3.13 6.571-5.249 9.544-3.668 5.148-7.377 10.43-9.187 16.487a29.29 29.29 0 0 0-1.067 11.362 120.166 120.166 0 0 0-10.605 19.112 104.569 104.569 0 0 0-8.6 31.893 81.416 81.416 0 0 0 5.725 39.787 65.2 65.2 0 0 0 16.974 23.658 58.09 58.09 0 0 0 12.4 8.24c15.481 7.61 34.614 7.625 49.838-.486 7.956-4.24 14.672-10.439 21.148-16.711 3.9-3.778 7.779-7.645 10.753-12.187 5.728-8.744 7.723-19.371 8.962-29.75 2.169-18.147 2.239-37.317-5.718-53.771a59.321 59.321 0 0 0-10.766-15.408 84.445 84.445 0 0 0-6.81-22.94c-2.412-5.246-5.36-10.24-7.6-15.561-.92-2.185-1.719-4.422-2.74-6.561a19.7 19.7 0 0 0-3.994-5.837 16.446 16.446 0 0 0-6.244-3.629 27.112 27.112 0 0 0-7.155-1.229c-4.849-.244-9.707.39-14.558.2-3.862-.153-7.712-.83-11.57-.6a17.754 17.754 0 0 0-5.648 1.185 11.391 11.391 0 0 0-4.648 3.354" fill="#fdfdfb"/>
        <path d="M24.424 110.716a28.822 28.822 0 0 0 9.348 12.664 20.518 20.518 0 0 0 4.443 2.867 10.5 10.5 0 0 0 5.151.989 12.146 12.146 0 0 0 4.874-1.674c1.507-.851 2.906-1.88 4.369-2.806 2.506-1.587 5.19-2.871 7.792-4.3a44.921 44.921 0 0 0 8.818-6.064 39.944 39.944 0 0 1 3.671-3.255 7.242 7.242 0 0 1 4.567-1.523 25.829 25.829 0 0 1 3.575.863 5.056 5.056 0 0 0 1.829.1 2.629 2.629 0 0 0 2.348-2.867 5.039 5.039 0 0 0-.64-2.144c-.7-1.332-1.765-2.479-2.239-3.907a11.6 11.6 0 0 1-.3-3.983 7.967 7.967 0 0 0-.609-3.924 5.084 5.084 0 0 0-2.159-2.1 7.813 7.813 0 0 0-2.926-.818 40.939 40.939 0 0 0-6.1.319c-2.7.153-5.415-.185-8.118-.023-3.369.2-6.672 1.181-10.048 1.187-3.853.007-7.7-1.254-11.507-.652a29.982 29.982 0 0 0-4.763 1.38 14.783 14.783 0 0 1-4.841.96c-1.876-.027-3.693-.677-5.565-.811a6.578 6.578 0 0 0-2.774.329 3.872 3.872 0 0 0-2.101 1.777 3.728 3.728 0 0 0-.393 1.552 5.63 5.63 0 0 0 .181 1.6 24.9 24.9 0 0 0 1.129 3.02c1.417 3.616 1.722 7.579 2.988 11.251" opacity=".259"/>
        <path d="M19.593 96.392a39.093 39.093 0 0 1 8.924 7.548c2.354 2.7 4.356 5.769 7.427 7.77a16.383 16.383 0 0 0 7.423 2.452 26.369 26.369 0 0 0 9.242-.985 34.112 34.112 0 0 0 7.92-3.207c4.679-2.659 8.588-6.555 13.749-8.3 1.126-.381 2.3-.654 3.385-1.125a5.188 5.188 0 0 0 2.627-2.172 9.763 9.763 0 0 0 .641-3.117c.174-1.125.564-2.214.778-3.333a5.2 5.2 0 0 0-.286-3.347 4.545 4.545 0 0 0-2.137-1.954 7.789 7.789 0 0 0-2.956-.669 47.615 47.615 0 0 0-6.094.56c-2.7.227-5.411-.093-8.118-.018-3.366.093-6.684.8-10.048.942-3.838.167-7.667-.392-11.507-.518a25.961 25.961 0 0 0-4.971.237 12.75 12.75 0 0 0-4.629 1.617 41.22 41.22 0 0 0-3.67 2.9 10.534 10.534 0 0 1-1.988 1.261 6.11 6.11 0 0 1-2.311.6c-.414.019-.832-.014-1.242.044a2.677 2.677 0 0 0-1.729.987 2.278 2.278 0 0 0-.43 1.83" opacity=".3" style="isolation:isolate"/>
        <path d="M28.36 50.432a7.884 7.884 0 0 0-4.872 2.174 11 11 0 0 0-2.836 4.583c-1.15 3.443-.891 7.176-.63 10.8.236 3.278.478 6.62 1.706 9.669a12.609 12.609 0 0 0 2.626 4.136 9.008 9.008 0 0 0 4.191 2.477 8.449 8.449 0 0 0 4.561-.164 9.889 9.889 0 0 0 3.915-2.379 13.134 13.134 0 0 0 3.311-5.79 22.976 22.976 0 0 0 .766-6.676 27.862 27.862 0 0 0-1.288-8.312 18.713 18.713 0 0 0-4.246-7.211 12.016 12.016 0 0 0-3.255-2.44 8.025 8.025 0 0 0-3.949-.867" fill="url(#a)"/>
        <path d="M60.434 50.433a16.631 16.631 0 0 0-6.361 7.887c-1.461 4.072-.9 8.63.508 12.72 1.445 4.19 3.861 8.183 7.51 10.7a13.752 13.752 0 0 0 6.136 2.381A11.2 11.2 0 0 0 74.679 83a12.434 12.434 0 0 0 5.356-5.882 21.547 21.547 0 0 0 1.765-7.857 26.52 26.52 0 0 0-1.272-10.177 17.1 17.1 0 0 0-6.587-8.82 12.879 12.879 0 0 0-5.2-1.969 11.091 11.091 0 0 0-5.512.612 13.811 13.811 0 0 0-2.8 1.526" fill="url(#e)"/>
        <path d="M27.755 79.732q-2.727 2.255-5.227 4.767a8.543 8.543 0 0 0-2.253 3.154 21.014 21.014 0 0 0-.478 3.439 7.86 7.86 0 0 0-.154 1.18 1.977 1.977 0 0 0 .079.588 1.323 1.323 0 0 0 .29.515 1.608 1.608 0 0 0 .871.438c.324.066.657.074.985.11a9.056 9.056 0 0 1 4.074 1.725c1.227.846 2.356 1.832 3.614 2.631a18.832 18.832 0 0 0 9.389 2.675 42 42 0 0 0 9.8-1.023 44.054 44.054 0 0 0 7.555-2.079 45.292 45.292 0 0 0 10.3-6.128 43.061 43.061 0 0 0 4.2-3.475c.445-.429.875-.875 1.351-1.267a4.917 4.917 0 0 1 1.594-.924 5.964 5.964 0 0 1 2.8-.05 10.305 10.305 0 0 0 2.108.245 3.125 3.125 0 0 0 1.039-.207 2.146 2.146 0 0 0 .858-.609 2.057 2.057 0 0 0 .449-1.3 2.628 2.628 0 0 0-.377-1.329 4.55 4.55 0 0 0-2.142-1.725 21.146 21.146 0 0 0-3.67-1.074 52.644 52.644 0 0 1-11.025-4.019c-1.746-.867-3.444-1.828-5.161-2.749A30.506 30.506 0 0 0 53.14 70.8a21.561 21.561 0 0 0-13.207.595 28.245 28.245 0 0 0-12.178 8.333" opacity=".3" style="isolation:isolate"/>
        <path d="M36.875 74.347c1.8-2.022 3.029-4.488 4.757-6.571a11.415 11.415 0 0 1 3.034-2.663 6.735 6.735 0 0 1 3.884-.942 6.833 6.833 0 0 1 4 1.908 12.218 12.218 0 0 1 2.562 3.689 19.3 19.3 0 0 0 2.014 3.816 19.592 19.592 0 0 0 3.512 2.975 9.835 9.835 0 0 1 1.667 1.588 4.92 4.92 0 0 1 1.013 2.053 4.29 4.29 0 0 1-.189 2.307 5.168 5.168 0 0 1-1.282 1.938 7.544 7.544 0 0 1-4.207 1.887c-3.094.438-6.222-.484-9.346-.4-3.162.087-6.25 1.2-9.411 1.089a8.363 8.363 0 0 1-4.483-1.347 5.644 5.644 0 0 1-1.624-1.705 4.681 4.681 0 0 1-.685-2.244 5.125 5.125 0 0 1 .452-2.2 8.225 8.225 0 0 1 1.2-1.909c.956-1.167 2.124-2.143 3.127-3.27" fill="url(#f)"/>
        <path d="M72.131 18.364c-2.609 1.841-1.47 4.14-.348 6.447s-2.467 8.957-2.5 9.244 7.065-3.371 9-5.747c2.286-2.806 8.063 3.8 7.748 2.792-.001-1.8-11.291-14.577-13.9-12.736z" fill="#7c7c7c"/>
        <path d="M66.958 58.976a6.566 6.566 0 0 0-3 1.008 7.885 7.885 0 0 0-2.28 2.216 11.47 11.47 0 0 0-1.825 6.046 12.75 12.75 0 0 0 .644 4.732 8.921 8.921 0 0 0 2.658 3.931 7.7 7.7 0 0 0 4.5 1.752 7.564 7.564 0 0 0 4.642-1.33 8.346 8.346 0 0 0 2.551-2.924 10.88 10.88 0 0 0 1.155-3.72 11.494 11.494 0 0 0-1.095-6.723A9.426 9.426 0 0 0 69.9 59.43a7.1 7.1 0 0 0-2.939-.454" fill="#020204"/>
        <path d="M69.5 65.953c-.882.347-2.276.129-2.663.993a1.322 1.322 0 0 0 .614 1.568 2.7 2.7 0 0 0 3.1-1.4A1.183 1.183 0 0 0 70 65.743c-.169-.071-.336.143-.5.21z" fill="#141413"/>
        <path d="M73.535 68.243c1.182-1.182-.84-4.315-2.416-5.6-1.142-.929-4.468-1.9-4.325-.89s1.638 2.306 2.64 3.294c1.234 1.219 3.54 3.753 4.101 3.196z" fill="url(#g)"/>
        <g clip-path="url(#h)">
            <path d="M49.748 60.736a24.122 24.122 0 0 1 8.265-4.477 22.8 22.8 0 0 1 18.7 2.316 65.485 65.485 0 0 1 5.331 4.075 20.47 20.47 0 0 0 5.735 3.431 8.25 8.25 0 0 0 3.562.509 6.629 6.629 0 0 0 3.037-1.139 7.747 7.747 0 0 0 2.22-2.378 10.43 10.43 0 0 0 1.3-6.312c-.39-4.353-2.845-8.2-4.9-12.051a36.385 36.385 0 0 0-2.035-3.562 19.752 19.752 0 0 0-10.163-7.07 63.559 63.559 0 0 0-12.354-2.344 22.953 22.953 0 0 0-5.6-.254 49.6 49.6 0 0 0-6.234 1.653c-.989.253-2 .432-2.979.716a7.828 7.828 0 0 0-2.745 1.319 6.624 6.624 0 0 0-2.215 3.789 12.1 12.1 0 0 0-.012 4.45c.466 2.947 1.568 5.825 1.463 8.807-.072 2.047-.715 4.058-.636 6.105a8.692 8.692 0 0 0 .254 1.781" fill="none"/>
        </g>
        <path d="M70.261 42.051a10.442 10.442 0 0 0-1.272 2 17.99 17.99 0 0 1 6.137 2.608 24.7 24.7 0 0 1 8.268 9.8 10.164 10.164 0 0 0 1.206-1.623 24.92 24.92 0 0 0-8.459-10.209 18.089 18.089 0 0 0-5.88-2.576z" fill="url(#b)"/>
        <path d="M28.156 44.04c-.246-.005-.486.017-.732.029-.158.007-.32.014-.477.029a13.159 13.159 0 0 1 4.166 1.1 17.327 17.327 0 0 1 4.707 3.215 24.064 24.064 0 0 1 5.723 8.456 21.154 21.154 0 0 0-2.1-6.776 21.7 21.7 0 0 0-1.59-1.68 17.312 17.312 0 0 0-4.705-3.213 12.886 12.886 0 0 0-4.992-1.158z" fill="url(#i)"/>
        <path d="M23.99 65.441a13.692 13.692 0 0 0 .393 6.863A11.469 11.469 0 0 0 26.8 76.17a8 8 0 0 0 2.356 1.835 4.384 4.384 0 0 0 2.921.374 4.321 4.321 0 0 0 2.26-1.524 7.441 7.441 0 0 0 1.239-2.463 13.713 13.713 0 0 0-.124-8.064 10.517 10.517 0 0 0-3.08-5.014 6.126 6.126 0 0 0-2.5-1.309 4.351 4.351 0 0 0-2.786.224 4.8 4.8 0 0 0-2.187 2.2 10.03 10.03 0 0 0-.908 3.012" fill="#020204"/>
        <path d="M28.823 63.788c.246.645 1.072.879 1.526 1.4a5.855 5.855 0 0 1 1.145 1.653c.463 1.2-.457 2.971.508 3.817a1.009 1.009 0 0 0 1.209 0c1.166-1.061.907-3.2.445-4.707a5.7 5.7 0 0 0-2.726-3.313c-.589-.3-1.476-.55-1.98-.122a1.209 1.209 0 0 0-.127 1.272z" fill="url(#j)"/>
        <path d="M19.728 93.854a2.751 2.751 0 0 0 .333.854 3.921 3.921 0 0 0 1.092 1.131c.426.311.888.569 1.335.85a24.139 24.139 0 0 1 6.029 5.808c2.306 2.974 4.347 6.274 7.427 8.436a15.665 15.665 0 0 0 7.423 2.662 24.292 24.292 0 0 0 9.242-1.07 32.641 32.641 0 0 0 7.92-3.481c4.68-2.886 8.588-7.116 13.749-9.013 1.126-.414 2.3-.71 3.385-1.221a5.316 5.316 0 0 0 2.627-2.359 11.384 11.384 0 0 0 .641-3.383c.174-1.222.564-2.4.778-3.619a6.085 6.085 0 0 0-.286-3.633 4.7 4.7 0 0 0-2.137-2.122 7.271 7.271 0 0 0-2.956-.726 43.726 43.726 0 0 0-6.093.608c-2.7.246-5.412-.1-8.118-.02-3.367.1-6.685.859-10.049 1.022-3.838.186-7.668-.405-11.507-.561a23.737 23.737 0 0 0-4.978.229 11.533 11.533 0 0 0-4.621 1.783 44.357 44.357 0 0 0-3.624 3.241 9.3 9.3 0 0 1-2 1.371A5.153 5.153 0 0 1 23 91.2a3.827 3.827 0 0 0-1.243.048 1.678 1.678 0 0 0-.655.413 3.818 3.818 0 0 0-.486.61 10.549 10.549 0 0 0-.883 1.586" fill="url(#k)"/>
        <path d="M34.794 97.992a6.745 6.745 0 0 0 4.422 7.986 8.027 8.027 0 0 0 6.162-.639 6.713 6.713 0 0 0 2.716-2.426 4.579 4.579 0 0 0 .616-1.726 3.8 3.8 0 0 0-.188-1.817 3.949 3.949 0 0 0-1.167-1.624 5.285 5.285 0 0 0-1.764-.962 11.038 11.038 0 0 0-4-.367 39.541 39.541 0 0 0-6.075.766" fill="#d9b30d"/>
        <path d="M28.189 85.355c-1.362.8-2.675 1.693-3.966 2.608a4.856 4.856 0 0 0-1.71 1.726 4.054 4.054 0 0 0-.315 1.7 14.824 14.824 0 0 1-.047 1.739c-.053.393-.157.78-.175 1.176a1.922 1.922 0 0 0 .057.59 1.225 1.225 0 0 0 .28.518 1.486 1.486 0 0 0 .66.375c.245.075.5.114.749.172a7.392 7.392 0 0 1 3.149 1.836c.913.821 1.732 1.745 2.685 2.52a15.12 15.12 0 0 0 9.323 3.026 42.084 42.084 0 0 0 9.866-1.373 59.564 59.564 0 0 0 7.557-2.08A33.31 33.31 0 0 0 66.6 93.76a35.252 35.252 0 0 1 4.2-3.476c1.365-.857 2.893-1.422 4.281-2.241a2.7 2.7 0 0 0 .358-.241 1.037 1.037 0 0 0 .274-.33 1 1 0 0 0 .039-.728 1.912 1.912 0 0 0-.366-.646 4.53 4.53 0 0 0-.579-.588 9.189 9.189 0 0 0-5.318-1.843c-1.9-.15-3.827-.044-5.709-.358a37.24 37.24 0 0 1-5.161-1.5 37.988 37.988 0 0 0-5.484-1.334 36.29 36.29 0 0 0-13.206.326 38.582 38.582 0 0 0-11.744 4.558" fill="#604405"/>
        <path d="M27.755 80.749a24.207 24.207 0 0 0-5.227 4.768 11.323 11.323 0 0 0-2.063 3.472 26.234 26.234 0 0 0-.665 3.121 5.774 5.774 0 0 0-.172 1.181 1.93 1.93 0 0 0 .087.59 1.346 1.346 0 0 0 .3.512 1.658 1.658 0 0 0 .873.434c.323.066.655.076.983.113a9.184 9.184 0 0 1 4.071 1.733c1.227.845 2.358 1.827 3.617 2.623a18.9 18.9 0 0 0 9.39 2.67 41.987 41.987 0 0 0 9.8-1.017A44.054 44.054 0 0 0 56.3 98.87a45.329 45.329 0 0 0 10.3-6.128 43.2 43.2 0 0 0 4.2-3.475c.445-.429.875-.875 1.351-1.268a4.915 4.915 0 0 1 1.594-.923 5.951 5.951 0 0 1 2.8-.051 10.377 10.377 0 0 0 2.108.246 3.114 3.114 0 0 0 1.038-.207 2.135 2.135 0 0 0 .859-.61A2.06 2.06 0 0 0 81 85.16a2.625 2.625 0 0 0-.377-1.329 4.542 4.542 0 0 0-2.143-1.725 21.2 21.2 0 0 0-3.669-1.075 52.532 52.532 0 0 1-11.026-4.024c-1.746-.867-3.444-1.827-5.162-2.748a30.448 30.448 0 0 0-5.484-2.438 21.551 21.551 0 0 0-13.206.6 28.252 28.252 0 0 0-12.178 8.332" fill="url(#l)"/>
        <path d="M57.877 81.693a1.83 1.83 0 0 0-.918-.6 2.446 2.446 0 0 0-1.1-.049 5.168 5.168 0 0 0-2 .94 22.749 22.749 0 0 0-4.617 4.305 16.46 16.46 0 0 0-3.733 7.4 4.734 4.734 0 0 0-.079 1.4 2.165 2.165 0 0 0 .568 1.266 1.939 1.939 0 0 0 1.1.531 2.649 2.649 0 0 0 1.222-.131 6.159 6.159 0 0 0 2.05-1.364c3.4-3.038 6.465-6.684 7.693-11.071a4.924 4.924 0 0 0 .226-1.348 2.091 2.091 0 0 0-.4-1.284" fill="#f6da4a"/>
        <path d="M49.749 75.393c.235.756 1.453.631 2.156.993.617.318 1.114 1.015 1.808 1.035.662.019 1.693-.229 1.78-.887.113-.868-1.154-1.419-1.97-1.737a4.163 4.163 0 0 0-3.379-.07c-.226.125-.472.42-.395.666z" opacity=".8" fill="url(#c)" style="isolation:isolate"/>
        <path d="M38.123 74.965c-.9-.293-2.4 1.3-1.911 2.116.134.224.544.508.82.356.417-.229.758-1.048 1.209-1.369.301-.214.234-.988-.118-1.103z" opacity=".8" fill="url(#m)" style="isolation:isolate"/>
        <path d="M81.282 86.882c-.223 1.987-1.7 3.6-3.311 3.6s-2.728-1.61-2.505-3.6 1.705-3.6 3.311-3.6 2.728 1.618 2.505 3.6z" fill="url(#n)"/>
        <g clip-path="url(#o)">
            <path d="M24.452 57.723a15.235 15.235 0 0 1 9.226-1.7 55.7 55.7 0 0 1 9.3 2.066 40.162 40.162 0 0 1 6.64 2.175 11.578 11.578 0 0 1 5.233 4.481c.186.325.351.661.549.979a3.035 3.035 0 0 0 .729.845 1.614 1.614 0 0 0 1.042.351 1.187 1.187 0 0 0 .533-.157 1.012 1.012 0 0 0 .385-.4 1.222 1.222 0 0 0 .119-.626 2.982 2.982 0 0 0-.119-.633c-.769-2.8-2.58-5.178-3.957-7.735-.827-1.535-1.5-3.148-2.339-4.678A29.8 29.8 0 0 0 38.871 40.63a44.416 44.416 0 0 0-17.3-4.315A89.491 89.491 0 0 0 .886 37.933 26.8 26.8 0 0 0-7.7 40.54a11.721 11.721 0 0 0-3.448 2.86 8.56 8.56 0 0 0-1.819 4.067 8.769 8.769 0 0 0 .51 4.27 13.2 13.2 0 0 0 2.194 3.727A55.024 55.024 0 0 0-3.93 61.4a60.048 60.048 0 0 0 6.577 5.66 13.886 13.886 0 0 0 3.911 1.848 9.213 9.213 0 0 0 4.3.208 10.011 10.011 0 0 0 4.022-1.936 21.794 21.794 0 0 0 3.2-3.152c1.958-2.275 3.788-4.769 6.368-6.305" fill="none"/>
        </g>
        <path d="M120.828 155.342a32.583 32.583 0 0 1 11.337 20.358 49.3 49.3 0 0 1-1.05 18.452 150.337 150.337 0 0 1-5.63 17.707 34.93 34.93 0 0 0-2.027 7.117 11.789 11.789 0 0 0 1.057 7.213 10.977 10.977 0 0 0 6.6 5.01 15.845 15.845 0 0 0 8.292.1 20.239 20.239 0 0 0 7.458-3.714c5.613-4.358 9-11.141 10.312-18.126s.709-14.2-.51-21.2a142.763 142.763 0 0 0-8.018-27.892 79.873 79.873 0 0 0-9.963-18.848c-4.189-5.577-9.47-10.271-13.575-15.911-2.852-3.919-5.136-8.294-8.554-11.73a17.47 17.47 0 0 0-5.963-4.066 11.37 11.37 0 0 0-7.129-.479 11.239 11.239 0 0 0-6.923 6.189 16.21 16.21 0 0 0-1.051 9.382 33.517 33.517 0 0 0 4.626 11.387 40.876 40.876 0 0 0 8.686 10.842c3.732 3.109 8.245 5.159 12.029 8.2" fill="#020204"/>
        <path d="M91.915 95.72c-2.2 2 1.032 5.015 2.564 8.553.953 2.2 3.589 5.3 6.139 4.8 1.918-.374 3.108-3.134 2.927-5.08-.351-3.753-3.518-4.633-5.818-5.922-1.827-1.021-4.267-3.758-5.812-2.351z" fill="#838384"/>
        <path d="M12.422 120.284c-.12-1.461-2.207-1.68-3.137-.952-.786.615-1.523 2.718-.845 3.539 1.102 1.329 4.147-.584 3.982-2.587z" fill="#7c7c7c" opacity=".25" style="isolation:isolate"/>
        <path d="M12.345 113.589q-4.248 5.3-8.482 10.618c-2.907 3.651-5.809 7.307-8.739 10.941-3.595 4.457-7.276 8.949-9.616 14.175-2.012 4.492-2.963 9.37-4.341 14.094a106.73 106.73 0 0 1-6.077 15.606c-2.2 4.667-4.631 9.223-7.062 13.775-1.769 3.311-3.567 6.7-4.181 10.4a21.374 21.374 0 0 0 .543 8.82 40.646 40.646 0 0 0 3.3 8.249 81.085 81.085 0 0 0 24.663 28.418 86.586 86.586 0 0 0 14.86 8.677 22.812 22.812 0 0 0 8.926 2.5 10.867 10.867 0 0 0 4.553-.856 8.077 8.077 0 0 0 3.545-2.937 8.471 8.471 0 0 0 1.185-5.5 13.163 13.163 0 0 0-1.947-5.352c-2.432-3.992-6.273-6.88-9.969-9.743-7.978-6.181-15.7-12.7-23.081-19.58a30.149 30.149 0 0 1-5.628-6.4 23.975 23.975 0 0 1-2.7-7.829 43.418 43.418 0 0 1 1.486-22.524c1-2.807 2.312-5.487 3.581-8.181 2.2-4.67 4.282-9.429 7.174-13.705 3.6-5.322 8.414-9.83 11.349-15.547 2.478-4.825 3.481-10.25 4.44-15.588q1.125-6.265 2.222-12.535" fill="#020204"/>
    </g>
</svg>
