<svg xmlns="http://www.w3.org/2000/svg" width="128" height="128">
    <path d="M83.67,12.811c-5.358-5.215-13.895-5.215-19.253,0L13.078,63.157c-1.786,1.736-4.63,1.736-6.416,0-1.738-1.69-1.777-4.469-.086-6.207.028-.029.057-.058.086-.086L58,6.518c8.93-8.69,23.155-8.69,32.085,0,5.04,4.902,7.428,11.921,6.421,18.88,7.045-1.002,14.156,1.323,19.248,6.293l.267.267c8.689,8.45,8.883,22.345.432,31.034-.142.146-.286.29-.432.432l-46.432,45.53c-.579.562-.592,1.488-.03,2.066.01.01.02.02.03.03l9.536,9.355c1.738,1.69,1.777,4.469.086,6.207-.028.029-.057.058-.086.086-1.786,1.736-4.63,1.736-6.416,0l-9.536-9.349c-4.056-3.941-4.149-10.424-.208-14.48.068-.07.138-.14.208-.208l46.432-45.536c5.214-5.074,5.326-13.415.252-18.628-.083-.085-.167-.169-.252-.252l-.267-.261c-5.352-5.209-13.876-5.216-19.237-.016l-38.25,37.514-.011.011-.523.517c-1.787,1.74-4.634,1.74-6.421,0-1.738-1.69-1.777-4.469-.086-6.207.028-.029.057-.058.086-.086l38.789-38.042c5.205-5.083,5.303-13.424.22-18.628-.078-.079-.156-.158-.236-.235ZM77.254,25.397c1.738-1.69,1.777-4.469.086-6.207-.028-.029-.057-.058-.086-.086-1.787-1.74-4.634-1.74-6.421,0l-37.968,37.237c-8.689,8.45-8.883,22.345-.432,31.034.142.146.286.29.432.432,8.931,8.687,23.154,8.687,32.085,0l37.973-37.237c1.738-1.69,1.777-4.469.086-6.207-.028-.029-.057-.058-.086-.086-1.787-1.74-4.634-1.74-6.421,0l-37.968,37.237c-5.358,5.215-13.895,5.215-19.253,0-5.214-5.074-5.326-13.415-.252-18.628.083-.085.167-.169.252-.252,0,0,37.973-37.237,37.973-37.237Z" />
</svg>