<svg xmlns="http://www.w3.org/2000/svg" width="128" height="128">
    <path fill="none" d="M61.726 72.902l1.867-1.069-4.6-8.025 4.348-7.478-1.633-.97-4.504 7.746-9.216-.028.005 1.785 9.141.029 4.592 8.01zM64.465 50.62l1.633.97 4.897-8.422 9.056.029-.005-1.815-9.198-.029-4.704-8.207-1.717.984 4.779 8.337-4.741 8.153zM80.261 86.602l-.006-2.051-9.389-.029-4.546-7.932-1.867 1.07 4.554 7.945-4.717 8.112 1.721 1.022 4.749-8.166 9.501.029z"/>
    <path d="M85.172 61.114a3.573 3.573 0 0 1 0 5.536h.513l.052 17.92 9 .028 12-20.64L94.87 43.242l-9.335-.028.052 17.9zM63.341 56.33l-4.348 7.478 4.6 8.025 13.156-7.538-13.408-7.965zM70.866 84.522l9.389.029-.047-15.918L66.32 76.59l4.546 7.932zM66.098 51.59L80.1 59.907l-.049-16.71-9.056-.029-4.897 8.422z" fill="#c12766"/>
    <path fill="#3e489f" d="M57.134 64.892l-9.141-.029.046 15.881 13.687-7.842-4.592-8.01zM64.453 77.66L50.61 85.591l13.68 8.126 4.717-8.112-4.554-7.945z"/>
    <path d="M46.853 88.7a3.569 3.569 0 0 1-1.721.454 3.616 3.616 0 0 1-2.569-6.163l-.053-18.14-9.252-.028-12 20.639 11.872 20.709 23.875.074 4.529-7.788L46.4 89.465z" fill="#3e489f"/>
    <path d="M85.744 86.619l.056 17.891h-.865a3.606 3.606 0 1 1-5.73 3.864l-.253.426-15.697-9.32-4.5 7.732 11.874 20.714 23.878.074 12-20.64-11.872-20.713z" fill="#714099"/>
    <path fill="#714099" d="M70.76 86.573l-4.749 8.166 14.298 8.494-.048-16.631-9.501-.029z"/>
    <path d="M43.1 45.225a3.6 3.6 0 0 1 3.812-6.07l-.566-.989L61.7 29.372l-4.368-7.619-23.875-.074-12 20.64 11.872 20.713 9.175.029-.052-17.834z" fill="#78932c"/>
    <path fill="#78932c" d="M69.206 42.467l-4.779-8.337-14.112 8.084 14.15 8.406 4.741-8.153zM61.708 55.36l-13.767-8.178.047 15.896 9.216.028 4.504-7.746z"/>
    <path fill="#cf242a" d="M80.046 41.382l-.047-16.174-13.855 7.938 4.704 8.207 9.198.029z"/>
    <path d="M79.4 19.687a3.61 3.61 0 1 1 6.028 3.564h.05l.051 18.149 9.2.028 12-20.639L94.852.074 70.977 0l-12 20.639 4.442 7.749L79.2 19.345z" fill="#cf242a"/>
    <path d="M79.4 19.687a3.555 3.555 0 0 0-.166 1.027 3.6 3.6 0 0 0 1.055 2.552h1.159zM81.928 24.1l-.108.062a3.512 3.512 0 0 0 3.606-.914l-3.98.012zM80.287 23.266h-.294L80 25.208l1.821-1.043a3.616 3.616 0 0 1-1.534-.899z" fill="#fff"/>
    <path d="M81.82 24.165l.108-.062-.482-.84h-1.159a3.616 3.616 0 0 0 1.533.902zM80.309 103.233v1.293h.007a3.607 3.607 0 0 1 1.1-.634zM48.748 85.507l-.077.128.058.1c0-.07.021-.135.021-.206l-.002-.022z" fill="#fff"/>
</svg>
