<svg xmlns="http://www.w3.org/2000/svg" width="128" height="128">
    <g fill-rule="evenodd">
        <path d="M32.347 31.859l27.4 3.335-3.438-7.666C73.15 23.816 90.716 31.859 98 47.844a36.932 36.932 0 0 1-4.778 37.984l12.1 1.341a47.153 47.153 0 0 0 2.578-43.794C98.141 22.1 74.25 11.819 52.01 17.9L48.022 9z" fill="#a8ddb5"/>
        <path d="M95.528 95.556l-28.05-3.712 3.507 7.872C53.969 103.291 36.472 94.9 29.46 78.781a36.889 36.889 0 0 1 5.706-38.328l-11.894-1.169A47.219 47.219 0 0 0 19.7 83.147c9.316 21.519 33.1 32.416 55.688 26.537L79.51 119z" fill="#4eb3d3"/>
        <path d="M105.188 12.816c-.241-.516-1.341-.344-1.341-.344A74.853 74.853 0 0 0 93.535 15.7a21.7 21.7 0 0 0-6.325 3.953 42.917 42.917 0 0 0-5.775 7.082c-2.235 3.024-4.3 7.8-8.147 14.4-2.819 4.778-1.547 2.921-5.294 9.8-3.953 8.078-6.256 12.134-6.875 12.237-.791.1-1.959-1.375-3.472-4.4l-1.616-3.231a9.365 9.365 0 0 0-1.753-2.475 2.484 2.484 0 0 0-1.822-.344A12.137 12.137 0 0 0 46.1 56.2c-1.959 1.994-2.887 3.953-2.681 5.912a32.02 32.02 0 0 0 2.234 7.047 1.666 1.666 0 0 0 .31.791c1.306 3.472 2.371 5.947 3.2 7.734a20.5 20.5 0 0 0 2.579 4.125 7.532 7.532 0 0 0 3.4 2.441 9.577 9.577 0 0 0 4.434.24c4.056-.481 7.081-3.059 8.9-7.631a30.757 30.757 0 0 1 1.444-3.506c5.328-11.55 6.806-15.022 13.647-26.194C90.2 35.95 96.663 24.95 104.741 14.087c0 0 .687-.787.447-1.271z" fill="#0868ac"/>
    </g>
</svg>
