<svg xmlns="http://www.w3.org/2000/svg" width="128" height="128">
  <path d="m101.35,79.85h8.21v15.69h-16.29v12.43h-27.28v-6.53c-8.17,4.96-16.28,5.77-24.04.22-7.8-5.58-9.97-13.32-7.46-22.32-2.46-1.1-5.08-1.94-7.33-3.36-5.98-3.76-8.68-9.53-8.38-16.41.31-7.03,4-12.25,10.27-15.49,1.31-.68,2.03-1.33,2.15-2.92.63-8.45,7.07-16.49,15.17-19.11,8.9-2.88,16.9-1.21,23.74,5.14,2.04,1.9,3.51,4.42,5.34,6.78,2.69-1.16,5.63-1.93,8.77-1.16,5.09,1.25,8.34,4.43,9.7,9.45.32,1.18.82,1.7,1.94,2.06,13.23,4.23,17.06,21.49,6.8,30.89-1.5,1.38-1.67,2.71-1.31,4.64ZM34.17,45.56c-9.5,2.66-13,10.96-11.85,17.69,1.11,6.47,6.92,11.9,13.61,12.3,1.19-4.68,2.01-9.37.97-14.24-.14-.67.09-1.76.57-2.13.45-.36,1.6-.3,2.17.03,2.1,1.22,4.09,2.63,6.11,3.98.39.26.76.55,1.45,1.05,0-2.67.16-4.94-.04-7.18-.22-2.46-1-4.78-3-6.47-.81-.69-1.74-1.38-1.12-2.61.66-1.33,1.9-1.01,2.92-.66,3.07,1.06,6.19,2.04,9.11,3.42,4.18,1.97,7.51,5,9.82,9.09,2.09,3.73,3.6,7.64,4.03,12.12,2.23-1.01,2.43-2.85,2.66-4.78.09-.78.62-1.99,1.15-2.12.63-.15,1.7.49,2.21,1.1.75.88,1.47,1.26,2.63,1.25,7.21-.05,14.42-.03,21.63-.03h2.09v4.56c.46-.54.66-.74.82-.96,6.74-9.06,2.14-21.37-9.07-24.02-1.56-.37-1.98-.94-2.09-2.44-.28-3.73-2.22-6.48-5.67-7.93-3.48-1.46-6.82-1-9.83,1.4-.56.45-1.14.87-1.78,1.35-4.23-13.08-14.96-16.39-22.73-15.08-8.34,1.4-16.86,7.95-16.77,21.31Zm6.94,17.79c-.35.61-.44.7-.45.8-.03.35-.06.69-.06,1.04-.01,5.27-.87,10.34-2.84,15.29-1.64,4.11-1.25,8.4.81,12.32,5.34,10.15,18.08,12.35,26.61,4.67.42-.37.59-1.02,1.08-1.91h-7.77v-15.81h15.16v-6.71c-1.79.94-3.59,2.03-5.51,2.85-1.38.59-2.21-.22-2.41-1.64-.15-1.03-.2-2.08-.37-3.11-1.04-6.08-3.41-11.46-8.45-15.31-2.22-1.7-4.67-3.08-7.56-3.86,1.6,5.9,1.77,10.19.47,15.53-.22.88-.91,2-1.66,2.28-.5.19-1.58-.81-2.24-1.44-1.6-1.56-3.11-3.21-4.82-5Zm56.67,7.4h-20.49v8.96h20.49v-8.96Zm-11.98,12.41v8.99h20.51v-8.99h-20.51Zm-23.96,8.94h20.38v-8.91h-20.38v8.91Zm7.39,12.48h20.45v-8.82h-20.45v8.82Z" fill="#fff" stroke-width="0"/>
  <g>
    <path d="m58.5,79.75h15.16v-6.71c-1.79.94-3.59,2.03-5.51,2.85-1.38.59-2.21-.22-2.41-1.64-.15-1.03-.2-2.08-.37-3.11-1.04-6.08-3.41-11.46-8.45-15.31-2.22-1.7-4.67-3.08-7.56-3.86,1.6,5.9,1.77,10.19.47,15.53-.22.88-.91,2-1.66,2.28-.5.19-1.58-.81-2.24-1.44-1.6-1.56-3.11-3.21-4.82-5-.35.61-.44.7-.45.8-.03.35-.06.69-.06,1.04-.01,5.27-.87,10.34-2.84,15.29-1.64,4.11-1.25,8.4.81,12.32,5.34,10.15,18.08,12.35,26.61,4.67.42-.37.59-1.02,1.08-1.91h-7.77v-15.81Z" fill="#DD344C" stroke-width="0"/>
    <path d="m61.84,92.1h20.38v-8.91h-20.38v8.91Z" fill="#DD344C" stroke-width="0"/>
    <path d="m36.91,61.31c-.14-.67.09-1.76.57-2.13.45-.36,1.6-.3,2.17.03,2.1,1.22,4.09,2.63,6.11,3.98.39.26.76.55,1.45,1.05,0-2.67.16-4.94-.04-7.18-.22-2.46-1-4.78-3-6.47-.81-.69-1.74-1.38-1.12-2.61.66-1.33,1.9-1.01,2.92-.66,3.07,1.06,6.19,2.04,9.11,3.42,4.18,1.97,7.51,5,9.82,9.09,2.09,3.73,3.6,7.64,4.03,12.12,2.23-1.01,2.43-2.85,2.66-4.78.09-.78.62-1.99,1.15-2.12.63-.15,1.7.49,2.21,1.1.75.88,1.47,1.26,2.63,1.25,7.21-.05,14.42-.03,21.63-.03h2.09v4.56c.46-.54.66-.74.82-.96,6.74-9.06,2.14-21.37-9.07-24.02-1.56-.37-1.98-.94-2.09-2.44-.28-3.73-2.22-6.48-5.67-7.93-3.48-1.46-6.82-1-9.83,1.4-.56.45-1.14.87-1.78,1.35-4.23-13.08-14.96-16.39-22.73-15.08-8.34,1.4-16.86,7.95-16.77,21.31-9.5,2.66-13,10.96-11.85,17.69,1.11,6.47,6.92,11.9,13.61,12.3,1.19-4.68,2.01-9.37.97-14.24Z" fill="#DD344C" stroke-width="0"/>
    <path d="m97.78,70.75h-20.49v8.96h20.49v-8.96Z" fill="#DD344C" stroke-width="0"/>
    <path d="m0,0v128h128V0H0Zm109.57,95.54h-16.29v12.43h-27.28v-6.53c-8.17,4.96-16.28,5.77-24.04.22-7.8-5.58-9.97-13.32-7.46-22.32-2.46-1.1-5.08-1.94-7.33-3.36-5.98-3.76-8.68-9.53-8.38-16.41.31-7.03,4-12.25,10.27-15.49,1.31-.68,2.03-1.33,2.15-2.92.63-8.45,7.07-16.49,15.17-19.11,8.9-2.88,16.9-1.21,23.74,5.14,2.04,1.9,3.51,4.42,5.34,6.78,2.69-1.16,5.63-1.93,8.77-1.16,5.09,1.25,8.34,4.43,9.7,9.45.32,1.18.82,1.7,1.94,2.06,13.23,4.23,17.06,21.49,6.8,30.89-1.5,1.38-1.67,2.71-1.31,4.64h8.21v15.69Z" fill="#DD344C" stroke-width="0"/>
    <path d="m85.8,92.15h20.51v-8.99h-20.51v8.99Z" fill="#DD344C" stroke-width="0"/>
    <path d="m69.23,104.58h20.45v-8.82h-20.45v8.82Z" fill="#DD344C" stroke-width="0"/>
  </g>
</svg>