<svg xmlns="http://www.w3.org/2000/svg" width="128" height="128">
    <path d="M70.42.85 67.79 33.3c-1.25-.14-2.49-.21-3.77-.21-1.6 0-3.17.11-4.7.36l-1.49-15.73c-.04-.5.36-.93.85-.93h2.67L60.07.89c-.04-.5.36-.93.82-.93h8.72c.5 0 .89.43.82.93V.85Zm-21.99 1.6c-.14-.46-.64-.75-1.1-.57l-8.18 2.99c-.46.18-.68.71-.46 1.14l6.65 14.52-2.53.93c-.46.18-.68.71-.46 1.14l6.8 14.27c2.45-1.35 5.12-2.38 7.93-3.02l-8.61-31.4zm-20.06 9.03 18.82 26.54c-2.38 1.57-4.55 3.42-6.4 5.55l-11.28-11.1a.86.86 0 0 1 .04-1.25l2.06-1.71L20.4 18.16a.836.836 0 0 1 .07-1.25l6.65-5.59c.39-.32.93-.25 1.21.14h.04Zm-15.8 15.37c-.39-.28-.96-.14-1.21.28l-4.34 7.54c-.25.43-.07.96.36 1.17l14.45 6.83-1.35 2.31c-.25.43-.07 1 .39 1.17l14.37 6.58a30 30 0 0 1 4.13-7.4zM1.93 47.35c.07-.5.57-.78 1.03-.68l31.49 8.22c-.82 2.67-1.28 5.48-1.35 8.4l-15.76-1.28a.83.83 0 0 1-.75-1l.46-2.63-15.9-1.49c-.5-.04-.82-.5-.75-1l1.49-8.57.04.04ZM.76 68.63c-.5.04-.82.5-.75 1l1.53 8.57c.07.5.57.78 1.03.68l15.44-4.02.46 2.63c.07.5.57.78 1.03.68l15.23-4.2c-.89-2.63-1.46-5.44-1.6-8.33L.72 68.63zm5.05 22.55a.833.833 0 0 1 .36-1.17l29.39-13.95c1.1 2.63 2.6 5.09 4.38 7.29l-12.88 9.18c-.39.28-.96.18-1.21-.25l-1.35-2.35L11.37 99c-.39.28-.96.14-1.21-.28l-4.38-7.54h.04Zm35.61-6.12-22.88 23.16c-.36.36-.32.93.07 1.25l6.69 5.59c.39.32.93.25 1.21-.14l9.25-13.02 2.06 1.74c.39.32.96.25 1.25-.18l8.97-13.02a31.9 31.9 0 0 1-6.58-5.37h-.04Zm-4.51 37.18c-.46-.18-.68-.71-.46-1.14l13.56-29.6c2.49 1.28 5.19 2.24 8.01 2.78l-3.98 15.3c-.11.46-.64.75-1.1.57l-2.53-.93-4.23 15.41c-.14.46-.64.75-1.1.57l-8.18-2.99.04.04Zm23.34-27.57-2.63 32.45c-.04.5.36.93.82.93h8.72c.5 0 .89-.43.82-.93l-1.28-15.9h2.67c.5 0 .89-.43.85-.93l-1.49-15.73c-1.53.25-3.1.36-4.7.36-1.28 0-2.53-.07-3.77-.25ZM91.63 6.82a.83.83 0 0 0-.46-1.14l-8.18-2.99c-.46-.18-.96.11-1.1.57l-4.23 15.41-2.53-.93c-.46-.18-.96.11-1.1.57l-3.98 15.3c2.85.57 5.51 1.53 8.01 2.78L91.65 6.82Zm17.86 12.92L86.61 42.9a31 31 0 0 0-6.58-5.37L89 24.51c.28-.39.85-.5 1.25-.18l2.06 1.74 9.25-13.02c.28-.39.85-.46 1.21-.14l6.69 5.59c.39.32.39.89.07 1.25h-.04Zm12.38 18.22c.46-.21.6-.75.36-1.17l-4.38-7.54c-.25-.43-.82-.53-1.21-.28l-13.13 9.07-1.35-2.31c-.25-.43-.82-.57-1.21-.25l-12.88 9.18c1.78 2.21 3.24 4.66 4.38 7.29L121.84 38l.04-.04Zm4.63 11.81 1.49 8.57c.07.5-.25.93-.75 1l-32.41 3.02c-.14-2.92-.71-5.69-1.6-8.33l15.23-4.2c.46-.14.96.18 1.03.68l.46 2.63 15.44-4.02c.46-.11.96.18 1.03.68l.07-.04Zm-1.46 31.49c.46.11.96-.18 1.03-.68l1.49-8.57c.07-.5-.25-.93-.75-1l-15.9-1.49.46-2.63c.07-.5-.25-.93-.75-1l-15.76-1.28c-.07 2.92-.53 5.73-1.35 8.4L125 81.23l.04.04Zm-8.4 19.57c-.25.43-.82.53-1.21.28l-26.79-18.5a30 30 0 0 0 4.13-7.4l14.37 6.58c.46.21.64.75.39 1.17l-1.35 2.31 14.45 6.83c.43.21.6.75.36 1.17l-4.34 7.54ZM80.81 89.9l18.82 26.54c.28.39.85.46 1.21.14l6.65-5.59c.39-.32.39-.89.07-1.25L96.35 98.39l2.06-1.71c.39-.32.39-.89.04-1.25l-11.28-11.1c-1.89 2.13-4.02 4.02-6.4 5.55h.04Zm-.18 36.15c-.46.18-.96-.11-1.1-.57L70.92 94.1c2.81-.64 5.48-1.67 7.93-3.02l6.8 14.27c.21.46 0 1-.46 1.14l-2.53.93 6.65 14.52c.21.46 0 .96-.46 1.14l-8.18 2.99h-.04Z" style="fill:#191919;fill-rule:evenodd;stroke-width:0"/>
</svg>
