<svg xmlns="http://www.w3.org/2000/svg" width="128" height="128">
    <path d="M85.33 65.5c.05-10.17-8-18.77-18.74-20.01-10.73-1.24-20.75 5.28-23.32 15.16s3.14 20.01 13.27 23.57l-8.2 41.12H79.8l-8.06-41.2c8.18-2.98 13.57-10.38 13.59-18.64" style="fill:#1a3967"/>
    <path d="M128 65.23c-.72-34.76-29.16-62.56-64-62.56S.72 30.47 0 65.23c0 22.53 12 43.36 31.51 54.69l4.11-27.18c-6.31-6.9-9.81-15.9-9.81-25.24C26.36 46.85 43.3 30.4 64 30.4s37.63 16.45 38.19 37.1c0 9.41-3.55 18.49-9.95 25.4l4.08 27.1c19.62-11.29 31.7-32.18 31.68-54.77" style="fill:#ed7f22"/>
</svg>
