<svg xmlns="http://www.w3.org/2000/svg" width="128" height="128">
    <path d="M125.716 75.967c-.271-.821-1.457-3.443-5.7-2.581-5.707 1.18-9.174 1.15-11.278.768 13.584-22.791 20.632-51.795 14.019-60.241C107.1-6.109 80.985.89 76.089 2.471a2.01 2.01 0 0 0-.292.065l.007.03c-.126.041-.211.072-.292.1A42.891 42.891 0 0 0 65.8 1.4a28.349 28.349 0 0 0-15.393 3.8c-7.448-2.43-26.079-7.164-38.06 1.367-7.44 5.305-10.876 14.684-10.215 27.875.3 5.925 10.018 55.687 24.7 60.583a8.049 8.049 0 0 0 2.545.42c2.027 0 4.431-.819 6.872-3.4.838 1.736 3.572 2.567 5.84 3.229l2.07.4a36.019 36.019 0 0 0 6.981.923 14.257 14.257 0 0 0 7.6-2.1c.049 11.363.946 21 2.415 24.678.658 1.647 4.122 8.821 14.323 8.821a26.542 26.542 0 0 0 5.535-.624c10.168-2.184 14.958-6.8 16.535-15.944.891-5.158 2.055-14.735 2.6-20.051a21.619 21.619 0 0 0 4.423.42 32.716 32.716 0 0 0 12.486-2.377c5.522-2.558 9.973-9.477 8.659-13.453zm-8.116 8.359a11.012 11.012 0 0 1-2.246 1.429c-.233.108-.509.191-.759.29-.132.064-.281.145-.405.2a30.145 30.145 0 0 1-11.508 2.191 17.808 17.808 0 0 1-4.982-.612c-.656 6-2.032 17.091-2.831 21.736-1.519 8.777-5.429 12.76-14.436 14.688a20.115 20.115 0 0 1-4.2.478 11.721 11.721 0 0 1-9.221-3.964 9.547 9.547 0 0 1-2.045-2.952 26.519 26.519 0 0 1-1.231-2.719c-1.353-3.387-1.829-14.462-1.74-25.737a16.628 16.628 0 0 1-11.31 4.156 23.469 23.469 0 0 1-5.7-.741c-.573-.143-5.6-1.5-5.531-4.732.062-2.972 4.257-3.837 5.834-4.162 5.462-1.124 5.812-1.57 7.5-3.717.343-.436.76-.95 1.227-1.5 0-.033-.009-.065-.012-.1a15.844 15.844 0 0 1-6.923-1.924 254.309 254.309 0 0 0-9.809 11.1c-2.614 3.14-5.126 4.064-7.181 4.064a7.135 7.135 0 0 1-2.26-.373C14.52 86.978 6.064 41.294 5.779 35.577a39.631 39.631 0 0 1 2.1-15.841 19.13 19.13 0 0 1 3.007-5.773 18.032 18.032 0 0 1 3.8-3.839A21.09 21.09 0 0 1 20.7 7c12.008-4.165 27.208.97 30.894 2.35a23.253 23.253 0 0 1 3.168-1.8c0-.009 0-.021-.006-.03a23.233 23.233 0 0 1 2.644-.968 28.1 28.1 0 0 1 8.978-1.434h.573A39.52 39.52 0 0 1 75.9 6.292c.074-.027.152-.055.267-.094v-.025a1.554 1.554 0 0 1 .27-.062 50.912 50.912 0 0 1 19.4-2.035c7.946.632 16.925 3.62 23.743 12.327a7.941 7.941 0 0 1 1.319 3.291c3.418 10.944-4.056 36.886-16.733 56.247 1.02.734 4.1 1.941 12.756.165 2.986-.621 4.779-.062 5.345 1.639.746 2.275-1.895 4.761-4.667 6.581z"/>
    <path d="M117.391 78.108C102.988 81.079 102 76.2 102 76.2c15.205-22.562 21.562-51.2 16.076-58.215C103.11-1.137 77.2 7.907 76.77 8.141l-.139.026a51.376 51.376 0 0 0-9.609-1c-6.517-.107-11.46 1.709-15.212 4.554 0 0-46.216-19.04-44.066 23.945.457 9.145 13.107 69.193 28.2 51.056 5.514-6.633 10.842-12.24 10.842-12.24a13.984 13.984 0 0 0 9.137 2.332l.258-.219a10.031 10.031 0 0 0 .1 2.583c-3.887 4.342-2.745 5.105-10.515 6.7-7.862 1.621-3.243 4.505-.228 5.259 3.656.914 12.114 2.21 17.829-5.791l-.228.913c1.523 1.22 2.592 7.934 2.413 14.021s-.3 10.266.9 13.531 2.4 10.608 12.61 8.419c8.535-1.829 12.958-6.569 13.574-14.475.436-5.621 1.424-4.79 1.487-9.815l.792-2.38c.914-7.619.146-10.077 5.4-8.934l1.278.112a29.115 29.115 0 0 0 11.908-2c6.4-2.971 10.2-7.931 3.887-6.628z" fill="#316192"/>
    <path d="M54.519 39.725a4.488 4.488 0 0 0-3.089.445 1.127 1.127 0 0 0-.471.763 2.2 2.2 0 0 0 .53 1.453 4.043 4.043 0 0 0 2.566 1.6 3.609 3.609 0 0 0 .439.029 3.3 3.3 0 0 0 3.128-2.154c.157-1.143-1.496-1.91-3.103-2.136zM97.169 39.224a4.213 4.213 0 0 0-2.859-.379c-1.5.211-2.957.894-2.833 1.789a2.246 2.246 0 0 0 1.034 1.3 3.2 3.2 0 0 0 1.8.577 2.608 2.608 0 0 0 .384-.026 3.715 3.715 0 0 0 2.358-1.478 1.989 1.989 0 0 0 .471-1.223.835.835 0 0 0-.355-.56z" fill="#fff"/>
    <path d="M122.262 77.745c-.566-1.7-2.359-2.26-5.345-1.639-8.658 1.776-11.736.569-12.756-.165C118.2 54.5 125.907 24.364 119.443 16.107 105-2.345 80.948 4.647 76.432 6.111a1.554 1.554 0 0 0-.27.062v.025c-.115.039-.193.067-.267.094a39.52 39.52 0 0 0-8.945-1.171h-.573a25.742 25.742 0 0 0-14.784 4.23c-4.28-1.6-24.092-8.3-36.394.417-6.864 4.86-10.033 13.546-9.42 25.809.285 5.717 8.741 51.4 22.052 55.844a7.135 7.135 0 0 0 2.26.373c2.055 0 4.567-.924 7.181-4.064a256.833 256.833 0 0 1 9.809-11.1A15.844 15.844 0 0 0 54 78.556c0 .033.009.065.012.1a66.524 66.524 0 0 0-1.227 1.5c-1.691 2.147-2.041 2.593-7.5 3.717-1.577.325-5.772 1.19-5.834 4.162-.066 3.235 4.958 4.589 5.531 4.732a23.469 23.469 0 0 0 5.7.741A16.628 16.628 0 0 0 62 89.357c-.089 11.275.387 22.35 1.74 25.737 1.121 2.8 3.862 9.635 12.5 9.635a20.115 20.115 0 0 0 4.2-.478c9.007-1.928 12.917-5.911 14.436-14.688.8-4.645 2.175-15.733 2.831-21.736a17.808 17.808 0 0 0 4.982.612 30.145 30.145 0 0 0 11.508-2.191c3.257-1.515 9.142-5.243 8.065-8.503zm-22.216-22.734c.528 4.4 1.052 8.928-.98 13.392a17.7 17.7 0 0 1-.856-1.775c-.241-.58-.84-1.672-1.643-3.114-3.089-5.546-10.329-18.528-6.641-23.8 1.869-2.669 6.6-2.81 10.758-2.311a37.242 37.242 0 0 1-.47 4.973 46.667 46.667 0 0 0-.635 5.922 44.757 44.757 0 0 0 .467 6.713zm16.462-36.053c4.417 5.642-.484 31.324-14.567 53.543-.12-.151-.211-.292-.336-.448-.054-.066-.114-.146-.169-.214 3.611-6.032 2.946-11.988 2.312-17.273a41.884 41.884 0 0 1-.445-6.145 43.359 43.359 0 0 1 .6-5.476 33.978 33.978 0 0 0 .54-7.093 2.376 2.376 0 0 0 .077-.687c-.264-2.765-6.45-19.517-22.481-26.726C89.89 6.805 106 5.534 116.508 18.958zM34.4 85.346c-2.823 3.392-4.761 2.746-5.393 2.538C19.346 84.66 9.974 44.858 9.5 35.391c-.544-10.9 2.092-18.5 7.846-22.581 9.33-6.62 24.614-2.71 30.863-.679-.06.059-.125.108-.184.168-10.183 10.284-9.967 27.8-9.939 28.958v.008c0 .38.033 1.008.084 1.84a72.478 72.478 0 0 1-.37 14.677A18.653 18.653 0 0 0 42.716 73.4c.392.41.84.73 1.262 1.093A260.144 260.144 0 0 0 34.4 85.346zm11-14.527A14.949 14.949 0 0 1 41.493 58.3a76.3 76.3 0 0 0 .4-15.417 46.57 46.57 0 0 1-.059-1.063c1.53-1.321 8.379-4.98 13.231-3.837 2.224.518 3.527 1.983 4.093 4.6 2.935 13.581.39 19.24-1.658 23.789-.427.949-.832 1.851-1.168 2.753l-.267.716a47.416 47.416 0 0 0-1.661 4.99 12.65 12.65 0 0 1-8.998-4.012zm.482 18.335a8.048 8.048 0 0 1-2.238-.938 12.348 12.348 0 0 1 2.388-.69c6.488-1.333 7.488-2.278 9.679-5.06.485-.614 1.058-1.344 1.847-2.224 1.124-1.26 1.613-1.063 2.581-.661a3.69 3.69 0 0 1 1.814 2.34 2.568 2.568 0 0 1-.219 2.165c-4.513 6.339-11.099 6.255-15.846 5.068zm33.764 31.453c-8.926 1.895-11.219-3.823-12.453-6.9-1.183-2.964-1.764-16.367-1.355-31.182a1.606 1.606 0 0 0-.029-.171c0-.025-.011-.051-.013-.076a1.953 1.953 0 0 0-.09-.494 7.566 7.566 0 0 0-.163-.9 7.324 7.324 0 0 0-3.973-4.761 5.756 5.756 0 0 0-3.518-.461 44.687 44.687 0 0 1 1.5-4.522l.271-.723c.306-.825.679-1.65 1.069-2.519C63.048 63.127 66 56.581 62.8 41.8c-1.186-5.494-5.312-8.262-11.328-7.663A27.649 27.649 0 0 0 41.99 37.3c.475-5.584 2.23-15.859 8.7-22.382 3.991-4.027 9.27-6.068 15.7-6.068.165 0 .332 0 .5.007 21.96.358 31.325 18.448 33.439 24.761-6.718-.683-11.125.628-13.461 3.968-5.024 7.182 2.435 20.559 6.44 27.747.7 1.264 1.241 2.213 1.453 2.724a24.939 24.939 0 0 0 3.929 6.331c.324.405.638.8.887 1.142-1.945.577-5.528 2.057-5.254 8.587-.248 3.264-2.139 19.062-3.129 24.816-1.265 7.318-3.963 10.049-11.542 11.674zm32.968-37.74c-4.721 2.187-13.512 2.308-14.575 1.282-.244-4.257 1.3-4.688 2.936-5.148.175-.047.427-.12.708-.223q.219.175.482.351c2.9 1.917 8.043 2.139 15.29.672a20.288 20.288 0 0 1-4.835 3.066z" fill="#fff"/>
</svg>
