<svg xmlns="http://www.w3.org/2000/svg" width="128" height="128">
    <path d="M45.787 105.176h36.426c0 8.276-8.159 14.992-18.213 14.992s-18.213-6.716-18.213-14.992zM33.912 89.294v10.913h60.161V89.294zM82.65 71.766a24.751 24.751 0 0 0 5.916-15.984c0-8.888-2.171-13.608-5.741-19.815-2.215-3.847-5.464-11.86-2.637-18.257-6.4 5.085-8.131 19.8-8.509 29.9-1.122-4.866-.933-12.53-2.39-17.076-3.861-12.122-8.218-17-4.764-22.7-3.876.233-7.752 7.066-7.752 12.953 0 5.682-1.544 14.949-5.216 20.034-.248-10.972-3.934-17.98-7.4-18.257 3.555 9.063-6.279 20.267-6.279 33.1a25 25 0 0 0 6.1 16.056 165.543 165.543 0 0 1-6.716-1.355c-5.319-1.2-12.808-2.87-12.779-2.739 1.4 3.992 2.856 7.883 9.005 15.372l.6.684h59.767a38.936 38.936 0 0 0 9.66-16.1l-13.726 2.683s-2.914.714-7.139 1.501z" fill="#fff"/>
    <path d="M64.007 0A64 64 0 1 1 0 64.007 64 64 0 0 1 64.007 0zm39.515 67.2L89.8 69.879s-2.914.714-7.14 1.5A24.745 24.745 0 0 0 88.573 55.4c0-8.888-2.171-13.608-5.741-19.815-2.215-3.847-5.464-11.861-2.637-18.257-6.4 5.085-8.13 19.8-8.509 29.9-1.122-4.866-.933-12.53-2.39-17.076-3.861-12.123-8.217-17-4.764-22.7-3.876.234-7.752 7.067-7.752 12.953 0 5.683-1.544 14.95-5.216 20.035-.247-10.972-3.934-17.98-7.4-18.257 3.555 9.063-6.28 20.267-6.28 33.1a25 25 0 0 0 6.1 16.056c-3.993-.728-6.717-1.355-6.717-1.355-5.318-1.195-12.807-2.87-12.778-2.739 1.4 3.992 2.855 7.882 9 15.372l.6.684h59.773a38.936 38.936 0 0 0 9.66-16.101zM94.08 99.821V88.908H33.92v10.913zm-11.86 4.969H45.794c0 8.275 8.16 14.992 18.213 14.992s18.213-6.717 18.213-14.992z" fill="#d65c3a"/>
</svg>
