<svg xmlns="http://www.w3.org/2000/svg" width="128" height="128">
    <path d="M122.881 51.2H81.929a5.1 5.1 0 0 1-5.129-5.129V5.1A5.093 5.093 0 0 0 71.672 0H56.328A5.091 5.091 0 0 0 51.2 5.1v40.971a5.105 5.105 0 0 1-5.123 5.129h-15.35a5.105 5.105 0 0 1-5.127-5.129V5.1A5.086 5.086 0 0 0 20.482 0H5.125A5.087 5.087 0 0 0 0 5.1v117.762A5.107 5.107 0 0 0 5.125 128h117.756a5.106 5.106 0 0 0 5.119-5.138V56.315a5.094 5.094 0 0 0-5.119-5.119m-20.476 43.5a7.672 7.672 0 0 1-7.682 7.688h-10.25a7.665 7.665 0 0 1-7.673-7.692V84.46a7.664 7.664 0 0 1 7.669-7.7h10.25a7.67 7.67 0 0 1 7.682 7.7z" fill="#f16a2e"/>
</svg>
