<svg xmlns="http://www.w3.org/2000/svg" width="128" height="128">
  <path d="M127.29,77.14s2.15-4.41-1.04-6.31c-3.19-1.9-5.62,1.54-5.62,1.54-10.93,13.39-19.89,22-36.26,22-17.24,0-23.67-15.21-24.12-27.57,3.78,7.99,11.16,14.46,22.69,14.16,22.17-.72,37.36-20.74,37.36-38.97,0-21.81-16.27-37.54-44.51-37.54-20.2,0-45.23,7.69-61.67,19.84-.18,12.51,6.79,28.78,9.3,26.99,14.26-10.25,25.56-16.85,36.53-20.16-4.22,4.71-9.98,11.03-16.27,17.95C25.77,68.75,3.53,93.18,0,98.66c.54,6.79,8.94,25.03,13.05,25.03,1.25,0,2.32-.71,3.58-1.97,11.74-13.19,21.31-25.02,29.83-36.42,1.2,16.71,9.41,37.14,32.38,37.14,15.91,0,29.27-9.6,39.18-25.49l9.27-19.81ZM82.6,31.75c.55-.86,1.11-1.73,1.67-2.61,10.62,1.8,14.59,7.7,14.59,14.1,0,10.55-10.37,15.73-19.84,15.73-5.06,0-8.96-1.33-12.03-3.06,5.13-7.77,10.22-15.73,15.62-24.16Z" fill="#ff4438" stroke-width="0"/>
</svg>