<svg xmlns="http://www.w3.org/2000/svg" width="128" height="128">
    <path d="M0 0h128v128H0z" fill="#8C4FFF"/>
    <path d="M46.7 73.244a21.751 21.751 0 0 0 6.637 1.186 5.106 5.106 0 0 0 4.03-1.186 4.823 4.823 0 0 0 1.422-3.555 3.381 3.381 0 0 0-1.422-3.556 7.581 7.581 0 0 0-4.5-1.185 42.341 42.341 0 0 0-5.452.474v-2.37l.712-10.43h12.8v2.845H51.2l-.474 7.111a15.647 15.647 0 0 1 3.318-.237 7.8 7.8 0 0 1 5.926 1.9 7.75 7.75 0 0 1-.47 11.137 11.087 11.087 0 0 1-6.637 2.133 15.911 15.911 0 0 1-6.637-1.422zm27.73-10.192h.711a7.278 7.278 0 0 1 5.689 1.9 6.078 6.078 0 0 1 1.9 4.978 7.088 7.088 0 0 1-2.607 5.452 11.092 11.092 0 0 1-6.638 2.133 14.853 14.853 0 0 1-6.4-1.422v-2.612a20.3 20.3 0 0 0 6.4 1.186 5.919 5.919 0 0 0 4.267-1.186 3.912 3.912 0 0 0 1.185-3.555c0-2.845-1.659-4.267-5.452-4.267a15.647 15.647 0 0 0-3.318.237v-2.37l7.348-8.059H67.319v-2.845h14.222v2.608zM64 96.474c-.237 0-.474-.237-.948-.237a54.343 54.343 0 0 0-17.778-6.874c-3.556-.711-15.407-3.319-15.407-11.852 0-4.03 1.422-6.4 3.318-9.718a26.723 26.723 0 0 0 4.741-13.986A25.029 25.029 0 0 0 33.9 40.3a3.288 3.288 0 0 1 0-2.133l2.845-3.319a1.544 1.544 0 0 1 2.133-.474 22.447 22.447 0 0 0 11.615 3.082 23.655 23.655 0 0 0 12.563-3.793 3.267 3.267 0 0 1 2.133 0 19.712 19.712 0 0 0 12.563 3.793 24.987 24.987 0 0 0 11.611-3.086 2.8 2.8 0 0 1 2.37.237l2.608 3.556a1.855 1.855 0 0 1 .237 1.9 25.029 25.029 0 0 0-4.03 13.511c0 5.926 2.371 10.193 4.5 13.986 1.9 3.318 3.318 5.688 3.318 9.718 0 8.533-11.851 11.378-15.17 12.089A61.056 61.056 0 0 0 65.185 96c-.474.237-.948.237-1.185.474zM37.452 39.348a25.188 25.188 0 0 1 3.792 14.222c0 7.111-2.844 11.852-4.977 15.645-1.66 3.081-2.845 4.978-3.082 8.059 0 6.163 10.43 8.3 12.563 8.77a53.608 53.608 0 0 1 18.015 6.875 56.859 56.859 0 0 1 18.252-6.875c2.133-.237 12.563-2.607 12.326-8.77 0-2.844-1.185-4.978-2.845-8.059-2.133-4.03-5.215-8.771-5.215-15.645a26.844 26.844 0 0 1 4.03-14.222l-.948-1.422a26.675 26.675 0 0 1-12.089 2.844 27 27 0 0 1-13.511-3.792 23.206 23.206 0 0 1-13.748 3.792 25.7 25.7 0 0 1-11.852-2.844zM64 106.667a5.376 5.376 0 0 1-.948-.237 51.926 51.926 0 0 0-19.2-8.534C29.867 95.289 21.57 87.7 21.57 77.274a26.476 26.476 0 0 1 4.5-13.985c1.9-3.319 3.319-5.926 3.556-9.719a18.406 18.406 0 0 0-6.163-13.037 1.838 1.838 0 0 1-.474-2.37s0-.237.237 0c0-.237 9.955-12.089 12.326-15.407a1.139 1.139 0 0 1 1.422-.474 1.81 1.81 0 0 1 1.185.474 17.062 17.062 0 0 0 12.8 6.163c4.741 0 8.533-2.134 12.089-6.637a1.456 1.456 0 0 1 2.37-.238.233.233 0 0 1 .237.238c3.556 4.74 7.348 6.874 12.089 6.637a17.824 17.824 0 0 0 12.563-6.163 2.541 2.541 0 0 1 1.422-.474 1.81 1.81 0 0 1 1.185.474c2.134 3.081 12.326 15.17 12.326 15.407a2.5 2.5 0 0 1 .474 1.185 1.3 1.3 0 0 1-.711 1.185 18.406 18.406 0 0 0-6.159 13.037c0 3.793 1.423 6.4 3.319 9.719a26.728 26.728 0 0 1 4.737 13.985c0 10.193-8.3 18.015-22.519 20.622a47.7 47.7 0 0 0-18.963 8.534 3.522 3.522 0 0 1-1.418.237zM26.548 39.111a20.107 20.107 0 0 1 6.163 14.459c0 4.741-2.133 8.3-3.793 11.378-2.133 3.556-4.029 7.111-4.266 12.326 0 12.563 14.933 16.119 19.437 16.83a50.322 50.322 0 0 1 19.674 8.533A54.058 54.058 0 0 1 83.437 94.1c4.5-.948 19.437-4.5 19.437-16.83 0-5.215-2.133-8.533-4.03-12.326-1.9-3.318-4.029-6.874-4.029-11.378a21.735 21.735 0 0 1 6.163-14.459c-2.134-2.844-7.348-9.007-9.956-12.563a22.323 22.323 0 0 1-13.748 6.163 16.309 16.309 0 0 1-13.511-6.874 18.932 18.932 0 0 1-13.748 6.874 19.469 19.469 0 0 1-13.748-6.163c-2.134 3.323-7.586 9.723-9.719 12.567z" fill="#fff"/>
</svg>
