<svg xmlns="http://www.w3.org/2000/svg" width="128" height="128">
    <defs>
        <linearGradient id="a" x1="-10201.164" y1="-10229.861" x2="-10123.099" y2="-10275.988" gradientTransform="matrix(.119 0 0 .119 1236.071 1330.007)" gradientUnits="userSpaceOnUse">
            <stop offset="0" stop-color="#909ca9"/>
            <stop offset="1" stop-color="#ededee"/>
        </linearGradient>
        <linearGradient id="b" x1="-10199.411" y1="-11099.224" x2="-10136.599" y2="-11099.224" gradientTransform="matrix(.119 0 0 .119 1236.071 1330.007)" gradientUnits="userSpaceOnUse">
            <stop offset="0" stop-color="#939fab"/>
            <stop offset="1" stop-color="#dcdee1"/>
        </linearGradient>
        <radialGradient id="c" cx="-3531.508" cy="-6034.799" r="83.396" gradientTransform="matrix(-.114 -.017 .035 -.228 -130.968 -1390.397)" gradientUnits="userSpaceOnUse">
            <stop offset="0" stop-color="#ee352c"/>
            <stop offset="1" stop-color="#a91d22"/>
        </radialGradient>
    </defs>
    <path d="M79.363 59.755l-25.634 8.37-22.3 9.842-6.239 1.648a136.02 136.02 0 0 1-5.057 4.592c-1.976 1.705-3.817 3.255-5.231 4.378a39 39 0 0 0-5.076 5.038 22.81 22.81 0 0 0-3.759 6.355 10.667 10.667 0 0 0 1.511 9.591c2.635 3.875 7.886 7.828 14.008 10.521a89.045 89.045 0 0 0 12.323 4.127 163.16 163.16 0 0 0 26.273 3.739 29.65 29.65 0 0 0 3.39 0 45.833 45.833 0 0 0 2.5-4.746 119.955 119.955 0 0 0 9.087-24.045A113.9 113.9 0 0 0 77.483 82.5c.136-1.879.194-8.176.077-10.308a72.32 72.32 0 0 0-.968-9.087 2.079 2.079 0 0 1-.058-.794A33.18 33.18 0 0 1 80 61.266l-.64-1.511zm-5.852 3.429c.233 0 .853 5.948 1.008 9.707a5.145 5.145 0 0 1-.02 1.318c-.154 0-3.274-1.841-5.5-3.236-1.938-1.22-5.619-3.662-6.2-4.127-.194-.135-.175-.154 1.414-.7 2.687-.908 9.087-2.962 9.298-2.962zm-13.059 4.3a6.41 6.41 0 0 1 1.686.91 120.046 120.046 0 0 0 11.741 6.53c.717.31.8.194-.852 1.318a84.469 84.469 0 0 1-13.311 7.149c-.949.426-1.744.755-1.763.755a4.973 4.973 0 0 1 .232-1.065 57.142 57.142 0 0 0 2.074-13.621c.019-1.938.019-1.938.193-2-.039.02-.019.02 0 .02zm-2.693 1.026a41.765 41.765 0 0 1-.116 5.639 49.332 49.332 0 0 1-1.782 8.428 13.075 13.075 0 0 1-.446 1.356 34.022 34.022 0 0 1-3.6-3.507 26.193 26.193 0 0 1-3.565-5.192 16.3 16.3 0 0 1-1.089-2.634c.31-.213 10.521-4.166 10.6-4.088zm-12.671 4.98a.073.073 0 0 1 .058.019 3.716 3.716 0 0 1 .291.7 26.153 26.153 0 0 0 3.216 5.754 32.8 32.8 0 0 0 4.475 4.825c.465.387.891.755.949.813.117.117.156.1-3 1.3-3.661 1.395-7.653 2.79-12.225 4.262q-1.639.528-3.274 1.066c-.175.058-.117-.039.387-.833a109 109 0 0 0 7.653-15.423c.33-.853.659-1.7.717-1.9a.7.7 0 0 1 .426-.5 1.919 1.919 0 0 1 .33-.077zm-3.875 1.61a43.277 43.277 0 0 1-1.9 4.011c-1.88 3.662-3.933 7.266-6.685 11.644-.465.756-.91 1.454-.968 1.531-.1.136-.136.1-.446-.5a17.765 17.765 0 0 1-1.492-4.495 18.1 18.1 0 0 1 .1-5.774c.252-1.2.233-1.181.814-1.472 2.48-1.259 10.5-5.018 10.579-4.941zm33.422 1.357v.813a105.473 105.473 0 0 1-1.143 14.571c-.116.755-.214 1.375-.233 1.4 0 0-.561-.155-1.22-.349a50.029 50.029 0 0 1-8.913-3.817 39.621 39.621 0 0 1-4.534-2.79c.019-.02.833-.446 1.782-.95a113.951 113.951 0 0 0 10.6-6.219c1.182-.8 2.964-2.073 3.352-2.422l.31-.232zm-48.051 5.734c.078 0 .058.155-.058.853-.078.5-.174 1.434-.213 2.073a14.339 14.339 0 0 0 1.705 7.789 15.8 15.8 0 0 1 .678 1.472c-.136.117-12.962 3.876-16.992 4.98-1.2.329-2.247.62-2.325.639-.136.039-.155.02-.1-.31.445-2.848 2.616-6.568 5.638-9.707A25.066 25.066 0 0 1 21.3 85.1c1.976-1.123 5.018-2.809 5.25-2.886 0-.02.02-.02.039-.02zM56.81 87.6a7.933 7.933 0 0 1 1.046.562A58.351 58.351 0 0 0 72.7 93.933l.446.1-.62.348c-2.577 1.434-11.044 4.96-19.7 8.2-1.26.465-2.5.93-2.733 1.027a1.4 1.4 0 0 1-.445.136c0-.02.348-.7.794-1.531a95.621 95.621 0 0 0 6.1-13.892c.156-.368.252-.7.272-.717zm-3.081 1.008a5.529 5.529 0 0 1-.329.891 122.685 122.685 0 0 1-6.724 13.543c-.716 1.279-1.317 2.306-1.337 2.306s-.6-.349-1.3-.775a39.849 39.849 0 0 1-10.133-8.622l-.349-.426 1.763-.485a126.517 126.517 0 0 0 17.012-5.87 48.605 48.605 0 0 1 1.397-.565zm19.143 6.684c.019.446-.969 4.437-1.783 7.324-.678 2.422-1.259 4.321-2.325 7.672-.465 1.473-.871 2.694-.891 2.694a1.35 1.35 0 0 1-.252-.058 81.045 81.045 0 0 1-15.752-4.437c-1.356-.543-3.294-1.415-3.41-1.512a22.6 22.6 0 0 1 2.6-1.22c8.816-3.856 17.961-8.235 21.1-10.114a2.521 2.521 0 0 1 .717-.349zM28.677 96.8c.039.038-2.422 3.584-5.871 8.408-1.2 1.686-2.6 3.662-3.119 4.4s-1.318 1.9-1.763 2.6l-.815 1.259-.871-.736a32.308 32.308 0 0 1-3.6-3.681 15.9 15.9 0 0 1-3.238-6.262c-.213-.93-.213-1.4-.019-1.453.29-.078 5.463-1.3 10.308-2.423 2.693-.619 5.812-1.356 6.936-1.627s2.035-.484 2.054-.484zm2.48.949l.62.7a36.369 36.369 0 0 0 9.087 7.441 5.092 5.092 0 0 1 1.046.678c-.135.1-11.974 4.3-17.457 6.2a472.762 472.762 0 0 1-5.638 1.957 3.483 3.483 0 0 1-.388-.252l-.349-.252.562-.814c1.821-2.635 4.108-5.522 9.088-11.528l3.429-4.127zm15.462 11.063c.019-.019.871.291 1.917.679a62.21 62.21 0 0 0 7.189 2.228 79.555 79.555 0 0 0 10.869 1.881c.427.039.659.078.582.136-.136.077-2.984 1.027-5.077 1.685-3.332 1.046-13.5 4.05-21.8 6.433-1.531.446-2.848.814-2.926.833a1.54 1.54 0 0 1-.833-.213 13.98 13.98 0 0 1 1.027-1.3 115.141 115.141 0 0 0 7.87-10.574c.639-.969 1.182-1.763 1.182-1.783zm-3.411.1c.019.02-1.356 2.228-3.758 6.026-1.027 1.608-2.171 3.429-2.578 4.069-.387.62-.968 1.589-1.3 2.131l-.562.988-.29-.077c-.7-.194-5.6-1.919-6.9-2.442a47.944 47.944 0 0 1-4.515-2.073 18.83 18.83 0 0 1-3.332-2.112c.039-.019 2.693-.736 5.89-1.608 8.487-2.306 13.195-3.643 16.276-4.611a7.834 7.834 0 0 1 1.065-.291zm24.123 5.658h.019c.077.193-3.061 8.912-4.2 11.664-.251.619-.348.775-.484.755-.329-.019-4.882-.658-7.653-1.065-4.825-.737-12.924-2.151-14.958-2.616l-.465-.1 2.887-.659c6.2-1.395 9.184-2.151 12.206-3.081a86.083 86.083 0 0 0 11.412-4.4 9.285 9.285 0 0 1 1.241-.5z" fill="url(#a)"/>
    <path d="M52.935 0a123.069 123.069 0 0 0-11.742 4.225 73.3 73.3 0 0 0-13.5 6.781 10.241 10.241 0 0 0-2.616 2.616 1.821 1.821 0 0 0-.116.659l2.6 2.46 6.181 1.977 14.698 2.635 16.817 2.887.175-1.453c-.058 0-.1-.02-.155-.02l-2.209-.349-.445-.794c-2.287-4.03-4.806-9.029-6.278-12.4a64.155 64.155 0 0 1-2.829-7.808C53.187.1 53.148.021 52.935 0zm-.311.988h.02c.019.02.1.562.175 1.2a40.5 40.5 0 0 0 1.881 8.16c.717 2.131.717 2.015-.116 1.763-1.976-.543-10.831-2.073-17.244-2.965-1.027-.135-1.9-.271-1.9-.29-.078-.078 4.63-2.538 6.7-3.507 2.66-1.221 9.942-4.263 10.484-4.36zM33.947 9.67l.756.251a115.513 115.513 0 0 0 20.13 3.837c.64.058 1.182.116 1.2.116a8.87 8.87 0 0 1-1.22.639c-2.751 1.376-5.774 3.062-7.866 4.36a8 8 0 0 1-1.26.7c-.077 0-.484-.077-.91-.135l-.777-.12-1.937-1.9a822.623 822.623 0 0 0-7.111-6.839zm-.775.6l2.728 3.41c1.492 1.88 3 3.72 3.333 4.127a6.4 6.4 0 0 1 .581.756c-.078.058-3.953-.7-6.007-1.163-2.112-.484-2.983-.717-4.282-1.123l-1.065-.349v-.272c.019-1.3 1.666-3.235 4.456-5.211l.252-.175zm23.212 4.65c.077 0 .174.174.406.7.659 1.453 2.713 5.367 3.216 6.122.156.252.427.272-2.3-.174-6.568-1.066-8.68-1.414-8.68-1.453a2.033 2.033 0 0 1 .446-.291 37.765 37.765 0 0 0 5.909-4.088c.446-.368.853-.717.93-.775.019-.039.058-.058.078-.039z" fill="url(#b)"/>
    <path d="M25.208 13.351a1.93 1.93 0 0 0-.019 1.686 7.658 7.658 0 0 0 1.821 2.15s8.622 8.409 9.669 9.61A26.941 26.941 0 0 1 43.712 45.2a29.815 29.815 0 0 1-3.061 13.931c-4.03 8.8-12.536 18.5-25.653 29.276l1.918-.639a61.664 61.664 0 0 1 6.878-4.088 245.155 245.155 0 0 1 31.989-14.315c18.135-6.82 47.954-14.8 64.926-17.4l1.764-.271-.272-.427a59.7 59.7 0 0 0-3.894-5.483 46.555 46.555 0 0 0-13.757-11.45c-7.595-4.243-17.418-7.556-29.857-10.017-2.344-.465-7.5-1.356-11.683-2a1130.012 1130.012 0 0 1-20.926-3.405c-2.266-.388-5.657-.969-7.905-1.453a50.119 50.119 0 0 1-5.134-1.376c-1.4-.543-3.41-1.085-3.837-2.732zm5 4.844a5.33 5.33 0 0 1 .736.232c.736.252 1.685.543 2.809.853q1.276.351 2.558.678c1.162.29 2.131.562 2.15.562.136.135 2.093 6.393 2.752 8.8.251.911.446 1.685.426 1.685a3.838 3.838 0 0 1-.484-.755 40.34 40.34 0 0 0-10-11.3 8.307 8.307 0 0 1-.949-.755zm9.532 2.635a7.615 7.615 0 0 1 1.046.17c3.294.736 9.2 1.86 12.982 2.5a4.753 4.753 0 0 1 1.143.251 1.952 1.952 0 0 1-.523.33c-.639.329-3.217 1.86-4.069 2.441a37.114 37.114 0 0 0-5.483 4.379c-.562.562-1.047 1.027-1.047 1.027s-.116-.33-.213-.737a62.763 62.763 0 0 0-3.468-9.491 8.2 8.2 0 0 1-.387-.891c0 .039 0 .02.019.02zm16.779 3.2a7.459 7.459 0 0 1 .7 2.15 31.733 31.733 0 0 1 .93 8.874 16.644 16.644 0 0 1-.117 1.667l-.058.193-1.007-.329c-2.073-.659-5.445-1.647-8.331-2.461-1.648-.445-2.984-.852-2.984-.891a45.724 45.724 0 0 1 3.427-3.433 89.848 89.848 0 0 1 7.44-5.774zm1.337.193c.058-.058 8.021 1.318 11.645 2.015 2.693.523 6.607 1.337 6.839 1.434.116.039-.291.271-1.589.853a83.98 83.98 0 0 0-12.69 6.9c-.989.659-1.822 1.2-1.841 1.2a10.607 10.607 0 0 1-.039-1.24 27.055 27.055 0 0 0-2.093-10.545 2.973 2.973 0 0 1-.232-.62zm20.6 4.069a14.645 14.645 0 0 1-.426 2.558 48.583 48.583 0 0 1-4.883 11.2 12.672 12.672 0 0 1-.814 1.317 8.176 8.176 0 0 1-1.162-.62 63.27 63.27 0 0 0-7.595-3.72c-.775-.329-1.453-.6-1.473-.639-.136-.117 6.1-4.243 9.4-6.22 2.616-1.588 6.878-3.952 6.956-3.875zm1.472.233c.175 0 3.7.969 5.542 1.511a114.245 114.245 0 0 1 13.19 4.821l1.414.64-.987.232a144.388 144.388 0 0 0-22.34 6.917c-.562.233-1.066.427-1.1.427a5.022 5.022 0 0 1 .406-.989 39.217 39.217 0 0 0 3.74-12.9c.019-.368.077-.658.135-.658zm-35.108 8.06c.058-.058 2.752.581 4.2.988 2.209.62 6.9 2.189 6.9 2.306 0 .019-.523.465-1.142 1.007C52.237 43 49.8 45.223 46.87 48.052c-.872.833-1.608 1.511-1.647 1.511s-.058-.116-.038-.271a43.67 43.67 0 0 0-.272-11.683c-.058-.543-.113-1.009-.097-1.027zm56.6.058a37.1 37.1 0 0 1-2.054 3.2c-1.166 1.657-2.876 3.869-6.732 8.713a1302.45 1302.45 0 0 0-5.076 6.413c-.775.969-1.414 1.782-1.434 1.782a6.8 6.8 0 0 1-.542-.774 40 40 0 0 0-7.847-8.661 43.409 43.409 0 0 0-1.434-1.163 2.17 2.17 0 0 1-.387-.329c0-.058 3.293-1.473 5.793-2.48 4.379-1.783 10.346-3.914 14.822-5.29 2.344-.736 4.844-1.453 4.883-1.414zm1.492.387a4.5 4.5 0 0 1 1.1.543A65.724 65.724 0 0 1 116.97 47.3c1.027 1.008 3.565 3.643 3.526 3.662 0 0-.891.078-1.937.155a191.066 191.066 0 0 0-28.637 4.766c-.678.155-1.278.291-1.317.291s.717-.756 1.666-1.666c5.89-5.677 8.584-9.261 11.761-15.655.445-.95.833-1.763.872-1.822zm-43.157 4.415c.271.058 2.79 1.24 4.689 2.19 1.743.871 4.359 2.266 4.495 2.382.019.02-.911.5-2.054 1.066a135.015 135.015 0 0 0-10.017 5.522c-.93.562-1.705 1.027-1.724 1.027-.078 0-.059-.078.465-1.027a40.5 40.5 0 0 0 3.933-10.676c.077-.29.155-.484.213-.484zm-2.519.465a37.237 37.237 0 0 1-1.007 3.739 47.727 47.727 0 0 1-3.43 7.867c-.31.542-.775 1.337-1.027 1.782l-.484.775-1.088-1.046a14.246 14.246 0 0 0-3.6-2.655 5.124 5.124 0 0 1-.93-.542c0-.155 3.313-3.158 5.851-5.328 1.821-1.569 5.658-4.65 5.716-4.592zm15.4 6.336l.949.62a73.584 73.584 0 0 1 6.684 4.94c1.1.911 3.236 2.829 3.662 3.294l.232.252-1.563.448c-8.874 2.46-15.732 4.65-23.735 7.595-.891.329-1.646.6-1.7.6-.116 0-.213.1 1.783-1.744a85.064 85.064 0 0 0 13.02-14.958l.679-1.046zm-4.05 1.007c.039.039-2.616 3.778-4.2 5.89-1.9 2.519-5.27 6.743-7.6 9.494-.968 1.143-1.8 2.093-1.84 2.112-.058.019-.078-.271-.078-.717a16.232 16.232 0 0 0-1.647-6.975c-.445-.891-.523-1.1-.426-1.2.368-.33 6.006-3.546 9.571-5.464 2.4-1.279 6.161-3.177 6.22-3.139zM44.1 55.26a8.516 8.516 0 0 1 1.008.5 21.343 21.343 0 0 1 3.333 2.248 5.774 5.774 0 0 1-1.124.93 178.837 178.837 0 0 0-6.258 4.728c-1.706 1.356-1.763 1.395-1.57 1.1a35.741 35.741 0 0 0 2.6-4.476 36.1 36.1 0 0 0 1.627-4.049 3.308 3.308 0 0 1 .387-.988zm6.53 5.115c.1-.019.213.155.736.93a13.978 13.978 0 0 1 2.171 5.638l.038.388-2.655 1.027c-4.747 1.84-9.126 3.662-12.091 5.018-.833.387-2.286 1.085-3.235 1.55-.95.484-1.725.852-1.725.833s.6-.465 1.337-1.008a78.124 78.124 0 0 0 14.571-13.427c.406-.484.775-.93.813-.949zm-3 .736a40.78 40.78 0 0 1-3.642 4.107 64.243 64.243 0 0 1-12.033 9.708c-.581.368-1.1.7-1.162.736-.136.078.038-.116 2.053-2.306a52.625 52.625 0 0 0 3.352-3.971 6.549 6.549 0 0 1 1.938-1.841c2.844-2.054 9.412-6.511 9.49-6.433z" fill="url(#c)"/>
</svg>
