<svg xmlns="http://www.w3.org/2000/svg" width="128" height="128">
    <path d="M75.811 53.5h4.049c-1.3 3.807-2.6 7.581-3.905 11.394h9.873c.179-.456.37-.9.529-1.353q1.466-4.177 2.919-8.359a2.217 2.217 0 0 1 2.383-1.7h10.692a4.616 4.616 0 0 1 .653.047 1.727 1.727 0 0 1 1.587 2.127 7.564 7.564 0 0 1-.385 1.731c-1.105 3.187-2.241 6.363-3.361 9.544a2.1 2.1 0 0 1-1.963 1.484 5.613 5.613 0 0 1-.468.014q-5.2 0-10.41-.006a5.14 5.14 0 0 1-1.115-.105 1.561 1.561 0 0 1-1.308-1.458 2.565 2.565 0 0 0-.047-.276c-.005-.026-.036-.046-.08-.1l-.685 1.916H70.726zm20.634 3.519c-.859 0-1.717-.006-2.576 0a1.439 1.439 0 0 0-1.551 1.095q-.992 2.8-1.95 5.612a1.5 1.5 0 0 0-.072.55.6.6 0 0 0 .614.631c.124.012.25.006.375.006h4.776c1.206 0 1.474-.191 1.877-1.341q.908-2.583 1.811-5.166a2.9 2.9 0 0 0 .121-.4c.122-.663-.136-.982-.8-.986-.877-.01-1.751-.006-2.625-.005zm27.055-3.675h-12.1c-.218 0-.438.005-.655.024a1.68 1.68 0 0 0-1.407.883 5.422 5.422 0 0 0-.391.848q-1.74 4.95-3.464 9.9a5.66 5.66 0 0 0-.231.858 1.88 1.88 0 0 0 1.161 2.166 3.539 3.539 0 0 0 1.463.266h9.66c.125 0 .25 0 .375-.008a1.838 1.838 0 0 0 1.641-1.069 8.946 8.946 0 0 0 .361-.864q1.125-3.155 2.238-6.314c.051-.144.1-.289.156-.473H113.6c-.4 1.167-.845 2.29-1.222 3.5h4.613c-.107.271-.193.484-.275.7a1.445 1.445 0 0 1-1.489.988h-1.735c-.937 0-1.875 0-2.813-.007-.609 0-.912-.351-.7-.937.73-2.027 1.438-4.062 2.159-6.092a1.16 1.16 0 0 1 .926-.776 4.5 4.5 0 0 1 .836-.08q4.219-.007 8.44 0h.544l1.249-3.517zm-52.928.134h-11.4c-.25 0-.5-.005-.75 0a1.942 1.942 0 0 0-1.921 1.436c-.488 1.434-.98 2.867-1.461 4.3a6.162 6.162 0 0 0-.236.9 1.919 1.919 0 0 0 1.437 2.341 4.894 4.894 0 0 0 1.294.168c2.141.017 4.283.005 6.425.011a2.73 2.73 0 0 1 .74.076.465.465 0 0 1 .3.731 3.33 3.33 0 0 0-.2.424 1.432 1.432 0 0 1-1.411 1.035c-.171.014-.344.009-.516.009h-8.521L53.113 68.4c.2.012.333.028.469.029h12.006a2.015 2.015 0 0 0 2.24-1.531l.049-.131c.539-1.449 1.081-2.9 1.614-4.349a4.762 4.762 0 0 0 .23-.81 1.9 1.9 0 0 0-1.361-2.3 4.415 4.415 0 0 0-1.289-.189c-2.188-.018-4.377-.006-6.566-.012a1.781 1.781 0 0 1-.641-.089.553.553 0 0 1-.318-.353 1.329 1.329 0 0 1 1.121-1.613 3.66 3.66 0 0 1 .655-.031h8.654l1.243-3.537zm-50.579 14.95h11.813c.188 0 .375-.009.562-.021a1.774 1.774 0 0 0 1.51-.962 4 4 0 0 0 .255-.552q.855-2.28 1.7-4.566a4.319 4.319 0 0 0 .217-.86 1.875 1.875 0 0 0-1.158-2.085 3.487 3.487 0 0 0-1.461-.276h-6.61a1.786 1.786 0 0 1-.642-.087.555.555 0 0 1-.318-.351 1.322 1.322 0 0 1 1.157-1.622 4.813 4.813 0 0 1 .7-.028h8.571l1.236-3.534H24.757a1.965 1.965 0 0 0-1.957 1.454c-.4 1.2-.815 2.394-1.213 3.594a13.419 13.419 0 0 0-.471 1.567 1.943 1.943 0 0 0 1.4 2.368 2.471 2.471 0 0 0 .5.113 8.5 8.5 0 0 0 .887.059c2.125 0 4.251 0 6.376.007a2.528 2.528 0 0 1 .738.082c.367.112.455.388.284.734a3.192 3.192 0 0 0-.2.424 1.435 1.435 0 0 1-1.413 1.014c-.2.014-.406.009-.609.009h-8.42l-1.248 3.517zm16.206 0h10.878c.188 0 .375-.007.563-.016a3.126 3.126 0 0 0 3.047-2.271q2.135-6.1 4.291-12.2c.049-.141.093-.284.146-.445h-4.047c-.066.172-.13.329-.187.489l-1.664 4.679a1.072 1.072 0 0 1-1.113.825h-5.298a2.947 2.947 0 0 1-.421-.017.515.515 0 0 1-.5-.61 2.543 2.543 0 0 1 .153-.633c.5-1.414 1-2.825 1.505-4.237.056-.156.1-.316.156-.5h-4.037a2.105 2.105 0 0 0-.107.222c-.659 1.886-1.324 3.774-1.964 5.666a7.583 7.583 0 0 0-.331 1.41 1.684 1.684 0 0 0 1.011 1.833 2.335 2.335 0 0 0 .66.23 13.12 13.12 0 0 0 1.72.174c2.141.02 4.282.008 6.423.008h.556c-.08.258-.149.462-.206.67a1.423 1.423 0 0 1-1 1.03 3.7 3.7 0 0 1-1.054.169c-2.672.013-5.345.007-8.018.007h-.545l-1.236 3.517zm.222 10.111c.935-.4 1.873-.783 2.8-1.2A51.171 51.171 0 0 1 60.4 72.772a65.731 65.731 0 0 1 9.9.676q3.867.57 7.717 1.264c2.365.43 4.714.948 7.071 1.426A88.623 88.623 0 0 0 95.536 77.8a27.765 27.765 0 0 0 7.146-.224 16.033 16.033 0 0 0 5.714-2.131 17.713 17.713 0 0 0 5.777-6.1.754.754 0 0 0 .055-.164c-.043-.028-.068-.057-.093-.057-.391-.007-.785.021-1.171-.02a1.087 1.087 0 0 0-1.288.644 1.794 1.794 0 0 1-.224.3 14.023 14.023 0 0 1-10.066 5.845 28.677 28.677 0 0 1-6.5-.02c-2.8-.291-5.564-.787-8.32-1.349-1.545-.316-3.089-.639-4.642-.912-1.245-.22-2.5-.371-3.754-.549-1.979-.282-3.955-.581-5.937-.838-2.711-.351-5.43-.632-8.163-.761a50.37 50.37 0 0 0-9.309.3 44.875 44.875 0 0 0-8.966 1.888c-1.191.423-2.422.757-3.567 1.28-1.688.772-3.318 1.673-4.967 2.53a6.5 6.5 0 0 0-.827.532 1.037 1.037 0 0 0-.486.68 3.556 3.556 0 0 0 .473-.135zM20.982 53.478H9.124c-.359 0-.719-.007-1.078.006a3.133 3.133 0 0 0-3.126 2.3Q2.774 61.85.636 67.922c-.05.144-.089.291-.144.474h4.06c.069-.187.131-.346.188-.507 1.152-3.235 2.31-6.468 3.446-9.708a1.543 1.543 0 0 1 1.056-1.034 3.415 3.415 0 0 1 .967-.126c3.172-.009 6.343-.005 9.515-.005h.559l1.259-3.538zM57.4 80.214c1.445.33 2.892.655 4.338.985 3.291.749 6.614 1.335 9.949 1.832 2.733.408 5.476.772 8.238.949 2.027.131 4.051.335 6.08.414a67.237 67.237 0 0 0 8.853-.063c1.54-.143 3.085-.252 4.614-.47a32.491 32.491 0 0 0 7.885-2.153 23.607 23.607 0 0 0 6.452-3.937 24.585 24.585 0 0 0 5.654-7.292c.223-.424.429-.857.685-1.368-.582 0-1.078.023-1.57-.007a.716.716 0 0 0-.762.445c-.546.982-1.1 1.966-1.738 2.888a17.637 17.637 0 0 1-4.428 4.6 32.33 32.33 0 0 1-5.4 3.177 34.531 34.531 0 0 1-10.484 2.5c-2.142.214-4.3.257-6.46.279a104.9 104.9 0 0 1-12.124-.519c-3.044-.323-6.1-.592-9.133-.963-2.433-.3-4.853-.7-7.276-1.073-1.033-.16-2.059-.372-3.089-.553a.906.906 0 0 0-.844.152c.242.081.399.14.56.177zM88.118 77.3a2.506 2.506 0 0 0-.285-.095c-1.393-.283-2.787-.557-4.178-.848a5.6 5.6 0 0 0-1.81-.153c-.605.069-1.214.123-1.823.14-2.592.072-5.181.271-7.778.126-1.3-.073-2.594-.073-3.889-.139-2.669-.135-5.336-.294-8.005-.442l-5.477-.3c-2.652-.151-5.3-.312-7.957-.453a2.324 2.324 0 0 0-.822.118c-.787.255-1.563.542-2.343.818-.1.034-.191.079-.286.118a.5.5 0 0 0 .266.075c1.528.1 3.056.2 4.583.312 2.664.2 5.327.416 7.991.6s5.332.357 8 .525c3.635.23 7.273.365 10.916.381a99.062 99.062 0 0 0 10.393-.422c.834-.084 1.665-.192 2.5-.29zM128 53.4c0-.141-.012-.281-.027-.421a9.935 9.935 0 0 0-2.9-6.047 11.871 11.871 0 0 0-14.345-1.824 10.442 10.442 0 0 0-4.992 6.411 7.542 7.542 0 0 0-.291 2.039h1.67c.031-.043.046-.054.048-.067.012-.077.022-.154.03-.232a8.33 8.33 0 0 1 3.5-6.119 9.7 9.7 0 0 1 10.854-.782 8.441 8.441 0 0 1 4.709 6.949 1.466 1.466 0 0 0 .073.253h1.646a.841.841 0 0 0 .025-.16zM41.4 74.8l-.412-.025-2.48-.149c-1.7-.1-3.4-.226-5.1-.3a328.628 328.628 0 0 0-6.278-.182 93.665 93.665 0 0 0-13.614.533c-1.115.138-2.234.263-3.34.455-2.616.454-5.192 1.092-7.766 1.738-.666.167-1.323.37-1.979.571-.177.055-.4.1-.428.414a4.017 4.017 0 0 0 .991-.034c2.273-.414 4.542-.851 6.821-1.227 1.864-.307 3.734-.592 5.611-.794a72.826 72.826 0 0 1 8.143-.357c3.187.016 6.373.111 9.559.183.968.022 1.935.083 2.9.128 1.67.076 3.339.156 5.009.228a.861.861 0 0 0 .41-.054c.661-.342 1.313-.7 1.969-1.057zm50.578.258q1.671.224 3.344.44a3.319 3.319 0 0 0 1.787-.194c.9-.387 1.838-.7 2.737-1.1A25.9 25.9 0 0 0 107 69.556c.121-.112.232-.235.368-.374a.7.7 0 0 0-.164-.064c-.781 0-1.563-.015-2.343 0a.841.841 0 0 0-.454.2 26.85 26.85 0 0 1-8.617 4.432c-1.4.437-2.821.8-4.294 1.208.179.036.327.078.478.098z"/>
</svg>
