<svg xmlns="http://www.w3.org/2000/svg" width="128" height="128">
    <path d="M54.15 54.3h7.49l-4-6.38-7.24 11.54h-3.31l8.85-13.86a2.11 2.11 0 011.74-.9 2 2 0 011.7.88l8.89 13.88H65l-1.57-2.58H55.8zm34.4 2.58v-12h-2.81v13.18a1.38 1.38 0 00.41 1 1.46 1.46 0 001 .41H100l1.66-2.57zm-46.5-2.16a4.94 4.94 0 100-9.88H29.76v14.61h2.81v-12h9.3a2.37 2.37 0 010 4.73h-7.93l8.39 7.31h4.08l-5.64-4.73zm-29.59 4.74a7.31 7.31 0 110-14.62H21a7.31 7.31 0 110 14.62zm8.3-2.58a4.73 4.73 0 000-9.46h-8.11a4.73 4.73 0 100 9.46zm53.37 2.58a7.31 7.31 0 110-14.62h10.09l-1.64 2.58h-8.26a4.73 4.73 0 100 9.46h10.14l-1.66 2.58zm34.37-2.58a4.72 4.72 0 01-4.5-3.44h12l1.65-2.58H104a4.74 4.74 0 014.54-3.44h8.25l1.67-2.58h-10.1a7.31 7.31 0 100 14.61H117l1.66-2.57zm11.42-10.49a1.28 1.28 0 011.28-1.28 1.29 1.29 0 11-1.28 1.28zm1.28 1.66a1.65 1.65 0 10-1.63-1.64 1.65 1.65 0 001.63 1.64zm-.15-2.62a1.38 1.38 0 01.48 0 .52.52 0 01.36.52.54.54 0 010 .15.46.46 0 01-.22.31h-.08l.42.76h-.41l-.38-.7H121v.7h-.37v-1.74zm.13.84c.12 0 .23 0 .3-.12a.22.22 0 000-.16.27.27 0 00-.14-.23 1 1 0 00-.34 0v.53h.23z" fill="#f80000"/>
    <path d="M0 70.03h128v.87H0zM21.33 84.3h-.01l-1.33-5.18h-1.22l-1.36 5.18h-.02l-1.23-5.18h-1.2l1.78 6.77h1.23l1.38-5.18h.02l1.36 5.18h1.2l1.87-6.77h-1.2l-1.27 5.18zM26.31 82.88h3.42v-.97h-3.42v-1.77H30v-1.02h-4.87v6.77h4.94v-1.03h-3.76v-1.98zM36 82.26a1.65 1.65 0 00.72-.57 1.54 1.54 0 00.28-.89 1.51 1.51 0 00-.55-1.27 2.43 2.43 0 00-1.45-.41h-3.3v6.77h3.12a3.7 3.7 0 001.12-.15 2.2 2.2 0 00.78-.4 1.53 1.53 0 00.45-.59 2 2 0 00.14-.75 2 2 0 00-.32-1.15 1.44 1.44 0 00-.99-.59zm-3.15-2.18h1.94a1.11 1.11 0 01.73.21 1.07 1.07 0 010 1.42 1.07 1.07 0 01-.71.24h-1.97zm2.94 4.56a1.17 1.17 0 01-.84.28h-2.1v-2.11h2.1a1.21 1.21 0 01.84.27 1 1 0 01.29.77 1 1 0 01-.3.79zM40.07 79.12h-1.19v6.77h4.63v-1.03h-3.44v-5.74zM50.14 80a3.17 3.17 0 00-4.76 0 3.39 3.39 0 00-.64 1.13 4.08 4.08 0 00-.22 1.36 4.16 4.16 0 00.22 1.38 3.49 3.49 0 00.64 1.13 3.19 3.19 0 004.76 0 3.49 3.49 0 00.64-1.13A4.16 4.16 0 0051 82.5a4.08 4.08 0 00-.22-1.36 3.39 3.39 0 00-.64-1.14zm-.44 3.44a2.71 2.71 0 01-.36.83 1.87 1.87 0 01-.64.58 1.89 1.89 0 01-.94.22 1.83 1.83 0 01-.93-.22 1.71 1.71 0 01-.64-.58 2.51 2.51 0 01-.37-.83 3.75 3.75 0 01-.12-1 3.81 3.81 0 01.12-1 2.6 2.6 0 01.37-.83 1.79 1.79 0 01.64-.58 1.94 1.94 0 01.93-.22 2 2 0 01.94.22 2 2 0 01.64.58 2.82 2.82 0 01.36.83 3.81 3.81 0 01.12 1 3.75 3.75 0 01-.12 1.01zM55.66 83.22h1.8a2.36 2.36 0 01-.13.78 1.47 1.47 0 01-.36.59 1.42 1.42 0 01-.6.37 2 2 0 01-.8.12 1.89 1.89 0 01-.94-.22 1.87 1.87 0 01-.64-.58 2.71 2.71 0 01-.36-.83 3.75 3.75 0 01-.12-1 3.81 3.81 0 01.12-1 2.82 2.82 0 01.36-.83 2 2 0 01.64-.58 2 2 0 01.94-.22 2 2 0 01.61.09 1.53 1.53 0 01.53.25 1.64 1.64 0 01.4.43 1.48 1.48 0 01.2.58h1.16a2.55 2.55 0 00-.32-1 2.37 2.37 0 00-.65-.72 2.91 2.91 0 00-.88-.44 3.69 3.69 0 00-1-.14 3.12 3.12 0 00-1.36.28 2.93 2.93 0 00-1 .77 3.23 3.23 0 00-.64 1.13 4.09 4.09 0 00-.23 1.36 4.16 4.16 0 00.23 1.38 3.32 3.32 0 00.57 1.21 2.9 2.9 0 001 .76 3.12 3.12 0 001.36.28 2.68 2.68 0 001.09-.21 2.94 2.94 0 001-.75l.18.8h.76v-3.56h-2.92zM60.39 79.12h1.19v6.77h-1.19zM68 84a1.73 1.73 0 01-.34.57 1.79 1.79 0 01-.52.38 1.71 1.71 0 01-.7.13 1.89 1.89 0 01-.94-.22 1.87 1.87 0 01-.64-.58 2.71 2.71 0 01-.36-.83 3.75 3.75 0 01-.12-1 3.81 3.81 0 01.12-1 2.82 2.82 0 01.36-.83 2 2 0 01.64-.58 2 2 0 01.94-.22 2.16 2.16 0 01.65.1 1.69 1.69 0 01.49.28 1.62 1.62 0 01.34.43 2.64 2.64 0 01.21.54h1.18a2.74 2.74 0 00-.29-1 2.52 2.52 0 00-.62-.72 3 3 0 00-.89-.46 3.74 3.74 0 00-1.05.01 3.12 3.12 0 00-1.36.28 2.93 2.93 0 00-1 .77 3.23 3.23 0 00-.64 1.13 4.09 4.09 0 00-.23 1.36 4.16 4.16 0 00.23 1.38 3.32 3.32 0 00.62 1.08 2.9 2.9 0 001 .76 3.12 3.12 0 001.36.28 3.19 3.19 0 001.13-.2 2.74 2.74 0 00.89-.56 2.94 2.94 0 00.6-.87 3.11 3.11 0 00.26-1.11h-1.14a2.49 2.49 0 01-.18.7zM78.94 82.9a1.63 1.63 0 00-.41-.42 2 2 0 00-.53-.28l-.44-.12-.63-.17-.58-.15-.3-.08a1.45 1.45 0 01-.58-.31.73.73 0 01-.23-.57.7.7 0 01.12-.42.77.77 0 01.3-.27A1.06 1.06 0 0176 80a2.1 2.1 0 01.43 0 1.75 1.75 0 011 .27 1.16 1.16 0 01.45.93h1.18a2 2 0 00-.21-.94 2.15 2.15 0 00-.56-.68 2.48 2.48 0 00-.83-.41 3.56 3.56 0 00-1-.13 3.47 3.47 0 00-.9.11 2.3 2.3 0 00-.79.37 1.78 1.78 0 00-.57.62 1.8 1.8 0 00-.2.86 1.86 1.86 0 00.07.52 1.54 1.54 0 00.24.48 1.68 1.68 0 00.46.41 2.23 2.23 0 00.73.3l1.18.31c.32.08.6.17.84.25a1 1 0 01.38.26.82.82 0 01.18.58 1 1 0 01-.08.37.73.73 0 01-.25.33 1.4 1.4 0 01-.44.23 2.22 2.22 0 01-.67.09A2.3 2.3 0 0176 85a1.63 1.63 0 01-.55-.25 1.24 1.24 0 01-.37-.45 1.54 1.54 0 01-.13-.67h-1.2a2.61 2.61 0 00.25 1.09 2 2 0 00.61.75 2.56 2.56 0 00.89.44 4.22 4.22 0 001.09.14 4 4 0 001-.12 2.72 2.72 0 00.87-.37 2 2 0 00.54-.66 2 2 0 00.23-1 1.68 1.68 0 00-.08-.54 1.42 1.42 0 00-.21-.46zM82.04 82.88h3.42v-.97h-3.42v-1.77h3.69v-1.02h-4.87v6.77h4.94v-1.03h-3.76v-1.98zM92.74 84.11a1.86 1.86 0 00-.1-.67 1.19 1.19 0 00-.25-.43.93.93 0 00-.33-.24 1.46 1.46 0 00-.32-.1 1.66 1.66 0 00.27-.11 1.44 1.44 0 00.37-.28 1.61 1.61 0 00.33-.51 1.87 1.87 0 00.15-.8 1.69 1.69 0 00-.56-1.35 2.55 2.55 0 00-1.68-.48h-3.24v6.77h1.19V83.1h1.74a2.06 2.06 0 01.67.1.84.84 0 01.41.33 1.34 1.34 0 01.21.56 4.66 4.66 0 01.06.8v.52a1.19 1.19 0 00.16.48h1.27a1.39 1.39 0 01-.28-.7 6 6 0 01-.07-1.08zm-1.36-2.18a1.26 1.26 0 01-.87.27h-1.94v-2.12h1.92a3.13 3.13 0 01.44 0 1.08 1.08 0 01.38.15.82.82 0 01.26.32 1.17 1.17 0 01.1.53 1.07 1.07 0 01-.29.85zM96.62 84.48h-.02l-1.7-5.36h-1.23l2.26 6.77h1.32l2.31-6.77h-1.2l-1.74 5.36zM101.97 82.88h3.42v-.97h-3.42v-1.77h3.69v-1.02h-4.88v6.77h4.95v-1.03h-3.76v-1.98zM112.67 84.11a1.86 1.86 0 00-.1-.67 1.35 1.35 0 00-.25-.43.93.93 0 00-.33-.24 1.39 1.39 0 00-.33-.1 1.38 1.38 0 00.28-.11 1.44 1.44 0 00.37-.28 1.61 1.61 0 00.33-.51 1.88 1.88 0 00.14-.8 1.66 1.66 0 00-.56-1.35 2.5 2.5 0 00-1.67-.48h-3.24v6.77h1.19V83.1h1.74a2.06 2.06 0 01.67.1.89.89 0 01.41.33 1.49 1.49 0 01.21.56 4.66 4.66 0 01.06.8v.52a1.19 1.19 0 00.16.48H113a1.39 1.39 0 01-.28-.7 6 6 0 01-.05-1.08zm-1.37-2.18a1.22 1.22 0 01-.86.27h-1.94v-2.12h1.92a3.13 3.13 0 01.44 0 1.08 1.08 0 01.38.15.82.82 0 01.26.32 1.17 1.17 0 01.1.53 1 1 0 01-.3.85z"/>
</svg>
