<svg xmlns="http://www.w3.org/2000/svg" width="128" height="128">
    <path d="M64.34 58.64c2.21 2.97 6.33 7.22 13.98 13.06C77.48 34.66 68.01 8.04 64.95.63c-.35-.84-1.54-.84-1.89 0-3.05 7.4-12.53 34.06-13.37 71.07 7.64-5.84 11.77-10.09 13.98-13.06.17-.23.51-.23.67 0"/>
    <path d="M49.69 71.71c-.79.6-1.61 1.22-2.48 1.86-14.51 10.66-14.46 27.56-14.41 33.79 0 .47.39.86.87.86h17.27c-.87-5.3-1.35-17.82-1.35-27.79 0-2.97.04-5.87.1-8.71Z"/>
    <path d="M80.79 73.56c-.87-.64-1.69-1.25-2.48-1.85.06 2.84.1 5.74.1 8.71 0 9.98-.48 22.49-1.35 27.79h17.27c.48 0 .86-.38.87-.86.05-6.22.1-23.12-14.4-33.8Z"/>
    <path d="M64.98 127.29c2.18-6.56 6.33-12.58 12.1-19.08H50.93c5.77 6.5 9.92 12.52 12.1 19.08.14.42.53.71.98.71.44 0 .83-.29.98-.71Z"/>
</svg>
