<svg width="32" height="32" viewBox="0 0 32 32" fill="none" xmlns="http://www.w3.org/2000/svg">
<g clip-path="url(#clip0_986_344)">
<path d="M9.12197 13.9004C9.12197 14.2914 9.16369 14.6085 9.2367 14.8409C9.32013 15.0734 9.42443 15.327 9.57044 15.6018C9.62258 15.6863 9.64344 15.7709 9.64344 15.8448C9.64344 15.9505 9.58087 16.0562 9.44528 16.1618L8.78823 16.6057C8.69437 16.6691 8.60051 16.7008 8.51707 16.7008C8.41278 16.7008 8.30848 16.6479 8.20419 16.5528C8.05818 16.3943 7.93303 16.2253 7.82873 16.0562C7.72444 15.8765 7.62015 15.6758 7.50542 15.4327C6.69193 16.4049 5.66985 16.891 4.43919 16.891C3.56312 16.891 2.86435 16.6374 2.35332 16.1301C1.84228 15.6229 1.58154 14.9466 1.58154 14.1012C1.58154 13.203 1.89442 12.4739 2.53062 11.9244C3.16681 11.3749 4.01158 11.1001 5.08581 11.1001C5.44041 11.1001 5.80544 11.1318 6.19132 11.1846C6.57721 11.2375 6.97353 11.322 7.3907 11.4171V10.6457C7.3907 9.8426 7.22383 9.28254 6.90052 8.95495C6.56678 8.62736 6.00359 8.46885 5.20053 8.46885C4.8355 8.46885 4.46005 8.51112 4.07416 8.60623C3.68827 8.70133 3.31282 8.81758 2.94779 8.96552C2.78092 9.03949 2.65577 9.08176 2.58276 9.10289C2.50976 9.12403 2.45761 9.13459 2.41589 9.13459C2.26988 9.13459 2.19688 9.02892 2.19688 8.80701V8.28921C2.19688 8.12013 2.21773 7.99333 2.26988 7.91935C2.32203 7.84538 2.41589 7.77141 2.5619 7.69744C2.92693 7.50723 3.36496 7.34872 3.876 7.22191C4.38704 7.08454 4.92937 7.02113 5.50298 7.02113C6.74408 7.02113 7.65143 7.30645 8.23548 7.87709C8.80909 8.44772 9.10112 9.31424 9.10112 10.4766V13.9004H9.12197ZM4.88765 15.5067C5.23182 15.5067 5.58642 15.4433 5.96188 15.3165C6.33733 15.1897 6.67107 14.9572 6.95267 14.6402C7.11954 14.4394 7.24469 14.2175 7.30726 13.9638C7.36984 13.7102 7.41156 13.4038 7.41156 13.0445V12.6007C7.10911 12.5267 6.7858 12.4633 6.45206 12.421C6.11832 12.3788 5.79501 12.3576 5.4717 12.3576C4.77293 12.3576 4.26189 12.495 3.91772 12.7803C3.57355 13.0656 3.40668 13.4672 3.40668 13.9956C3.40668 14.4922 3.53183 14.8621 3.79257 15.1157C4.04287 15.3799 4.4079 15.5067 4.88765 15.5067ZM13.2624 16.6479C13.0747 16.6479 12.9496 16.6162 12.8661 16.5423C12.7827 16.4789 12.7097 16.3309 12.6471 16.1301L10.1962 7.96162C10.1336 7.75028 10.1023 7.6129 10.1023 7.53893C10.1023 7.36986 10.1858 7.27475 10.3526 7.27475H11.3747C11.5729 7.27475 11.7085 7.30645 11.7815 7.38042C11.8649 7.44383 11.9275 7.59177 11.9901 7.79255L13.7422 14.7881L15.3692 7.79255C15.4213 7.5812 15.4839 7.44383 15.5673 7.38042C15.6508 7.31702 15.7968 7.27475 15.9845 7.27475H16.8188C17.017 7.27475 17.1526 7.30645 17.236 7.38042C17.3195 7.44383 17.3925 7.59177 17.4342 7.79255L19.082 14.8726L20.8863 7.79255C20.9489 7.5812 21.0219 7.44383 21.0949 7.38042C21.1783 7.31702 21.3139 7.27475 21.5016 7.27475H22.4716C22.6384 7.27475 22.7323 7.35929 22.7323 7.53893C22.7323 7.59177 22.7219 7.64461 22.7114 7.70801C22.701 7.77141 22.6801 7.85595 22.6384 7.97219L20.125 16.1407C20.0624 16.3521 19.9894 16.4894 19.9059 16.5528C19.8225 16.6162 19.6869 16.6585 19.5096 16.6585H18.6127C18.4145 16.6585 18.279 16.6268 18.1955 16.5528C18.1121 16.4789 18.0391 16.3415 17.9974 16.1301L16.3808 9.31424L14.7747 16.1196C14.7225 16.3309 14.66 16.4683 14.5765 16.5423C14.4931 16.6162 14.3471 16.6479 14.1594 16.6479H13.2624ZM26.6642 16.9333C26.1218 16.9333 25.5795 16.8699 25.058 16.743C24.5366 16.6162 24.1298 16.4789 23.8587 16.3204C23.6918 16.2253 23.5771 16.1196 23.5354 16.0245C23.4936 15.9294 23.4728 15.8237 23.4728 15.7286V15.1897C23.4728 14.9677 23.5562 14.8621 23.7127 14.8621C23.7752 14.8621 23.8378 14.8726 23.9004 14.8938C23.963 14.9149 24.0568 14.9572 24.1611 14.9994C24.5157 15.158 24.9016 15.2848 25.3083 15.3693C25.7255 15.4538 26.1323 15.4961 26.5494 15.4961C27.2065 15.4961 27.7175 15.3799 28.0721 15.1474C28.4267 14.9149 28.6145 14.5768 28.6145 14.1435C28.6145 13.8476 28.5206 13.6046 28.3329 13.4038C28.1451 13.203 27.7905 13.0234 27.2795 12.8543L25.7672 12.3788C25.0059 12.1357 24.4427 11.7764 24.0985 11.3009C23.7544 10.8359 23.5771 10.3181 23.5771 9.76863C23.5771 9.32481 23.6709 8.93382 23.8587 8.59566C24.0464 8.25751 24.2967 7.96162 24.6096 7.72914C24.9225 7.4861 25.2771 7.30645 25.6942 7.17964C26.1114 7.05284 26.5494 7 27.0083 7C27.2378 7 27.4777 7.01057 27.7071 7.04227C27.947 7.07397 28.166 7.11624 28.385 7.15851C28.5936 7.21135 28.7918 7.26418 28.9795 7.32759C29.1672 7.39099 29.3132 7.45439 29.4175 7.5178C29.5635 7.60234 29.6678 7.68687 29.7304 7.78198C29.793 7.86652 29.8243 7.98276 29.8243 8.1307V8.62736C29.8243 8.84928 29.7408 8.96552 29.5844 8.96552C29.501 8.96552 29.3654 8.92325 29.1881 8.83871C28.5936 8.56396 27.9261 8.42659 27.1856 8.42659C26.5912 8.42659 26.1218 8.52169 25.7985 8.72247C25.4752 8.92325 25.3083 9.2297 25.3083 9.66296C25.3083 9.95884 25.4126 10.2125 25.6212 10.4132C25.8298 10.614 26.2157 10.8148 26.7685 10.9944L28.2494 11.47C29.0003 11.713 29.5427 12.0512 29.866 12.4844C30.1893 12.9177 30.3457 13.4143 30.3457 13.9638C30.3457 14.4182 30.2519 14.8304 30.0746 15.1897C29.8868 15.5489 29.6365 15.866 29.3132 16.1196C28.9899 16.3838 28.604 16.574 28.1556 16.7113C27.6862 16.8593 27.1961 16.9333 26.6642 16.9333Z" fill="#252F3E"/>
<path fill-rule="evenodd" clip-rule="evenodd" d="M28.635 22.069C25.2038 24.6368 20.2185 26 15.9321 26C9.92474 26 4.5119 23.7492 0.423589 20.0083C0.100279 19.7124 0.392301 19.3109 0.778187 19.5434C5.20024 22.1429 10.6548 23.7175 16.2971 23.7175C20.1038 23.7175 24.286 22.9143 28.1344 21.2658C28.708 21.0017 29.1982 21.6463 28.635 22.069Z" fill="#FF9900"/>
<path fill-rule="evenodd" clip-rule="evenodd" d="M30.0639 20.4204C29.6259 19.8498 27.1646 20.1457 26.0486 20.2831C25.7149 20.3253 25.6627 20.0294 25.9652 19.8075C27.9259 18.4127 31.1486 18.8142 31.524 19.2792C31.8995 19.7547 31.4197 23.02 29.5842 24.584C29.3026 24.827 29.0314 24.7002 29.1566 24.3832C29.5737 23.337 30.502 20.9805 30.0639 20.4204Z" fill="#FF9900"/>
</g>
<defs>
<clipPath id="clip0_986_344">
<rect width="32" height="19" fill="white" transform="translate(0 7)"/>
</clipPath>
</defs>
</svg>
