<svg width="21" height="24" viewBox="0 0 21 24" fill="none" xmlns="http://www.w3.org/2000/svg">
<path d="M20.5441 3.26402C20.5441 1.63202 16.1281 0.192017 10.6561 0.192017C5.18409 0.192017 0.576086 1.72802 0.576086 3.36002C0.576086 3.55202 0.672086 3.84002 0.768086 3.93602L0.288086 3.45602V20.736H0.672086C6.52809 10.848 20.2561 4.32002 20.2561 4.32002C20.0641 4.41602 19.8721 4.41602 19.7761 4.51202C20.1601 4.12802 20.5441 3.64802 20.5441 3.26402Z" fill="#A0CEC7"/>
<path d="M20.928 3.456C21.024 1.44 16.128 0 10.464 0C4.8 0 0 1.344 0 3.456V20.736C0 22.656 4.992 24 10.464 24C15.936 24 20.928 22.752 20.928 20.736V3.456ZM10.464 0.576C16.32 0.576 20.256 2.016 20.256 3.36C20.256 4.8 16.32 6.144 10.464 6.144C4.608 6.144 0.672 4.8 0.672 3.456C0.672 2.112 4.608 0.576 10.464 0.576ZM20.256 20.736C19.968 22.08 16.032 23.328 10.464 23.328C4.896 23.328 0.96 21.984 0.672 20.736V15.552C1.824 16.992 5.664 17.952 10.464 17.952C15.168 17.952 19.104 16.992 20.256 15.648V20.736ZM20.256 14.88C19.872 16.224 16.032 17.472 10.464 17.472C4.896 17.472 0.96 16.128 0.672 14.88V14.976V10.176C1.824 11.616 5.664 12.48 10.464 12.48C15.168 12.48 19.104 11.52 20.256 10.176V14.88ZM20.256 9.408C19.872 10.752 16.032 12 10.464 12C4.896 12 0.96 10.656 0.672 9.408V9.6V4.416C1.824 5.664 5.76 6.816 10.464 6.816C15.168 6.816 19.104 5.856 20.256 4.512V9.408Z" fill="white"/>
<path d="M17.76 9.21604C18.2372 9.21604 18.624 8.82921 18.624 8.35204C18.624 7.87486 18.2372 7.48804 17.76 7.48804C17.2828 7.48804 16.896 7.87486 16.896 8.35204C16.896 8.82921 17.2828 9.21604 17.76 9.21604Z" stroke="white" stroke-width="0.63616" stroke-miterlimit="10"/>
<path d="M17.76 14.976C18.2372 14.976 18.624 14.5892 18.624 14.112C18.624 13.6348 18.2372 13.248 17.76 13.248C17.2828 13.248 16.896 13.6348 16.896 14.112C16.896 14.5892 17.2828 14.976 17.76 14.976Z" stroke="white" stroke-width="0.63616" stroke-miterlimit="10"/>
<path d="M17.76 20.736C18.2372 20.736 18.624 20.3492 18.624 19.872C18.624 19.3948 18.2372 19.008 17.76 19.008C17.2828 19.008 16.896 19.3948 16.896 19.872C16.896 20.3492 17.2828 20.736 17.76 20.736Z" stroke="white" stroke-width="0.63616" stroke-miterlimit="10"/>
</svg>
