<svg width="32" height="16" viewBox="0 0 32 16" fill="none" xmlns="http://www.w3.org/2000/svg">
<g clip-path="url(#clip0_986_215)">
<path d="M10.135 11.3949L12.4211 11.5648V13.5343C12.4211 13.5343 8.14953 17.7778 1.92529 12.7536H4.04632L4.28138 10.8182C4.28138 10.8182 6.70198 13.2961 10.135 11.3949Z" fill="#0D2C40"/>
<path d="M2.39336 2.2959C2.39336 2.2959 -2.25213 6.65849 1.55151 12.2441L3.67472 12.4481L3.87698 10.3771C3.87698 10.3771 1.92542 7.15143 4.4466 4.60511L2.18563 4.42867L2.39336 2.2959Z" fill="#0D2C40"/>
<path d="M2.89864 1.99043C2.89864 1.99043 8.6932 -1.77776 13.0982 2.7712L11.1455 2.63556L10.9432 4.84111C10.9432 4.84111 8.72163 2.12608 5.01967 4.23128L2.76416 4.12982L2.89864 1.99043Z" fill="#0D2C40"/>
<path d="M11.4482 5.38587L11.5827 3.11084L13.636 3.31485L19.8296 10.2745H17.7097L17.5074 12.2099L11.4482 5.38587Z" fill="#0D2C40"/>
<path d="M10.708 11.0221L18.5503 2.29584L20.6375 2.49985L20.503 4.63924L12.7951 13.296L12.8279 11.0552L10.708 11.0221Z" fill="#02D35F"/>
<path d="M18.853 1.98157L21.0243 2.16022L20.8735 4.24888C20.8735 4.24888 24.0791 2.18558 26.4275 4.3757L28.7235 4.47716L28.9301 2.44363C28.9301 2.44363 25.3418 -1.63664 18.853 1.98157Z" fill="#02D35F"/>
<path d="M26.7555 4.70652L29.0514 4.84216L29.2286 2.79651C29.2286 2.79651 34.2523 8.44163 28.824 13.2961L26.6035 13.1406L26.8058 10.8247C26.8058 10.8247 29.8102 7.43148 26.7555 4.70652Z" fill="#02D35F"/>
<path d="M20.3685 10.8182L18.0495 10.6141L17.9194 12.6774C17.9194 12.6774 22.0347 17.4646 28.2447 13.6446L26.1237 13.4714L26.3259 11.256C26.3259 11.256 23.6243 13.4406 20.3685 10.8182Z" fill="#02D35F"/>
<path d="M23.3029 7.25179V8.02374C23.2962 8.05378 23.2929 8.08448 23.293 8.11526C23.2929 8.14641 23.2962 8.17748 23.3029 8.2079V9.45183H22.73V7.24628L23.3029 7.25179Z" fill="#0D2C40"/>
<path d="M23.8068 7.25175C23.6182 7.27639 23.4419 7.36008 23.3028 7.49105C23.2069 7.56608 23.1276 7.66042 23.0698 7.76807C23.012 7.87572 22.977 7.99432 22.9672 8.11633C22.9756 8.24383 23.0097 8.36825 23.0675 8.48201C23.1252 8.59577 23.2052 8.69648 23.3028 8.77799C23.4246 8.89516 23.5823 8.9671 23.75 8.982C24.2824 8.99524 24.5448 8.53317 24.5448 8.11743C24.5448 7.70168 24.219 7.22749 23.8068 7.25175ZM23.633 8.49899C23.5538 8.49545 23.4781 8.4648 23.4185 8.41207C23.3589 8.35935 23.3188 8.28771 23.305 8.20896C23.2984 8.17854 23.2951 8.14747 23.2952 8.11633C23.2951 8.08554 23.2984 8.05484 23.305 8.02479C23.3188 7.94604 23.3589 7.8744 23.4185 7.82168C23.4781 7.76896 23.5538 7.7383 23.633 7.73476C23.7274 7.74363 23.8151 7.78772 23.8789 7.8584C23.9428 7.92908 23.9782 8.02126 23.9782 8.11688C23.9782 8.2125 23.9428 8.30467 23.8789 8.37535C23.8151 8.44603 23.7274 8.49012 23.633 8.49899ZM25.6841 7.91011C25.601 7.88364 25.2937 7.83512 25.2937 7.71822C25.2937 7.65206 25.3878 7.64434 25.4337 7.64654C25.5649 7.64654 25.7617 7.80424 25.871 7.77446C25.9683 7.7491 26.0536 7.49546 26.0897 7.40944C25.8135 7.25047 25.4918 7.19134 25.1778 7.24182C25.1003 7.25674 25.0268 7.28843 24.9625 7.33472C24.8983 7.38101 24.8447 7.4408 24.8055 7.50997C24.7664 7.57914 24.7425 7.65605 24.7356 7.7354C24.7288 7.81476 24.739 7.89468 24.7657 7.96966C24.9045 8.33247 25.3309 8.19021 25.5463 8.41077C25.6349 8.5034 25.4523 8.54531 25.3921 8.5431C25.2072 8.51542 25.0304 8.4477 24.8739 8.3446C24.8203 8.42179 24.6552 8.60596 24.6749 8.7019C24.6946 8.79784 24.9122 8.86952 25.0029 8.89819C25.3069 8.99744 25.7759 9.03494 26.0044 8.75594C26.2898 8.42069 26.0405 8.027 25.6841 7.91011ZM21.2354 6.64081C20.9975 6.64081 20.765 6.71195 20.5672 6.84525C20.3694 6.97854 20.2153 7.16799 20.1243 7.38965C20.0332 7.6113 20.0094 7.85521 20.0558 8.09052C20.1022 8.32583 20.2168 8.54198 20.385 8.71162C20.5532 8.88127 20.7674 8.9968 21.0007 9.04361C21.234 9.09042 21.4758 9.06639 21.6956 8.97458C21.9153 8.88277 22.1032 8.72729 22.2353 8.5278C22.3675 8.32832 22.438 8.09378 22.438 7.85386C22.438 7.53214 22.3113 7.2236 22.0858 6.9961C21.8602 6.76861 21.5543 6.64081 21.2354 6.64081ZM21.2354 8.47252C21.1134 8.4723 20.9943 8.43564 20.8931 8.36717C20.7918 8.29869 20.713 8.20148 20.6665 8.08781C20.6199 7.97414 20.6079 7.84912 20.6318 7.72854C20.6557 7.60796 20.7145 7.49724 20.8008 7.41037C20.8871 7.3235 20.997 7.26437 21.1166 7.24046C21.2361 7.21655 21.3601 7.22893 21.4727 7.27604C21.5853 7.32315 21.6815 7.40287 21.7492 7.50512C21.8169 7.60738 21.8531 7.72759 21.8531 7.85056C21.8531 7.93242 21.8371 8.01348 21.8059 8.08908C21.7748 8.16469 21.7292 8.23335 21.6717 8.29113C21.6142 8.34892 21.546 8.39468 21.4709 8.42581C21.3958 8.45694 21.3154 8.47281 21.2343 8.47252H21.2354Z" fill="#0D2C40"/>
<path d="M9.84513 7.22418H9.15962L9.88449 9.1364H10.1972V8.32145L9.84513 7.22418ZM10.5503 7.22749H11.2358L10.5099 9.13971H10.1972V8.32476L10.5503 7.22749ZM6.51708 6.95511C6.28686 6.79385 6.01971 6.69441 5.74083 6.66618C5.37129 6.63089 4.97551 6.6761 4.6333 6.6761V9.13419H4.6497C4.7153 9.14191 4.7809 9.14853 4.84759 9.15294C5.11037 9.17491 5.37458 9.17269 5.63696 9.14633C6.13879 9.09008 6.46132 8.92577 6.65921 8.71183C6.83456 8.51273 6.93345 8.25689 6.93801 7.99061V7.93217V7.90129C6.93363 7.55171 6.83414 7.19992 6.51708 6.95511ZM5.95949 8.45709C5.75285 8.57398 5.50139 8.54531 5.27398 8.54531V7.26499C5.51561 7.26499 5.78784 7.23301 5.99994 7.38298C6.35199 7.63331 6.33887 8.24094 5.95621 8.45709H5.95949ZM8.85896 8.64897C8.8032 8.60155 8.73213 8.52105 8.65669 8.50782C8.53643 8.49128 8.38665 8.65449 8.25326 8.66772C8.04553 8.68867 7.89575 8.54421 7.81594 8.36997H9.07981C9.07981 8.01708 9.05029 7.64545 8.75181 7.40283C8.1975 6.94628 7.28787 7.28373 7.18619 8.00385C7.07686 8.76256 7.66834 9.25219 8.38883 9.15735C8.56749 9.1319 8.73519 9.05536 8.87208 8.9368C8.92128 8.89269 8.99344 8.83203 8.95736 8.76035C8.93158 8.71747 8.89823 8.67972 8.85896 8.64897ZM8.45553 8.0237H7.81047C7.82441 7.94768 7.86429 7.87898 7.92321 7.82953C7.98213 7.78009 8.05635 7.75301 8.133 7.75301C8.20964 7.75301 8.28387 7.78009 8.34278 7.82953C8.4017 7.87898 8.44159 7.94768 8.45553 8.0237Z" fill="#02D35F"/>
</g>
<defs>
<clipPath id="clip0_986_215">
<rect width="32" height="16" fill="white"/>
</clipPath>
</defs>
</svg>
