<svg xmlns="http://www.w3.org/2000/svg" width="128" height="128">
    <path fill="#2e27ad" d="M26.3 31.35c8.09 5.61 23.35 8.56 38 8.56s29.9-2.95 38-8.56v8.41h5.85V22.22v-.07c0-11.81-18.48-20.38-43.94-20.38-23.47 0-43.34 8.9-43.63 19.5l-.1.88v40.99h5.82zm.1-9.85c0-5.59 15.87-13.89 37.79-13.89 22.79 0 38.09 7.52 38.09 14.54 0 4.86-14.8 11.92-38 11.92-22.91 0-37.64-6.89-38-11.74zM64.29 83.59v-8.98h8.77v-5.84h-8.77v-8.56h-5.84v8.56h-8.53v5.84h8.53v8.98h5.84zM11.69 89.44h70.14v5.84H11.69zM0 68.77h43.84v5.84H0z"/>
    <path fill="#2e27ad" d="M127.68 70.57a2.93 2.93 0 00-2.6-1.59H113l11.71-18.92a2.92 2.92 0 00-2.49-4.46H96.44a2.93 2.93 0 00-2.65 1.7L79.3 78.64a2.92 2.92 0 002.7 4.15h13.54L85 122.56a2.92 2.92 0 005.22 2.44l37.22-51.41a2.92 2.92 0 00.24-3.02zm-33 38.32l7.48-28.28a2.92 2.92 0 00-2.82-3.67H86.52l11.79-25.49h18.62l-11.71 18.92a2.92 2.92 0 002.48 4.46h11.65zM64.48 111.09c-22.65 0-36.56-6.7-36.56-11.5h-5.85c0 11.39 21.34 17.34 42.41 17.34a91.6 91.6 0 0013.69-1l-.88-5.78a85.25 85.25 0 01-12.81.94z"/>
</svg>
