<svg xmlns="http://www.w3.org/2000/svg" width="128" height="128">
    <path d="M0 0h128v128H0z" fill="#ED7100"/>
    <path d="M63.763 109.985a1.184 1.184 0 0 1-.948-.237L23.941 87.467a1.9 1.9 0 0 1-.948-1.66V40.533a1.9 1.9 0 0 1 .948-1.659L59.5 18.252a1.9 1.9 0 0 1 2.371.237 2.374 2.374 0 0 1 .474 1.422v19.437a1.9 1.9 0 0 1-.948 1.659L43.615 51.2v23.7l20.148 11.619L81.3 76.326a1.661 1.661 0 0 1 1.659 0l16.83 9.718a1.9 1.9 0 0 1 .435 2.647 1.931 1.931 0 0 1-.435.435l-35.552 20.385zm-37.215-25.6l37.926 22.045 32.711-18.963-13.511-7.823-18.252 10.43a1.9 1.9 0 0 1-1.659 0L41.007 77.037a1.9 1.9 0 0 1-.948-1.422V50.252a1.9 1.9 0 0 1 .948-1.422l17.778-10.193V22.756L26.548 41.719zm76.563-.711a7.34 7.34 0 0 1-.948-.237l-16.83-9.956a1.9 1.9 0 0 1-.948-1.422V51.437L66.607 41.244a1.9 1.9 0 0 1-.948-1.659V19.911a1.9 1.9 0 0 1 .948-1.659 1.658 1.658 0 0 1 1.66 0l35.792 20.622a1.9 1.9 0 0 1 .948 1.659v41.245a1.9 1.9 0 0 1-.948 1.422 2.356 2.356 0 0 1-.948.474zm-15.17-12.8l13.511 7.826V41.719L69.215 22.756V38.4l17.778 10.43a1.9 1.9 0 0 1 .948 1.422z" fill="#fff"/>
</svg>
