<svg xmlns="http://www.w3.org/2000/svg" width="128" height="128">
    <path d="M0 0h128v128H0z" fill="#E7157B"/>
    <path d="M35.733 86.96a5.147 5.147 0 1 1 5.147-5.147 5.152 5.152 0 0 1-5.147 5.147zm6.967 2.384a10.214 10.214 0 0 0-10-17.315l-4.636-8.039 6.753-11.709-4.452-2.574-7.5 13a2.557 2.557 0 0 0 0 2.573l5.451 9.435a10.267 10.267 0 0 0 7.416 17.4 10.051 10.051 0 0 0 2.44-.324l4.028 6.966a2.563 2.563 0 0 0 2.223 1.287h14.384V94.9H45.914L42.7 89.344zM92.262 51.22a5.147 5.147 0 1 1 5.147-5.147 5.155 5.155 0 0 1-5.147 5.147zm7.422 1.951a10.269 10.269 0 0 0-7.422-17.391 10.011 10.011 0 0 0-2.435.324l-4.02-6.974a2.565 2.565 0 0 0-2.228-1.287H69.193v5.147h12.9l3.207 5.554a10.212 10.212 0 0 0 10 17.314l4.641 8.042-6.763 11.7 4.452 2.574 7.5-12.986a2.559 2.559 0 0 0 0-2.574l-5.45-9.444zm-15.05 46.857a5.147 5.147 0 1 1 5.147-5.146 5.152 5.152 0 0 1-5.147 5.146zM69.1 74.808H57.752L51.508 64l5.786-10.021 1.317-.793h11.617L76.471 64l-5.646 9.769-1.725 1.039zM43.459 38.265a5.147 5.147 0 1 1 5.147-5.146 5.152 5.152 0 0 1-5.147 5.146zm41.175 46.323a10.214 10.214 0 0 0-4.622 1.142l-5.168-8.621 6.825-11.822a2.554 2.554 0 0 0 0-2.574l-7.725-13.387a2.575 2.575 0 0 0-2.229-1.286H57.4l-5.466-9.1a10.188 10.188 0 0 0 1.822-5.816 10.42 10.42 0 1 0-5.786 9.207l5.152 8.6-6.8 11.791a2.559 2.559 0 0 0 0 2.574l7.726 13.382a2.575 2.575 0 0 0 2.223 1.286h14.276l5.528 9.219a10.289 10.289 0 1 0 8.559-4.586z" fill="#fff"/>
</svg>
