<svg xmlns="http://www.w3.org/2000/svg" width="128" height="128" xmlns:xlink="http://www.w3.org/1999/xlink">
  <defs>
    <linearGradient id="b" x1="15.49" y1="34.57" x2="112.04" y2="34.57" gradientTransform="translate(.24 107.31) scale(1 -1)" gradientUnits="userSpaceOnUse">
      <stop offset="0" stop-color="#005ba1"/>
      <stop offset=".07" stop-color="#0060a9"/>
      <stop offset=".36" stop-color="#0071c8"/>
      <stop offset=".52" stop-color="#0078d4"/>
      <stop offset=".64" stop-color="#0074cd"/>
      <stop offset=".82" stop-color="#006abb"/>
      <stop offset="1" stop-color="#005ba1"/>
    </linearGradient>
  </defs>
  <path d="m64,34.94c-26.65,0-48.26-7.53-48.26-17.47v93.06c0,9.56,21.23,17.32,47.59,17.47h.68c26.65,0,48.26-7.53,48.26-17.47V17.47c0,9.64-21.61,17.47-48.26,17.47Z" fill="url(#b)"/>
  <path d="m112.26,17.47c0,9.64-21.61,17.47-48.26,17.47S15.74,27.41,15.74,17.47,37.35,0,64,0s48.26,7.53,48.26,17.47" fill="#e8e8e8"/>
  <path d="m100.97,16.04c0,6.17-16.56,11.14-36.97,11.14s-37.04-4.97-37.04-11.07,16.56-11.14,37.04-11.14,36.97,4.97,36.97,11.07" fill="#50e6ff"/>
  <path d="m64,18.82c-9.96-.25-19.89,1.2-29.36,4.29,9.48,3.03,19.42,4.4,29.36,4.07,9.94.24,19.85-1.24,29.29-4.37-9.48-2.94-19.37-4.29-29.29-3.99Z" fill="#198ab3"/>
  <path d="m86.59,64v3.16c-.3,1.57-.5,3.15-.6,4.74,0,.9,0,2.26.38,3.46s0,2.03,0,2.71c-.03,2.29-.68,4.53-1.88,6.48-.01.18-.01.35,0,.53l.75.9c3.39-5.62,6.07-11.64,7.98-17.92h0c2.11-7.15,2.33-12.27.68-14.46-4.85-5.96-12.76-8.5-20.18-6.48,2.56,1.27,4.88,2.98,6.85,5.04,3.51,2.97,5.68,7.23,6.02,11.82Zm-2.33.6c-2-.49-4.11-.25-5.95.68-2.18,1.36-1.51,4.14,0,7.53.75,2.18,1.63,4.32,2.64,6.4l.68,1.2h0c.38.6.6,1.13.83,1.51l.6.98c.88-1.48,1.35-3.17,1.36-4.89.05-.83.05-1.66,0-2.48,0-1.28,0-2.71-.38-3.69.1-1.74.3-3.48.6-5.2-.23-.83-.15-1.66-.08-2.26l-.3.23Zm-2.26,3.09c-.38.36-.85.62-1.36.75h0c-.35.08-.71.08-1.05,0-.39-.37-.58-.9-.53-1.43h0c0-.53.83-.98,1.81-1.13h1.43s.68,0,.68.6c-.08.41-.33.76-.68.98l-.3.23Zm-35.31,6.7v-1.28c.04-.43.04-.85,0-1.28-.23-2.5-.23-5.02,0-7.53.45-2.83,1.21-5.61,2.26-8.28.89-2.67,2.38-5.09,4.37-7.08-3.3-.99-6.72-1.49-10.16-1.51-2.93-.13-5.82.66-8.28,2.26-3.82,3.46-5.61,8.62-4.74,13.7.73,5.73,1.99,11.37,3.76,16.87,2.56,8.58,5.5,13.85,8.06,14.68h0c1.13.38,2.33,0,3.54-1.58,2.11-2.56,4.07-4.74,5.2-6.02-3.41-3.47-4.81-8.44-3.69-13.18l-.3.23Zm1.96,3.01c-.03,1.42.12,2.84.45,4.22.46,1.21,1.12,2.33,1.96,3.31.74.8,1.64,1.44,2.64,1.88.93.38,1.93.58,2.94.6,0-1.28,1.05-2.86,1.73-4.52.63-1.44,1.16-2.93,1.58-4.44.23-2.78.23-5.58,0-8.36,0-.68,0-1.43-.45-2.26-.06-.76-.38-1.48-.9-2.03h0c-.59-.57-1.32-.98-2.11-1.2h-1.51c-1.25.15-2.47.51-3.61,1.05-.85.4-1.65.88-2.41,1.43v5.42h0c.03.38.03.75,0,1.13v2.94h0l-.3.83Zm4.97-10.09h0c.69-.22,1.42-.22,2.11,0,.5.07.98.22,1.43.45.68,0,.75.83.68,1.05h0c-.22.39-.53.73-.9.98-.16-.08-.31-.18-.45-.3h0c-1.08-.18-1.93-1.03-2.11-2.11l-.75-.08Zm5.57,22.59c-.37.04-.71.2-.98.45l-1.05,1.28c-1.28,1.58-1.81,2.11-5.5,2.86-.71.07-1.39.33-1.96.75.53.41,1.15.69,1.81.83,1.76.56,3.66.56,5.42,0,1.06-.51,2.05-1.17,2.94-1.96.73-.6,1.26-1.42,1.51-2.33.06-.78-.21-1.55-.75-2.11-.32-.25-.75-.31-1.13-.15l-.3.38Zm34.71,0c-2.75,1.01-5.76,1.01-8.51,0-.34-.11-.71-.11-1.05,0-.54.18-1,.55-1.28,1.05-.11.77-.11,1.56,0,2.33,2.77.62,5.67.36,8.28-.75,1.38-.58,2.61-1.45,3.61-2.56l-1.05-.08Zm-18.07-16.11c-1.05-3.09-2.56-7.53,1.36-10.24,2.04-1.13,4.4-1.53,6.7-1.13-.98-3.19-2.63-6.14-4.82-8.66l-.75-.75-.45-.45h0c-.13-.17-.28-.32-.45-.45h0c-1.49-1.33-3.2-2.4-5.04-3.16-2.63-1.15-5.48-1.72-8.36-1.66-1.8-.14-3.6.14-5.27.83-.78.21-1.53.48-2.26.83-2.58,1.89-4.52,4.51-5.57,7.53-.75,2.46-1.28,4.98-1.58,7.53,2.26-1.36,4.9-1.96,7.53-1.73,3.48.28,6.08,3.33,5.8,6.81,0,.01,0,.03,0,.04.28,3.18.28,6.38,0,9.56-.44,1.63-1.02,3.22-1.73,4.74-.45,1.28-1.05,2.64-1.36,3.69,1.06-.07,2.1.31,2.86,1.05,1.05,1.05,1.57,2.51,1.43,3.99h.15v1.81c-.56,6.18.05,12.42,1.81,18.37.43.7,1.06,1.25,1.81,1.58.69.46,1.5.72,2.33.75,2.76.25,5.49-.68,7.53-2.56,1.29-1.35,2.06-3.11,2.18-4.97.53-3.39,1.66-12.8,1.81-15.06h0c-.13-1.15.1-2.31.68-3.31.49-.79,1.19-1.42,2.03-1.81-3.56-3.97-6.3-8.6-8.06-13.63l-.3.45Z" fill="#f2f2f2"/>
</svg>