<svg xmlns="http://www.w3.org/2000/svg" width="128" height="128">
    <path d="M0 0h128v128H0z" fill="#C925D1"/>
    <path d="M64 41.007c-9.007 0-18.726 2.134-18.726 7.112v31.525c0 5.215 9.719 7.349 18.726 7.349s18.726-2.134 18.726-7.112V48.119c0-4.978-9.719-7.112-18.726-7.112zm0 3.319c9.956 0 15.407 2.844 15.407 3.793 0 1.185-5.451 3.792-15.407 3.792s-15.407-2.844-15.407-3.792S53.807 44.326 64 44.326zm15.407 35.555c0 .949-5.451 3.793-15.407 3.793s-15.407-2.844-15.407-3.793V74.43c3.555 2.133 9.481 2.844 15.407 2.844 5.689 0 11.852-.948 15.407-2.844zm0-9.718c0 .948-5.451 3.793-15.407 3.793s-15.407-2.845-15.407-3.793v-6.4c3.555 1.9 9.718 2.844 15.407 2.844s11.852-.948 15.407-2.844zm0-10.9c0 1.185-5.451 3.793-15.407 3.793s-15.407-2.845-15.407-3.793v-6.641c3.555 1.9 9.481 2.845 15.407 2.608s11.852-.949 15.407-2.845zM37.452 88.178l-12.8 12.8V89.6h-3.319v15.407a1.62 1.62 0 0 0 1.66 1.66H38.4v-3.319H27.022l12.8-12.8zm65.9 12.8l-12.8-12.8-2.37 2.37 12.8 12.8H89.6v3.319h15.407a1.62 1.62 0 0 0 1.66-1.66V89.6h-3.319zm1.659-79.645H89.6v3.319h11.378l-12.8 12.8 2.37 2.37 12.8-12.8V38.4h3.319V22.993a1.62 1.62 0 0 0-1.66-1.66zM38.4 24.652v-3.319H22.993a1.62 1.62 0 0 0-1.66 1.66V38.4h3.319V27.022l12.8 12.8 2.37-2.37-12.8-12.8zm.474 26.311l-.948-3.081C27.5 51.674 21.57 57.363 21.57 63.526S27.5 75.378 37.926 79.17l1.185-3.318c-8.77-3.319-14.222-7.822-14.222-12.326-.237-4.504 5.211-9.245 13.985-12.563zm50.489-3.556l-1.185 3.319c9.481 3.318 15.17 8.059 15.17 12.8s-5.689 9.718-15.17 12.8l1.185 3.318c11.141-3.792 17.3-9.481 17.3-16.118s-6.396-12.326-17.3-16.119z" fill="#fff"/>
</svg>
