<?xml version="1.0" encoding="utf-8"?>
<!-- Uploaded to: SVG Repo, www.svgrepo.com, Generator: SVG Repo Mixer Tools -->
<svg width="800px" height="800px" viewBox="0 0 32 32" fill="none" xmlns="http://www.w3.org/2000/svg">
<g clip-path="url(#clip0_901_2773)">
<path fill-rule="evenodd" clip-rule="evenodd" d="M31 21V30C31 30.55 30.55 31 30 31H2C1.45 31 1 30.55 1 30V21H31Z" fill="#FFC44D"/>
<path d="M1 21H31V11H1V21Z" fill="#FFC44D"/>
<path d="M31 2V11H1V2C1 1.45 1.45 1 2 1H30C30.55 1 31 1.45 31 2Z" fill="#FFC44D"/>
<path d="M4 21H31V14M7 6H17M7 16H17M7 26H17M4 11H31V2C31 1.447 30.553 1 30 1H2C1.447 1 1 1.447 1 2V30C1 30.553 1.447 31 2 31H30C30.553 31 31 30.553 31 30V24" stroke="#000000" stroke-width="2" stroke-linecap="round" stroke-linejoin="round"/>
</g>
<defs>
<clipPath id="clip0_901_2773">
<rect width="32" height="32" fill="white"/>
</clipPath>
</defs>
</svg>