<svg xmlns="http://www.w3.org/2000/svg" width="128" height="128">
    <path fill="#8C4FFF" d="M0 0h128v128H0z"/>
    <path d="M62.191 79.394H38.3c-9.353 0-16.5-6.246-16.982-14.831v-1.177a15.752 15.752 0 0 1 11.587-15.838v-1.366A23.279 23.279 0 0 1 72.875 30.4a26.07 26.07 0 0 1 5.359 7.663 10.52 10.52 0 0 1 6.6-2.321c4.95 0 10.24 3.532 11.111 11.4A18.775 18.775 0 0 1 106.7 53.5l-2.68 2.1a16.263 16.263 0 0 0-9.915-5.393 1.706 1.706 0 0 1-1.434-1.587c-.393-6.537-4.215-9.472-7.834-9.472A7.351 7.351 0 0 0 79 42.121a1.692 1.692 0 0 1-2.953-.444 23.589 23.589 0 0 0-5.547-8.824 19.883 19.883 0 0 0-34.131 13.329 23.145 23.145 0 0 0 .137 2.441 1.707 1.707 0 0 1-1.28 1.826c-3.875.956-10.411 3.925-10.411 12.937a8.322 8.322 0 0 0 0 .921c.375 6.827 6.093 11.674 13.653 11.674h23.894zm23.893 25.156C65.843 104.55 65.6 81.8 65.6 81.579v-20.77a1.708 1.708 0 0 1 1.11-1.6l18.773-6.946a1.789 1.789 0 0 1 1.2 0l18.772 6.937a1.706 1.706 0 0 1 1.109 1.6v22.05c0 .231-.239 21.7-20.48 21.7zM69.018 62v19.579c0 .8.239 19.558 17.066 19.558s17.067-17.527 17.067-18.278V62l-17.067-6.329zm17.066 36.167c-10.854 0-13.517-13.772-13.653-14.353a.93.93 0 0 1 0-.307V65.826a1.706 1.706 0 0 1 1.075-1.587l11.947-4.71a1.7 1.7 0 0 1 1.263 0l11.946 4.71a1.708 1.708 0 0 1 1.076 1.587v17.681a1.967 1.967 0 0 1 0 .307c-.138.586-2.799 14.353-13.654 14.353zm-10.24-14.83c.273 1.3 2.714 11.417 10.24 11.417s9.967-10.1 10.24-11.417v-16.35l-10.24-4.028-10.24 4.028z" fill="#fff"/>
</svg>
