<svg xmlns="http://www.w3.org/2000/svg" width="128" height="128">
    <path d="M0 0h128v128H0z" fill="#DD344C"/>
    <path d="M83.2 85.57l2.37-2.37 20.623 20.622-2.371 2.371zM21.807 24.178l2.371-2.371 22.755 22.519-2.607 2.374zm5.215 74.429l11.852-11.851 2.37 2.37-11.851 11.852zm59.734-59.733l11.851-11.852 2.371 2.371-11.852 11.851zm19.911 23.467v3.318h-3.319A38.578 38.578 0 0 1 96 86.993l-2.844-1.9a35.495 35.495 0 0 0 6.637-19.437h-3.319v-3.315h3.319A35.495 35.495 0 0 0 93.156 42.9L96 41.007a38.578 38.578 0 0 1 7.348 21.334zm-19.674-30.1l-1.9 2.844a35.495 35.495 0 0 0-19.437-6.637v3.319h-3.315v-3.323A35.495 35.495 0 0 0 42.9 35.081L41 32.237a38.578 38.578 0 0 1 21.334-7.348V21.57h3.318v3.319a38.578 38.578 0 0 1 21.341 7.348zm0 63.763a38.578 38.578 0 0 1-21.334 7.348v3.319h-3.318v-3.319A38.578 38.578 0 0 1 41.007 96l1.9-2.844a35.495 35.495 0 0 0 19.437 6.637v-3.319h3.318v3.319A35.495 35.495 0 0 0 85.1 93.156zM28.207 65.659A35.495 35.495 0 0 0 34.844 85.1L32.237 87a38.578 38.578 0 0 1-7.348-21.334H21.57v-3.325h3.319a38.578 38.578 0 0 1 7.348-21.334l2.844 1.9a35.495 35.495 0 0 0-6.637 19.437h3.319v3.318zm51.2-12.326a2 2 0 0 0-1.659 0c-.474.237-.948.711-.711 1.186l-.474 3.081a23.83 23.83 0 0 0-13.748-19.2 19.119 19.119 0 0 0-7.822-3.319 1.909 1.909 0 0 0-2.134 1.186c-.237.474.237 1.185.474 1.659A15.255 15.255 0 0 1 57.6 51.437c-2.133-2.607-5.215-5.689-9.007-5.689a2.049 2.049 0 0 0-1.423.711 1.511 1.511 0 0 0 0 1.422c.948 2.608 2.845 9.956 0 14.7-.237.237-.237.474-.474.711a15.709 15.709 0 0 0 4.741 20.622 58.583 58.583 0 0 0 10.9 5.452c.237 0 .237.237.474 0h.237c2.137-.24 17.782-2.136 20.863-14.466 4.504-16.589-4.03-21.567-4.504-21.567zM60.207 85.1a33.106 33.106 0 0 1-6.874-3.8 12.029 12.029 0 0 1-3.555-16.119l.237-.711c2.844-4.5 2.133-10.667 1.185-14.222a26.794 26.794 0 0 1 5.452 6.163 1.663 1.663 0 0 0 2.133.948c.237-.237.711-.474.948-.948a20.663 20.663 0 0 0-.474-16.356 11.161 11.161 0 0 1 4.978 5.452c2.37 4.978 1.9 11.852-1.422 18.015A32.242 32.242 0 0 0 60.207 85.1zM80.83 74.2C78.7 82.963 67.793 85.333 64 86.044c-.948-3.318-2.844-12.563 1.9-20.859a24.694 24.694 0 0 0 2.6-18.252c3.081 3.556 5.689 9.482 4.266 18.015a1.512 1.512 0 0 0 1.186 1.9 1.741 1.741 0 0 0 1.422-.474 14.867 14.867 0 0 0 4.266-8.059c1.66 2.129 3.323 7.107 1.19 15.878z" fill="#fff"/>
</svg>
