<svg xmlns="http://www.w3.org/2000/svg" width="128" height="128">
  <path d="M27.04,99.78c2.76,1.72,7.35,3.63,12.2,3.63,4.42,0,8.52-1.28,11.92-3.46,0,0,0,0,.01,0l12.84-8.02v28.96c-2.03,0-4.08-.55-5.86-1.66,0,0-31.1-19.44-31.1-19.44Z" style="fill: #225086; stroke-width: 0px;"/>
  <path d="M55.84,10.72L2.51,70.88c-4.12,4.65-3.04,11.68,2.3,15.01,0,0,19.74,12.34,22.23,13.9,2.76,1.72,7.35,3.63,12.2,3.63,4.42,0,8.52-1.28,11.92-3.46,0,0,0,0,.01,0l12.84-8.02-31.03-19.4,31.04-35.02V7.11h0c-3.02,0-6.02,1.2-8.16,3.61h0Z" style="fill: #6df; stroke-width: 0px;"/>
  <polygon points="32.97 72.53 33.34 72.75 64 91.93 64.01 91.93 64.01 91.93 64.01 37.52 64 37.51 32.97 72.53" style="fill: #cbf8ff; stroke-width: 0px;"/>
  <path d="M123.19,85.89c5.34-3.34,6.41-10.36,2.3-15.01l-34.99-39.47c-2.82-1.32-5.99-2.07-9.34-2.07-6.58,0-12.46,2.84-16.37,7.3l-.78.87h0l31.03,35.02h0l-31.04,19.4v28.96c2.04,0,4.07-.55,5.85-1.66l53.33-33.34h0Z" style="fill: #074793; stroke-width: 0px;"/>
  <path d="M64.01,7.11v30.4l.78-.87c3.91-4.46,9.79-7.3,16.37-7.3,3.36,0,6.51.76,9.34,2.07l-18.34-20.69c-2.13-2.4-5.14-3.61-8.15-3.61h0Z" style="fill: #0294e4; stroke-width: 0px;"/>
  <polygon points="95.04 72.53 95.04 72.53 95.04 72.53 64.01 37.52 64.01 91.92 95.04 72.53" style="fill: #96bcc2; stroke-width: 0px;"/>
</svg>