<svg xmlns="http://www.w3.org/2000/svg" width="128" height="128">
    <path fill="#804998" d="M58.624 40.704l-19.712 7.68V16.64l19.712 6.912v17.152zM21.248 22.016v20.736l14.592 5.632V16.9zm1.536 19.2l-.768-.256V23.808l.768-.256.768-.256.768-.256v18.688l-.768-.256zm3.84 1.024l-1.024-.256v-19.2l1.024-.256 1.024-.256 1.024-.256v20.992l-1.024-.256zm4.608 1.536l-1.28-.512V21.5l1.28-.256 1.28-.512 1.536-.512v24.32l-1.536-.512zM104.448 40.704l-19.712 7.68V16.64l19.712 6.912v17.152zM67.072 22.016v20.736l14.592 5.632V16.9zm1.536 19.2l-.768-.256V23.808l.768-.256.768-.256.768-.256v18.688l-.768-.256zm3.84 1.024l-1.024-.256v-19.2l1.024-.256 1.024-.256 1.024-.256v20.992l-1.024-.256zm4.608 1.536l-1.28-.512V21.5l1.28-.256 1.28-.512 1.536-.512v24.32l-1.536-.512zM58.624 103.68l-19.712 7.68V79.616l19.712 6.912v17.152zM21.248 84.992v20.736l14.592 5.632V79.872zm1.536 19.2l-.768-.256V86.784l.768-.256.768-.256.768-.256V104.7l-.768-.256zm3.84 1.024l-1.024-.256v-19.2l1.024-.256 1.024-.256 1.024-.256v20.992l-1.024-.256zm4.608 1.536l-1.28-.512V84.48l1.28-.256 1.28-.512 1.536-.512v24.32l-1.536-.512zM104.448 103.68l-19.712 7.68V79.616l19.712 6.912v17.152zM67.072 84.992v20.736l14.592 5.632V79.872zm1.536 19.2l-.768-.256V86.784l.768-.256.768-.256.768-.256V104.7l-.768-.256zm3.84 1.024l-1.024-.256v-19.2l1.024-.256 1.024-.256 1.024-.256v20.992l-1.024-.256zm4.608 1.536l-1.28-.512V84.48l1.28-.256 1.28-.512 1.536-.512v24.32l-1.536-.512zM82.944 72.192l-19.456 7.424V48.128l19.456 6.912v17.152zM45.568 53.248v20.736l14.592 5.632V48.128zm1.536 19.2l-.768-.256V55.04l.768-.256.768-.256.768-.256V72.96l-.768-.256zm3.84 1.28l-1.024-.256v-19.2l1.024-.256 1.024-.256 1.024-.256V74.5l-1.024-.256zm4.608 1.536l-1.28-.512v-21.76l1.28-.256 1.28-.512 1.536-.512v24.32l-1.536-.512zM37.376 72.192L17.92 79.616V48.128l19.456 6.912v17.152zM0 53.248v20.736l14.592 5.632V48.128zm1.536 19.2l-.768-.256V55.04l.768-.256.768-.256.768-.256V72.96L2.3 72.7zm3.84 1.28l-1.024-.256v-19.2l1.024-.256L6.4 53.76l1.024-.26v21L6.4 74.24zm4.608 1.536L8.7 74.752v-21.76l1.28-.256 1.28-.512 1.536-.512v24.32l-1.536-.512zM128 72.192l-19.456 7.424V48.128L128 55.04v17.152z"/>
    <path fill="#fff" opacity=".2" style="isolation:isolate" d="M58.624 40.704l-19.712 7.68V16.64l19.712 6.912v17.152zM104.448 40.704l-19.712 7.68V16.64l19.712 6.912v17.152zM58.624 103.68l-19.712 7.68V79.616l19.712 6.912v17.152zM104.448 103.68l-19.712 7.68V79.616l19.712 6.912v17.152zM82.944 72.192l-19.456 7.424V48.128l19.456 6.912v17.152zM37.376 72.192L17.92 79.616V48.128l19.456 6.912v17.152zM128 72.192l-19.456 7.424V48.128L128 55.04v17.152z"/>
    <path d="M90.624 53.248v20.736l14.592 5.632V48.128zm1.536 19.2l-.768-.256V55.04l.768-.256.768-.256.768-.256V72.96l-.768-.256zm3.84 1.28l-1.024-.256v-19.2L96 54.016l1.024-.256 1.024-.256V74.5l-1.024-.256zm4.608 1.536l-1.28-.512v-21.76l1.28-.256 1.28-.512 1.536-.512v24.32l-1.536-.512z" fill="#804998"/>
</svg>
