<svg xmlns="http://www.w3.org/2000/svg" width="128" height="128">
    <path d="M52.271 83.506H29.578a20.514 20.514 0 0 1-20.4-20.653c0-11.475 8.67-20.654 20.4-20.654 2.04 0 4.334.51 6.884.765l4.338 1.275 1.272-4.339C46.151 26.645 58.9 18.486 73.434 18.486a30.594 30.594 0 0 1 31.108 31.108 32.061 32.061 0 0 1-1.275 8.414l-1.785 6.374 6.885-.764h1.274a9.227 9.227 0 0 1 1.275 18.358H88.223a28.132 28.132 0 0 0-8.414-16.319 30.154 30.154 0 0 0-21.164-8.924 29.1 29.1 0 0 0-15.553 4.335l4.844 7.649a21.6 21.6 0 0 1 11.219-2.8c5.61 0 11.219 2.04 14.789 6.375a20.677 20.677 0 0 1 6.375 14.789c0 5.609-2.04 11.219-6.375 14.789a19.949 19.949 0 0 1-26.008 2.8l-4.844 7.65c4.844 2.8 10.454 4.844 15.553 4.844a28.868 28.868 0 0 0 21.164-8.669 30 30 0 0 0 8.414-17.849h23.713c9.18-.766 16.064-8.67 16.064-18.359 0-7.65-7.139-14.789-15.554-16.319.51-1.53.51-2.3.51-4.844 0-22.439-15.809-40.287-41.052-40.287-16.063 0-30.342 9.179-36.207 23.968-2.04 0-3.569-.765-5.864-.765C13.259 33.785 0 46.534 0 62.853a29 29 0 0 0 29.068 28.812h24.988z" fill="#59b4d9"/>
    <circle cx="58.135" cy="86.821" r="14.279" fill="#68217a"/>
</svg>
