<svg xmlns="http://www.w3.org/2000/svg" width="128" height="128" xmlns:xlink="http://www.w3.org/1999/xlink">
  <defs>
    <linearGradient id="b" x1="64" y1=".38" x2="64" y2="85.02" gradientUnits="userSpaceOnUse">
      <stop offset="0" stop-color="#0078d4"/>
      <stop offset=".16" stop-color="#1380da"/>
      <stop offset=".53" stop-color="#3c91e5"/>
      <stop offset=".82" stop-color="#559cec"/>
      <stop offset="1" stop-color="#5ea0ef"/>
    </linearGradient>
  </defs>
  <path d="m100.65,32.5C99.88,13.91,84.27-.58,65.67.02c-14.77-.24-28.1,8.84-33.27,22.68-15.84,1.83-27.94,14.99-28.43,30.92.47,15.86,12.16,28.72,27.23,31.26v-9.22c.03-.47.39-.86.85-.92l26.23-4.83v-21.33c0-.52-.4-.96-.92-1h-11.37c-.51.03-.95-.36-.97-.87-.02-.29.11-.58.33-.76l18.77-18.41c.82-.84,2.17-.86,3.02-.04.01.01.03.03.04.04l18.27,18.41c.4.32.46.9.14,1.3-.2.25-.53.38-.85.34h-11.52c-.53.03-.96.46-1,1v22.38l26.8,8.97c.4.13.66.51.64.92v4.19c13.57-1.46,24.2-12.73,24.38-26.65-.38-13.2-10.29-24.17-23.39-25.88Z" fill="url(#b)"/>
  <g>
    <polygon points="49.32 77.65 49.32 118.95 60.48 120.72 60.48 75.73 49.32 77.65" fill="#b77af4" isolation="isolate" opacity=".75"/>
    <polygon points="35.53 116.03 45.27 118.02 45.27 78.28 35.53 79.92 35.53 116.03" fill="#b77af4" isolation="isolate" opacity=".75"/>
  </g>
  <path d="m99.01,79.92l-33.77-11.3h-1.14v.21c.2-.04.41-.03.6.05.51.21.75.79.54,1.3v56.87c0,.08,0,.16-.02.24-.12.5-.62.8-1.11.69h.92l33.48-13.36c.5.12.99-.19,1.11-.68.01-.06.02-.11.02-.17v-32.91c.02-.42-.24-.8-.64-.92Z" fill="#a67af4"/>
  <path d="m64.7,68.88c-.19-.08-.4-.1-.6-.05l-32.06,5.9c-.47.07-.82.45-.85.92v44.29c.01.47.33.87.78.99l32.13,7.04c.5.12.99-.19,1.11-.69.02-.08.03-.16.02-.24v-56.87c.21-.51-.03-1.09-.54-1.3Zm-19.44,49.14l-9.74-1.99v-36.11l9.74-1.64v39.74Zm15.21,2.7l-11.16-1.78v-41.3l11.16-1.92v45Z" fill="#552f99"/>
</svg>