<svg xmlns="http://www.w3.org/2000/svg" width="128" height="128">
    <path fill="#2989df" d="M30.25 95c-.47-.5-.94-1-1.38-1.53.46.53.92 1 1.38 1.53zM93.24 71.3c-2.62.1-6.24.19-7.61.18-3.31 0-6.64 0-9.93-.38a13.12 13.12 0 01-11.56-15.25 13.47 13.47 0 0112.77-10.77h1.21c2.21-9.75 8.21-14 18.31-12.4L98 33a45.89 45.89 0 00-79.67 24.1c2.59 0 5.76 0 7.54.16 7.33.51 13 6 12.76 12.21a5.13 5.13 0 00.09.81c.71.14 1.39.31 2.07.41a12 12 0 0110.37 12.72A12.21 12.21 0 0138.86 95h-8.59a45.36 45.36 0 004.41 4.13c12.65-2 27.58-7.68 41.67-16.07 13.38-8 16.89-11.76 16.89-11.76zM80.66 90.26a139 139 0 01-35.61 15.26 45.89 45.89 0 0064.4-37.61 141 141 0 01-28.79 22.35zM18 60c.08-1 .18-2 .32-2.93-.13 1-.23 1.93-.32 2.93zM18.21 69.22c0-.34-.09-.68-.12-1 .03.32.08.66.12 1zM18 66.76c0-.28-.05-.56-.06-.84-.01.28.06.56.06.84zM17.86 63.61c0-1 0-2 .11-3-.07.96-.11 1.98-.11 3z"/>
    <path fill="#51e5fe" d="M2.07 20h.39A14.86 14.86 0 0116 30.88c.33 1.35.45 2.76.66 4.14a1.19 1.19 0 001.28 1.15 1.18 1.18 0 001.35-1.07c.05-.32 0-.64.05-1a14.73 14.73 0 017.88-12.36A14 14 0 0133.8 20c.92 0 1.69-.16 1.76-1.67a8.18 8.18 0 00-1.09-1c-.23-.15-.63 0-.95-.06a14.79 14.79 0 01-11-5.8 14.19 14.19 0 01-3.17-8.66c0-.91-.16-1.69-1.29-1.74-.94 0-1.25.4-1.42 1.62a20.62 20.62 0 01-.8 4.31A14.69 14.69 0 015 16.88a16.11 16.11 0 01-3 .39c-.88.05-1.51.3-1.53 1.3S1.1 20 2.07 20zM125.23 112.28a12 12 0 01-9.25-5.06 13.57 13.57 0 01-2.3-6.62c-.07-.7-.2-1.34-1-1.32s-.92.68-1 1.37a17.56 17.56 0 01-.58 3c-1.72 5.35-5.5 8.12-11 8.64-.77.08-1.44.19-1.43 1.14s.71 1 1.34 1.09a19.85 19.85 0 012.47.28c4.92 1.42 8 4.56 9 9.69a16.06 16.06 0 01.27 1.69c0 .64.17 1.15.94 1.18s1-.33 1.08-1 .19-1.13.28-1.7c.72-4.76 3.5-7.84 7.9-9.49a17.83 17.83 0 013.38-.6c.69-.12 1.43-.19 1.49-1.11s-.82-1.11-1.59-1.18zM79.05 20.36a45.65 45.65 0 0111.29 5.85 64.46 64.46 0 0112.37-1.36v-8.42a84.15 84.15 0 00-23.66 3.93z"/>
    <path fill="#51e5fe" d="M125.35 25.87c-3.79-6.36-12-9.44-22.63-9.44v8.42c7.77 0 13.38 1.94 15.4 5.33 2.57 4.32.37 12.29-5.89 21.31C104.46 62.68 91.72 73.88 76.35 83 58.62 93.58 39.57 99.89 25.4 99.89c-7.78 0-13.4-2-15.41-5.33-2.57-4.32-.37-12.29 5.89-21.31a76.04 76.04 0 012.42-3.26 46.19 46.19 0 01-.44-6.38 46.84 46.84 0 01.45-6.41C3.37 72.7-3.3 88.7 2.75 98.86c3.79 6.37 12 9.45 22.65 9.45 15.17 0 35.39-6.22 55.26-18 33.86-20.2 53.86-49.03 44.69-64.44z"/>
    <path fill="#ffffff" d="M40.79 70.69c-.68-.1-1.36-.27-2.07-.41a5.13 5.13 0 01-.09-.81c.22-6.21-5.43-11.7-12.76-12.21-1.78-.12-4.95-.15-7.54-.16a45.14 45.14 0 00-.47 6.51A45.73 45.73 0 0030.25 95h8.61a12.21 12.21 0 0012.3-11.55 12 12 0 00-10.37-12.76zM108.87 54.89A46.63 46.63 0 0098 33l-1.58-.39C86.33 31 80.33 35.28 78.12 45h-1.21a13.47 13.47 0 00-12.77 10.85A13.12 13.12 0 0075.7 71.1c3.29.35 6.62.34 9.93.38 1.37 0 5-.08 7.61-.18A106.08 106.08 0 00109 55.74c0-.31-.09-.6-.13-.85z"/>
</svg>
