<svg xmlns="http://www.w3.org/2000/svg" width="128" height="128">
    <path d="M63.872 127.872a12.02 12.02 0 0 1-8.431-3.577L3.577 72.431a11.724 11.724 0 0 1 0-16.862L55.441 3.705a11.724 11.724 0 0 1 16.862 0l52.12 52.119A11.584 11.584 0 0 1 128 64.255a12.023 12.023 0 0 1-3.577 8.432L72.3 124.3a12.019 12.019 0 0 1-8.431 3.577" fill="#7fba00"/>
    <path d="M75.977 47.608a19.7 19.7 0 1 1 3.669-27.616 19.623 19.623 0 0 1-3.669 27.616" fill="#fff"/>
    <path d="M72.3 3.705a11.724 11.724 0 0 0-16.862 0L3.577 55.569a11.724 11.724 0 0 0 0 16.862l29.381 29.381L88.4 19.8z" fill="#fff" opacity=".15" style="isolation:isolate"/>
    <path fill="#fff" d="M63.872 116.631l16.863-16.863H68.727V49.051h-9.965v50.717H47.01l16.862 16.863z"/>
    <path fill="#fff" d="M100.484 85.665V61.818l-8.311 8.311-21.574-21.573-7.225 7.225 21.574 21.573-8.312 8.311h23.848z"/>
    <path fill="#fff" d="M27.299 85.755h23.845l-8.309-8.309 22.179-22.179-7.227-7.227-22.179 22.179-8.309-8.309v23.845z"/>
    <path d="M74.386 45.531a17.087 17.087 0 1 1 3.18-23.947 17.019 17.019 0 0 1-3.18 23.947" fill="#59b4d9"/>
    <path d="M71.246 34.964a3.682 3.682 0 0 0 5.155.687c.085-.064.149-.143.225-.212 1.648 1.16 2.79 1.926 3.434 2.363a14.187 14.187 0 0 0 .457-1.464 94.054 94.054 0 0 1-2.933-2.294 3.649 3.649 0 0 0-5.24-4.476 153.48 153.48 0 0 1-5.669-5.355c6.265-3.37 10.715-2.877 10.715-2.877a17.106 17.106 0 0 0-2.465-2.527 18.2 18.2 0 0 0-11.436 2.131q-2.344-2.453-4.772-5.27a15.88 15.88 0 0 0-2.264.919 36.962 36.962 0 0 0 4.617 5.856.08.08 0 0 0 .013.013 31.77 31.77 0 0 0-4.747 4.111c-.2.212-.389.424-.575.636a5.168 5.168 0 0 0-2.816.192 12.47 12.47 0 0 1-1.177-7.4 17.984 17.984 0 0 0-1.84 2.233 10.938 10.938 0 0 0 .675 6.9 5.152 5.152 0 0 0 0 6.257 5.231 5.231 0 0 0 .383.442 25.984 25.984 0 0 0-1 5.989c.161.22.161.4.322.613a17.416 17.416 0 0 0 2.844 2.739 18.832 18.832 0 0 1 1.173-7.775A5.133 5.133 0 0 0 56.7 37c.437.386.894.775 1.384 1.171a28.406 28.406 0 0 0 4.98 3.173 3.377 3.377 0 0 0 5.436 3.034 3.332 3.332 0 0 0 .756-.83 30.456 30.456 0 0 0 6.7.7 12.364 12.364 0 0 0 2.19-2.7 18.037 18.037 0 0 1-8.408-.575 3.357 3.357 0 0 0-5.138-2.128 32.269 32.269 0 0 1-4.619-3.069 31.41 31.41 0 0 1-.93-.764 5.178 5.178 0 0 0 .217-5.161c.2-.2.388-.391.595-.585a37.46 37.46 0 0 1 4.456-3.6c-.056-.051-.107-.107-.161-.158.056.051.107.105.163.156 2.133 1.972 4.394 3.842 6.538 5.513a3.662 3.662 0 0 0 .387 3.787z" fill="#fff"/>
</svg>
