<svg xmlns="http://www.w3.org/2000/svg" width="128" height="128">
    <path d="M127.174 64.8a3.618 3.618 0 0 0 0-4.6l-6.2-6.2-27.586-26.785a3.136 3.136 0 0 0-4.4 0c-1.2 1.2-1.6 3.4 0 4.6L117.977 60.2a3.386 3.386 0 0 1 0 4.6L88.39 94.187a3.386 3.386 0 0 0 0 4.6 3.341 3.341 0 0 0 4.4 0L120.177 71.6l.2-.2zM.826 64.8a3.618 3.618 0 0 1 0-4.6l6.2-6.2 27.586-26.785a3.136 3.136 0 0 1 4.4 0c1.2 1.2 1.6 3.4 0 4.6L10.622 60.2a3.388 3.388 0 0 0 0 4.6L39.61 94.187a3.386 3.386 0 0 1 0 4.6 3.341 3.341 0 0 1-4.4 0L7.224 72l-.2-.2z" fill="#3999c6"/>
    <path fill="#fcd116" d="M95.187 5.025H56.203L35.212 64.2l25.589.2-19.991 58.575 55.177-78.167H69.198L95.187 5.025z"/>
    <path fill="#ff8c00" opacity=".3" style="isolation:isolate" d="M69.198 44.808L95.187 5.025H74.796L53.205 54.204l25.589.2-37.984 68.571 55.177-78.167H69.198z"/>
</svg>
