<svg xmlns="http://www.w3.org/2000/svg" width="128" height="128" xmlns:xlink="http://www.w3.org/1999/xlink">
  <defs>
    <linearGradient id="b" x1="64.07" y1="50.05" x2="64.07" y2="76.75" gradientUnits="userSpaceOnUse">
      <stop offset="0" stop-color="#5e9624"/>
      <stop offset=".02" stop-color="#5f9724"/>
      <stop offset="1" stop-color="#76bc2d"/>
    </linearGradient>
    <linearGradient id="c" x1="64" y1="-13.14" x2="64" y2="135.24" xlink:href="#b"/>
  </defs>
  <g>
    <path d="m64.07,52.41c-6.36,0-11.52,5.16-11.52,11.52s5.16,11.52,11.52,11.52,11.52-5.16,11.52-11.52-5.16-11.52-11.52-11.52Z" fill="url(#b)"/>
    <path d="m126.71,60.94L67.06,1.29s-.05-.06-.08-.08c-1.69-1.64-4.39-1.61-6.03.08L1.29,60.94s-.06.05-.08.08c-1.64,1.69-1.61,4.39.08,6.03l59.72,59.72c1.66,1.63,4.31,1.63,5.97,0l59.72-59.72s.06-.05.08-.08c1.64-1.69,1.61-4.39-.08-6.03Zm-56.88,21.69v7.11c2.24,1.16,4.06,2.98,5.22,5.22,3.08,5.97.75,13.3-5.22,16.38-5.97,3.08-13.3.75-16.38-5.22-3.08-5.97-.75-13.3,5.22-16.38v-6.75c-8.62-2.41-14.56-10.28-14.5-19.23.07-10.96,9-19.78,19.96-19.71,10.96.07,19.78,9,19.71,19.96-.1,8.6-5.77,16.14-14.01,18.63Z" fill="url(#c)"/>
  </g>
  <circle id="d" data-name="e99c3387-15c3-4f28-bd4b-cb209b430e06" cx="64.07" cy="63.93" r="11.52" fill="#5ea0ef"/>
  <path d="m115.26,62.08l-15.14-15.07c-.33-.28-.83-.23-1.1.1-.11.13-.17.29-.18.46v8.89c0,.39-.31.71-.71.71-.02,0-.05,0-.07,0h-15.46c.77,2.14,1.25,4.42,1.24,6.83-.02,1.42-.23,2.78-.54,4.12h14.76c.43,0,.78.35.78.78v8.82c.06.43.45.73.88.68.15-.02.29-.08.4-.18l15.14-15.07c.28-.3.28-.77,0-1.07Z" fill="#b4ec36"/>
  <path d="m48.93,29.73h8.82c.43,0,.78.35.78.78v14.22c0,.06.05.1.06.15,1.77-.5,3.6-.86,5.53-.84,1.85.01,3.6.36,5.29.84.01-.05.06-.09.06-.15v-14.22c0-.43.35-.78.78-.78h8.82c.38.1.77-.14.86-.52.07-.29-.05-.59-.29-.76l-15.07-15c-.32-.29-.81-.29-1.14,0l-15.07,15c-.33.22-.41.66-.19.99.17.25.47.37.76.29Z" fill="#b4ec36"/>
  <path d="m44.16,63.75c0-1.23.15-2.42.38-3.58.22-1.13.55-2.22.95-3.27,0,0,0,0,0,0h-14.71c-.39.04-.74-.25-.78-.64,0-.02,0-.05,0-.07v-8.6c.16-.43-.07-.91-.5-1.07-.43-.16-.91.07-1.07.5l-14.93,15.14c-.28.3-.28.77,0,1.07l14.93,15c.3.31.79.33,1.11.03.17-.16.26-.38.25-.6v-8.75c0-.43.35-.78.78-.78h14.1c-.31-1.42-.53-2.87-.52-4.37Z" fill="#b4ec36"/>
</svg>