<svg xmlns="http://www.w3.org/2000/svg" width="128" height="128" xmlns:xlink="http://www.w3.org/1999/xlink">
  <defs>
    <linearGradient id="b" x1="64" y1="7.68" x2="64" y2="98.16" gradientUnits="userSpaceOnUse">
      <stop offset="0" stop-color="#0078d4"/>
      <stop offset=".82" stop-color="#5ea0ef"/>
    </linearGradient>
  </defs>
  <path d="m101.62,77.45c-.04-1.62-1.36-2.92-2.99-2.92H29.37c-1.62,0-2.95,1.29-2.99,2.92v35.56c.04,1.62,1.36,2.92,2.99,2.92h69.26c1.62,0,2.95-1.29,2.99-2.92,0,0,0-35.56,0-35.56Z" fill="#821010"/>
  <rect x="30.58" y="78.66" width="20.41" height="9.03" fill="#e62323"/>
  <rect x="54.04" y="78.66" width="20.41" height="9.03" fill="#ff7381"/>
  <rect x="77.51" y="78.66" width="20.41" height="9.03" fill="#e62323"/>
  <rect x="89.46" y="90.75" width="8.46" height="9.03" fill="#ff7381"/>
  <rect x="42.1" y="90.75" width="20.41" height="9.03" fill="#ff7381"/>
  <rect x="65.64" y="90.75" width="20.41" height="9.03" fill="#e62323"/>
  <rect x="30.58" y="102.84" width="20.41" height="9.03" fill="#e62323"/>
  <rect x="54.04" y="102.84" width="20.41" height="9.03" fill="#ff7381"/>
  <rect x="77.51" y="102.84" width="20.41" height="9.03" fill="#e62323"/>
  <path d="m103.04,42.33c-.88-19.81-17.51-35.23-37.33-34.63-15.8-.29-30.06,9.43-35.56,24.25C13.33,33.97.51,48,0,64.94c.6,15.83,11.74,28.65,26.38,32.32v-19.8c.04-1.62,1.36-2.92,2.99-2.92h69.26c1.62,0,2.95,1.29,2.99,2.92v20.71c14.54-1.39,26.02-13.31,26.38-28.18-.46-14.07-11.01-25.76-24.96-27.66Z" fill="url(#b)"/>
</svg>