<svg xmlns="http://www.w3.org/2000/svg" width="128" height="128" xmlns:xlink="http://www.w3.org/1999/xlink">
  <defs>
    <linearGradient id="b" x1="15.74" y1="35.27" x2="112.26" y2="35.27" gradientTransform="translate(0 108) scale(1 -1)" gradientUnits="userSpaceOnUse">
      <stop offset="0" stop-color="#005ba1"/>
      <stop offset=".07" stop-color="#0060a9"/>
      <stop offset=".36" stop-color="#0071c8"/>
      <stop offset=".52" stop-color="#0078d4"/>
      <stop offset=".64" stop-color="#0074cd"/>
      <stop offset=".82" stop-color="#006abb"/>
      <stop offset="1" stop-color="#005ba1"/>
    </linearGradient>
    <radialGradient id="c" cx="66.71" cy="32.18" fx="66.71" fy="32.18" r="53.23" gradientTransform="translate(0 108) scale(1 -1)" gradientUnits="userSpaceOnUse">
      <stop offset="0" stop-color="#f2f2f2"/>
      <stop offset=".58" stop-color="#eee"/>
      <stop offset="1" stop-color="#e6e6e6"/>
    </radialGradient>
  </defs>
  <path d="m64,34.94c-26.65,0-48.26-7.53-48.26-17.47v93.06c0,9.56,21.23,17.32,47.59,17.47h.68c26.65,0,48.26-7.53,48.26-17.47V17.47c0,9.71-21.61,17.47-48.26,17.47Z" fill="url(#b)"/>
  <path d="m112.26,17.47c0,9.71-21.61,17.47-48.26,17.47S15.74,27.41,15.74,17.47,37.35,0,64,0s48.26,7.53,48.26,17.47" fill="#e8e8e8"/>
  <path d="m101.04,16.04c0,6.17-16.64,11.14-37.04,11.14s-37.04-4.97-37.04-11.14,16.64-11.07,37.04-11.07,37.04,4.97,37.04,11.07" fill="#50e6ff"/>
  <path d="m64,18.82c-9.94-.25-19.84,1.2-29.29,4.29,9.46,3.04,19.36,4.41,29.29,4.07,9.94.29,19.86-1.19,29.29-4.37-9.47-2.95-19.37-4.3-29.29-3.99Z" fill="#198ab3"/>
  <path d="m93.36,82.07v-25.6h-6.78v31.1h18.52v-5.5h-11.75Zm-53.76-12.57c-1.4-.56-2.7-1.35-3.84-2.33-.61-.65-.94-1.52-.9-2.41-.05-.9.38-1.76,1.13-2.26.93-.64,2.04-.96,3.16-.9,2.68-.12,5.33.65,7.53,2.18v-6.48c-2.41-.9-4.96-1.3-7.53-1.2-2.95-.16-5.87.75-8.21,2.56-2.07,1.6-3.25,4.09-3.16,6.7,0,3.84,2.41,6.85,7.53,9.11,1.66.71,3.23,1.62,4.67,2.71.71.6,1.13,1.48,1.13,2.41,0,.93-.45,1.8-1.2,2.33-1.02.6-2.2.89-3.39.83-3.03-.02-5.94-1.15-8.21-3.16v7c2.49,1.28,5.26,1.9,8.06,1.81,3.16.19,6.28-.69,8.88-2.48,1.86-1.76,2.78-4.3,2.48-6.85.04-1.93-.63-3.8-1.88-5.27-1.76-1.85-3.89-3.32-6.25-4.29Zm39.45,11.97c1.71-2.86,2.57-6.15,2.48-9.49-.17-2.82-1.02-5.56-2.48-7.98-1.18-2.35-3.01-4.31-5.27-5.65-2.3-1.3-4.89-1.98-7.53-1.96-2.84-.06-5.65.64-8.13,2.03-2.32,1.3-4.23,3.23-5.5,5.57-1.33,2.66-2,5.61-1.96,8.58.02,2.62.63,5.19,1.81,7.53,1.15,2.33,2.96,4.26,5.2,5.57,2.27,1.39,4.87,2.16,7.53,2.26l6.48,7.53h9.11l-9.26-8.28c3.12-.94,5.79-2.97,7.53-5.72Zm-7.53-1.88c-1.39,1.73-3.51,2.7-5.72,2.64-2.23.07-4.36-.94-5.72-2.71-1.59-2.17-2.36-4.84-2.18-7.53-.17-2.69.6-5.35,2.18-7.53,1.44-1.77,3.59-2.79,5.87-2.79,2.23-.1,4.36.95,5.65,2.79,1.48,2.22,2.2,4.86,2.03,7.53.26,2.71-.49,5.42-2.11,7.6Z" fill="url(#c)"/>
</svg>