<svg xmlns="http://www.w3.org/2000/svg" width="128" height="128">
    <path d="M96.083 8.478H31.917L0 64l31.917 55.522h64.166L128 64zm.333 80.457a8.8 8.8 0 0 1-8.645 8.644h-47.21a8.8 8.8 0 0 1-8.644-8.644V39.4a8.8 8.8 0 0 1 8.644-8.644h42.556l13.3 13.3v44.879zM59.179 72.977c0-.665-.332-1-.332-1.33s-.333-.665-.665-1-.333-.332-.665-.332h-1c-.664 0-1 0-1.329.332a4.6 4.6 0 0 0-1 1.33 4.223 4.223 0 0 0-.332 2v6.317a2.81 2.81 0 0 0 .665 2q.5 1 1 1c.333.333.665.333 1.33.333a1.219 1.219 0 0 0 1-.333.714.714 0 0 0 .665-.665c.333-.332.333-.665.665-1 0-.333.333-.665.333-1.33a3.615 3.615 0 0 1 .332-1.662v-4.331c-.667-.332-.667-.664-.667-1.329zM74.14 47.044c0-.665-.332-1-.332-1.33s-.333-.665-.665-1-.333-.333-.665-.333h-1c-.665 0-1 0-1.33.333a4.583 4.583 0 0 0-1 1.33 4.223 4.223 0 0 0-.332 2v6.316a2.807 2.807 0 0 0 .665 2q.5 1 1 1c.333.332.665.332 1.33.332a1.222 1.222 0 0 0 1-.332.715.715 0 0 0 .665-.665c.333-.333.333-.665.665-1 0-.332.333-.665.333-1.33a3.619 3.619 0 0 1 .332-1.662v-4.329c-.333 0-.333-.665-.666-1.33zm6.65-11.636H40.561a3.841 3.841 0 0 0-3.99 3.989v49.538a3.842 3.842 0 0 0 3.99 3.99h47.21a4.043 4.043 0 0 0 3.99-3.99V46.379H81.122V35.408zM51.2 45.382v-.665l.332-.333 3.99-2.659h3.657v15.958H62.5l.332.333c.333.332 0 .332 0 .332v1.662a.326.326 0 0 1-.332.333H51.532l-.332-.333v-1.994a.326.326 0 0 1 .332-.333h3.99v-12.3l-2.992 1.661c-.333 0-.333.333-.665.333h-.333a.326.326 0 0 0-.332-.333v-1.662zm11.636 35.574a6.259 6.259 0 0 1-1.33 2.992 5.644 5.644 0 0 1-1.994 2 8.645 8.645 0 0 1-6.65 0 3 3 0 0 1-1.994-2 10.55 10.55 0 0 1-1-2.992 16.212 16.212 0 0 1-.332-3.99 13.714 13.714 0 0 1 .332-3.989 6.272 6.272 0 0 1 1.33-2.993c.665-.665 1.33-1.662 1.995-1.994a8.643 8.643 0 0 1 6.649 0 3 3 0 0 1 1.995 1.994 10.584 10.584 0 0 1 1 2.993 16.153 16.153 0 0 1 .333 3.989 13.682 13.682 0 0 1-.334 3.99zM77.8 85.61v.333a.325.325 0 0 1-.332.332H66.494l-.333-.332v-2a.325.325 0 0 1 .333-.332h3.989v-12.3l-2.992 1.663c-.333 0-.333.332-.665.332h-.332a.325.325 0 0 0-.333-.332v-2.325l.333-.332 3.989-2.66h3.657v15.959h3.325l.332.332v1.662zm.333-30.587a6.272 6.272 0 0 1-1.33 2.993 5.641 5.641 0 0 1-1.995 1.994 8.643 8.643 0 0 1-6.649 0 3 3 0 0 1-2-1.994 7.954 7.954 0 0 1-1-2.993c0-1-.333-2.659-.333-3.989a13.682 13.682 0 0 1 .333-3.99 6.259 6.259 0 0 1 1.33-2.992 5.644 5.644 0 0 1 1.994-1.995 8.645 8.645 0 0 1 6.65 0 3 3 0 0 1 1.994 1.995 10.55 10.55 0 0 1 1 2.992 16.212 16.212 0 0 1 .332 3.99c.003 1.666-.329 2.992-.329 3.989z" fill="#0078d7"/>
</svg>
