<svg xmlns="http://www.w3.org/2000/svg" width="128" height="128">
    <path d="M120.128 4.963H6.845A7.166 7.166 0 0 0 0 12.15v79.059A7.167 7.167 0 0 0 6.845 98.4h38.674c4.107 14.716-1.369 16.77-26.011 16.77v7.871h83.508v-7.871c-24.642 0-27.037-2.054-22.93-16.77h40.042c3.765 0 7.872-3.423 7.872-7.187V12.15c0-3.765-4.107-7.187-7.872-7.187zm-2.053 83.508H9.583V14.546h108.492zm-35.667-50.59l-19.851-11.3-19.85 11.3v.342l19.85 11.294 19.851-11.636zM64.693 52.775v22.589l19.851-11.3V41.481zm-4.081 0L40.761 41.481v22.588l19.851 11.3z" fill="#0078d7"/>
</svg>
