<svg width="36" height="36" viewBox="0 0 36 36" fill="none" xmlns="http://www.w3.org/2000/svg">
<path d="M17.9995 8.52637C15.5174 8.52637 13.4995 10.5443 13.4995 13.0264C13.4995 15.4611 15.4037 17.4316 17.8858 17.5169C17.9616 17.5074 18.0374 17.5074 18.0942 17.5169C18.1132 17.5169 18.1227 17.5169 18.1416 17.5169C18.1511 17.5169 18.1511 17.5169 18.1606 17.5169C20.5858 17.4316 22.49 15.4611 22.4995 13.0264C22.4995 10.5443 20.4816 8.52637 17.9995 8.52637Z" fill="#DB2777"/>
<path d="M22.8122 20.0368C20.169 18.2747 15.8585 18.2747 13.1964 20.0368C11.9932 20.8421 11.3301 21.9315 11.3301 23.0968C11.3301 24.2621 11.9932 25.3421 13.1869 26.1378C14.5132 27.0284 16.2564 27.4736 17.9996 27.4736C19.7427 27.4736 21.4859 27.0284 22.8122 26.1378C24.0059 25.3326 24.669 24.2526 24.669 23.0778C24.6596 21.9126 24.0059 20.8326 22.8122 20.0368Z" fill="#DB2777"/>
<path d="M28.4109 13.5853C28.5624 15.4232 27.2551 17.0337 25.4456 17.2516C25.4361 17.2516 25.4361 17.2516 25.4266 17.2516H25.3982C25.3414 17.2516 25.2845 17.2516 25.2372 17.2705C24.3182 17.3179 23.4751 17.0242 22.8403 16.4842C23.8161 15.6126 24.3751 14.3053 24.2614 12.8842C24.1951 12.1168 23.9298 11.4158 23.5319 10.8189C23.8919 10.6389 24.3088 10.5253 24.7351 10.4874C26.5919 10.3263 28.2498 11.7095 28.4109 13.5853Z" fill="#DB2777"/>
<path d="M30.3055 22.3485C30.2297 23.2674 29.6424 24.0632 28.6571 24.6032C27.7097 25.1243 26.516 25.3706 25.3318 25.3422C26.0139 24.7264 26.4118 23.959 26.4876 23.1443C26.5824 21.9696 26.0234 20.8422 24.9055 19.9422C24.2708 19.4401 23.5318 19.0422 22.7266 18.7485C24.8202 18.1422 27.4539 18.5496 29.0739 19.8569C29.9455 20.558 30.3908 21.439 30.3055 22.3485Z" fill="#DB2777"/>
<path d="M7.58914 13.5317C7.43756 15.3696 8.74493 16.9801 10.5544 17.198C10.5639 17.198 10.5639 17.198 10.5734 17.198H10.6018C10.6586 17.198 10.7155 17.198 10.7628 17.2169C11.6818 17.2643 12.5249 16.9706 13.1597 16.4306C12.1839 15.559 11.6249 14.2517 11.7386 12.8306C11.8049 12.0632 12.0702 11.3622 12.4681 10.7654C12.1081 10.5854 11.6912 10.4717 11.2649 10.4338C9.40809 10.2727 7.75019 11.6559 7.58914 13.5317Z" fill="#DB2777"/>
<path d="M5.69449 22.2949C5.77028 23.2139 6.35765 24.0096 7.34291 24.5496C8.29028 25.0707 9.48396 25.317 10.6682 25.2886C9.98607 24.6728 9.58817 23.9054 9.51239 23.0907C9.41765 21.916 9.97659 20.7886 11.0945 19.8886C11.7292 19.3865 12.4682 18.9886 13.2734 18.6949C11.1798 18.0886 8.54607 18.496 6.92607 19.8033C6.05449 20.5044 5.60923 21.3854 5.69449 22.2949Z" fill="#DB2777"/>
</svg>
