<svg width="512" height="512" viewBox="0 0 512 512" fill="none" xmlns="http://www.w3.org/2000/svg">
<path d="M503.765 274.64C504.556 293.543 497.817 311.988 485.026 325.928C472.235 339.869 454.436 348.166 435.535 349C434.43 349.051 433.327 349.077 432.225 349.077C427.203 349.074 422.196 348.53 417.29 347.456C402.734 369.931 383.647 389.12 361.25 403.796C338.854 418.472 313.64 428.312 287.223 432.686C284.099 441.865 277.865 449.665 269.6 454.735C261.335 459.806 251.558 461.83 241.959 460.457C232.36 459.084 223.543 454.4 217.031 447.216C210.519 440.031 206.722 430.797 206.296 421.11C205.87 411.423 208.842 401.891 214.699 394.163C220.555 386.434 228.927 380.995 238.369 378.785C247.81 376.575 257.727 377.733 266.405 382.059C275.083 386.385 281.977 393.607 285.895 402.477C323.087 395.599 356.686 375.887 380.836 346.779C404.986 317.67 418.156 281.01 418.05 243.188C418.05 153.833 345.355 81.138 256 81.138C166.645 81.138 93.9502 153.833 93.9502 243.188C93.9454 270.818 101.007 297.99 114.463 322.122C114.919 322.918 115.262 323.775 115.48 324.666C116.78 328.279 116.641 332.253 115.092 335.766C113.543 339.279 110.703 342.062 107.159 343.539C98.4817 347.191 89.1618 349.071 79.7472 349.07C78.6392 349.07 77.5289 349.044 76.4162 348.993C57.523 348.148 39.7358 339.846 26.9547 325.907C14.1735 311.967 7.44169 293.528 8.23521 274.633C8.55421 267.098 8.37621 260.375 8.20221 253.874C8.04021 247.753 7.87121 241.423 8.14921 234.818C8.97888 216.369 16.9151 198.956 30.2957 186.227C43.6764 173.497 61.4633 166.44 79.9312 166.531C109.587 98.679 177.34 51.138 256 51.138C334.66 51.138 402.414 98.679 432.07 166.532C450.54 166.427 468.333 173.479 481.716 186.208C495.099 198.937 503.032 216.355 503.85 234.807C504.129 241.422 503.961 247.751 503.797 253.872C503.625 260.374 503.446 267.1 503.765 274.64ZM381.805 243.188C381.798 262.461 377.364 281.476 368.846 298.765C360.327 316.053 347.952 331.155 332.674 342.904C317.396 354.654 299.623 362.737 280.727 366.531C261.831 370.326 242.316 369.729 223.686 364.788L172.765 394.195C170.196 395.679 167.244 396.367 164.284 396.173C161.323 395.98 158.486 394.912 156.133 393.106C153.779 391.3 152.013 388.836 151.06 386.027C150.106 383.217 150.007 380.188 150.775 377.322L163.789 328.774C142.237 305.479 130.246 274.924 130.2 243.188C130.2 173.8 186.631 117.354 256 117.354C325.369 117.354 381.805 173.8 381.805 243.188ZM221.025 243.188C221.025 239.21 219.445 235.394 216.632 232.581C213.819 229.768 210.003 228.188 206.025 228.188H206C203.035 228.194 200.137 229.078 197.674 230.73C195.211 232.381 193.293 234.726 192.162 237.467C191.031 240.208 190.738 243.224 191.32 246.131C191.902 249.039 193.333 251.709 195.432 253.804C197.53 255.899 200.203 257.325 203.112 257.902C206.021 258.478 209.036 258.18 211.775 257.043C214.514 255.907 216.855 253.985 218.502 251.519C220.149 249.053 221.028 246.154 221.028 243.188H221.025ZM271.003 243.188C271.002 242.697 270.975 242.206 270.923 241.718C270.876 241.228 270.803 240.74 270.704 240.258C270.615 239.777 270.494 239.303 270.343 238.838C270.204 238.368 270.034 237.908 269.854 237.448C269.674 236.988 269.454 236.558 269.224 236.128C268.996 235.696 268.745 235.275 268.474 234.868C268.201 234.457 267.907 234.06 267.593 233.678C267.285 233.296 266.955 232.932 266.604 232.588C266.264 232.238 265.894 231.908 265.514 231.588C265.133 231.288 264.733 230.988 264.323 230.718C263.917 230.447 263.496 230.196 263.064 229.968C262.633 229.738 262.184 229.528 261.733 229.338C261.283 229.149 260.823 228.986 260.354 228.848C259.419 228.548 258.453 228.353 257.474 228.268C256.005 228.127 254.523 228.197 253.074 228.478C252.592 228.576 252.115 228.7 251.645 228.848C251.176 228.986 250.716 229.149 250.265 229.338C249.815 229.528 249.365 229.738 248.935 229.968C248.505 230.198 248.085 230.448 247.674 230.718C246.853 231.263 246.09 231.889 245.395 232.588C245.044 232.932 244.713 233.296 244.404 233.678C244.095 234.06 243.805 234.457 243.535 234.868C243.26 235.275 243.007 235.695 242.775 236.128C242.544 236.556 242.337 236.997 242.154 237.448C241.964 237.903 241.797 238.367 241.654 238.838C241.515 239.298 241.395 239.778 241.295 240.258C241.196 240.741 241.123 241.228 241.074 241.718C241.025 242.208 241.004 242.698 241.004 243.188C241.004 243.678 241.025 244.178 241.074 244.668C241.123 245.155 241.197 245.639 241.295 246.118C241.395 246.598 241.515 247.078 241.654 247.548C241.798 248.016 241.964 248.477 242.154 248.928C242.337 249.382 242.544 249.826 242.775 250.258C243.004 250.688 243.265 251.108 243.535 251.518C243.805 251.926 244.095 252.32 244.404 252.698C244.716 253.081 245.047 253.448 245.395 253.798C245.745 254.138 246.105 254.478 246.495 254.788C246.871 255.1 247.265 255.391 247.674 255.658C248.085 255.928 248.504 256.188 248.935 256.418C249.804 256.871 250.711 257.245 251.645 257.538C252.114 257.678 252.594 257.798 253.074 257.898C254.038 258.095 255.02 258.192 256.004 258.188C259.978 258.177 263.787 256.6 266.604 253.798C267.295 253.096 267.921 252.333 268.474 251.518C268.744 251.108 268.994 250.688 269.224 250.258C269.454 249.828 269.664 249.378 269.854 248.928C270.044 248.478 270.204 248.008 270.343 247.548C270.493 247.079 270.613 246.602 270.704 246.118C270.802 245.639 270.875 245.155 270.923 244.668C270.974 244.176 271 243.681 271 243.186L271.003 243.188ZM321.003 243.188C321.003 239.21 319.423 235.394 316.61 232.581C313.797 229.768 309.981 228.188 306.003 228.188H305.974C303.009 228.194 300.112 229.078 297.649 230.73C295.186 232.382 293.268 234.726 292.137 237.468C291.006 240.209 290.713 243.224 291.295 246.132C291.877 249.04 293.308 251.71 295.407 253.805C297.506 255.9 300.179 257.325 303.087 257.902C305.996 258.478 309.011 258.18 311.75 257.043C314.489 255.907 316.83 253.985 318.477 251.519C320.124 249.052 321.003 246.153 321.003 243.188Z" fill="black"/>
</svg>
