<svg width="32" height="32" viewBox="0 0 32 32" fill="none" xmlns="http://www.w3.org/2000/svg">
<g clip-path="url(#clip0_986_181)">
<path d="M11.0781 22.2813V22.9844C11.0781 23.9218 11.6968 24.709 12.5442 24.9828C12.8278 26.6388 14.2643 28 15.9999 28C17.7355 28 19.172 26.6388 19.4556 24.9828C20.303 24.709 20.9218 23.9218 20.9218 22.9844V22.2813H11.0781ZM14.1879 4.18959C11.0142 4.85221 8.42971 7.42849 7.75678 10.6008C7.18481 13.3 7.8907 16.0095 9.69242 18.0351C10.4209 18.8548 10.8652 19.8441 11.011 20.875H20.9913C21.142 19.849 21.5994 18.8439 22.3486 17.989C23.6958 16.453 24.4843 14.481 24.4843 12.4375C24.4843 7.08532 19.5283 3.0653 14.1879 4.18959ZM20.9218 13.1407C20.5331 13.1407 20.2187 12.8262 20.2187 12.4376C20.2187 10.1112 18.3256 8.21885 15.9992 8.21885C15.6106 8.21885 15.2961 7.90436 15.2961 7.51573C15.2961 7.12709 15.6106 6.8126 15.9992 6.8126C19.1015 6.8126 21.6249 9.33601 21.6249 12.4376C21.6249 12.8262 21.3104 13.1407 20.9218 13.1407ZM6.10936 12.4376H4.70312C4.31448 12.4376 4 12.7521 4 13.1407C4 13.5293 4.31448 13.8438 4.70312 13.8438H6.10936C6.498 13.8438 6.81248 13.5293 6.81248 13.1407C6.81248 12.7521 6.498 12.4376 6.10936 12.4376ZM6.4005 8.92197L5.40624 7.92771C5.13156 7.65302 4.68662 7.65302 4.41198 7.92771C4.13734 8.20235 4.13734 8.64733 4.41198 8.92197L5.40624 9.91623C5.68088 10.1909 6.12586 10.1909 6.4005 9.91623C6.67514 9.64159 6.67514 9.19661 6.4005 8.92197ZM6.4005 16.3652C6.12586 16.0905 5.68088 16.0905 5.40624 16.3652L4.41198 17.3594C4.13734 17.6341 4.13734 18.079 4.41198 18.3537C4.68662 18.6283 5.1316 18.6283 5.40624 18.3537L6.4005 17.3594C6.67514 17.0848 6.67514 16.6398 6.4005 16.3652ZM27.2967 12.4376H25.8905C25.5019 12.4376 25.1874 12.7521 25.1874 13.1407C25.1874 13.5293 25.5019 13.8438 25.8905 13.8438H27.2967C27.6854 13.8438 27.9999 13.5293 27.9999 13.1407C27.9999 12.7521 27.6854 12.4376 27.2967 12.4376ZM27.5879 7.92771C27.3132 7.65307 26.8683 7.65307 26.5936 7.92771L25.5994 8.92197C25.3247 9.19661 25.3247 9.64159 25.5994 9.91623C25.874 10.1909 26.3189 10.1909 26.5936 9.91623L27.5879 8.92197C27.8625 8.64733 27.8625 8.20235 27.5879 7.92771ZM27.5879 17.3594L26.5936 16.3652C26.319 16.0905 25.874 16.0905 25.5994 16.3652C25.3247 16.6398 25.3247 17.0848 25.5994 17.3594L26.5936 18.3537C26.8683 18.6283 27.3132 18.6283 27.5879 18.3537C27.8625 18.079 27.8625 17.6341 27.5879 17.3594Z" fill="#2563EB"/>
</g>
<defs>
<clipPath id="clip0_986_181">
<rect width="24" height="24" fill="white" transform="translate(4 4)"/>
</clipPath>
</defs>
</svg>
