<svg xmlns="http://www.w3.org/2000/svg" width="1em" height="1em" viewBox="0 0 24 24"><path fill="#6366f1" d="M12.697 13.117A2.618 2.618 0 1 0 16.4 16.82a2.618 2.618 0 0 0-3.703-3.703m2.768 2.77a1.296 1.296 0 1 1-1.833-1.832a1.296 1.296 0 0 1 1.833 1.832M16.356.236L14.752 1.84a.81.81 0 0 0 0 1.144l6.263 6.263a.81.81 0 0 0 1.144 0l1.604-1.604a.81.81 0 0 0 0-1.144L17.498.235a.81.81 0 0 0-1.142 0M5.117 20.734a.733.733 0 0 0 0-1.034l-.815-.816a.733.733 0 0 0-1.035 0l-1.684 1.685l-.003.002l-.462-.463a.654.654 0 1 0-.925.925l2.775 2.775a.654.654 0 1 0 .925-.925l-.463-.462l.003-.002zm8.486-15.893l-3.564 3.564a.82.82 0 0 0 0 1.154l2.2 2.2a3.98 3.98 0 0 1 5.137.419l1.782-1.782a.82.82 0 0 0 0-1.154l-4.401-4.4a.815.815 0 0 0-1.154 0m-2.288 7.846l-1.3-1.3a.786.786 0 0 0-1.108 0l-4.583 4.586a.786.786 0 0 0 0 1.107l2.597 2.598a.786.786 0 0 0 1.108 0l2.947-2.953a3.99 3.99 0 0 1 .339-4.038"/></svg>