<svg width="512" height="512" viewBox="0 0 512 512" fill="none" xmlns="http://www.w3.org/2000/svg">
<path d="M438.72 247.36C426.357 234.811 411.607 224.863 395.339 218.103C379.072 211.343 361.616 207.908 344 208C338.646 207.961 333.296 208.335 328 209.12L323.2 208.16C320.862 207.682 318.446 207.734 316.131 208.311C313.815 208.888 311.658 209.976 309.817 211.494C307.976 213.013 306.498 214.924 305.492 217.088C304.485 219.252 303.975 221.614 304 224V368C304 372.243 305.686 376.313 308.686 379.314C311.687 382.314 315.756 384 320 384H435.68C446.855 383.958 457.558 379.489 465.445 371.572C473.332 363.655 477.76 352.935 477.76 341.76C477.806 324.227 474.38 306.858 467.68 290.656C460.979 274.454 451.137 259.739 438.72 247.36ZM208 208L186.24 209.28C180.213 208.286 174.106 207.858 168 208C150.428 207.979 133.025 211.424 116.787 218.139C100.549 224.853 85.7952 234.705 73.3703 247.13C60.9453 259.555 51.0934 274.309 44.3788 290.547C37.6642 306.785 34.2188 324.188 34.2398 341.76C34.2398 352.935 38.6681 363.655 46.555 371.572C54.442 379.489 65.1448 383.958 76.3198 384H208C212.243 384 216.313 382.314 219.314 379.314C222.314 376.313 224 372.243 224 368V224C224.013 221.818 223.58 219.656 222.727 217.647C221.874 215.638 220.619 213.826 219.04 212.32C215.999 209.599 212.08 208.065 208 208Z" fill="#1565C0"/>
<path d="M256 272C220.537 272.042 186.54 286.148 161.464 311.224C136.388 336.3 122.282 370.298 122.24 405.76C122.24 416.935 126.668 427.655 134.555 435.572C142.442 443.489 153.145 447.958 164.32 448H347.68C358.855 447.958 369.558 443.489 377.445 435.572C385.332 427.655 389.76 416.935 389.76 405.76C389.717 370.298 375.611 336.3 350.536 311.224C325.46 286.148 291.462 272.042 256 272Z" fill="#2196F3"/>
<path d="M168 64C144.661 64 122.278 73.2714 105.775 89.7746C89.2714 106.278 80 128.661 80 152C80 175.339 89.2714 197.722 105.775 214.225C122.278 230.729 144.661 240 168 240C174.792 240.01 181.56 239.204 188.16 237.6C191.821 236.71 195.051 234.557 197.28 231.52L252.64 155.36C255.172 152.143 256.375 148.077 256 144C253.893 122.115 243.714 101.799 227.445 87.0101C211.177 72.2209 189.986 64.0181 168 64Z" fill="#FFCC80"/>
<path d="M344 64C322.014 64.0181 300.823 72.2209 284.554 87.0101C268.286 101.799 258.107 122.115 256 144C255.696 147.822 256.775 151.626 259.04 154.72L314.4 230.88C316.629 233.917 319.859 236.07 323.52 236.96C330.197 238.806 337.075 239.827 344 240C367.339 240 389.722 230.729 406.225 214.225C422.728 197.722 432 175.339 432 152C432 128.661 422.728 106.278 406.225 89.7746C389.722 73.2714 367.339 64 344 64Z" fill="#FFCC80"/>
<path d="M256 304C304.601 304 344 264.601 344 216C344 167.399 304.601 128 256 128C207.399 128 168 167.399 168 216C168 264.601 207.399 304 256 304Z" fill="#FFE0B2"/>
</svg>
