<svg width="21" height="24" viewBox="0 0 21 24" fill="none" xmlns="http://www.w3.org/2000/svg">
<path fill-rule="evenodd" clip-rule="evenodd" d="M6.70238 17.268H13.3559C13.8573 17.268 14.2732 16.86 14.2732 16.368C14.2732 15.876 13.8573 15.48 13.3559 15.48H6.70238C6.20093 15.48 5.78509 15.876 5.78509 16.368C5.78509 16.86 6.20093 17.268 6.70238 17.268ZM10.8364 9.48H6.70238C6.20093 9.48 5.78509 9.888 5.78509 10.38C5.78509 10.872 6.20093 11.268 6.70238 11.268H10.8364C11.3378 11.268 11.7537 10.872 11.7537 10.38C11.7537 9.888 11.3378 9.48 10.8364 9.48ZM19.5647 8.43073C19.8522 8.4275 20.1652 8.424 20.4497 8.424C20.7554 8.424 21 8.664 21 8.964V18.612C21 21.588 18.5416 24 15.5085 24H5.77286C2.5929 24 0 21.468 0 18.348V5.412C0 2.436 2.47059 0 5.51602 0H12.0472C12.3652 0 12.6098 0.252 12.6098 0.552V4.416C12.6098 6.612 14.4566 8.412 16.6949 8.424C17.2177 8.424 17.6785 8.42779 18.0819 8.43112C18.3956 8.43371 18.6746 8.436 18.9208 8.436C19.0949 8.436 19.3206 8.43347 19.5647 8.43073ZM19.9019 6.6792C18.8965 6.6828 17.7114 6.6792 16.8589 6.6708C15.5063 6.6708 14.392 5.5776 14.392 4.2504V1.0872C14.392 0.57 15.0317 0.3132 15.3974 0.6864C16.0593 1.36171 16.969 2.29001 17.8746 3.21404C18.7776 4.13558 19.6765 5.05289 20.3215 5.7108C20.6786 6.0744 20.4168 6.678 19.9019 6.6792Z" fill="#FEFEFE"/>
</svg>
