<svg width="22" height="22" viewBox="0 0 22 22" fill="none" xmlns="http://www.w3.org/2000/svg">
<path d="M1.5 11C1.5 6.52166 1.5 4.28249 2.89124 2.89124C4.28249 1.5 6.52166 1.5 11 1.5C15.4783 1.5 17.7175 1.5 19.1088 2.89124C20.5 4.28249 20.5 6.52166 20.5 11C20.5 15.4783 20.5 17.7175 19.1088 19.1088C17.7175 20.5 15.4783 20.5 11 20.5C6.52166 20.5 4.28249 20.5 2.89124 19.1088C1.5 17.7175 1.5 15.4783 1.5 11Z" stroke="white" stroke-width="1.5"/>
<path d="M7 15.25C6.58579 15.25 6.25 15.5858 6.25 16C6.25 16.4142 6.58579 16.75 7 16.75L7 16L7 15.25ZM15 16.75C15.4142 16.75 15.75 16.4142 15.75 16C15.75 15.5858 15.4142 15.25 15 15.25V16V16.75ZM14.0391 11.3378C14.3271 11.0401 14.3191 10.5653 14.0214 10.2773C13.7236 9.98937 13.2488 9.99732 12.9609 10.2951L13.5 10.8165L14.0391 11.3378ZM12.3258 12.0306L12.865 12.552L12.865 12.552L12.3258 12.0306ZM9.67417 12.0306L9.13505 12.552L9.13505 12.552L9.67417 12.0306ZM9.03913 10.2951C8.75118 9.99732 8.27637 9.98937 7.97862 10.2773C7.68086 10.5653 7.67292 11.0401 7.96087 11.3378L8.5 10.8165L9.03913 10.2951ZM11.75 6C11.75 5.58579 11.4142 5.25 11 5.25C10.5858 5.25 10.25 5.58579 10.25 6L11 6L11.75 6ZM7 16L7 16.75L15 16.75V16V15.25L7 15.25L7 16ZM13.5 10.8165L12.9609 10.2951L11.7867 11.5092L12.3258 12.0306L12.865 12.552L14.0391 11.3378L13.5 10.8165ZM9.67417 12.0306L10.2133 11.5092L9.03913 10.2951L8.5 10.8165L7.96087 11.3378L9.13505 12.552L9.67417 12.0306ZM12.3258 12.0306L11.7867 11.5092C11.4593 11.8478 11.2654 12.0459 11.1096 12.1688C10.97 12.279 10.9564 12.25 11 12.25L11 13L11 13.75C11.4319 13.75 11.7687 13.5595 12.0387 13.3465C12.2925 13.1462 12.5674 12.8597 12.865 12.552L12.3258 12.0306ZM9.67417 12.0306L9.13505 12.552C9.43264 12.8597 9.7075 13.1462 9.9613 13.3465C10.2313 13.5595 10.5681 13.75 11 13.75L11 13L11 12.25C11.0436 12.25 11.03 12.279 10.8904 12.1688C10.7346 12.0459 10.5407 11.8478 10.2133 11.5092L9.67417 12.0306ZM11 13H11.75L11.75 6L11 6L10.25 6L10.25 13H11Z" fill="white"/>
</svg>
