<svg width="32" height="31" viewBox="0 0 32 31" fill="none" xmlns="http://www.w3.org/2000/svg">
<path d="M5.06006 27.7751C5.35321 27.783 5.64046 27.8639 5.89502 28.0095C6.06762 28.1089 6.21069 28.2524 6.30908 28.4255C6.40755 28.5988 6.4577 28.7956 6.45459 28.9949C6.44843 29.1949 6.38824 29.3895 6.28076 29.5583C6.1732 29.7273 6.02205 29.8646 5.84326 29.9548C5.5991 30.084 5.32649 30.1495 5.05029 30.1462C4.73889 30.1516 4.43135 30.0737 4.16064 29.9197C3.99222 29.8221 3.85206 29.6818 3.75439 29.5134C3.65676 29.3451 3.60416 29.1543 3.60303 28.9597V28.9246C3.60983 28.7246 3.67044 28.5299 3.77783 28.3611C3.88525 28.1924 4.03616 28.0554 4.21436 27.9646C4.47624 27.8328 4.76699 27.7674 5.06006 27.7751ZM7.84717 24.9685C8.23023 24.9786 8.6053 25.083 8.93799 25.2732C9.15933 25.3984 9.34171 25.5822 9.46533 25.8044C9.58899 26.0269 9.64876 26.2796 9.63818 26.5339C9.63319 26.7859 9.5599 27.0318 9.42529 27.2449C9.29048 27.4581 9.09925 27.6312 8.87354 27.7439C8.55194 27.9086 8.19481 27.993 7.8335 27.99C7.42568 27.9898 7.02535 27.8789 6.67529 27.6697C6.45641 27.5448 6.27545 27.3629 6.15186 27.1433C6.02825 26.9237 5.96626 26.6746 5.97314 26.4226C5.98004 26.1707 6.05549 25.9252 6.19092 25.7126C6.32638 25.5001 6.5172 25.3283 6.74268 25.2156C7.08478 25.0432 7.46422 24.9585 7.84717 24.9685ZM8.90869 3.33374C10.5087 0.66174 13.9877 -0.537628 17.1685 0.540771C18.6309 1.03381 19.9015 1.9737 20.8003 3.22827C21.6516 2.73466 22.5928 2.41546 23.5688 2.28979C24.5449 2.16413 25.5362 2.23494 26.4849 2.49683C27.4335 2.75872 28.3209 3.20656 29.0942 3.81519C29.8674 4.4237 30.5113 5.18048 30.9888 6.04077C31.4191 6.81448 31.6832 7.66988 31.7642 8.55151C31.8451 9.43307 31.7416 10.3218 31.4595 11.1609C31.198 11.928 30.7894 12.6373 30.2563 13.2478C30.1924 13.3309 30.1159 13.4144 30.0327 13.5007C29.941 13.5967 29.8449 13.6895 29.7446 13.7791C30.3742 14.6129 30.7924 15.587 30.9624 16.6179C31.1324 17.6491 31.049 18.7069 30.7202 19.699C29.5617 23.1579 25.6004 24.9593 21.9077 23.7019C21.4753 23.5558 21.0573 23.3694 20.6597 23.1453C19.5474 23.8314 18.2673 24.1973 16.9604 24.2039C15.3841 24.1781 13.8492 23.6957 12.5415 22.8152C11.6255 23.3776 10.5954 23.7302 9.52686 23.8464C8.45833 23.9626 7.37725 23.8394 6.36182 23.4871C4.60316 22.9103 3.13005 21.6864 2.24072 20.0632C1.80983 19.2898 1.54493 18.4351 1.46338 17.5535C1.38183 16.6718 1.48539 15.7825 1.76709 14.9431C1.86604 14.6585 1.9833 14.3803 2.11865 14.1111C1.26164 13.2601 0.65802 12.1876 0.375488 11.0134C0.092986 9.83919 0.142856 8.60933 0.519043 7.46167C1.64553 4.15959 5.34732 2.36761 8.90869 3.33374ZM15.856 17.3083C15.1842 17.3086 14.6567 17.86 14.6567 18.5242C14.6569 19.1882 15.1843 19.7388 15.856 19.739C16.5279 19.739 17.056 19.1883 17.0562 18.5242C17.0562 17.8599 16.528 17.3083 15.856 17.3083ZM15.856 5.99976C13.7282 5.99999 12.0006 7.74941 12.0005 9.90405C12.0005 10.5683 12.5447 11.1199 13.2007 11.1199C13.8565 11.1197 14.3999 10.5682 14.3999 9.90405C14.4 9.0942 15.0562 8.42968 15.856 8.42944C16.6559 8.42944 17.3119 9.09405 17.312 9.90405C17.312 10.3252 17.1204 10.6007 16.5288 11.0056C16.0168 11.3621 14.6567 12.2863 14.6567 14.1658V14.5056C14.6567 15.1698 15.2001 15.7202 15.856 15.7205C16.512 15.7205 17.0562 15.1699 17.0562 14.5056V14.1658C17.0562 13.7121 17.2486 13.4366 17.8726 13.0154C18.3686 12.6751 19.7124 11.7511 19.7124 9.90405C19.7123 7.74927 17.9839 5.99976 15.856 5.99976Z" fill="white"/>
</svg>
