<svg width="36" height="36" viewBox="0 0 36 36" fill="none" xmlns="http://www.w3.org/2000/svg">
<path d="M18.019 4.05286C10.2777 4.05286 4 10.3133 4 18.0371C4 24.2167 8.01702 29.4584 13.5866 31.3071C14.2869 31.4362 14.5447 31.0038 14.5447 30.6343C14.5447 30.3008 14.5312 29.1989 14.5255 28.0309C10.6256 28.8766 9.80262 26.381 9.80262 26.381C9.16539 24.7648 8.24557 24.3346 8.24557 24.3346C6.97336 23.4664 8.34127 23.4844 8.34127 23.4844C9.74857 23.5832 10.4905 24.9254 10.4905 24.9254C11.7413 27.0638 13.7701 26.445 14.5695 26.0878C14.6955 25.1837 15.0581 24.5671 15.46 24.2178C12.3459 23.864 9.07307 22.6645 9.07307 17.306C9.07307 15.7796 9.62023 14.5318 10.5175 13.5524C10.3723 13.2009 9.89268 11.779 10.6538 9.85278C10.6538 9.85278 11.8314 9.47652 14.5098 11.2859C15.6277 10.9759 16.8268 10.8209 18.019 10.8153C19.2102 10.8209 20.4103 10.9759 21.5306 11.2859C24.2067 9.47652 25.3821 9.85278 25.3821 9.85278C26.1454 11.779 25.6647 13.202 25.5194 13.5535C26.4179 14.5329 26.9616 15.7807 26.9616 17.3071C26.9616 22.678 23.6821 23.8618 20.5601 24.2077C21.0633 24.6412 21.5114 25.4926 21.5114 26.7977C21.5114 28.6688 21.4957 30.175 21.4957 30.6354C21.4957 31.0072 21.7479 31.4441 22.4583 31.306C28.0256 29.455 32.037 24.2144 32.037 18.0371C32.037 10.3133 25.7604 4.05286 18.019 4.05286Z" fill="white"/>
</svg>
