<svg width="26" height="27" viewBox="0 0 26 27" fill="none" xmlns="http://www.w3.org/2000/svg">
<path d="M8.65039 0.753906C9.28931 0.488715 9.72474 0.471633 10.0049 0.522461C10.2824 0.572894 10.4502 0.698265 10.5449 0.792969C10.6314 0.879461 10.7498 1.03961 10.7959 1.30371C10.8422 1.569 10.8235 1.98226 10.5605 2.58594L10.5596 2.58691C9.93145 4.03857 9.625 5.57343 9.625 7.15918V7.16211C9.6391 10.0125 10.7577 12.6469 12.5654 14.6641V14.665C14.6106 16.9607 17.548 18.4508 20.7949 18.5908V18.5918C21.5667 18.6285 22.335 18.5797 23.0898 18.4648L23.4131 18.4111C24.0891 18.2904 24.5118 18.3663 24.7666 18.4727C25.0183 18.5779 25.1434 18.7281 25.2021 18.8271L25.209 18.8389C25.2754 18.9444 25.3561 19.129 25.3398 19.4062C25.3234 19.6863 25.2055 20.1028 24.8027 20.6631C22.2576 24.1208 18.2208 26.1523 13.9121 26.1523C13.7171 26.1523 13.5195 26.1404 13.3037 26.127L13.292 26.126C12.0092 26.0747 10.7645 25.8309 9.58301 25.4199H9.58203C4.63948 23.7079 0.91582 19.1656 0.530273 13.8721H0.53125C0.145962 8.23402 3.39402 2.96541 8.65039 0.753906Z" fill="url(#paint0_linear_986_372)" stroke="url(#paint1_linear_986_372)"/>
<defs>
<linearGradient id="paint0_linear_986_372" x1="0" y1="13.3263" x2="25.8417" y2="13.3263" gradientUnits="userSpaceOnUse">
<stop offset="0.1875" stop-color="#6A76E3"/>
<stop offset="1" stop-color="#45A4F3"/>
</linearGradient>
<linearGradient id="paint1_linear_986_372" x1="0" y1="13.3263" x2="25.8417" y2="13.3263" gradientUnits="userSpaceOnUse">
<stop offset="0.1875" stop-color="#6A76E3"/>
<stop offset="1" stop-color="#45A4F3"/>
</linearGradient>
</defs>
</svg>
