<svg width="670" height="180" viewBox="0 0 670 180" fill="none" xmlns="http://www.w3.org/2000/svg">
<rect width="670" height="180" rx="8" fill="none"/>
<path d="M189.86 66.1382C192.894 66.1382 195.734 66.7084 198.378 67.8337C201.023 68.9666 203.338 70.5271 205.323 72.5153C207.308 74.5034 208.866 76.8217 209.997 79.47C211.129 82.1184 211.691 84.9618 211.691 88.0003C211.691 91.0388 211.121 93.7997 209.997 96.4481C208.866 99.0965 207.308 101.415 205.323 103.403C203.338 105.391 201.023 106.952 198.378 108.084C195.734 109.217 192.894 109.78 189.86 109.78C186.826 109.78 183.987 109.21 181.343 108.084C178.698 106.952 176.383 105.391 174.398 103.403C172.413 101.415 170.855 99.0965 169.723 96.4481C168.592 93.7997 168.03 90.9788 168.03 88.0003C168.03 85.0219 168.592 82.1184 169.723 79.47C170.855 76.8217 172.413 74.5034 174.398 72.5153C176.383 70.5271 178.698 68.9666 181.343 67.8337C183.987 66.7009 186.826 66.1382 189.86 66.1382ZM189.86 76.0714C186.549 76.0714 183.74 77.2268 181.425 79.5526C179.11 81.8708 177.949 84.6842 177.949 88.0003C177.949 91.3164 179.103 94.0473 181.425 96.3656C182.526 97.5284 183.807 98.3912 185.268 98.9764C186.729 99.5541 188.257 99.8467 189.86 99.8467C191.464 99.8467 192.977 99.5541 194.408 98.9764C195.839 98.3987 197.135 97.5284 198.296 96.3656C200.611 94.0473 201.764 91.2564 201.764 88.0003C201.764 84.7443 200.611 81.8708 198.296 79.5526C195.869 77.2343 193.059 76.0714 189.86 76.0714Z" fill="#000000"/>
<path d="M222.066 99.8391H238.075C239.671 99.8391 241.191 99.5465 242.622 98.9688C244.053 98.3911 245.349 97.5208 246.51 96.3579C248.825 94.0397 249.986 91.2488 249.986 87.9927C249.986 84.7366 248.825 81.8632 246.51 79.5449C244.083 77.2267 241.274 76.0638 238.075 76.0638C234.876 76.0638 231.954 77.2192 229.64 79.5449C227.325 81.8632 226.163 84.6766 226.163 87.9927V125.257H216.237V67.2034H226.163V70.512C227.759 69.2441 229.61 68.1937 231.707 67.3685C233.805 66.5432 236.202 66.123 238.899 66.123C241.933 66.123 244.727 66.6932 247.289 67.8186C249.852 68.9515 252.069 70.512 253.949 72.5001C255.822 74.4883 257.283 76.8065 258.332 79.4549C259.381 82.1033 259.905 84.9467 259.905 87.9852C259.905 91.0237 259.381 93.7846 258.332 96.433C257.283 99.0813 255.822 101.4 253.949 103.388C252.076 105.376 249.859 106.936 247.289 108.069C244.727 109.202 241.926 109.765 238.899 109.765H222.066V99.8241V99.8391Z" fill="#000000"/>
<path d="M295.871 92.9669H274.206C274.753 94.2349 275.554 95.3677 276.603 96.3656C277.757 97.5284 279.053 98.3912 280.491 98.9764C281.922 99.5541 283.435 99.8467 285.038 99.8467C287.301 99.8467 289.309 99.3215 291.077 98.2712L301.415 102.413C299.43 104.731 297.032 106.539 294.223 107.837C291.414 109.135 288.35 109.78 285.046 109.78C282.012 109.78 279.173 109.21 276.528 108.084C273.884 106.952 271.569 105.391 269.584 103.403C267.598 101.415 266.04 99.0965 264.909 96.4481C263.778 93.7997 263.216 90.9788 263.216 88.0003C263.216 85.0219 263.778 82.1184 264.909 79.47C266.04 76.8217 267.598 74.5034 269.584 72.5153C271.569 70.5271 273.884 68.9666 276.528 67.8337C279.173 66.7009 282.012 66.1382 285.046 66.1382C288.08 66.1382 290.919 66.7084 293.564 67.8337C296.208 68.9666 298.523 70.5271 300.508 72.5153C302.494 74.5034 304.052 76.8217 305.183 79.47C306.314 82.1184 306.876 84.9618 306.876 88.0003C306.876 89.7709 306.681 91.4214 306.299 92.9669H295.879H295.871ZM285.038 76.0714C281.84 76.0714 279.03 77.2268 276.603 79.5526C275.554 80.6029 274.753 81.7583 274.206 83.0337H295.871C295.317 81.7658 294.523 80.6029 293.474 79.5526C291.159 77.2343 288.35 76.0714 285.038 76.0714Z" fill="#000000"/>
<path d="M332.25 66.1382C334.947 66.1382 337.404 66.6484 339.607 67.6687C341.809 68.689 343.697 70.0995 345.271 71.8926C346.844 73.6856 348.057 75.7713 348.911 78.1421C349.765 80.5129 350.192 83.0562 350.192 85.7646V108.707H340.266V85.7646C340.266 83.0037 339.3 80.7154 337.375 78.8924C335.502 77.0167 333.239 76.0789 330.595 76.0789C327.95 76.0789 325.605 77.0167 323.733 78.8924C321.86 80.768 320.923 83.0637 320.923 85.7646V108.707H310.997V67.3011H320.923V70.4521C322.414 69.1842 324.092 68.1488 325.965 67.3461C327.838 66.5433 329.935 66.1457 332.25 66.1457V66.1382Z" fill="#000000"/>
<path d="M375.745 66.1382C378.779 66.1382 381.618 66.7084 384.263 67.8337C386.907 68.9666 389.222 70.5271 391.208 72.5153C393.193 74.5034 394.751 76.8217 395.882 79.47C397.013 82.1184 397.575 84.9618 397.575 88.0003C397.575 91.0388 397.006 93.7997 395.882 96.4481C394.751 99.0965 393.193 101.415 391.208 103.403C389.222 105.391 386.907 106.952 384.263 108.084C381.618 109.217 378.779 109.78 375.745 109.78C372.711 109.78 369.872 109.21 367.227 108.084C364.583 106.952 362.268 105.391 360.283 103.403C358.298 101.415 356.739 99.0965 355.608 96.4481C354.477 93.7997 353.915 90.9788 353.915 88.0003C353.915 85.0219 354.477 82.1184 355.608 79.47C356.739 76.8217 358.298 74.5034 360.283 72.5153C362.268 70.5271 364.583 68.9666 367.227 67.8337C369.872 66.7009 372.711 66.1382 375.745 66.1382ZM375.745 76.0714C372.434 76.0714 369.625 77.2268 367.31 79.5526C364.995 81.8708 363.834 84.6842 363.834 88.0003C363.834 91.3164 364.987 94.0473 367.31 96.3656C368.411 97.5284 369.692 98.3912 371.153 98.9764C372.614 99.5541 374.142 99.8467 375.745 99.8467C377.348 99.8467 378.862 99.5541 380.292 98.9764C381.723 98.3987 383.019 97.5284 384.181 96.3656C386.495 94.0473 387.649 91.2564 387.649 88.0003C387.649 84.7443 386.495 81.8708 384.181 79.5526C381.753 77.2343 378.944 76.0714 375.745 76.0714Z" fill="#000000"/>
<path d="M402.124 99.0964L423.954 99.1789C427.317 99.1789 430.127 98.016 432.389 95.6978C434.704 93.3795 435.865 90.5886 435.865 87.3326C435.865 84.0765 434.704 81.203 432.389 78.8848C430.074 76.5665 427.265 75.4037 423.954 75.4037C420.643 75.4037 417.946 76.5665 415.518 78.8848C413.204 81.203 412.042 84.0165 412.042 87.3326V108.039H402.116V49.9854H412.042V69.8593C413.638 68.5914 415.488 67.5411 417.586 66.7158C419.684 65.8905 422.081 65.4704 424.778 65.4704C427.812 65.4704 430.606 66.0406 433.168 67.166C435.73 68.2988 437.948 69.8593 439.828 71.8475C441.701 73.8356 443.162 76.1539 444.211 78.8023C445.26 81.4506 445.784 84.2941 445.784 87.3326C445.784 90.371 445.26 93.1319 444.211 95.7803C443.162 98.4287 441.701 100.747 439.828 102.735C437.955 104.723 435.738 106.284 433.168 107.417C430.606 108.549 427.804 109.112 424.778 109.112H402.124" fill="#000000"/>
<path d="M465.134 83.0257C465.793 83.1908 466.894 83.5809 468.445 84.1811C469.988 84.7888 471.576 85.6291 473.202 86.7095C474.828 87.7823 476.251 89.1252 477.457 90.7233C478.671 92.3213 479.278 94.2269 479.278 96.4401C479.278 98.3758 478.963 100.139 478.326 101.737C477.69 103.335 476.768 104.745 475.554 105.961C474.341 107.176 472.85 108.114 471.09 108.774C469.322 109.434 467.336 109.764 465.134 109.764C461.77 109.764 458.646 109.157 455.747 107.941C452.855 106.726 450.525 105.241 448.757 103.47L455.62 96.5977C457.051 98.3082 458.586 99.4111 460.212 99.9138C461.838 100.409 463.201 100.657 464.302 100.657C466.01 100.657 467.276 100.326 468.108 99.6662C468.932 99.006 469.352 98.2032 469.352 97.2654C469.352 96.6052 469.074 96.02 468.527 95.5248C467.973 95.0297 467.329 94.617 466.587 94.2794C465.846 93.9493 465.081 93.6867 464.31 93.4917C463.538 93.2966 462.901 93.1165 462.407 92.9515C461.748 92.7339 460.631 92.3438 459.058 91.7886C457.485 91.2409 455.889 90.4382 454.264 89.3878C452.638 88.3375 451.215 87.0171 450.001 85.4115C448.787 83.8135 448.181 81.8779 448.181 79.6121C448.181 77.3464 448.578 75.2907 449.379 73.6102C450.181 71.9296 451.237 70.5342 452.563 69.4313C453.889 68.3284 455.402 67.5107 457.11 66.9855C458.819 66.4603 460.587 66.1978 462.399 66.1978C465.209 66.1978 467.591 66.5279 469.554 67.1956C471.509 67.8558 473.12 68.576 474.393 69.3488C475.824 70.2866 477.038 71.3369 478.034 72.4923L471.09 79.4471C469.988 78.0141 468.775 76.9638 467.449 76.3036C466.123 75.6433 464.722 75.3057 463.231 75.3057C462.07 75.3057 460.931 75.5833 459.8 76.131C458.669 76.6862 458.107 77.564 458.107 78.7794C458.107 79.4396 458.354 80.0098 458.849 80.4749C459.343 80.9476 459.95 81.3302 460.669 81.6378C461.388 81.9379 462.145 82.208 462.939 82.4256C463.74 82.6506 464.467 82.8382 465.134 83.0032V83.0257Z" fill="#000000"/>
<path d="M513.926 92.9669H492.26C492.807 94.2349 493.609 95.3677 494.658 96.3656C495.811 97.5284 497.107 98.3912 498.546 98.9764C499.977 99.5541 501.49 99.8467 503.093 99.8467C505.356 99.8467 507.363 99.3215 509.131 98.2712L519.469 102.413C517.484 104.731 515.087 106.539 512.278 107.837C509.468 109.135 506.404 109.78 503.101 109.78C500.067 109.78 497.227 109.21 494.583 108.084C491.938 106.952 489.623 105.391 487.638 103.403C485.653 101.415 484.095 99.0965 482.964 96.4481C481.832 93.7997 481.271 90.9788 481.271 88.0003C481.271 85.0219 481.832 82.1184 482.964 79.47C484.095 76.8217 485.653 74.5034 487.638 72.5153C489.623 70.5271 491.938 68.9666 494.583 67.8337C497.227 66.7009 500.067 66.1382 503.101 66.1382C506.135 66.1382 508.974 66.7084 511.618 67.8337C514.263 68.9666 516.578 70.5271 518.563 72.5153C520.548 74.5034 522.106 76.8217 523.238 79.47C524.369 82.1184 524.931 84.9618 524.931 88.0003C524.931 89.7709 524.736 91.4214 524.354 92.9669H513.933H513.926ZM503.093 76.0714C499.894 76.0714 497.085 77.2268 494.658 79.5526C493.609 80.6029 492.807 81.7583 492.26 83.0337H513.926C513.371 81.7658 512.577 80.6029 511.529 79.5526C509.214 77.2343 506.404 76.0714 503.093 76.0714Z" fill="#000000"/>
<path d="M544.641 67.2937C546.596 66.4685 548.813 66.0483 551.3 66.0483V75.9891C547.989 75.9891 545.18 77.152 542.865 79.4702C540.55 81.901 539.389 84.7144 539.389 87.918V108.707H529.463V67.2187H539.389V70.4448C540.932 69.1769 542.685 68.1265 544.641 67.2937Z" fill="#000000"/>
<path d="M602.648 67.2935L583.462 108.699H572.547L553.361 67.2935H564.276L578.001 96.9431L591.725 67.2935H602.64H602.648Z" fill="#000000"/>
<path d="M632.995 92.9669H611.33C611.877 94.2349 612.678 95.3677 613.727 96.3656C614.888 97.5284 616.177 98.3912 617.615 98.9764C619.046 99.5541 620.567 99.8467 622.162 99.8467C624.425 99.8467 626.433 99.3215 628.201 98.2712L638.539 102.413C636.554 104.731 634.156 106.539 631.347 107.837C628.538 109.135 625.474 109.78 622.17 109.78C619.136 109.78 616.297 109.21 613.652 108.084C611.008 106.952 608.693 105.391 606.708 103.403C604.722 101.415 603.164 99.0965 602.033 96.4481C600.902 93.7997 600.34 90.9788 600.34 88.0003C600.34 85.0219 600.902 82.1184 602.033 79.47C603.164 76.8217 604.722 74.5034 606.708 72.5153C608.693 70.5271 611.008 68.9666 613.652 67.8337C616.297 66.7009 619.136 66.1382 622.17 66.1382C625.204 66.1382 628.043 66.7084 630.688 67.8337C633.332 68.9666 635.647 70.5271 637.632 72.5153C639.618 74.5034 641.176 76.8217 642.307 79.47C643.438 82.1184 644 84.9618 644 88.0003C644 89.7709 643.805 91.4214 643.423 92.9669H633.003H632.995ZM622.162 76.0714C618.964 76.0714 616.154 77.2268 613.727 79.5526C612.678 80.6029 611.877 81.7583 611.33 83.0337H632.995C632.441 81.7658 631.647 80.6029 630.598 79.5526C628.283 77.2343 625.474 76.0714 622.162 76.0714Z" fill="#000000"/>
<path d="M124.467 52.3337C120.909 58.0506 113.455 59.8437 107.702 56.4226C107.672 56.4076 107.642 56.3851 107.612 56.3701C107.514 56.31 107.417 56.25 107.319 56.19C89.9542 45.5515 67.2401 50.8708 56.3925 68.1489C59.7861 62.3945 57.9957 54.9446 52.2947 51.3884C46.5337 47.7873 38.9599 49.5278 35.334 55.2672C35.349 55.2372 35.3714 55.2147 35.3864 55.1847C53.4483 26.1952 91.505 17.3198 120.489 35.2957C120.504 35.2957 120.512 35.3107 120.527 35.3182C120.527 35.3182 120.534 35.3182 120.542 35.3257C126.31 38.9419 128.071 46.5569 124.467 52.3413V52.3337Z" fill="#6B76E3"/>
<path d="M51.3508 123.66C47.7549 129.429 49.4929 137.014 55.2239 140.645C55.1939 140.63 55.1714 140.608 55.1415 140.593C26.3143 122.579 17.3995 84.6846 35.0718 55.7101C35.1467 55.5826 35.2217 55.455 35.3041 55.3275C35.319 55.305 35.3265 55.2825 35.3415 55.26C38.9674 49.5206 46.5413 47.78 52.3022 51.3812C57.9957 54.9374 59.7937 62.3873 56.4 68.1417C56.4 68.1492 56.4 68.1567 56.385 68.1642C56.3701 68.1942 56.3476 68.2242 56.3326 68.2542C56.2727 68.3517 56.2127 68.4493 56.1528 68.5468C56.1528 68.5618 56.1378 68.5693 56.1303 68.5843C45.5449 85.9825 50.8638 108.707 68.1242 119.556C62.3782 116.135 54.9242 117.935 51.3658 123.645L51.3508 123.66Z" fill="#F45B49"/>
<path d="M140.514 120.681C140.484 120.726 140.462 120.771 140.432 120.816C122.445 149.685 84.6052 158.613 55.6732 140.915C55.5458 140.84 55.4185 140.765 55.2911 140.683C55.2687 140.668 55.2462 140.66 55.2237 140.645C49.4927 137.014 47.7547 129.429 51.3506 123.659C54.9091 117.95 62.3631 116.15 68.109 119.571C68.139 119.586 68.169 119.608 68.1989 119.623C68.2963 119.683 68.3937 119.743 68.4911 119.803C68.4911 119.803 68.5061 119.803 68.5061 119.818C85.8788 130.442 108.593 125.115 119.433 107.822C116.017 113.576 117.807 121.049 123.508 124.612C129.284 128.221 136.896 126.465 140.507 120.681H140.514Z" fill="#5ACA7A"/>
<path d="M140.537 120.629C140.537 120.629 140.522 120.651 140.514 120.666C140.514 120.666 140.514 120.674 140.507 120.681C136.896 126.458 129.292 128.221 123.509 124.613C117.808 121.049 116.017 113.584 119.433 107.822C119.448 107.792 119.471 107.762 119.486 107.732C119.546 107.634 119.606 107.537 119.666 107.439C130.289 90.0337 124.977 67.2788 107.694 56.4228C113.44 59.8439 120.902 58.0508 124.46 52.3339C128.064 46.5495 126.311 38.9345 120.535 35.3184C120.58 35.3484 120.625 35.3709 120.67 35.4009C149.617 53.4893 158.479 91.6018 140.529 120.629H140.537Z" fill="#45A4F3"/>
<path d="M92.6886 115.639L81.7735 80.678L75.1436 105.556L68.3188 91.4215C68.2065 91.1814 67.9592 91.0314 67.697 91.0314H54.4971C53.1561 91.0314 52.0399 89.9735 52.0099 88.6306C52.0099 88.6006 52.0099 88.5631 52.0099 88.5331C51.9949 87.1676 53.1336 86.0723 54.4971 86.0723H67.697C69.8621 86.0723 71.8323 87.3102 72.7763 89.2608L73.8026 91.384L81.3989 62.8672L92.6811 98.999L101.139 71.7876L106.75 84.9544C106.892 85.292 107.229 85.5171 107.597 85.5171H121.696C123.036 85.5171 124.16 86.5899 124.153 87.9329C124.153 87.9779 124.153 88.0229 124.153 88.0679C124.138 89.4034 123.029 90.4762 121.688 90.4762H106.645C104.862 90.4762 103.259 89.4109 102.555 87.7753L101.851 86.1323L92.6736 115.639H92.6886Z" fill="#000000"/>
</svg>
