<svg width="42" height="42" viewBox="0 0 42 42" fill="none" xmlns="http://www.w3.org/2000/svg">
<path d="M15.3764 22.2324C12.9534 22.2324 10.9822 24.2036 10.9822 26.6266V37.6074C10.9822 40.0304 12.9534 42.0016 15.3764 42.0016C17.7994 42.0017 19.7706 40.0305 19.7706 37.6075V26.6266C19.7706 24.2036 17.7994 22.2324 15.3764 22.2324Z" fill="#FF4340"/>
<path d="M8.51872 22.2324H4.26461C1.91886 22.2324 0.010498 24.1408 0.010498 26.4865C0.010498 28.8322 1.91894 30.7406 4.26461 30.7406C6.61028 30.7406 8.51872 28.8321 8.51872 26.4865V22.2324Z" fill="#FF4340"/>
<path d="M0 15.3756C0 17.7986 1.9712 19.7698 4.39422 19.7698H15.3751C17.7982 19.7698 19.7694 17.7986 19.7694 15.3756C19.7694 12.9526 17.7982 10.9814 15.3752 10.9814H4.39422C1.9712 10.9814 0 12.9526 0 15.3756Z" fill="#36C6FF"/>
<path d="M15.5166 8.5189H19.7707V4.26482C19.7707 1.91909 17.8622 0.0107422 15.5166 0.0107422C13.1708 0.0107422 11.2625 1.91917 11.2625 4.26482C11.2625 6.61047 13.1708 8.5189 15.5166 8.5189Z" fill="#36C6FF"/>
<path d="M26.6242 19.7692C29.0472 19.7692 31.0184 17.7981 31.0184 15.3751V4.39419C31.0185 1.97118 29.0472 0 26.6242 0C24.2012 0 22.23 1.97118 22.23 4.39419V15.375C22.23 17.7981 24.2012 19.7692 26.6242 19.7692Z" fill="#0DC46E"/>
<path d="M33.4792 19.7699H37.7334C40.0791 19.7699 41.9875 17.8614 41.9875 15.5158C41.9875 13.1701 40.079 11.2617 37.7334 11.2617C35.3877 11.2617 33.4792 13.1701 33.4792 15.5158V19.7699Z" fill="#0DC46E"/>
<path d="M41.9999 26.6207C41.9999 24.1977 40.0287 22.2266 37.6056 22.2266H26.6247C24.2017 22.2266 22.2305 24.1977 22.2305 26.6207C22.2305 29.0437 24.2017 31.0149 26.6247 31.0149H37.6056C40.0287 31.015 41.9999 29.0437 41.9999 26.6207Z" fill="#FDCB02"/>
<path d="M26.4846 33.4775H22.2305V37.7316C22.2305 40.0773 24.1389 41.9857 26.4846 41.9857C28.8303 41.9857 30.7387 40.0773 30.7387 37.7316C30.7387 35.386 28.8303 33.4775 26.4846 33.4775Z" fill="#FDCB02"/>
</svg>
