<svg width="32" height="32" viewBox="0 0 32 32" fill="none" xmlns="http://www.w3.org/2000/svg">
<path d="M16.0003 25.3333C21.155 25.3333 25.3337 21.1547 25.3337 16C25.3337 10.8453 21.155 6.66666 16.0003 6.66666C10.8457 6.66666 6.66699 10.8453 6.66699 16C6.66699 21.1547 10.8457 25.3333 16.0003 25.3333Z" fill="#FEFEFE"/>
<path d="M15.9997 30.6133C15.2663 30.6133 14.6663 30.0667 14.6663 29.3333V29.2267C14.6663 28.4933 15.2663 27.8933 15.9997 27.8933C16.733 27.8933 17.333 28.4933 17.333 29.2267C17.333 29.96 16.733 30.6133 15.9997 30.6133ZM25.5197 26.8533C25.173 26.8533 24.8397 26.72 24.573 26.4667L24.3997 26.2933C23.8797 25.7733 23.8797 24.9333 24.3997 24.4133C24.9197 23.8933 25.7597 23.8933 26.2797 24.4133L26.453 24.5867C26.973 25.1067 26.973 25.9467 26.453 26.4667C26.1997 26.72 25.8663 26.8533 25.5197 26.8533ZM6.47967 26.8533C6.13301 26.8533 5.79967 26.72 5.53301 26.4667C5.01301 25.9467 5.01301 25.1067 5.53301 24.5867L5.70634 24.4133C6.22634 23.8933 7.06634 23.8933 7.58634 24.4133C8.10634 24.9333 8.10634 25.7733 7.58634 26.2933L7.41301 26.4667C7.15967 26.72 6.81301 26.8533 6.47967 26.8533ZM29.333 17.3333H29.2263C28.493 17.3333 27.893 16.7333 27.893 16C27.893 15.2667 28.493 14.6667 29.2263 14.6667C29.9597 14.6667 30.613 15.2667 30.613 16C30.613 16.7333 30.0663 17.3333 29.333 17.3333ZM2.77301 17.3333H2.66634C1.93301 17.3333 1.33301 16.7333 1.33301 16C1.33301 15.2667 1.93301 14.6667 2.66634 14.6667C3.39967 14.6667 4.05301 15.2667 4.05301 16C4.05301 16.7333 3.50634 17.3333 2.77301 17.3333ZM25.3463 7.98667C24.9997 7.98667 24.6663 7.85334 24.3997 7.6C23.8797 7.08 23.8797 6.24 24.3997 5.72L24.573 5.54667C25.093 5.02667 25.933 5.02667 26.453 5.54667C26.973 6.06667 26.973 6.90667 26.453 7.42667L26.2797 7.6C26.0263 7.85334 25.693 7.98667 25.3463 7.98667ZM6.65301 7.98667C6.30634 7.98667 5.97301 7.85334 5.70634 7.6L5.53301 7.41334C5.01301 6.89334 5.01301 6.05334 5.53301 5.53334C6.05301 5.01334 6.89301 5.01334 7.41301 5.53334L7.58634 5.70667C8.10634 6.22667 8.10634 7.06667 7.58634 7.58667C7.33301 7.85334 6.98634 7.98667 6.65301 7.98667ZM15.9997 4.05334C15.2663 4.05334 14.6663 3.50667 14.6663 2.77334V2.66667C14.6663 1.93334 15.2663 1.33334 15.9997 1.33334C16.733 1.33334 17.333 1.93334 17.333 2.66667C17.333 3.4 16.733 4.05334 15.9997 4.05334Z" fill="#FEFEFE"/>
</svg>
