<svg width="512" height="512" viewBox="0 0 512 512" fill="none" xmlns="http://www.w3.org/2000/svg">
<path d="M401.066 256C401.066 294.474 385.783 331.373 358.577 358.578C331.372 385.783 294.474 401.067 256 401.067C231.716 401.129 207.815 395.022 186.538 383.318L126.464 400.555C124.379 401.164 122.169 401.201 120.066 400.663C117.962 400.124 116.041 399.03 114.506 397.494C112.97 395.959 111.876 394.038 111.337 391.935C110.799 389.831 110.836 387.621 111.445 385.536L128.597 325.376C118.029 305.969 112.034 284.403 111.071 262.325C110.108 240.248 114.201 218.242 123.038 197.988C131.876 177.733 145.224 159.765 162.064 145.456C178.903 131.146 198.79 120.873 220.205 115.42C241.62 109.967 263.998 109.479 285.631 113.993C307.264 118.507 327.579 127.903 345.027 141.465C362.474 155.027 376.593 172.396 386.305 192.245C396.017 212.095 401.066 233.902 401.066 256Z" fill="#F2BA1D"/>
<path d="M332.8 264.533H179.2C176.937 264.533 174.766 263.634 173.166 262.034C171.566 260.434 170.667 258.263 170.667 256C170.667 253.737 171.566 251.566 173.166 249.966C174.766 248.366 176.937 247.467 179.2 247.467H332.8C335.063 247.467 337.234 248.366 338.834 249.966C340.434 251.566 341.333 253.737 341.333 256C341.333 258.263 340.434 260.434 338.834 262.034C337.234 263.634 335.063 264.533 332.8 264.533ZM332.8 213.333H179.2C176.937 213.333 174.766 212.434 173.166 210.834C171.566 209.234 170.667 207.063 170.667 204.8C170.667 202.537 171.566 200.366 173.166 198.766C174.766 197.166 176.937 196.267 179.2 196.267H332.8C335.063 196.267 337.234 197.166 338.834 198.766C340.434 200.366 341.333 202.537 341.333 204.8C341.333 207.063 340.434 209.234 338.834 210.834C337.234 212.434 335.063 213.333 332.8 213.333ZM290.133 315.733H179.2C176.937 315.733 174.766 314.834 173.166 313.234C171.566 311.634 170.667 309.463 170.667 307.2C170.667 304.937 171.566 302.766 173.166 301.166C174.766 299.566 176.937 298.667 179.2 298.667H290.133C292.396 298.667 294.567 299.566 296.167 301.166C297.767 302.766 298.667 304.937 298.667 307.2C298.667 309.463 297.767 311.634 296.167 313.234C294.567 314.834 292.396 315.733 290.133 315.733Z" fill="#CE8D25"/>
<path d="M332.8 469.333H298.667V452.267H332.8C366.736 452.228 399.271 438.73 423.267 414.734C447.263 390.738 460.761 358.203 460.8 324.267V315.733H477.867V324.267C477.824 362.728 462.526 399.601 435.33 426.797C408.134 453.993 371.261 469.291 332.8 469.333ZM486.4 238.933H452.267L449.28 221.867C441.262 176.431 417.493 135.272 382.147 105.618C346.801 75.9636 302.138 59.7094 256 59.7094C209.862 59.7094 165.199 75.9636 129.853 105.618C94.5071 135.272 70.7382 176.431 62.7199 221.867L59.7332 238.933H25.5999L28.0745 221.867C36.2654 167.278 63.7765 117.441 105.605 81.4212C147.433 45.401 200.8 25.5894 256 25.5894C311.2 25.5894 364.567 45.401 406.395 81.4212C448.223 117.441 475.734 167.278 483.925 221.867L486.4 238.933Z" fill="#1D3A6D"/>
<path d="M25.5999 221.867H68.2665C70.5297 221.867 72.7002 222.766 74.3005 224.366C75.9008 225.966 76.7999 228.137 76.7999 230.4V315.733C76.7999 317.997 75.9008 320.167 74.3005 321.767C72.7002 323.368 70.5297 324.267 68.2665 324.267H25.5999C21.0735 324.267 16.7325 322.469 13.5319 319.268C10.3313 316.067 8.5332 311.726 8.5332 307.2V238.933C8.5332 234.407 10.3313 230.066 13.5319 226.865C16.7325 223.665 21.0735 221.867 25.5999 221.867ZM486.4 324.267H443.733C441.47 324.267 439.3 323.368 437.699 321.767C436.099 320.167 435.2 317.997 435.2 315.733V230.4C435.2 228.137 436.099 225.966 437.699 224.366C439.3 222.766 441.47 221.867 443.733 221.867H486.4C490.926 221.867 495.267 223.665 498.468 226.865C501.668 230.066 503.467 234.407 503.467 238.933V307.2C503.467 311.726 501.668 316.067 498.468 319.268C495.267 322.469 490.926 324.267 486.4 324.267Z" fill="#274589"/>
<path d="M281.6 435.2H230.4C216.261 435.2 204.8 446.662 204.8 460.8C204.8 474.939 216.261 486.4 230.4 486.4H281.6C295.738 486.4 307.2 474.939 307.2 460.8C307.2 446.662 295.738 435.2 281.6 435.2Z" fill="#101A2D"/>
</svg>
